G04*
G04 #@! TF.GenerationSoftware,Altium Limited,Altium Designer,21.0.9 (235)*
G04*
G04 Layer_Color=65535*
%FSLAX25Y25*%
%MOIN*%
G70*
G04*
G04 #@! TF.SameCoordinates,D00D0935-9F2D-4F80-BADC-0BB803B56EC7*
G04*
G04*
G04 #@! TF.FilePolarity,Positive*
G04*
G01*
G75*
%ADD10C,0.00394*%
%ADD11C,0.00591*%
G36*
X54618Y215346D02*
X54659D01*
Y215333D01*
X54700D01*
Y215319D01*
X54741D01*
Y215305D01*
X54782D01*
Y215291D01*
X54823D01*
Y215278D01*
X54837D01*
Y215264D01*
X54851D01*
Y215278D01*
X54865D01*
Y215264D01*
X54878D01*
Y215250D01*
X54892D01*
Y215237D01*
X54905D01*
Y215250D01*
X54919D01*
Y215237D01*
X54933D01*
Y215223D01*
X54947D01*
Y215209D01*
X54960D01*
Y215223D01*
X54974D01*
Y215209D01*
X54988D01*
Y215196D01*
X55001D01*
Y215182D01*
X55015D01*
Y215196D01*
X55029D01*
Y215182D01*
X55042D01*
Y215168D01*
X55056D01*
Y215155D01*
X55070D01*
Y215168D01*
X55083D01*
Y215141D01*
X55111D01*
Y215127D01*
X55124D01*
Y215113D01*
X55138D01*
Y215100D01*
X55179D01*
Y215086D01*
X55193D01*
Y215072D01*
X55207D01*
Y215059D01*
X55220D01*
Y215045D01*
X55248D01*
Y215031D01*
X55275D01*
Y215004D01*
X55302D01*
Y214990D01*
X55316D01*
Y214977D01*
X55330D01*
Y214963D01*
X55343D01*
Y214949D01*
X55357D01*
Y214936D01*
X55371D01*
Y214922D01*
X55384D01*
Y214908D01*
X55398D01*
Y214895D01*
X55412D01*
Y214881D01*
X55426D01*
Y214867D01*
X55439D01*
Y214854D01*
X55453D01*
Y214840D01*
X55467D01*
Y214826D01*
X55480D01*
Y214812D01*
X55494D01*
Y214799D01*
X55508D01*
Y214785D01*
X55521D01*
Y214772D01*
X55535D01*
Y214758D01*
X55549D01*
Y214744D01*
X55562D01*
Y214730D01*
X55576D01*
Y214689D01*
X55603D01*
Y214662D01*
X55617D01*
Y214648D01*
X55631D01*
Y214635D01*
X55644D01*
Y214621D01*
X55658D01*
Y214580D01*
X55672D01*
Y214566D01*
X55686D01*
Y214552D01*
X55699D01*
Y214539D01*
X55713D01*
Y214498D01*
X55726D01*
Y214484D01*
X55740D01*
Y214470D01*
X55754D01*
Y214429D01*
X55768D01*
Y214416D01*
X55781D01*
Y214402D01*
X55795D01*
Y214361D01*
X55809D01*
Y214347D01*
X55822D01*
Y214306D01*
X55836D01*
Y214293D01*
X55850D01*
Y214251D01*
X55863D01*
Y214238D01*
X55877D01*
Y214197D01*
X55891D01*
Y214183D01*
X55904D01*
Y214142D01*
X55918D01*
Y214128D01*
X55904D01*
Y214115D01*
X55918D01*
Y214101D01*
X55932D01*
Y214074D01*
X55945D01*
Y214046D01*
X55959D01*
Y214005D01*
X55973D01*
Y213992D01*
X55986D01*
Y213950D01*
X56000D01*
Y213937D01*
X55986D01*
Y213923D01*
X56000D01*
Y213910D01*
X56014D01*
Y213868D01*
X56028D01*
Y213855D01*
X56014D01*
Y213841D01*
X56028D01*
Y213827D01*
X56041D01*
Y213786D01*
X56055D01*
Y213773D01*
X56041D01*
Y213759D01*
X56055D01*
Y213745D01*
X56069D01*
Y213704D01*
X56082D01*
Y213690D01*
X56069D01*
Y213677D01*
X56082D01*
Y213663D01*
X56096D01*
Y213595D01*
X56110D01*
Y213581D01*
X56123D01*
Y213567D01*
X56110D01*
Y213554D01*
X56123D01*
Y213513D01*
X56137D01*
Y213472D01*
X56151D01*
Y213458D01*
X56137D01*
Y213444D01*
X56151D01*
Y213403D01*
X56164D01*
Y213362D01*
X56178D01*
Y213294D01*
X56192D01*
Y213253D01*
X56205D01*
Y213184D01*
X56219D01*
Y213143D01*
X56233D01*
Y202854D01*
X52388D01*
Y215360D01*
X52402D01*
Y215346D01*
X52415D01*
Y215360D01*
X52429D01*
Y215346D01*
X52443D01*
Y215360D01*
X52456D01*
Y215346D01*
X52470D01*
Y215360D01*
X52484D01*
Y215346D01*
X52497D01*
Y215360D01*
X52511D01*
Y215346D01*
X52525D01*
Y215360D01*
X52538D01*
Y215346D01*
X52552D01*
Y215360D01*
X52566D01*
Y215346D01*
X52579D01*
Y215360D01*
X52593D01*
Y215346D01*
X52607D01*
Y215360D01*
X52621D01*
Y215346D01*
X52634D01*
Y215360D01*
X52648D01*
Y215346D01*
X52662D01*
Y215360D01*
X52675D01*
Y215346D01*
X52689D01*
Y215360D01*
X52703D01*
Y215346D01*
X52716D01*
Y215360D01*
X52730D01*
Y215346D01*
X52744D01*
Y215360D01*
X52757D01*
Y215346D01*
X52771D01*
Y215360D01*
X52785D01*
Y215346D01*
X52798D01*
Y215360D01*
X52812D01*
Y215346D01*
X52826D01*
Y215360D01*
X52839D01*
Y215346D01*
X52853D01*
Y215360D01*
X52867D01*
Y215346D01*
X52881D01*
Y215360D01*
X52894D01*
Y215346D01*
X52908D01*
Y215360D01*
X52922D01*
Y215346D01*
X52935D01*
Y215360D01*
X52949D01*
Y215346D01*
X52963D01*
Y215360D01*
X52976D01*
Y215346D01*
X52990D01*
Y215360D01*
X53004D01*
Y215346D01*
X53017D01*
Y215360D01*
X53031D01*
Y215346D01*
X53045D01*
Y215360D01*
X53058D01*
Y215346D01*
X53072D01*
Y215360D01*
X53086D01*
Y215346D01*
X53099D01*
Y215360D01*
X53113D01*
Y215346D01*
X53127D01*
Y215360D01*
X53140D01*
Y215346D01*
X53154D01*
Y215360D01*
X53168D01*
Y215346D01*
X53181D01*
Y215360D01*
X53195D01*
Y215346D01*
X53209D01*
Y215360D01*
X53223D01*
Y215346D01*
X53236D01*
Y215360D01*
X53250D01*
Y215346D01*
X53264D01*
Y215360D01*
X53277D01*
Y215346D01*
X53291D01*
Y215360D01*
X53305D01*
Y215346D01*
X53318D01*
Y215360D01*
X53332D01*
Y215346D01*
X53346D01*
Y215360D01*
X53359D01*
Y215346D01*
X53373D01*
Y215360D01*
X53387D01*
Y215346D01*
X53400D01*
Y215360D01*
X53414D01*
Y215346D01*
X53428D01*
Y215360D01*
X53442D01*
Y215346D01*
X53455D01*
Y215360D01*
X53469D01*
Y215346D01*
X53483D01*
Y215360D01*
X53496D01*
Y215346D01*
X53510D01*
Y215360D01*
X53524D01*
Y215346D01*
X53537D01*
Y215360D01*
X53551D01*
Y215346D01*
X53565D01*
Y215360D01*
X53578D01*
Y215346D01*
X53592D01*
Y215360D01*
X53606D01*
Y215346D01*
X53619D01*
Y215360D01*
X53633D01*
Y215346D01*
X53647D01*
Y215360D01*
X53660D01*
Y215346D01*
X53674D01*
Y215360D01*
X53688D01*
Y215346D01*
X53702D01*
Y215360D01*
X53715D01*
Y215346D01*
X53729D01*
Y215360D01*
X53742D01*
Y215346D01*
X53756D01*
Y215360D01*
X53770D01*
Y215346D01*
X53784D01*
Y215360D01*
X53797D01*
Y215346D01*
X53811D01*
Y215360D01*
X53825D01*
Y215346D01*
X53838D01*
Y215360D01*
X53852D01*
Y215346D01*
X53866D01*
Y215360D01*
X53879D01*
Y215346D01*
X53893D01*
Y215360D01*
X53907D01*
Y215346D01*
X53920D01*
Y215360D01*
X53934D01*
Y215346D01*
X53948D01*
Y215360D01*
X53961D01*
Y215346D01*
X53975D01*
Y215360D01*
X53989D01*
Y215346D01*
X54002D01*
Y215360D01*
X54016D01*
Y215346D01*
X54030D01*
Y215360D01*
X54044D01*
Y215346D01*
X54057D01*
Y215360D01*
X54071D01*
Y215346D01*
X54085D01*
Y215360D01*
X54098D01*
Y215346D01*
X54112D01*
Y215360D01*
X54126D01*
Y215346D01*
X54139D01*
Y215360D01*
X54153D01*
Y215346D01*
X54167D01*
Y215360D01*
X54180D01*
Y215346D01*
X54194D01*
Y215360D01*
X54208D01*
Y215346D01*
X54221D01*
Y215360D01*
X54235D01*
Y215346D01*
X54249D01*
Y215360D01*
X54263D01*
Y215346D01*
X54276D01*
Y215360D01*
X54290D01*
Y215346D01*
X54303D01*
Y215360D01*
X54317D01*
Y215346D01*
X54331D01*
Y215360D01*
X54345D01*
Y215346D01*
X54358D01*
Y215360D01*
X54372D01*
Y215346D01*
X54386D01*
Y215360D01*
X54399D01*
Y215346D01*
X54413D01*
Y215360D01*
X54427D01*
Y215346D01*
X54440D01*
Y215360D01*
X54454D01*
Y215346D01*
X54468D01*
Y215360D01*
X54481D01*
Y215346D01*
X54495D01*
Y215360D01*
X54509D01*
Y215346D01*
X54522D01*
Y215360D01*
X54536D01*
Y215346D01*
X54550D01*
Y215360D01*
X54563D01*
Y215346D01*
X54577D01*
Y215360D01*
X54591D01*
Y215346D01*
X54605D01*
Y215360D01*
X54618D01*
Y215346D01*
D02*
G37*
G36*
X51416D02*
X51430D01*
Y215333D01*
X51416D01*
Y215319D01*
X51430D01*
Y215305D01*
X51416D01*
Y215291D01*
X51430D01*
Y215278D01*
X51416D01*
Y215264D01*
X51430D01*
Y215250D01*
X51416D01*
Y215237D01*
X51430D01*
Y215223D01*
X51416D01*
Y215209D01*
X51430D01*
Y215196D01*
X51416D01*
Y215182D01*
X51430D01*
Y215168D01*
X51416D01*
Y215155D01*
X51430D01*
Y215141D01*
X51416D01*
Y215127D01*
X51430D01*
Y215113D01*
X51416D01*
Y215100D01*
X51430D01*
Y215086D01*
X51416D01*
Y215072D01*
X51430D01*
Y215059D01*
X51416D01*
Y215045D01*
X51430D01*
Y215031D01*
X51416D01*
Y215018D01*
X51430D01*
Y215004D01*
X51416D01*
Y214990D01*
X51430D01*
Y214977D01*
X51416D01*
Y214963D01*
X51430D01*
Y214949D01*
X51416D01*
Y214936D01*
X51430D01*
Y214922D01*
X51416D01*
Y214908D01*
X51430D01*
Y214895D01*
X51416D01*
Y214881D01*
X51430D01*
Y214867D01*
X51416D01*
Y214854D01*
X51430D01*
Y214840D01*
X51416D01*
Y214826D01*
X51430D01*
Y214812D01*
X51416D01*
Y214799D01*
X51430D01*
Y214785D01*
X51416D01*
Y214772D01*
X51430D01*
Y214758D01*
X51416D01*
Y214744D01*
X51430D01*
Y214730D01*
X51416D01*
Y214717D01*
X51430D01*
Y214703D01*
X51416D01*
Y214689D01*
X51430D01*
Y214676D01*
X51416D01*
Y214662D01*
X51430D01*
Y214648D01*
X51416D01*
Y214635D01*
X51430D01*
Y214621D01*
X51416D01*
Y214607D01*
X51430D01*
Y214594D01*
X51416D01*
Y214580D01*
X51430D01*
Y214566D01*
X51416D01*
Y214552D01*
X51430D01*
Y214539D01*
X51416D01*
Y214525D01*
X51430D01*
Y214511D01*
X51416D01*
Y214498D01*
X51430D01*
Y214484D01*
X51416D01*
Y214470D01*
X51430D01*
Y214457D01*
X51416D01*
Y214443D01*
X51430D01*
Y214429D01*
X51416D01*
Y214416D01*
X51430D01*
Y214402D01*
X51416D01*
Y214388D01*
X51430D01*
Y214375D01*
X51416D01*
Y214361D01*
X51430D01*
Y214347D01*
X51416D01*
Y214334D01*
X51430D01*
Y214320D01*
X51416D01*
Y214306D01*
X51430D01*
Y214293D01*
X51416D01*
Y214279D01*
X51430D01*
Y214265D01*
X51416D01*
Y214251D01*
X51430D01*
Y214238D01*
X51416D01*
Y214224D01*
X51430D01*
Y214211D01*
X51416D01*
Y214197D01*
X51430D01*
Y214183D01*
X51416D01*
Y214169D01*
X51430D01*
Y214156D01*
X51416D01*
Y214142D01*
X51430D01*
Y214128D01*
X51416D01*
Y214115D01*
X51430D01*
Y214101D01*
X51416D01*
Y214087D01*
X51430D01*
Y214074D01*
X51416D01*
Y214060D01*
X51430D01*
Y214046D01*
X51416D01*
Y214033D01*
X51430D01*
Y214019D01*
X51416D01*
Y214005D01*
X51430D01*
Y213992D01*
X51416D01*
Y213978D01*
X51430D01*
Y213964D01*
X51416D01*
Y213950D01*
X51430D01*
Y213937D01*
X51416D01*
Y213923D01*
X51430D01*
Y213910D01*
X51416D01*
Y213896D01*
X51430D01*
Y213882D01*
X51416D01*
Y213868D01*
X51430D01*
Y213855D01*
X51416D01*
Y213841D01*
X51430D01*
Y213827D01*
X51416D01*
Y213814D01*
X51430D01*
Y213800D01*
X51416D01*
Y213786D01*
X51430D01*
Y213773D01*
X51416D01*
Y213759D01*
X51430D01*
Y213745D01*
X51416D01*
Y213732D01*
X51430D01*
Y213718D01*
X51416D01*
Y213704D01*
X51430D01*
Y213690D01*
X51416D01*
Y213677D01*
X51430D01*
Y213663D01*
X51416D01*
Y213650D01*
X51430D01*
Y213636D01*
X51416D01*
Y213622D01*
X51430D01*
Y213608D01*
X51416D01*
Y213595D01*
X51430D01*
Y213581D01*
X51416D01*
Y213567D01*
X51430D01*
Y213554D01*
X51416D01*
Y213540D01*
X51430D01*
Y213526D01*
X51416D01*
Y213513D01*
X51430D01*
Y213499D01*
X51416D01*
Y213485D01*
X51430D01*
Y213472D01*
X51416D01*
Y213458D01*
X51430D01*
Y213444D01*
X51416D01*
Y213431D01*
X51430D01*
Y213417D01*
X51416D01*
Y213403D01*
X51430D01*
Y213389D01*
X51416D01*
Y213376D01*
X51430D01*
Y213362D01*
X51416D01*
Y213349D01*
X51430D01*
Y213335D01*
X51416D01*
Y213321D01*
X51430D01*
Y213307D01*
X51416D01*
Y213294D01*
X51430D01*
Y213280D01*
X51416D01*
Y213266D01*
X51430D01*
Y213253D01*
X51416D01*
Y213239D01*
X51430D01*
Y213225D01*
X51416D01*
Y213212D01*
X51430D01*
Y213198D01*
X51416D01*
Y213184D01*
X51430D01*
Y213171D01*
X51416D01*
Y213157D01*
X51430D01*
Y213143D01*
X51416D01*
Y213129D01*
X51430D01*
Y213116D01*
X51416D01*
Y213102D01*
X51430D01*
Y213088D01*
X51416D01*
Y213075D01*
X51430D01*
Y213061D01*
X51416D01*
Y213047D01*
X51430D01*
Y213034D01*
X51416D01*
Y213020D01*
X51430D01*
Y213006D01*
X51416D01*
Y212993D01*
X51430D01*
Y212979D01*
X51416D01*
Y212965D01*
X51430D01*
Y212952D01*
X51416D01*
Y212938D01*
X51430D01*
Y212924D01*
X51416D01*
Y212911D01*
X51430D01*
Y212897D01*
X51416D01*
Y212883D01*
X51430D01*
Y212870D01*
X51416D01*
Y212856D01*
X51430D01*
Y212842D01*
X51416D01*
Y212828D01*
X51430D01*
Y212815D01*
X51416D01*
Y212801D01*
X51430D01*
Y212788D01*
X51416D01*
Y212774D01*
X51430D01*
Y212760D01*
X51416D01*
Y212746D01*
X51430D01*
Y212733D01*
X51416D01*
Y212719D01*
X51430D01*
Y212705D01*
X51416D01*
Y212692D01*
X51430D01*
Y212678D01*
X51416D01*
Y212664D01*
X51430D01*
Y212651D01*
X51416D01*
Y212637D01*
X51430D01*
Y212623D01*
X51416D01*
Y212610D01*
X51430D01*
Y212596D01*
X51416D01*
Y212582D01*
X51430D01*
Y212569D01*
X51416D01*
Y212555D01*
X51430D01*
Y212541D01*
X51416D01*
Y212527D01*
X51430D01*
Y212514D01*
X51416D01*
Y212500D01*
X51430D01*
Y212487D01*
X51416D01*
Y212473D01*
X51430D01*
Y212459D01*
X51416D01*
Y212445D01*
X51430D01*
Y212432D01*
X51416D01*
Y212418D01*
X51430D01*
Y212404D01*
X51416D01*
Y212391D01*
X51430D01*
Y212377D01*
X51416D01*
Y212363D01*
X51430D01*
Y212350D01*
X51416D01*
Y212336D01*
X51430D01*
Y212322D01*
X51416D01*
Y212309D01*
X51430D01*
Y212295D01*
X51416D01*
Y212281D01*
X51430D01*
Y212267D01*
X51416D01*
Y212254D01*
X51430D01*
Y212240D01*
X51416D01*
Y212227D01*
X51430D01*
Y212213D01*
X51416D01*
Y212199D01*
X51430D01*
Y212185D01*
X51416D01*
Y212172D01*
X51430D01*
Y212158D01*
X51416D01*
Y212144D01*
X51430D01*
Y212131D01*
X51416D01*
Y212117D01*
X51430D01*
Y212103D01*
X51416D01*
Y212090D01*
X51430D01*
Y212076D01*
X51416D01*
Y212062D01*
X51430D01*
Y212049D01*
X51416D01*
Y212035D01*
X51430D01*
Y212021D01*
X51416D01*
Y212008D01*
X51430D01*
Y211994D01*
X51416D01*
Y211980D01*
X51430D01*
Y211966D01*
X51416D01*
Y211953D01*
X51430D01*
Y211939D01*
X51416D01*
Y211926D01*
X51430D01*
Y211912D01*
X51416D01*
Y211898D01*
X51430D01*
Y211884D01*
X51416D01*
Y211871D01*
X51430D01*
Y211857D01*
X51416D01*
Y211843D01*
X51430D01*
Y211830D01*
X51416D01*
Y211816D01*
X51430D01*
Y211802D01*
X51416D01*
Y211789D01*
X51430D01*
Y211775D01*
X51416D01*
Y211761D01*
X51430D01*
Y211748D01*
X51416D01*
Y211734D01*
X51430D01*
Y211720D01*
X51416D01*
Y211706D01*
X51430D01*
Y211693D01*
X51416D01*
Y211679D01*
X51430D01*
Y211666D01*
X51416D01*
Y211652D01*
X51430D01*
Y211638D01*
X51416D01*
Y211624D01*
X51430D01*
Y211611D01*
X51416D01*
Y211597D01*
X51430D01*
Y211583D01*
X51416D01*
Y211570D01*
X51430D01*
Y211556D01*
X51416D01*
Y211542D01*
X51430D01*
Y211529D01*
X51416D01*
Y211515D01*
X51430D01*
Y211501D01*
X51416D01*
Y211488D01*
X51430D01*
Y211474D01*
X51416D01*
Y211460D01*
X51430D01*
Y211447D01*
X51416D01*
Y211433D01*
X51430D01*
Y211419D01*
X51416D01*
Y211405D01*
X51430D01*
Y211392D01*
X51416D01*
Y211378D01*
X51430D01*
Y211365D01*
X51416D01*
Y211351D01*
X51430D01*
Y211337D01*
X51416D01*
Y211323D01*
X51430D01*
Y211310D01*
X51416D01*
Y211296D01*
X51430D01*
Y211282D01*
X51416D01*
Y211269D01*
X51430D01*
Y211255D01*
X51416D01*
Y211241D01*
X51430D01*
Y211228D01*
X51416D01*
Y211214D01*
X51430D01*
Y211200D01*
X51416D01*
Y211187D01*
X51430D01*
Y211173D01*
X51416D01*
Y211159D01*
X51430D01*
Y211146D01*
X51416D01*
Y211132D01*
X51430D01*
Y211118D01*
X51416D01*
Y211104D01*
X51430D01*
Y211091D01*
X51416D01*
Y211077D01*
X51430D01*
Y211064D01*
X51416D01*
Y211050D01*
X51430D01*
Y211036D01*
X51416D01*
Y211022D01*
X51430D01*
Y211009D01*
X51416D01*
Y210995D01*
X51430D01*
Y210981D01*
X51416D01*
Y210968D01*
X51430D01*
Y210954D01*
X51416D01*
Y210940D01*
X51430D01*
Y210927D01*
X51416D01*
Y210913D01*
X51430D01*
Y210899D01*
X51416D01*
Y210886D01*
X51430D01*
Y210872D01*
X51416D01*
Y210858D01*
X51430D01*
Y210844D01*
X51416D01*
Y210831D01*
X51430D01*
Y210817D01*
X51416D01*
Y210804D01*
X51430D01*
Y210790D01*
X51416D01*
Y210776D01*
X51430D01*
Y210762D01*
X51416D01*
Y210749D01*
X51430D01*
Y210735D01*
X51416D01*
Y210721D01*
X51430D01*
Y210708D01*
X51416D01*
Y210694D01*
X51430D01*
Y210680D01*
X51416D01*
Y210667D01*
X51430D01*
Y210653D01*
X51416D01*
Y210639D01*
X51430D01*
Y210626D01*
X51416D01*
Y210612D01*
X51430D01*
Y210598D01*
X51416D01*
Y210585D01*
X51430D01*
Y210571D01*
X51416D01*
Y210557D01*
X51430D01*
Y210543D01*
X51416D01*
Y210530D01*
X51430D01*
Y210516D01*
X51416D01*
Y210503D01*
X51430D01*
Y210489D01*
X51416D01*
Y210475D01*
X51430D01*
Y210461D01*
X51416D01*
Y210448D01*
X51430D01*
Y210434D01*
X51416D01*
Y210420D01*
X51430D01*
Y210407D01*
X51416D01*
Y210393D01*
X51430D01*
Y210379D01*
X51416D01*
Y210366D01*
X51430D01*
Y210352D01*
X51416D01*
Y210338D01*
X51430D01*
Y210325D01*
X51416D01*
Y210311D01*
X51430D01*
Y210297D01*
X51416D01*
Y210284D01*
X51430D01*
Y210270D01*
X51416D01*
Y210256D01*
X51430D01*
Y210243D01*
X51416D01*
Y210229D01*
X51430D01*
Y210215D01*
X51416D01*
Y210202D01*
X51430D01*
Y210188D01*
X51416D01*
Y210174D01*
X51430D01*
Y210160D01*
X51416D01*
Y210147D01*
X51430D01*
Y210133D01*
X51416D01*
Y210119D01*
X51430D01*
Y210106D01*
X51416D01*
Y210092D01*
X51430D01*
Y210078D01*
X51416D01*
Y210065D01*
X51430D01*
Y210051D01*
X51416D01*
Y210037D01*
X51430D01*
Y210024D01*
X51416D01*
Y210010D01*
X51430D01*
Y209996D01*
X51416D01*
Y209982D01*
X51430D01*
Y209969D01*
X51416D01*
Y209955D01*
X51430D01*
Y209942D01*
X51416D01*
Y209928D01*
X51430D01*
Y209914D01*
X51416D01*
Y209900D01*
X51430D01*
Y209887D01*
X51416D01*
Y209873D01*
X51430D01*
Y209859D01*
X51416D01*
Y209846D01*
X51430D01*
Y209832D01*
X51416D01*
Y209818D01*
X51430D01*
Y209805D01*
X51416D01*
Y209791D01*
X51430D01*
Y209777D01*
X51416D01*
Y209764D01*
X51430D01*
Y209750D01*
X51416D01*
Y209736D01*
X51430D01*
Y209723D01*
X51416D01*
Y209709D01*
X51430D01*
Y209695D01*
X51416D01*
Y209682D01*
X51430D01*
Y209668D01*
X51416D01*
Y209654D01*
X51430D01*
Y209641D01*
X51416D01*
Y209627D01*
X51430D01*
Y209613D01*
X51416D01*
Y209599D01*
X51430D01*
Y209586D01*
X51416D01*
Y209572D01*
X51430D01*
Y209558D01*
X51416D01*
Y209545D01*
X51430D01*
Y209531D01*
X51416D01*
Y209517D01*
X51430D01*
Y209504D01*
X51416D01*
Y209490D01*
X51430D01*
Y209476D01*
X51416D01*
Y209463D01*
X51430D01*
Y209449D01*
X51416D01*
Y209435D01*
X51430D01*
Y209421D01*
X51416D01*
Y209408D01*
X51430D01*
Y209394D01*
X51416D01*
Y209381D01*
X51430D01*
Y209367D01*
X51416D01*
Y209353D01*
X51430D01*
Y209339D01*
X51416D01*
Y209326D01*
X51430D01*
Y209312D01*
X51416D01*
Y209298D01*
X51430D01*
Y209285D01*
X51416D01*
Y209271D01*
X51430D01*
Y209257D01*
X51416D01*
Y209244D01*
X51430D01*
Y209230D01*
X51416D01*
Y209216D01*
X51430D01*
Y209203D01*
X51416D01*
Y209189D01*
X51430D01*
Y209175D01*
X51416D01*
Y209162D01*
X51430D01*
Y209148D01*
X51416D01*
Y209134D01*
X51430D01*
Y209120D01*
X51416D01*
Y209107D01*
X51430D01*
Y209093D01*
X51416D01*
Y209080D01*
X51430D01*
Y209066D01*
X51416D01*
Y209052D01*
X51430D01*
Y209038D01*
X51416D01*
Y209025D01*
X51430D01*
Y209011D01*
X51416D01*
Y208997D01*
X51430D01*
Y208984D01*
X51416D01*
Y208970D01*
X51430D01*
Y208956D01*
X51416D01*
Y208943D01*
X51430D01*
Y208929D01*
X51416D01*
Y208915D01*
X51430D01*
Y208902D01*
X51416D01*
Y208888D01*
X51430D01*
Y208874D01*
X51416D01*
Y208861D01*
X51430D01*
Y208847D01*
X51416D01*
Y208833D01*
X51430D01*
Y208820D01*
X51416D01*
Y208806D01*
X51430D01*
Y208792D01*
X51416D01*
Y208779D01*
X51430D01*
Y208765D01*
X51416D01*
Y208751D01*
X51430D01*
Y208737D01*
X51416D01*
Y208724D01*
X51430D01*
Y208710D01*
X51416D01*
Y208696D01*
X51430D01*
Y208683D01*
X51416D01*
Y208669D01*
X51430D01*
Y208655D01*
X51416D01*
Y208642D01*
X51430D01*
Y208628D01*
X51416D01*
Y208614D01*
X51430D01*
Y208601D01*
X51416D01*
Y208587D01*
X51430D01*
Y208573D01*
X51416D01*
Y208559D01*
X51430D01*
Y208546D01*
X51416D01*
Y208532D01*
X51430D01*
Y208519D01*
X51416D01*
Y208505D01*
X51430D01*
Y208491D01*
X51416D01*
Y208477D01*
X51430D01*
Y208464D01*
X51416D01*
Y208450D01*
X51430D01*
Y208436D01*
X51416D01*
Y208423D01*
X51430D01*
Y208409D01*
X51416D01*
Y208395D01*
X51430D01*
Y208382D01*
X51416D01*
Y208368D01*
X51430D01*
Y208354D01*
X51416D01*
Y208341D01*
X51430D01*
Y208327D01*
X51416D01*
Y208313D01*
X51430D01*
Y208300D01*
X51416D01*
Y208286D01*
X51430D01*
Y208272D01*
X51416D01*
Y208259D01*
X51430D01*
Y208245D01*
X51416D01*
Y208231D01*
X51430D01*
Y208218D01*
X51416D01*
Y208204D01*
X51430D01*
Y208190D01*
X51416D01*
Y208176D01*
X51430D01*
Y208163D01*
X51416D01*
Y208149D01*
X51430D01*
Y208135D01*
X51416D01*
Y208122D01*
X51430D01*
Y208108D01*
X51416D01*
Y208094D01*
X51430D01*
Y208081D01*
X51416D01*
Y208067D01*
X51430D01*
Y208053D01*
X51416D01*
Y208040D01*
X51430D01*
Y208026D01*
X51416D01*
Y208012D01*
X51430D01*
Y207998D01*
X51416D01*
Y207985D01*
X51430D01*
Y207971D01*
X51416D01*
Y207958D01*
X51430D01*
Y207944D01*
X51416D01*
Y207930D01*
X51430D01*
Y207916D01*
X51416D01*
Y207903D01*
X51430D01*
Y207889D01*
X51416D01*
Y207875D01*
X51430D01*
Y207862D01*
X51416D01*
Y207848D01*
X51430D01*
Y207834D01*
X51416D01*
Y207821D01*
X51430D01*
Y207807D01*
X51416D01*
Y207793D01*
X51430D01*
Y207780D01*
X51416D01*
Y207766D01*
X51430D01*
Y207752D01*
X51416D01*
Y207739D01*
X51430D01*
Y207725D01*
X51416D01*
Y207711D01*
X51430D01*
Y207698D01*
X51416D01*
Y207684D01*
X51430D01*
Y207670D01*
X51416D01*
Y207657D01*
X51430D01*
Y207643D01*
X51416D01*
Y207629D01*
X51430D01*
Y207615D01*
X51416D01*
Y207602D01*
X51430D01*
Y207588D01*
X51416D01*
Y207574D01*
X51430D01*
Y207561D01*
X51416D01*
Y207547D01*
X51430D01*
Y207533D01*
X51416D01*
Y207520D01*
X51430D01*
Y207506D01*
X51416D01*
Y207492D01*
X51430D01*
Y207479D01*
X51416D01*
Y207465D01*
X51430D01*
Y207451D01*
X51416D01*
Y207438D01*
X51430D01*
Y207424D01*
X51416D01*
Y207410D01*
X51430D01*
Y207397D01*
X51416D01*
Y207383D01*
X51430D01*
Y207369D01*
X51416D01*
Y207355D01*
X51430D01*
Y207342D01*
X51416D01*
Y207328D01*
X51430D01*
Y207314D01*
X51416D01*
Y207301D01*
X51430D01*
Y207287D01*
X51416D01*
Y207273D01*
X51430D01*
Y207260D01*
X51416D01*
Y207246D01*
X51430D01*
Y207232D01*
X51416D01*
Y207219D01*
X51430D01*
Y207205D01*
X51416D01*
Y207191D01*
X51430D01*
Y207178D01*
X51416D01*
Y207164D01*
X51430D01*
Y207150D01*
X51416D01*
Y207137D01*
X51430D01*
Y207123D01*
X51416D01*
Y207109D01*
X51430D01*
Y207096D01*
X51416D01*
Y207082D01*
X51430D01*
Y207068D01*
X51416D01*
Y207054D01*
X51430D01*
Y207041D01*
X51416D01*
Y207027D01*
X51430D01*
Y207013D01*
X51416D01*
Y207000D01*
X51430D01*
Y206986D01*
X51416D01*
Y206972D01*
X51430D01*
Y206959D01*
X51416D01*
Y206945D01*
X51430D01*
Y206931D01*
X51416D01*
Y206918D01*
X51430D01*
Y206904D01*
X51416D01*
Y206890D01*
X51430D01*
Y206877D01*
X51416D01*
Y206863D01*
X51430D01*
Y206849D01*
X51416D01*
Y206836D01*
X51430D01*
Y206822D01*
X51416D01*
Y206808D01*
X51430D01*
Y206795D01*
X51416D01*
Y206781D01*
X51430D01*
Y206767D01*
X51416D01*
Y206753D01*
X51430D01*
Y206740D01*
X51416D01*
Y206726D01*
X51430D01*
Y206712D01*
X51416D01*
Y206699D01*
X51430D01*
Y206685D01*
X51416D01*
Y206671D01*
X51430D01*
Y206658D01*
X51416D01*
Y206644D01*
X51430D01*
Y206630D01*
X51416D01*
Y206617D01*
X51430D01*
Y206603D01*
X51416D01*
Y206589D01*
X51430D01*
Y206575D01*
X51416D01*
Y206562D01*
X51430D01*
Y206548D01*
X51416D01*
Y206535D01*
X51430D01*
Y206521D01*
X51416D01*
Y206507D01*
X51430D01*
Y206493D01*
X51416D01*
Y206480D01*
X51430D01*
Y206466D01*
X51416D01*
Y206452D01*
X51430D01*
Y206439D01*
X51416D01*
Y206425D01*
X51430D01*
Y206411D01*
X51416D01*
Y206398D01*
X51430D01*
Y206384D01*
X51416D01*
Y206370D01*
X51430D01*
Y206357D01*
X51416D01*
Y206343D01*
X51430D01*
Y206329D01*
X51416D01*
Y206316D01*
X51430D01*
Y206302D01*
X51416D01*
Y206288D01*
X51430D01*
Y206275D01*
X51416D01*
Y206261D01*
X51430D01*
Y206247D01*
X51416D01*
Y206234D01*
X51430D01*
Y206220D01*
X51416D01*
Y206206D01*
X51430D01*
Y206192D01*
X51416D01*
Y206179D01*
X51430D01*
Y206165D01*
X51416D01*
Y206151D01*
X51430D01*
Y206138D01*
X51416D01*
Y206124D01*
X51430D01*
Y206110D01*
X51416D01*
Y206097D01*
X51430D01*
Y206083D01*
X51416D01*
Y206069D01*
X51430D01*
Y206056D01*
X51416D01*
Y206042D01*
X51430D01*
Y206028D01*
X51416D01*
Y206015D01*
X51430D01*
Y206001D01*
X51416D01*
Y205987D01*
X51430D01*
Y205974D01*
X51416D01*
Y205960D01*
X51430D01*
Y205946D01*
X51416D01*
Y205932D01*
X51430D01*
Y205919D01*
X51416D01*
Y205905D01*
X51430D01*
Y205891D01*
X51416D01*
Y205878D01*
X51430D01*
Y205864D01*
X51416D01*
Y205850D01*
X51430D01*
Y205837D01*
X51416D01*
Y205823D01*
X51430D01*
Y205809D01*
X51416D01*
Y205796D01*
X51430D01*
Y205782D01*
X51416D01*
Y205768D01*
X51430D01*
Y205755D01*
X51416D01*
Y205741D01*
X51430D01*
Y205727D01*
X51416D01*
Y205714D01*
X51430D01*
Y205700D01*
X51416D01*
Y205686D01*
X51430D01*
Y205673D01*
X51416D01*
Y205659D01*
X51430D01*
Y205645D01*
X51416D01*
Y205631D01*
X51430D01*
Y205618D01*
X51416D01*
Y205604D01*
X51430D01*
Y205590D01*
X51416D01*
Y205577D01*
X51430D01*
Y205563D01*
X51416D01*
Y205549D01*
X51430D01*
Y205536D01*
X51416D01*
Y205522D01*
X51430D01*
Y205508D01*
X51416D01*
Y205495D01*
X51430D01*
Y205481D01*
X51416D01*
Y205467D01*
X51430D01*
Y205454D01*
X51416D01*
Y205440D01*
X51430D01*
Y205426D01*
X51416D01*
Y205413D01*
X51430D01*
Y205399D01*
X51416D01*
Y205385D01*
X51430D01*
Y205371D01*
X51416D01*
Y205358D01*
X51430D01*
Y205344D01*
X51416D01*
Y205330D01*
X51430D01*
Y205317D01*
X51416D01*
Y205303D01*
X51430D01*
Y205289D01*
X51416D01*
Y205276D01*
X51430D01*
Y205262D01*
X51416D01*
Y205248D01*
X51430D01*
Y205235D01*
X51416D01*
Y205221D01*
X51430D01*
Y205207D01*
X51416D01*
Y205194D01*
X51430D01*
Y205180D01*
X51416D01*
Y205166D01*
X51430D01*
Y205153D01*
X51416D01*
Y205139D01*
X51430D01*
Y205125D01*
X51416D01*
Y205112D01*
X51430D01*
Y205098D01*
X51416D01*
Y205084D01*
X51430D01*
Y205070D01*
X51416D01*
Y205057D01*
X51430D01*
Y205043D01*
X51416D01*
Y205029D01*
X51430D01*
Y205016D01*
X51416D01*
Y205002D01*
X51430D01*
Y204988D01*
X51416D01*
Y204975D01*
X51430D01*
Y204961D01*
X51416D01*
Y204947D01*
X51430D01*
Y204934D01*
X51416D01*
Y204920D01*
X51430D01*
Y204906D01*
X51416D01*
Y204893D01*
X51430D01*
Y204879D01*
X51416D01*
Y204865D01*
X51430D01*
Y204852D01*
X51416D01*
Y204838D01*
X51430D01*
Y204824D01*
X51416D01*
Y204811D01*
X51430D01*
Y204797D01*
X51416D01*
Y204783D01*
X51430D01*
Y204769D01*
X51416D01*
Y204756D01*
X51430D01*
Y204742D01*
X51416D01*
Y204728D01*
X51430D01*
Y204715D01*
X51416D01*
Y204701D01*
X51430D01*
Y204687D01*
X51416D01*
Y204674D01*
X51430D01*
Y204660D01*
X51416D01*
Y204646D01*
X51430D01*
Y204633D01*
X51416D01*
Y204619D01*
X51430D01*
Y204605D01*
X51416D01*
Y204592D01*
X51430D01*
Y204578D01*
X51416D01*
Y204564D01*
X51430D01*
Y204551D01*
X51416D01*
Y204537D01*
X51430D01*
Y204523D01*
X51416D01*
Y204509D01*
X51430D01*
Y204496D01*
X51416D01*
Y204482D01*
X51430D01*
Y204468D01*
X51416D01*
Y204455D01*
X51430D01*
Y204441D01*
X51416D01*
Y204427D01*
X51430D01*
Y204414D01*
X51416D01*
Y204400D01*
X51430D01*
Y204386D01*
X51416D01*
Y204373D01*
X51430D01*
Y204359D01*
X51416D01*
Y204345D01*
X51430D01*
Y204332D01*
X51416D01*
Y204318D01*
X51430D01*
Y204304D01*
X51416D01*
Y204291D01*
X51430D01*
Y204277D01*
X51416D01*
Y204263D01*
X51430D01*
Y204250D01*
X51416D01*
Y204236D01*
X51430D01*
Y204222D01*
X51416D01*
Y204208D01*
X51430D01*
Y204195D01*
X51416D01*
Y204181D01*
X51430D01*
Y204167D01*
X51416D01*
Y204154D01*
X51430D01*
Y204140D01*
X51416D01*
Y204126D01*
X51430D01*
Y204113D01*
X51416D01*
Y204099D01*
X51430D01*
Y204085D01*
X51416D01*
Y204072D01*
X51430D01*
Y204058D01*
X51416D01*
Y204044D01*
X51430D01*
Y204031D01*
X51416D01*
Y204017D01*
X51430D01*
Y204003D01*
X51416D01*
Y203990D01*
X51430D01*
Y203976D01*
X51416D01*
Y203962D01*
X51430D01*
Y203948D01*
X51416D01*
Y203935D01*
X51430D01*
Y203921D01*
X51416D01*
Y203907D01*
X51430D01*
Y203894D01*
X51416D01*
Y203880D01*
X51430D01*
Y203866D01*
X51416D01*
Y203853D01*
X51430D01*
Y203839D01*
X51416D01*
Y203825D01*
X51430D01*
Y203812D01*
X51416D01*
Y203798D01*
X51430D01*
Y203784D01*
X51416D01*
Y203771D01*
X51430D01*
Y203757D01*
X51416D01*
Y203743D01*
X51430D01*
Y203730D01*
X51416D01*
Y203716D01*
X51430D01*
Y203702D01*
X51416D01*
Y203689D01*
X51430D01*
Y203675D01*
X51416D01*
Y203661D01*
X51430D01*
Y203647D01*
X51416D01*
Y203634D01*
X51430D01*
Y203620D01*
X51416D01*
Y203606D01*
X51430D01*
Y203593D01*
X51416D01*
Y203579D01*
X51430D01*
Y203565D01*
X51416D01*
Y203552D01*
X51430D01*
Y203538D01*
X51416D01*
Y203524D01*
X51430D01*
Y203511D01*
X51416D01*
Y203497D01*
X51430D01*
Y203483D01*
X51416D01*
Y203470D01*
X51430D01*
Y203456D01*
X51416D01*
Y203442D01*
X51430D01*
Y203429D01*
X51416D01*
Y203415D01*
X51430D01*
Y203401D01*
X51416D01*
Y203387D01*
X51430D01*
Y203374D01*
X51416D01*
Y203360D01*
X51430D01*
Y203346D01*
X51416D01*
Y203333D01*
X51430D01*
Y203319D01*
X51416D01*
Y203305D01*
X51430D01*
Y203292D01*
X51416D01*
Y203278D01*
X51430D01*
Y203264D01*
X51416D01*
Y203251D01*
X51430D01*
Y203237D01*
X51416D01*
Y203223D01*
X51430D01*
Y203210D01*
X51416D01*
Y203196D01*
X51430D01*
Y203182D01*
X51416D01*
Y203169D01*
X51430D01*
Y203155D01*
X51416D01*
Y203141D01*
X51430D01*
Y203128D01*
X51416D01*
Y203114D01*
X51430D01*
Y203100D01*
X51416D01*
Y203086D01*
X51430D01*
Y203073D01*
X51416D01*
Y203059D01*
X51430D01*
Y203045D01*
X51416D01*
Y203032D01*
X51430D01*
Y203018D01*
X51416D01*
Y203004D01*
X51430D01*
Y202991D01*
X51416D01*
Y202977D01*
X51430D01*
Y202963D01*
X51416D01*
Y202950D01*
X51430D01*
Y202936D01*
X51416D01*
Y202922D01*
X51430D01*
Y202909D01*
X51416D01*
Y202895D01*
X51430D01*
Y202881D01*
X51416D01*
Y202868D01*
X51430D01*
Y202854D01*
X45797D01*
Y202868D01*
X45756D01*
Y202881D01*
X45715D01*
Y202895D01*
X45673D01*
Y202909D01*
X45632D01*
Y202922D01*
X45619D01*
Y202936D01*
X45605D01*
Y202922D01*
X45591D01*
Y202936D01*
X45578D01*
Y202950D01*
X45537D01*
Y202963D01*
X45523D01*
Y202977D01*
X45482D01*
Y202991D01*
X45455D01*
Y203004D01*
X45427D01*
Y203018D01*
X45414D01*
Y203032D01*
X45400D01*
Y203045D01*
X45386D01*
Y203032D01*
X45373D01*
Y203045D01*
X45359D01*
Y203059D01*
X45345D01*
Y203073D01*
X45318D01*
Y203086D01*
X45290D01*
Y203100D01*
X45277D01*
Y203114D01*
X45263D01*
Y203128D01*
X45236D01*
Y203155D01*
X45222D01*
Y203141D01*
X45208D01*
Y203155D01*
X45195D01*
Y203169D01*
X45181D01*
Y203182D01*
X45167D01*
Y203196D01*
X45154D01*
Y203210D01*
X45140D01*
Y203223D01*
X45126D01*
Y203237D01*
X45099D01*
Y203264D01*
X45085D01*
Y203251D01*
X45072D01*
Y203278D01*
X45044D01*
Y203305D01*
X45017D01*
Y203333D01*
X44989D01*
Y203360D01*
X44962D01*
Y203387D01*
X44948D01*
Y203401D01*
X44935D01*
Y203429D01*
X44907D01*
Y203456D01*
X44894D01*
Y203470D01*
X44880D01*
Y203483D01*
X44866D01*
Y203497D01*
X44853D01*
Y203511D01*
X44839D01*
Y203524D01*
X44825D01*
Y203565D01*
X44811D01*
Y203579D01*
X44798D01*
Y203593D01*
X44784D01*
Y203606D01*
X44770D01*
Y203634D01*
X44757D01*
Y203647D01*
X44743D01*
Y203675D01*
X44729D01*
Y203689D01*
X44716D01*
Y203730D01*
X44702D01*
Y203743D01*
X44688D01*
Y203757D01*
X44675D01*
Y203784D01*
X44661D01*
Y203812D01*
X44647D01*
Y203825D01*
X44634D01*
Y203866D01*
X44620D01*
Y203880D01*
X44606D01*
Y203921D01*
X44593D01*
Y203935D01*
X44579D01*
Y203976D01*
X44565D01*
Y203990D01*
X44552D01*
Y204031D01*
X44538D01*
Y204044D01*
X44524D01*
Y204058D01*
X44538D01*
Y204072D01*
X44524D01*
Y204085D01*
X44510D01*
Y204126D01*
X44497D01*
Y204167D01*
X44483D01*
Y204181D01*
X44469D01*
Y204222D01*
X44456D01*
Y204236D01*
X44469D01*
Y204250D01*
X44456D01*
Y204263D01*
X44442D01*
Y204304D01*
X44428D01*
Y204318D01*
X44415D01*
Y204332D01*
X44428D01*
Y204345D01*
X44415D01*
Y204386D01*
X44401D01*
Y204400D01*
X44387D01*
Y204414D01*
X44401D01*
Y204427D01*
X44387D01*
Y204468D01*
X44374D01*
Y204482D01*
X44360D01*
Y204496D01*
X44374D01*
Y204509D01*
X44360D01*
Y204551D01*
X44346D01*
Y204592D01*
X44333D01*
Y204660D01*
X44319D01*
Y204674D01*
X44305D01*
Y204742D01*
X44292D01*
Y204783D01*
X44278D01*
Y204852D01*
X44264D01*
Y204865D01*
X44251D01*
Y204879D01*
X44264D01*
Y204865D01*
X44278D01*
Y204879D01*
X44264D01*
Y204893D01*
X44251D01*
Y204961D01*
X44237D01*
Y205002D01*
X44223D01*
Y205016D01*
X44237D01*
Y205029D01*
X44223D01*
Y205070D01*
X44210D01*
Y205084D01*
X44223D01*
Y205098D01*
X44210D01*
Y215346D01*
X44223D01*
Y215360D01*
X44237D01*
Y215346D01*
X44251D01*
Y215360D01*
X44264D01*
Y215346D01*
X44278D01*
Y215360D01*
X44292D01*
Y215346D01*
X44305D01*
Y215360D01*
X44319D01*
Y215346D01*
X44333D01*
Y215360D01*
X44346D01*
Y215346D01*
X44360D01*
Y215360D01*
X44374D01*
Y215346D01*
X44387D01*
Y215360D01*
X44401D01*
Y215346D01*
X44415D01*
Y215360D01*
X44428D01*
Y215346D01*
X44442D01*
Y215360D01*
X44456D01*
Y215346D01*
X44469D01*
Y215360D01*
X44483D01*
Y215346D01*
X44497D01*
Y215360D01*
X44510D01*
Y215346D01*
X44524D01*
Y215360D01*
X44538D01*
Y215346D01*
X44552D01*
Y215360D01*
X44565D01*
Y215346D01*
X44579D01*
Y215360D01*
X44593D01*
Y215346D01*
X44606D01*
Y215360D01*
X44620D01*
Y215346D01*
X44634D01*
Y215360D01*
X44647D01*
Y215346D01*
X44661D01*
Y215360D01*
X44675D01*
Y215346D01*
X44688D01*
Y215360D01*
X44702D01*
Y215346D01*
X44716D01*
Y215360D01*
X44729D01*
Y215346D01*
X44743D01*
Y215360D01*
X44757D01*
Y215346D01*
X44770D01*
Y215360D01*
X44784D01*
Y215346D01*
X44798D01*
Y215360D01*
X44811D01*
Y215346D01*
X44825D01*
Y215360D01*
X44839D01*
Y215346D01*
X44853D01*
Y215360D01*
X44866D01*
Y215346D01*
X44880D01*
Y215360D01*
X44894D01*
Y215346D01*
X44907D01*
Y215360D01*
X44921D01*
Y215346D01*
X44935D01*
Y215360D01*
X44948D01*
Y215346D01*
X44962D01*
Y215360D01*
X44976D01*
Y215346D01*
X44989D01*
Y215360D01*
X45003D01*
Y215346D01*
X45017D01*
Y215360D01*
X45030D01*
Y215346D01*
X45044D01*
Y215360D01*
X45058D01*
Y215346D01*
X45072D01*
Y215360D01*
X45085D01*
Y215346D01*
X45099D01*
Y215360D01*
X45112D01*
Y215346D01*
X45126D01*
Y215360D01*
X45140D01*
Y215346D01*
X45154D01*
Y215360D01*
X45167D01*
Y215346D01*
X45181D01*
Y215360D01*
X45195D01*
Y215346D01*
X45208D01*
Y215360D01*
X45222D01*
Y215346D01*
X45236D01*
Y215360D01*
X45249D01*
Y215346D01*
X45263D01*
Y215360D01*
X45277D01*
Y215346D01*
X45290D01*
Y215360D01*
X45304D01*
Y215346D01*
X45318D01*
Y215360D01*
X45331D01*
Y215346D01*
X45345D01*
Y215360D01*
X45359D01*
Y215346D01*
X45373D01*
Y215360D01*
X45386D01*
Y215346D01*
X45400D01*
Y215360D01*
X45414D01*
Y215346D01*
X45427D01*
Y215360D01*
X45441D01*
Y215346D01*
X45455D01*
Y215360D01*
X45468D01*
Y215346D01*
X45482D01*
Y215360D01*
X45496D01*
Y215346D01*
X45509D01*
Y215360D01*
X45523D01*
Y215346D01*
X45537D01*
Y215360D01*
X45550D01*
Y215346D01*
X45564D01*
Y215360D01*
X45578D01*
Y215346D01*
X45591D01*
Y215360D01*
X45605D01*
Y215346D01*
X45619D01*
Y215360D01*
X45632D01*
Y215346D01*
X45646D01*
Y215360D01*
X45660D01*
Y215346D01*
X45673D01*
Y215360D01*
X45687D01*
Y215346D01*
X45701D01*
Y215360D01*
X45715D01*
Y215346D01*
X45728D01*
Y215360D01*
X45742D01*
Y215346D01*
X45756D01*
Y215360D01*
X45769D01*
Y215346D01*
X45783D01*
Y215360D01*
X45797D01*
Y215346D01*
X45810D01*
Y215360D01*
X45824D01*
Y215346D01*
X45838D01*
Y215360D01*
X45851D01*
Y215346D01*
X45865D01*
Y215360D01*
X45879D01*
Y215346D01*
X45892D01*
Y215360D01*
X45906D01*
Y215346D01*
X45920D01*
Y215360D01*
X45933D01*
Y215346D01*
X45947D01*
Y215360D01*
X45961D01*
Y215346D01*
X45974D01*
Y215360D01*
X45988D01*
Y215346D01*
X46002D01*
Y215360D01*
X46016D01*
Y215346D01*
X46029D01*
Y215360D01*
X46043D01*
Y215346D01*
X46057D01*
Y215360D01*
X46070D01*
Y215346D01*
X46084D01*
Y215360D01*
X46098D01*
Y215346D01*
X46111D01*
Y215360D01*
X46125D01*
Y215346D01*
X46139D01*
Y215360D01*
X46152D01*
Y215346D01*
X46166D01*
Y215360D01*
X46180D01*
Y215346D01*
X46194D01*
Y215360D01*
X46207D01*
Y215346D01*
X46221D01*
Y215360D01*
X46235D01*
Y215346D01*
X46248D01*
Y215360D01*
X46262D01*
Y215346D01*
X46275D01*
Y215360D01*
X46289D01*
Y215346D01*
X46303D01*
Y215360D01*
X46317D01*
Y215346D01*
X46330D01*
Y215360D01*
X46344D01*
Y215346D01*
X46358D01*
Y215360D01*
X46371D01*
Y215346D01*
X46385D01*
Y215360D01*
X46399D01*
Y215346D01*
X46412D01*
Y215360D01*
X46426D01*
Y215346D01*
X46440D01*
Y215360D01*
X46453D01*
Y215346D01*
X46467D01*
Y215360D01*
X46481D01*
Y215346D01*
X46494D01*
Y215360D01*
X46508D01*
Y215346D01*
X46522D01*
Y215360D01*
X46536D01*
Y215346D01*
X46549D01*
Y215360D01*
X46563D01*
Y215346D01*
X46577D01*
Y215360D01*
X46590D01*
Y215346D01*
X46604D01*
Y215360D01*
X46618D01*
Y215346D01*
X46631D01*
Y215360D01*
X46645D01*
Y215346D01*
X46659D01*
Y215360D01*
X46672D01*
Y215346D01*
X46686D01*
Y215360D01*
X46700D01*
Y215346D01*
X46713D01*
Y215360D01*
X46727D01*
Y215346D01*
X46741D01*
Y215360D01*
X46754D01*
Y215346D01*
X46768D01*
Y215360D01*
X46782D01*
Y215346D01*
X46795D01*
Y215360D01*
X46809D01*
Y215346D01*
X46823D01*
Y215360D01*
X46837D01*
Y215346D01*
X46850D01*
Y215360D01*
X46864D01*
Y215346D01*
X46878D01*
Y215360D01*
X46891D01*
Y215346D01*
X46905D01*
Y215360D01*
X46919D01*
Y215346D01*
X46932D01*
Y215360D01*
X46946D01*
Y215346D01*
X46960D01*
Y215360D01*
X46973D01*
Y215346D01*
X46987D01*
Y215360D01*
X47001D01*
Y215346D01*
X47014D01*
Y215360D01*
X47028D01*
Y215346D01*
X47042D01*
Y215360D01*
X47056D01*
Y215346D01*
X47069D01*
Y215360D01*
X47083D01*
Y215346D01*
X47096D01*
Y215360D01*
X47110D01*
Y215346D01*
X47124D01*
Y215360D01*
X47137D01*
Y215346D01*
X47151D01*
Y215360D01*
X47165D01*
Y215346D01*
X47179D01*
Y215360D01*
X47192D01*
Y215346D01*
X47206D01*
Y215360D01*
X47220D01*
Y215346D01*
X47233D01*
Y215360D01*
X47247D01*
Y215346D01*
X47261D01*
Y215360D01*
X47274D01*
Y215346D01*
X47288D01*
Y215360D01*
X47302D01*
Y215346D01*
X47315D01*
Y215360D01*
X47329D01*
Y215346D01*
X47343D01*
Y215360D01*
X47357D01*
Y215346D01*
X47370D01*
Y215360D01*
X47384D01*
Y215346D01*
X47398D01*
Y215360D01*
X47411D01*
Y215346D01*
X47425D01*
Y215360D01*
X47439D01*
Y215346D01*
X47452D01*
Y215360D01*
X47466D01*
Y215346D01*
X47480D01*
Y215360D01*
X47493D01*
Y215346D01*
X47507D01*
Y215360D01*
X47521D01*
Y215346D01*
X47534D01*
Y215360D01*
X47548D01*
Y215346D01*
X47562D01*
Y215360D01*
X47575D01*
Y215346D01*
X47589D01*
Y215360D01*
X47603D01*
Y215346D01*
X47616D01*
Y215360D01*
X47630D01*
Y215346D01*
X47644D01*
Y215360D01*
X47657D01*
Y215346D01*
X47671D01*
Y215360D01*
X47685D01*
Y215346D01*
X47699D01*
Y215360D01*
X47712D01*
Y215346D01*
X47726D01*
Y215360D01*
X47740D01*
Y215346D01*
X47753D01*
Y215360D01*
X47767D01*
Y215346D01*
X47781D01*
Y215360D01*
X47794D01*
Y215346D01*
X47808D01*
Y215360D01*
X47822D01*
Y215346D01*
X47835D01*
Y215360D01*
X47849D01*
Y215346D01*
X47863D01*
Y215360D01*
X47876D01*
Y215346D01*
X47890D01*
Y215360D01*
X47904D01*
Y215346D01*
X47918D01*
Y215360D01*
X47941D01*
Y215346D01*
X47945D01*
Y215360D01*
X47968D01*
Y215346D01*
X47972D01*
Y215360D01*
X47996D01*
Y215346D01*
X48000D01*
Y215360D01*
X48023D01*
Y215346D01*
X48027D01*
Y215360D01*
X48050D01*
Y215346D01*
X48064D01*
Y215360D01*
X48078D01*
Y215346D01*
X48092D01*
Y215360D01*
X48105D01*
Y215346D01*
X48119D01*
Y215360D01*
X48133D01*
Y215346D01*
X48146D01*
Y215360D01*
X48160D01*
Y215346D01*
X48174D01*
Y215360D01*
X48187D01*
Y215346D01*
X48201D01*
Y215360D01*
X48215D01*
Y215346D01*
X48228D01*
Y215360D01*
X48242D01*
Y215346D01*
X48256D01*
Y215360D01*
X48269D01*
Y215346D01*
X48283D01*
Y215360D01*
X48297D01*
Y215346D01*
X48311D01*
Y215360D01*
X48324D01*
Y215346D01*
X48338D01*
Y215360D01*
X48351D01*
Y215346D01*
X48365D01*
Y215360D01*
X48379D01*
Y215346D01*
X48393D01*
Y215360D01*
X48406D01*
Y215346D01*
X48420D01*
Y215360D01*
X48434D01*
Y215346D01*
X48447D01*
Y215360D01*
X48461D01*
Y215346D01*
X48475D01*
Y215360D01*
X48488D01*
Y215346D01*
X48502D01*
Y215360D01*
X48516D01*
Y215346D01*
X48529D01*
Y215360D01*
X48543D01*
Y215346D01*
X48557D01*
Y215360D01*
X48570D01*
Y215346D01*
X48584D01*
Y215360D01*
X48598D01*
Y215346D01*
X48612D01*
Y215360D01*
X48625D01*
Y215346D01*
X48639D01*
Y215360D01*
X48653D01*
Y215346D01*
X48666D01*
Y215360D01*
X48680D01*
Y215346D01*
X48694D01*
Y215360D01*
X48707D01*
Y215346D01*
X48721D01*
Y215360D01*
X48735D01*
Y215346D01*
X48748D01*
Y215360D01*
X48762D01*
Y215346D01*
X48776D01*
Y215360D01*
X48789D01*
Y215346D01*
X48803D01*
Y215360D01*
X48817D01*
Y215346D01*
X48830D01*
Y215360D01*
X48844D01*
Y215346D01*
X48858D01*
Y215360D01*
X48871D01*
Y215346D01*
X48885D01*
Y215360D01*
X48899D01*
Y215346D01*
X48913D01*
Y215360D01*
X48926D01*
Y215346D01*
X48940D01*
Y215360D01*
X48954D01*
Y215346D01*
X48967D01*
Y215360D01*
X48981D01*
Y215346D01*
X48995D01*
Y215360D01*
X49008D01*
Y215346D01*
X49022D01*
Y215360D01*
X49036D01*
Y215346D01*
X49049D01*
Y215360D01*
X49063D01*
Y215346D01*
X49077D01*
Y215360D01*
X49090D01*
Y215346D01*
X49104D01*
Y215360D01*
X49118D01*
Y215346D01*
X49132D01*
Y215360D01*
X49145D01*
Y215346D01*
X49159D01*
Y215360D01*
X49172D01*
Y215346D01*
X49186D01*
Y215360D01*
X49200D01*
Y215346D01*
X49213D01*
Y215360D01*
X49227D01*
Y215346D01*
X49241D01*
Y215360D01*
X49255D01*
Y215346D01*
X49268D01*
Y215360D01*
X49282D01*
Y215346D01*
X49296D01*
Y215360D01*
X49309D01*
Y215346D01*
X49323D01*
Y215360D01*
X49337D01*
Y215346D01*
X49350D01*
Y215360D01*
X49364D01*
Y215346D01*
X49378D01*
Y215360D01*
X49391D01*
Y215346D01*
X49405D01*
Y215360D01*
X49419D01*
Y215346D01*
X49433D01*
Y215360D01*
X49446D01*
Y215346D01*
X49460D01*
Y215360D01*
X49474D01*
Y215346D01*
X49487D01*
Y215360D01*
X49501D01*
Y215346D01*
X49515D01*
Y215360D01*
X49528D01*
Y215346D01*
X49542D01*
Y215360D01*
X49556D01*
Y215346D01*
X49569D01*
Y215360D01*
X49583D01*
Y215346D01*
X49597D01*
Y215360D01*
X49610D01*
Y215346D01*
X49624D01*
Y215360D01*
X49638D01*
Y215346D01*
X49651D01*
Y215360D01*
X49665D01*
Y215346D01*
X49679D01*
Y215360D01*
X49692D01*
Y215346D01*
X49706D01*
Y215360D01*
X49720D01*
Y215346D01*
X49733D01*
Y215360D01*
X49747D01*
Y215346D01*
X49761D01*
Y215360D01*
X49775D01*
Y215346D01*
X49788D01*
Y215360D01*
X49802D01*
Y215346D01*
X49816D01*
Y215360D01*
X49829D01*
Y215346D01*
X49843D01*
Y215360D01*
X49857D01*
Y215346D01*
X49870D01*
Y215360D01*
X49884D01*
Y215346D01*
X49898D01*
Y215360D01*
X49911D01*
Y215346D01*
X49925D01*
Y215360D01*
X49939D01*
Y215346D01*
X49952D01*
Y215360D01*
X49966D01*
Y215346D01*
X49980D01*
Y215360D01*
X49994D01*
Y215346D01*
X50007D01*
Y215360D01*
X50021D01*
Y215346D01*
X50034D01*
Y215360D01*
X50048D01*
Y215346D01*
X50062D01*
Y215360D01*
X50076D01*
Y215346D01*
X50089D01*
Y215360D01*
X50103D01*
Y215346D01*
X50117D01*
Y215360D01*
X50130D01*
Y215346D01*
X50144D01*
Y215360D01*
X50158D01*
Y215346D01*
X50171D01*
Y215360D01*
X50185D01*
Y215346D01*
X50199D01*
Y215360D01*
X50212D01*
Y215346D01*
X50226D01*
Y215360D01*
X50240D01*
Y215346D01*
X50253D01*
Y215360D01*
X50267D01*
Y215346D01*
X50281D01*
Y215360D01*
X50295D01*
Y215346D01*
X50308D01*
Y215360D01*
X50322D01*
Y215346D01*
X50336D01*
Y215360D01*
X50349D01*
Y215346D01*
X50363D01*
Y215360D01*
X50377D01*
Y215346D01*
X50390D01*
Y215360D01*
X50404D01*
Y215346D01*
X50418D01*
Y215360D01*
X50431D01*
Y215346D01*
X50445D01*
Y215360D01*
X50459D01*
Y215346D01*
X50472D01*
Y215360D01*
X50486D01*
Y215346D01*
X50500D01*
Y215360D01*
X50513D01*
Y215346D01*
X50527D01*
Y215360D01*
X50541D01*
Y215346D01*
X50554D01*
Y215360D01*
X50568D01*
Y215346D01*
X50582D01*
Y215360D01*
X50595D01*
Y215346D01*
X50609D01*
Y215360D01*
X50623D01*
Y215346D01*
X50637D01*
Y215360D01*
X50650D01*
Y215346D01*
X50664D01*
Y215360D01*
X50678D01*
Y215346D01*
X50691D01*
Y215360D01*
X50705D01*
Y215346D01*
X50719D01*
Y215360D01*
X50732D01*
Y215346D01*
X50746D01*
Y215360D01*
X50760D01*
Y215346D01*
X50773D01*
Y215360D01*
X50787D01*
Y215346D01*
X50801D01*
Y215360D01*
X50814D01*
Y215346D01*
X50828D01*
Y215360D01*
X50842D01*
Y215346D01*
X50855D01*
Y215360D01*
X50869D01*
Y215346D01*
X50883D01*
Y215360D01*
X50897D01*
Y215346D01*
X50910D01*
Y215360D01*
X50924D01*
Y215346D01*
X50938D01*
Y215360D01*
X50951D01*
Y215346D01*
X50965D01*
Y215360D01*
X50979D01*
Y215346D01*
X50992D01*
Y215360D01*
X51006D01*
Y215346D01*
X51020D01*
Y215360D01*
X51033D01*
Y215346D01*
X51047D01*
Y215360D01*
X51061D01*
Y215346D01*
X51074D01*
Y215360D01*
X51088D01*
Y215346D01*
X51102D01*
Y215360D01*
X51115D01*
Y215346D01*
X51129D01*
Y215360D01*
X51143D01*
Y215346D01*
X51157D01*
Y215360D01*
X51170D01*
Y215346D01*
X51184D01*
Y215360D01*
X51197D01*
Y215346D01*
X51211D01*
Y215360D01*
X51225D01*
Y215346D01*
X51239D01*
Y215360D01*
X51252D01*
Y215346D01*
X51266D01*
Y215360D01*
X51280D01*
Y215346D01*
X51293D01*
Y215360D01*
X51307D01*
Y215346D01*
X51321D01*
Y215360D01*
X51334D01*
Y215346D01*
X51348D01*
Y215360D01*
X51362D01*
Y215346D01*
X51375D01*
Y215360D01*
X51389D01*
Y215346D01*
X51403D01*
Y215360D01*
X51416D01*
Y215346D01*
D02*
G37*
G36*
X56219Y222160D02*
Y222092D01*
X56205D01*
Y222078D01*
X56219D01*
Y222064D01*
X56205D01*
Y222051D01*
X56219D01*
Y222037D01*
X56205D01*
Y221886D01*
X56192D01*
Y221873D01*
X56205D01*
Y221859D01*
X56192D01*
Y221791D01*
X56178D01*
Y221777D01*
X56192D01*
Y221763D01*
X56178D01*
Y221750D01*
X56192D01*
Y221736D01*
X56178D01*
Y221640D01*
X56164D01*
Y221626D01*
X56178D01*
Y221613D01*
X56164D01*
Y221599D01*
X56151D01*
Y221585D01*
X56164D01*
Y221572D01*
X56151D01*
Y221558D01*
X56164D01*
Y221544D01*
X56151D01*
Y221476D01*
X56137D01*
Y221462D01*
X56151D01*
Y221449D01*
X56137D01*
Y221408D01*
X56123D01*
Y221312D01*
X56110D01*
Y221298D01*
X56123D01*
Y221284D01*
X56110D01*
Y221271D01*
X56096D01*
Y221257D01*
X56110D01*
Y221243D01*
X56096D01*
Y221175D01*
X56082D01*
Y221134D01*
X56069D01*
Y221065D01*
X56055D01*
Y221052D01*
X56069D01*
Y221038D01*
X56055D01*
Y221024D01*
X56041D01*
Y221011D01*
X56055D01*
Y220997D01*
X56041D01*
Y220956D01*
X56028D01*
Y220942D01*
X56041D01*
Y220929D01*
X56028D01*
Y220915D01*
X56014D01*
Y220847D01*
X56000D01*
Y220806D01*
X55986D01*
Y220792D01*
X56000D01*
Y220778D01*
X55986D01*
Y220737D01*
X55973D01*
Y220696D01*
X55959D01*
Y220655D01*
X55945D01*
Y220641D01*
X55959D01*
Y220628D01*
X55945D01*
Y220614D01*
X55932D01*
Y220573D01*
X55918D01*
Y220559D01*
X55932D01*
Y220546D01*
X55918D01*
Y220532D01*
X55904D01*
Y220491D01*
X55891D01*
Y220477D01*
X55904D01*
Y220463D01*
X55891D01*
Y220450D01*
X55877D01*
Y220409D01*
X55863D01*
Y220395D01*
X55877D01*
Y220381D01*
X55863D01*
Y220368D01*
X55850D01*
Y220327D01*
X55836D01*
Y220313D01*
X55850D01*
Y220299D01*
X55836D01*
Y220286D01*
X55822D01*
Y220245D01*
X55809D01*
Y220231D01*
X55795D01*
Y220217D01*
X55809D01*
Y220203D01*
X55795D01*
Y220162D01*
X55781D01*
Y220149D01*
X55768D01*
Y220108D01*
X55754D01*
Y220094D01*
X55740D01*
Y220080D01*
X55754D01*
Y220067D01*
X55740D01*
Y220026D01*
X55726D01*
Y220012D01*
X55713D01*
Y219971D01*
X55699D01*
Y219957D01*
X55686D01*
Y219916D01*
X55672D01*
Y219875D01*
X55658D01*
Y219861D01*
X55644D01*
Y219848D01*
X55658D01*
Y219834D01*
X55644D01*
Y219820D01*
X55631D01*
Y219779D01*
X55617D01*
Y219766D01*
X55603D01*
Y219725D01*
X55590D01*
Y219711D01*
X55576D01*
Y219670D01*
X55562D01*
Y219656D01*
X55549D01*
Y219615D01*
X55535D01*
Y219601D01*
X55521D01*
Y219560D01*
X55508D01*
Y219547D01*
X55494D01*
Y219506D01*
X55480D01*
Y219492D01*
X55467D01*
Y219451D01*
X55453D01*
Y219437D01*
X55439D01*
Y219424D01*
X55426D01*
Y219410D01*
X55439D01*
Y219396D01*
X55426D01*
Y219383D01*
X55412D01*
Y219369D01*
X55398D01*
Y219355D01*
X55384D01*
Y219314D01*
X55371D01*
Y219300D01*
X55357D01*
Y219259D01*
X55343D01*
Y219246D01*
X55330D01*
Y219218D01*
X55316D01*
Y219191D01*
X55302D01*
Y219177D01*
X55289D01*
Y219164D01*
X55275D01*
Y219123D01*
X55261D01*
Y219109D01*
X55248D01*
Y219081D01*
X55234D01*
Y219054D01*
X55220D01*
Y219040D01*
X55207D01*
Y219027D01*
X55193D01*
Y218986D01*
X55179D01*
Y218972D01*
X55165D01*
Y218958D01*
X55152D01*
Y218945D01*
X55138D01*
Y218904D01*
X55124D01*
Y218890D01*
X55111D01*
Y218876D01*
X55097D01*
Y218863D01*
X55083D01*
Y218822D01*
X55070D01*
Y218808D01*
X55056D01*
Y218794D01*
X55042D01*
Y218780D01*
X55029D01*
Y218753D01*
X55015D01*
X55001D01*
Y218712D01*
X54988D01*
Y218698D01*
X54974D01*
Y218685D01*
X54960D01*
Y218671D01*
X54947D01*
Y218630D01*
X54933D01*
Y218616D01*
X54919D01*
Y218603D01*
X54905D01*
Y218589D01*
X54892D01*
Y218575D01*
X54878D01*
Y218562D01*
X54865D01*
Y218534D01*
X54851D01*
Y218520D01*
X54837D01*
Y218493D01*
X54823D01*
Y218479D01*
X54810D01*
Y218466D01*
X54796D01*
Y218452D01*
X54782D01*
Y218438D01*
X54769D01*
Y218425D01*
X54755D01*
Y218384D01*
X54741D01*
X54728D01*
Y218356D01*
X54714D01*
Y218343D01*
X54700D01*
Y218329D01*
X54687D01*
Y218315D01*
X54673D01*
Y218302D01*
X54659D01*
Y218288D01*
X54646D01*
Y218274D01*
X54632D01*
Y218261D01*
X54618D01*
Y218233D01*
X54605D01*
X54591D01*
Y218206D01*
X54577D01*
Y218192D01*
X54563D01*
Y218165D01*
X54550D01*
X54536D01*
Y218137D01*
X54522D01*
Y218124D01*
X54509D01*
Y218110D01*
X54495D01*
Y218096D01*
X54481D01*
Y218083D01*
X54468D01*
Y218069D01*
X54454D01*
Y218055D01*
X54440D01*
Y218042D01*
X54427D01*
Y218028D01*
X54413D01*
Y218014D01*
X54399D01*
Y218001D01*
X54386D01*
Y217987D01*
X54372D01*
Y217973D01*
X54358D01*
Y217959D01*
X54345D01*
Y217946D01*
X54331D01*
Y217932D01*
X54317D01*
Y217918D01*
X54303D01*
Y217905D01*
X54290D01*
Y217891D01*
X54276D01*
Y217877D01*
X54263D01*
Y217864D01*
X54249D01*
Y217850D01*
X54235D01*
Y217836D01*
X54221D01*
Y217823D01*
X54208D01*
Y217809D01*
X54194D01*
Y217795D01*
X54180D01*
Y217782D01*
X54167D01*
Y217768D01*
X54153D01*
Y217754D01*
X54139D01*
Y217741D01*
X54126D01*
Y217727D01*
X54112D01*
Y217713D01*
X54098D01*
Y217700D01*
X54085D01*
Y217686D01*
X54071D01*
Y217672D01*
X54057D01*
X54044D01*
Y217645D01*
X54030D01*
X54016D01*
Y217631D01*
X54002D01*
X53989D01*
Y217604D01*
X53975D01*
X53961D01*
Y217590D01*
X53948D01*
Y217576D01*
X53934D01*
Y217563D01*
X53920D01*
Y217549D01*
X53907D01*
Y217535D01*
X53893D01*
Y217522D01*
X53879D01*
Y217508D01*
X53866D01*
Y217494D01*
X53852D01*
Y217481D01*
X53838D01*
X53825D01*
Y217453D01*
X53811D01*
Y217467D01*
X53797D01*
Y217453D01*
X53784D01*
Y217440D01*
X53770D01*
Y217426D01*
X53756D01*
Y217412D01*
X53742D01*
Y217399D01*
X53729D01*
Y217385D01*
X53715D01*
Y217371D01*
X53702D01*
X53688D01*
Y217357D01*
X53674D01*
X53660D01*
Y217344D01*
X53647D01*
Y217330D01*
X53633D01*
Y217316D01*
X53619D01*
Y217303D01*
X53606D01*
Y217289D01*
X53592D01*
X53578D01*
Y217275D01*
X53565D01*
X53551D01*
Y217262D01*
X53537D01*
Y217248D01*
X53524D01*
Y217234D01*
X53510D01*
Y217221D01*
X53496D01*
Y217207D01*
X53483D01*
Y217221D01*
X53469D01*
Y217193D01*
X53455D01*
X53442D01*
Y217180D01*
X53428D01*
Y217166D01*
X53414D01*
Y217152D01*
X53400D01*
X53387D01*
Y217139D01*
X53373D01*
X53359D01*
Y217125D01*
X53346D01*
Y217111D01*
X53332D01*
Y217097D01*
X53318D01*
X53305D01*
Y217084D01*
X53291D01*
X53277D01*
Y217070D01*
X53264D01*
Y217056D01*
X53250D01*
Y217043D01*
X53236D01*
X53223D01*
Y217015D01*
X53209D01*
Y217029D01*
X53195D01*
Y217015D01*
X53181D01*
Y217002D01*
X53168D01*
Y216988D01*
X53154D01*
X53140D01*
Y216974D01*
X53127D01*
X53113D01*
Y216961D01*
X53099D01*
Y216947D01*
X53086D01*
Y216933D01*
X53072D01*
Y216947D01*
X53058D01*
Y216933D01*
X53045D01*
Y216920D01*
X53031D01*
Y216906D01*
X53017D01*
Y216920D01*
X53004D01*
Y216892D01*
X52990D01*
X52976D01*
Y216879D01*
X52963D01*
Y216865D01*
X52949D01*
Y216851D01*
X52935D01*
Y216865D01*
X52922D01*
Y216851D01*
X52908D01*
Y216838D01*
X52894D01*
Y216824D01*
X52881D01*
Y216838D01*
X52867D01*
Y216824D01*
X52853D01*
Y216810D01*
X52839D01*
Y216796D01*
X52826D01*
X52812D01*
X52798D01*
Y216783D01*
X52785D01*
Y216769D01*
X52771D01*
X52757D01*
Y216756D01*
X52744D01*
X52730D01*
Y216742D01*
X52716D01*
Y216728D01*
X52703D01*
X52689D01*
X52675D01*
Y216714D01*
X52662D01*
Y216701D01*
X52648D01*
X52634D01*
X52621D01*
Y216687D01*
X52607D01*
Y216673D01*
X52593D01*
X52579D01*
X52566D01*
Y216660D01*
X52552D01*
Y216646D01*
X52538D01*
X52525D01*
X52511D01*
Y216632D01*
X52497D01*
Y216619D01*
X52484D01*
X52470D01*
X52456D01*
Y216605D01*
X52443D01*
X52429D01*
Y216591D01*
X52415D01*
X52402D01*
Y216578D01*
X52388D01*
X52374D01*
X52361D01*
Y216564D01*
X52347D01*
Y216550D01*
X52333D01*
X52320D01*
X52306D01*
Y216536D01*
X52292D01*
Y216523D01*
X52279D01*
Y216536D01*
X52265D01*
Y216523D01*
X52251D01*
Y216509D01*
X52237D01*
X52224D01*
X52210D01*
Y216495D01*
X52196D01*
X52183D01*
Y216482D01*
X52169D01*
X52155D01*
Y216468D01*
X52142D01*
Y216482D01*
X52128D01*
Y216468D01*
X52114D01*
Y216454D01*
X52101D01*
Y216441D01*
X52087D01*
Y216454D01*
X52073D01*
Y216441D01*
X52060D01*
X52046D01*
Y216427D01*
X52032D01*
X52018D01*
Y216413D01*
X52005D01*
Y216427D01*
X51991D01*
Y216413D01*
X51977D01*
Y216400D01*
X51964D01*
X51950D01*
X51936D01*
Y216386D01*
X51923D01*
X51909D01*
X51895D01*
Y216372D01*
X51882D01*
X51868D01*
X51854D01*
Y216359D01*
X51841D01*
X51827D01*
X51813D01*
Y216345D01*
X51800D01*
Y216331D01*
X51786D01*
Y216345D01*
X51772D01*
Y216331D01*
X51758D01*
X51745D01*
X51731D01*
Y216318D01*
X51718D01*
Y216304D01*
X51704D01*
Y216318D01*
X51690D01*
Y216304D01*
X51676D01*
X51663D01*
X51649D01*
Y216290D01*
X51635D01*
Y216277D01*
X51622D01*
Y216290D01*
X51608D01*
Y216277D01*
X51594D01*
X51581D01*
X51567D01*
Y216263D01*
X51553D01*
X51540D01*
X51526D01*
Y216249D01*
X51512D01*
X51499D01*
X51485D01*
X51471D01*
Y216235D01*
X51458D01*
X51444D01*
Y216222D01*
X51430D01*
Y216235D01*
X51416D01*
Y216222D01*
X51403D01*
X51389D01*
X51375D01*
Y216208D01*
X51362D01*
X51348D01*
X51334D01*
Y216195D01*
X51321D01*
Y216208D01*
X51307D01*
Y216195D01*
X51293D01*
X51280D01*
X51266D01*
Y216181D01*
X51252D01*
X51239D01*
X51225D01*
Y216167D01*
X51211D01*
Y216181D01*
X51197D01*
Y216167D01*
X51184D01*
X51170D01*
X51157D01*
Y216153D01*
X51143D01*
X51129D01*
X51115D01*
Y216140D01*
X51102D01*
Y216153D01*
X51088D01*
Y216140D01*
X51074D01*
X51061D01*
X51047D01*
X51033D01*
Y216126D01*
X51020D01*
X51006D01*
X50992D01*
X50979D01*
Y216112D01*
X50965D01*
Y216126D01*
X50951D01*
Y216112D01*
X50938D01*
X50924D01*
X50910D01*
Y216099D01*
X50897D01*
X50883D01*
X50869D01*
Y216085D01*
X50855D01*
Y216099D01*
X50842D01*
Y216085D01*
X50828D01*
Y216099D01*
X50814D01*
Y216085D01*
X50801D01*
X50787D01*
X50773D01*
X50760D01*
X50746D01*
Y216071D01*
X50732D01*
X50719D01*
X50705D01*
X50691D01*
X50678D01*
Y216058D01*
X50664D01*
Y216071D01*
X50650D01*
Y216058D01*
X50637D01*
Y216071D01*
X50623D01*
Y216058D01*
X50609D01*
X50595D01*
X50582D01*
X50568D01*
X50554D01*
Y216044D01*
X50541D01*
X50527D01*
X50513D01*
X50500D01*
X50486D01*
Y216030D01*
X50472D01*
Y216044D01*
X50459D01*
Y216030D01*
X50445D01*
Y216044D01*
X50431D01*
Y216030D01*
X50418D01*
X50404D01*
X50390D01*
X50377D01*
X50363D01*
Y216017D01*
X50349D01*
Y216030D01*
X50336D01*
Y216017D01*
X50322D01*
X50308D01*
X50295D01*
X50281D01*
X50267D01*
X50253D01*
X50240D01*
Y216003D01*
X50226D01*
Y216017D01*
X50212D01*
Y216003D01*
X50199D01*
Y216017D01*
X50185D01*
Y216003D01*
X50171D01*
Y216017D01*
X50158D01*
Y216003D01*
X50144D01*
Y216017D01*
X50130D01*
Y216003D01*
X50117D01*
X50103D01*
X50089D01*
X50076D01*
X50062D01*
X50048D01*
X50034D01*
X50021D01*
X50007D01*
Y215989D01*
X49994D01*
Y216003D01*
X49980D01*
Y215989D01*
X49966D01*
Y216003D01*
X49952D01*
Y215989D01*
X49939D01*
Y216003D01*
X49925D01*
Y215989D01*
X49911D01*
X49898D01*
X49884D01*
X49870D01*
X49857D01*
X49843D01*
X49829D01*
X49816D01*
X49802D01*
X49788D01*
X49775D01*
X49761D01*
X49747D01*
X49733D01*
X49720D01*
X49706D01*
X49692D01*
X49679D01*
X49665D01*
X49651D01*
X49638D01*
X49624D01*
X49610D01*
X49597D01*
X49583D01*
X49569D01*
X49556D01*
X49542D01*
X49528D01*
X49515D01*
X49501D01*
X49487D01*
X49474D01*
X49460D01*
X49446D01*
X49433D01*
X49419D01*
Y216003D01*
X49405D01*
Y215989D01*
X49391D01*
Y216003D01*
X49378D01*
Y215989D01*
X49364D01*
Y216003D01*
X49350D01*
Y215989D01*
X49337D01*
Y216003D01*
X49323D01*
X49309D01*
X49296D01*
X49282D01*
X49268D01*
X49255D01*
X49241D01*
X49227D01*
X49213D01*
Y216017D01*
X49200D01*
Y216003D01*
X49186D01*
Y216017D01*
X49172D01*
Y216003D01*
X49159D01*
Y216017D01*
X49145D01*
Y216003D01*
X49132D01*
Y216017D01*
X49118D01*
Y216003D01*
X49104D01*
Y216017D01*
X49090D01*
X49077D01*
X49063D01*
X49049D01*
X49036D01*
X49022D01*
X49008D01*
X48995D01*
X48981D01*
Y216030D01*
X48967D01*
X48954D01*
X48940D01*
X48926D01*
X48913D01*
Y216044D01*
X48899D01*
Y216030D01*
X48885D01*
Y216044D01*
X48871D01*
Y216030D01*
X48858D01*
Y216044D01*
X48844D01*
Y216030D01*
X48830D01*
Y216044D01*
X48817D01*
X48803D01*
X48789D01*
X48776D01*
X48762D01*
Y216058D01*
X48748D01*
X48735D01*
X48721D01*
X48707D01*
X48694D01*
Y216071D01*
X48680D01*
Y216058D01*
X48666D01*
Y216071D01*
X48653D01*
Y216058D01*
X48639D01*
Y216071D01*
X48625D01*
X48612D01*
X48598D01*
Y216085D01*
X48584D01*
X48570D01*
X48557D01*
X48543D01*
X48529D01*
Y216099D01*
X48516D01*
Y216085D01*
X48502D01*
Y216099D01*
X48488D01*
X48475D01*
X48461D01*
X48447D01*
X48434D01*
Y216112D01*
X48420D01*
X48406D01*
X48393D01*
Y216126D01*
X48379D01*
Y216112D01*
X48365D01*
Y216126D01*
X48351D01*
Y216112D01*
X48338D01*
Y216126D01*
X48324D01*
X48311D01*
X48297D01*
Y216140D01*
X48283D01*
X48269D01*
X48256D01*
Y216153D01*
X48242D01*
Y216140D01*
X48228D01*
Y216153D01*
X48215D01*
X48201D01*
X48187D01*
Y216167D01*
X48174D01*
X48160D01*
X48146D01*
X48133D01*
X48119D01*
Y216181D01*
X48105D01*
Y216167D01*
X48092D01*
Y216181D01*
X48078D01*
X48064D01*
X48050D01*
Y216195D01*
X48037D01*
Y216208D01*
X48023D01*
Y216195D01*
X48009D01*
Y216208D01*
X47996D01*
X47982D01*
X47968D01*
Y216222D01*
X47955D01*
X47941D01*
X47927D01*
Y216235D01*
X47914D01*
Y216222D01*
X47900D01*
Y216235D01*
X47886D01*
X47873D01*
X47859D01*
Y216249D01*
X47845D01*
X47832D01*
X47818D01*
Y216263D01*
X47804D01*
Y216249D01*
X47791D01*
Y216263D01*
X47777D01*
X47763D01*
X47750D01*
Y216277D01*
X47736D01*
Y216290D01*
X47722D01*
Y216277D01*
X47708D01*
Y216290D01*
X47695D01*
X47681D01*
X47667D01*
Y216304D01*
X47654D01*
Y216318D01*
X47640D01*
Y216304D01*
X47626D01*
Y216318D01*
X47613D01*
X47599D01*
X47585D01*
Y216331D01*
X47572D01*
Y216345D01*
X47558D01*
Y216331D01*
X47544D01*
Y216345D01*
X47531D01*
X47517D01*
X47503D01*
Y216359D01*
X47490D01*
Y216372D01*
X47476D01*
Y216359D01*
X47462D01*
Y216372D01*
X47449D01*
X47435D01*
X47421D01*
Y216386D01*
X47407D01*
Y216400D01*
X47394D01*
Y216386D01*
X47380D01*
Y216400D01*
X47366D01*
X47353D01*
Y216413D01*
X47339D01*
X47325D01*
Y216427D01*
X47312D01*
Y216413D01*
X47298D01*
Y216427D01*
X47284D01*
Y216441D01*
X47271D01*
X47257D01*
X47243D01*
Y216454D01*
X47230D01*
Y216468D01*
X47216D01*
X47202D01*
X47188D01*
Y216482D01*
X47175D01*
X47161D01*
X47148D01*
Y216495D01*
X47134D01*
Y216509D01*
X47120D01*
Y216495D01*
X47106D01*
Y216509D01*
X47093D01*
Y216523D01*
X47079D01*
X47065D01*
X47052D01*
Y216536D01*
X47038D01*
X47024D01*
Y216550D01*
X47011D01*
X46997D01*
Y216564D01*
X46983D01*
X46970D01*
X46956D01*
Y216578D01*
X46942D01*
Y216591D01*
X46929D01*
Y216578D01*
X46915D01*
Y216591D01*
X46901D01*
Y216605D01*
X46887D01*
Y216619D01*
X46874D01*
Y216605D01*
X46860D01*
Y216619D01*
X46846D01*
Y216632D01*
X46833D01*
Y216646D01*
X46819D01*
Y216632D01*
X46805D01*
Y216646D01*
X46792D01*
Y216660D01*
X46778D01*
X46764D01*
X46751D01*
Y216673D01*
X46737D01*
Y216687D01*
X46723D01*
Y216701D01*
X46710D01*
Y216687D01*
X46696D01*
Y216701D01*
X46682D01*
Y216714D01*
X46669D01*
X46655D01*
X46641D01*
Y216728D01*
X46628D01*
Y216742D01*
X46614D01*
Y216756D01*
X46600D01*
Y216742D01*
X46586D01*
Y216756D01*
X46573D01*
Y216769D01*
X46559D01*
Y216783D01*
X46545D01*
Y216769D01*
X46532D01*
Y216783D01*
X46518D01*
Y216796D01*
X46504D01*
Y216810D01*
X46491D01*
Y216796D01*
X46477D01*
Y216810D01*
X46463D01*
Y216824D01*
X46450D01*
Y216838D01*
X46436D01*
X46422D01*
Y216851D01*
X46409D01*
X46395D01*
Y216865D01*
X46381D01*
Y216879D01*
X46367D01*
Y216892D01*
X46354D01*
Y216879D01*
X46340D01*
Y216892D01*
X46327D01*
Y216906D01*
X46313D01*
Y216920D01*
X46299D01*
X46285D01*
Y216933D01*
X46272D01*
X46258D01*
Y216947D01*
X46244D01*
Y216961D01*
X46231D01*
Y216974D01*
X46217D01*
Y216961D01*
X46203D01*
Y216974D01*
X46190D01*
Y216988D01*
X46176D01*
Y217002D01*
X46162D01*
X46149D01*
Y217015D01*
X46135D01*
X46121D01*
Y217029D01*
X46108D01*
Y217043D01*
X46094D01*
Y217056D01*
X46080D01*
X46066D01*
Y217070D01*
X46053D01*
X46039D01*
Y217084D01*
X46025D01*
Y217097D01*
X46012D01*
Y217111D01*
X45998D01*
X45984D01*
Y217125D01*
X45971D01*
X45957D01*
Y217139D01*
X45943D01*
Y217152D01*
X45930D01*
Y217166D01*
X45916D01*
X45902D01*
Y217193D01*
X45889D01*
Y217180D01*
X45875D01*
Y217193D01*
X45861D01*
Y217207D01*
X45848D01*
Y217221D01*
X45834D01*
Y217234D01*
X45820D01*
Y217248D01*
X45807D01*
X45793D01*
X45779D01*
Y217262D01*
X45766D01*
Y217275D01*
X45752D01*
Y217289D01*
X45738D01*
Y217303D01*
X45724D01*
Y217316D01*
X45711D01*
Y217330D01*
X45697D01*
Y217316D01*
X45683D01*
Y217344D01*
X45670D01*
X45656D01*
Y217357D01*
X45642D01*
Y217371D01*
X45629D01*
Y217385D01*
X45615D01*
Y217399D01*
X45601D01*
Y217412D01*
X45588D01*
X45574D01*
Y217426D01*
X45560D01*
X45547D01*
Y217440D01*
X45533D01*
Y217453D01*
X45519D01*
Y217467D01*
X45505D01*
Y217481D01*
X45492D01*
Y217494D01*
X45478D01*
Y217508D01*
X45465D01*
Y217522D01*
X45451D01*
X45437D01*
Y217549D01*
X45423D01*
Y217535D01*
X45410D01*
Y217576D01*
X45396D01*
Y217563D01*
X45382D01*
Y217576D01*
X45369D01*
Y217590D01*
X45355D01*
Y217604D01*
X45341D01*
Y217618D01*
X45328D01*
Y217631D01*
X45314D01*
Y217645D01*
X45300D01*
Y217658D01*
X45287D01*
Y217672D01*
X45273D01*
Y217686D01*
X45259D01*
Y217700D01*
X45246D01*
Y217713D01*
X45232D01*
X45218D01*
Y217741D01*
X45204D01*
X45191D01*
Y217768D01*
X45177D01*
X45164D01*
Y217782D01*
X45150D01*
Y217795D01*
X45136D01*
Y217809D01*
X45122D01*
X45109D01*
Y217836D01*
X45095D01*
X45081D01*
Y217864D01*
X45068D01*
X45054D01*
Y217877D01*
X45040D01*
Y217891D01*
X45027D01*
Y217905D01*
X45013D01*
Y217918D01*
X44999D01*
Y217932D01*
X44986D01*
Y217946D01*
X44972D01*
Y217973D01*
X44958D01*
X44945D01*
Y218001D01*
X44931D01*
Y218014D01*
X44917D01*
Y218028D01*
X44903D01*
Y218042D01*
X44890D01*
Y218055D01*
X44876D01*
Y218069D01*
X44862D01*
Y218096D01*
X44849D01*
X44835D01*
Y218124D01*
X44821D01*
X44808D01*
Y218151D01*
X44794D01*
Y218165D01*
X44780D01*
Y218179D01*
X44767D01*
Y218192D01*
X44753D01*
Y218206D01*
X44739D01*
Y218219D01*
X44726D01*
Y218233D01*
X44712D01*
Y218247D01*
X44698D01*
Y218261D01*
X44685D01*
Y218274D01*
X44671D01*
Y218315D01*
X44657D01*
Y218302D01*
X44644D01*
Y218343D01*
X44630D01*
Y218356D01*
X44616D01*
Y218370D01*
X44603D01*
Y218384D01*
X44589D01*
Y218397D01*
X44575D01*
Y218411D01*
X44561D01*
Y218425D01*
X44548D01*
Y218438D01*
X44534D01*
Y218479D01*
X44520D01*
X44507D01*
Y218507D01*
X44493D01*
Y218520D01*
X44479D01*
Y218534D01*
X44466D01*
Y218548D01*
X44452D01*
Y218575D01*
X44438D01*
X44425D01*
Y218616D01*
X44411D01*
Y218630D01*
X44397D01*
Y218644D01*
X44384D01*
Y218657D01*
X44370D01*
Y218671D01*
X44356D01*
Y218698D01*
X44342D01*
Y218726D01*
X44329D01*
Y218739D01*
X44315D01*
Y218753D01*
X44302D01*
Y218767D01*
X44288D01*
Y218808D01*
X44274D01*
Y218822D01*
X44260D01*
Y218835D01*
X44247D01*
Y218849D01*
X44233D01*
Y218876D01*
X44219D01*
Y218904D01*
X44206D01*
Y218917D01*
X44192D01*
Y218931D01*
X44178D01*
Y218972D01*
X44165D01*
Y218986D01*
X44151D01*
Y218999D01*
X44137D01*
Y219013D01*
X44124D01*
Y219054D01*
X44110D01*
Y219068D01*
X44096D01*
Y219081D01*
X44082D01*
Y219095D01*
X44069D01*
Y219136D01*
X44055D01*
Y219150D01*
X44041D01*
Y219164D01*
X44028D01*
Y219191D01*
X44014D01*
Y219218D01*
X44001D01*
Y219232D01*
X43987D01*
Y219273D01*
X43973D01*
Y219287D01*
X43959D01*
Y219328D01*
X43946D01*
Y219341D01*
X43932D01*
Y219355D01*
X43918D01*
Y219369D01*
X43932D01*
Y219383D01*
X43918D01*
Y219369D01*
X43905D01*
Y219383D01*
X43918D01*
Y219396D01*
X43905D01*
Y219410D01*
X43891D01*
Y219424D01*
X43877D01*
Y219465D01*
X43864D01*
Y219478D01*
X43850D01*
Y219519D01*
X43836D01*
Y219533D01*
X43823D01*
Y219574D01*
X43809D01*
Y219588D01*
X43795D01*
Y219629D01*
X43782D01*
Y219642D01*
X43768D01*
Y219684D01*
X43754D01*
Y219697D01*
X43740D01*
Y219738D01*
X43727D01*
Y219752D01*
X43713D01*
Y219793D01*
X43699D01*
Y219807D01*
X43686D01*
Y219848D01*
X43672D01*
Y219889D01*
X43658D01*
Y219930D01*
X43645D01*
Y219943D01*
X43631D01*
Y219985D01*
X43617D01*
Y219998D01*
X43604D01*
Y220039D01*
X43590D01*
Y220080D01*
X43576D01*
Y220121D01*
X43563D01*
Y220135D01*
X43549D01*
Y220176D01*
X43535D01*
Y220190D01*
X43522D01*
Y220203D01*
X43535D01*
Y220217D01*
X43522D01*
Y220258D01*
X43508D01*
Y220272D01*
X43494D01*
Y220286D01*
X43508D01*
Y220299D01*
X43494D01*
Y220313D01*
X43481D01*
Y220327D01*
X43494D01*
Y220340D01*
X43481D01*
Y220354D01*
X43467D01*
Y220395D01*
X43453D01*
Y220436D01*
X43439D01*
Y220477D01*
X43426D01*
Y220518D01*
X43412D01*
Y220559D01*
X43398D01*
Y220600D01*
X43385D01*
Y220641D01*
X43371D01*
Y220655D01*
X43385D01*
Y220669D01*
X43371D01*
Y220682D01*
X43357D01*
Y220696D01*
X43371D01*
Y220710D01*
X43357D01*
Y220751D01*
X43344D01*
Y220792D01*
X43330D01*
Y220860D01*
X43316D01*
Y220874D01*
X43303D01*
Y220888D01*
X43316D01*
Y220901D01*
X43303D01*
Y220942D01*
X43289D01*
Y220956D01*
X43303D01*
Y220970D01*
X43289D01*
Y220983D01*
X43275D01*
Y220997D01*
X43289D01*
Y221011D01*
X43275D01*
Y221079D01*
X43262D01*
Y221120D01*
X43248D01*
Y221189D01*
X43234D01*
Y221202D01*
X43248D01*
Y221216D01*
X43234D01*
Y221230D01*
X43220D01*
Y221243D01*
X43234D01*
Y221257D01*
X43220D01*
Y221325D01*
X43207D01*
Y221339D01*
X43220D01*
Y221353D01*
X43207D01*
Y221367D01*
X43193D01*
Y221380D01*
X43207D01*
Y221394D01*
X43193D01*
Y221462D01*
X43180D01*
Y221476D01*
X43193D01*
Y221490D01*
X43180D01*
Y221531D01*
X43166D01*
Y221544D01*
X43180D01*
Y221558D01*
X43166D01*
Y221654D01*
X43152D01*
Y221668D01*
X43166D01*
Y221681D01*
X43152D01*
Y221722D01*
X43138D01*
Y221736D01*
X43152D01*
Y221750D01*
X43138D01*
Y221873D01*
X43125D01*
Y221886D01*
X43138D01*
Y221900D01*
X43125D01*
Y221914D01*
X43138D01*
Y221927D01*
X43125D01*
Y221996D01*
X43111D01*
Y222010D01*
X43125D01*
Y222023D01*
X43111D01*
Y222037D01*
X43125D01*
Y222051D01*
X43111D01*
Y222229D01*
X43097D01*
Y222242D01*
X43111D01*
Y222256D01*
X43097D01*
Y222270D01*
X43111D01*
Y222283D01*
X43097D01*
Y222297D01*
X43111D01*
Y222311D01*
X43097D01*
Y222324D01*
X43111D01*
Y222338D01*
X43097D01*
Y222352D01*
X43111D01*
Y222365D01*
X43097D01*
Y222379D01*
X43111D01*
Y222393D01*
X43097D01*
Y222406D01*
X43111D01*
Y222420D01*
X43097D01*
Y222434D01*
X43111D01*
Y222447D01*
X43097D01*
Y222488D01*
X43111D01*
Y222502D01*
X43097D01*
Y222598D01*
X43111D01*
Y222612D01*
X43097D01*
Y222653D01*
X43111D01*
Y222666D01*
X43097D01*
Y222707D01*
X43111D01*
Y222721D01*
X43097D01*
Y222735D01*
X43111D01*
Y222748D01*
X43097D01*
Y222762D01*
X43111D01*
Y222776D01*
X43097D01*
Y222790D01*
X43111D01*
Y222803D01*
X43097D01*
Y222817D01*
X43111D01*
Y222831D01*
X43097D01*
Y222844D01*
X43111D01*
Y222885D01*
X43097D01*
Y222899D01*
X43111D01*
Y223077D01*
X43125D01*
Y223091D01*
X43111D01*
Y223104D01*
X43125D01*
Y223118D01*
X43111D01*
Y223132D01*
X43125D01*
Y223173D01*
X43138D01*
Y223186D01*
X43125D01*
Y223200D01*
X43138D01*
Y223214D01*
X43125D01*
Y223227D01*
X43138D01*
Y223241D01*
X43125D01*
Y223255D01*
X43138D01*
Y223351D01*
X43152D01*
Y223364D01*
X43138D01*
Y223378D01*
X43152D01*
Y223419D01*
X43166D01*
Y223433D01*
X43152D01*
Y223446D01*
X43166D01*
Y223542D01*
X43180D01*
Y223556D01*
X43166D01*
Y223569D01*
X43180D01*
Y223610D01*
X43193D01*
Y223624D01*
X43180D01*
Y223638D01*
X43193D01*
Y223706D01*
X43207D01*
Y223720D01*
X43193D01*
Y223734D01*
X43207D01*
Y223747D01*
X43220D01*
Y223761D01*
X43207D01*
Y223747D01*
X43193D01*
Y223761D01*
X43207D01*
Y223775D01*
X43220D01*
Y223843D01*
X43234D01*
Y223857D01*
X43220D01*
Y223870D01*
X43234D01*
Y223911D01*
X43248D01*
Y223980D01*
X43262D01*
Y223994D01*
X43248D01*
Y224007D01*
X43262D01*
Y224021D01*
X43275D01*
Y224035D01*
X43262D01*
Y224048D01*
X43275D01*
Y224117D01*
X43289D01*
Y224158D01*
X43303D01*
Y224226D01*
X43316D01*
Y224240D01*
X43330D01*
Y224254D01*
X43316D01*
Y224267D01*
X43330D01*
Y224308D01*
X43344D01*
Y224322D01*
X43330D01*
Y224336D01*
X43344D01*
Y224349D01*
X43357D01*
Y224363D01*
X43344D01*
Y224377D01*
X43357D01*
Y224418D01*
X43371D01*
Y224459D01*
X43385D01*
Y224500D01*
X43398D01*
Y224541D01*
X43412D01*
Y224582D01*
X43426D01*
Y224596D01*
X43412D01*
Y224609D01*
X43426D01*
Y224623D01*
X43439D01*
Y224664D01*
X43453D01*
Y224678D01*
X43439D01*
Y224691D01*
X43453D01*
Y224705D01*
X43467D01*
Y224746D01*
X43481D01*
Y224787D01*
X43494D01*
Y224828D01*
X43508D01*
Y224869D01*
X43522D01*
Y224910D01*
X43535D01*
Y224924D01*
X43549D01*
Y224965D01*
X43563D01*
Y224979D01*
X43549D01*
Y224992D01*
X43563D01*
Y225006D01*
X43576D01*
Y225047D01*
X43590D01*
Y225061D01*
X43604D01*
Y225102D01*
X43617D01*
Y225143D01*
X43631D01*
Y225184D01*
X43645D01*
Y225198D01*
X43658D01*
Y225239D01*
X43672D01*
Y225252D01*
X43686D01*
Y225293D01*
X43699D01*
Y225307D01*
X43713D01*
Y225348D01*
X43727D01*
Y225362D01*
X43740D01*
Y225376D01*
X43727D01*
Y225389D01*
X43740D01*
Y225403D01*
X43754D01*
Y225430D01*
X43768D01*
Y225458D01*
X43782D01*
Y225471D01*
X43795D01*
Y225485D01*
X43782D01*
Y225499D01*
X43795D01*
Y225512D01*
X43809D01*
Y225553D01*
X43823D01*
Y225567D01*
X43836D01*
Y225581D01*
X43850D01*
Y225594D01*
X43836D01*
Y225608D01*
X43850D01*
Y225622D01*
X43864D01*
Y225636D01*
X43877D01*
Y225677D01*
X43891D01*
Y225690D01*
X43905D01*
Y225731D01*
X43918D01*
Y225745D01*
X43932D01*
Y225786D01*
X43946D01*
Y225800D01*
X43959D01*
Y225841D01*
X43973D01*
Y225854D01*
X43987D01*
Y225868D01*
X44001D01*
Y225882D01*
X44014D01*
Y225923D01*
X44028D01*
Y225937D01*
X44041D01*
Y225978D01*
X44055D01*
Y225991D01*
X44069D01*
Y226005D01*
X44082D01*
Y226019D01*
X44096D01*
Y226060D01*
X44110D01*
Y226073D01*
X44124D01*
Y226087D01*
X44137D01*
Y226101D01*
X44151D01*
Y226142D01*
X44165D01*
Y226155D01*
X44178D01*
Y226169D01*
X44192D01*
Y226197D01*
X44206D01*
Y226224D01*
X44219D01*
Y226238D01*
X44233D01*
Y226251D01*
X44247D01*
Y226265D01*
X44260D01*
Y226306D01*
X44274D01*
Y226320D01*
X44288D01*
Y226333D01*
X44302D01*
Y226347D01*
X44315D01*
Y226388D01*
X44329D01*
Y226402D01*
X44342D01*
Y226415D01*
X44356D01*
Y226429D01*
X44370D01*
Y226456D01*
X44384D01*
X44397D01*
Y226498D01*
X44411D01*
Y226511D01*
X44425D01*
Y226525D01*
X44438D01*
Y226539D01*
X44452D01*
Y226552D01*
X44466D01*
Y226566D01*
X44479D01*
Y226607D01*
X44493D01*
Y226621D01*
X44507D01*
Y226634D01*
X44520D01*
Y226648D01*
X44534D01*
Y226662D01*
X44548D01*
Y226675D01*
X44561D01*
Y226703D01*
X44575D01*
X44589D01*
Y226744D01*
X44603D01*
Y226758D01*
X44616D01*
Y226771D01*
X44630D01*
Y226785D01*
X44644D01*
Y226799D01*
X44657D01*
Y226812D01*
X44671D01*
Y226826D01*
X44685D01*
Y226840D01*
X44698D01*
Y226853D01*
X44712D01*
Y226867D01*
X44726D01*
Y226894D01*
X44739D01*
X44753D01*
Y226922D01*
X44767D01*
Y226935D01*
X44780D01*
Y226963D01*
X44794D01*
Y226976D01*
X44808D01*
Y226990D01*
X44821D01*
Y227004D01*
X44835D01*
Y227017D01*
X44849D01*
Y227031D01*
X44862D01*
Y227045D01*
X44876D01*
Y227059D01*
X44890D01*
Y227072D01*
X44903D01*
Y227086D01*
X44917D01*
Y227100D01*
X44931D01*
Y227113D01*
X44945D01*
Y227127D01*
X44958D01*
Y227141D01*
X44972D01*
Y227154D01*
X44986D01*
Y227168D01*
X44999D01*
Y227182D01*
X45013D01*
Y227195D01*
X45027D01*
Y227209D01*
X45040D01*
Y227223D01*
X45054D01*
Y227236D01*
X45068D01*
Y227250D01*
X45081D01*
Y227264D01*
X45095D01*
Y227277D01*
X45109D01*
Y227291D01*
X45122D01*
Y227305D01*
X45136D01*
Y227319D01*
X45150D01*
Y227332D01*
X45164D01*
Y227346D01*
X45177D01*
Y227360D01*
X45191D01*
Y227373D01*
X45204D01*
Y227387D01*
X45218D01*
Y227401D01*
X45232D01*
Y227414D01*
X45246D01*
Y227428D01*
X45259D01*
Y227442D01*
X45273D01*
Y227455D01*
X45287D01*
X45300D01*
Y227469D01*
X45314D01*
Y227483D01*
X45328D01*
Y227496D01*
X45341D01*
X45355D01*
Y227510D01*
X45369D01*
Y227524D01*
X45382D01*
Y227537D01*
X45396D01*
Y227551D01*
X45410D01*
Y227565D01*
X45423D01*
Y227578D01*
X45437D01*
Y227592D01*
X45451D01*
Y227606D01*
X45465D01*
Y227620D01*
X45478D01*
X45492D01*
Y227647D01*
X45505D01*
Y227633D01*
X45519D01*
Y227660D01*
X45533D01*
X45547D01*
Y227674D01*
X45560D01*
Y227688D01*
X45574D01*
Y227702D01*
X45588D01*
Y227715D01*
X45601D01*
Y227729D01*
X45615D01*
X45629D01*
Y227743D01*
X45642D01*
X45656D01*
Y227756D01*
X45670D01*
Y227770D01*
X45683D01*
Y227784D01*
X45697D01*
Y227797D01*
X45711D01*
Y227811D01*
X45724D01*
Y227825D01*
X45738D01*
Y227838D01*
X45752D01*
Y227825D01*
X45766D01*
Y227852D01*
X45779D01*
X45793D01*
Y227866D01*
X45807D01*
Y227880D01*
X45820D01*
Y227893D01*
X45834D01*
X45848D01*
Y227907D01*
X45861D01*
X45875D01*
Y227921D01*
X45889D01*
Y227934D01*
X45902D01*
Y227948D01*
X45916D01*
Y227962D01*
X45930D01*
Y227975D01*
X45943D01*
Y227962D01*
X45957D01*
Y227975D01*
X45971D01*
Y227989D01*
X45984D01*
Y228003D01*
X45998D01*
Y228016D01*
X46012D01*
Y228030D01*
X46025D01*
X46039D01*
X46053D01*
Y228044D01*
X46066D01*
Y228057D01*
X46080D01*
Y228071D01*
X46094D01*
Y228085D01*
X46108D01*
Y228071D01*
X46121D01*
Y228085D01*
X46135D01*
Y228098D01*
X46149D01*
Y228112D01*
X46162D01*
X46176D01*
Y228126D01*
X46190D01*
X46203D01*
Y228139D01*
X46217D01*
Y228153D01*
X46231D01*
Y228167D01*
X46244D01*
X46258D01*
Y228181D01*
X46272D01*
X46285D01*
Y228194D01*
X46299D01*
Y228208D01*
X46313D01*
X46327D01*
X46340D01*
Y228222D01*
X46354D01*
Y228235D01*
X46367D01*
Y228249D01*
X46381D01*
Y228235D01*
X46395D01*
Y228263D01*
X46409D01*
X46422D01*
Y228276D01*
X46436D01*
X46450D01*
Y228290D01*
X46463D01*
X46477D01*
Y228304D01*
X46491D01*
Y228317D01*
X46504D01*
Y228331D01*
X46518D01*
Y228317D01*
X46532D01*
Y228331D01*
X46545D01*
Y228345D01*
X46559D01*
Y228358D01*
X46573D01*
X46586D01*
X46600D01*
Y228372D01*
X46614D01*
Y228386D01*
X46628D01*
Y228372D01*
X46641D01*
Y228386D01*
X46655D01*
Y228399D01*
X46669D01*
Y228413D01*
X46682D01*
X46696D01*
X46710D01*
Y228427D01*
X46723D01*
Y228440D01*
X46737D01*
X46751D01*
X46764D01*
Y228454D01*
X46778D01*
Y228468D01*
X46792D01*
X46805D01*
X46819D01*
Y228482D01*
X46833D01*
Y228495D01*
X46846D01*
Y228482D01*
X46860D01*
Y228495D01*
X46874D01*
Y228509D01*
X46887D01*
Y228523D01*
X46901D01*
Y228509D01*
X46915D01*
Y228523D01*
X46929D01*
Y228536D01*
X46942D01*
Y228550D01*
X46956D01*
Y228536D01*
X46970D01*
Y228550D01*
X46983D01*
Y228564D01*
X46997D01*
X47011D01*
X47024D01*
Y228577D01*
X47038D01*
X47052D01*
Y228591D01*
X47065D01*
X47079D01*
Y228605D01*
X47093D01*
X47106D01*
X47120D01*
Y228618D01*
X47134D01*
Y228632D01*
X47148D01*
Y228618D01*
X47161D01*
Y228632D01*
X47175D01*
Y228646D01*
X47188D01*
X47202D01*
X47216D01*
Y228659D01*
X47230D01*
X47243D01*
Y228673D01*
X47257D01*
X47271D01*
Y228687D01*
X47284D01*
Y228673D01*
X47298D01*
Y228687D01*
X47312D01*
Y228700D01*
X47325D01*
X47339D01*
X47353D01*
Y228714D01*
X47366D01*
X47380D01*
X47394D01*
Y228728D01*
X47407D01*
Y228742D01*
X47421D01*
Y228728D01*
X47435D01*
Y228742D01*
X47449D01*
X47462D01*
X47476D01*
Y228755D01*
X47490D01*
Y228769D01*
X47503D01*
Y228755D01*
X47517D01*
Y228769D01*
X47531D01*
X47544D01*
X47558D01*
Y228783D01*
X47572D01*
Y228796D01*
X47585D01*
Y228783D01*
X47599D01*
Y228796D01*
X47613D01*
X47626D01*
X47640D01*
Y228810D01*
X47654D01*
Y228824D01*
X47667D01*
Y228810D01*
X47681D01*
Y228824D01*
X47695D01*
X47708D01*
X47722D01*
Y228837D01*
X47736D01*
Y228851D01*
X47750D01*
Y228837D01*
X47763D01*
Y228851D01*
X47777D01*
X47791D01*
X47804D01*
Y228865D01*
X47818D01*
X47832D01*
X47845D01*
Y228878D01*
X47859D01*
Y228865D01*
X47873D01*
Y228878D01*
X47886D01*
Y228892D01*
X47900D01*
X47914D01*
X47927D01*
X47941D01*
X47955D01*
Y228906D01*
X47968D01*
Y228892D01*
X47982D01*
Y228906D01*
X47996D01*
Y228919D01*
X48009D01*
X48023D01*
X48037D01*
Y228933D01*
X48050D01*
Y228919D01*
X48064D01*
Y228933D01*
X48078D01*
X48092D01*
X48105D01*
Y228947D01*
X48119D01*
X48133D01*
X48146D01*
Y228960D01*
X48160D01*
Y228947D01*
X48174D01*
Y228960D01*
X48187D01*
Y228947D01*
X48201D01*
Y228960D01*
X48215D01*
X48228D01*
X48242D01*
Y228974D01*
X48256D01*
X48269D01*
X48283D01*
Y228988D01*
X48297D01*
Y228974D01*
X48311D01*
Y228988D01*
X48324D01*
X48338D01*
X48351D01*
X48365D01*
X48379D01*
Y229001D01*
X48393D01*
Y229015D01*
X48406D01*
Y229001D01*
X48420D01*
Y229015D01*
X48434D01*
Y229001D01*
X48447D01*
Y229015D01*
X48461D01*
Y229001D01*
X48475D01*
Y229015D01*
X48488D01*
Y229029D01*
X48502D01*
Y229015D01*
X48516D01*
Y229029D01*
X48529D01*
X48543D01*
X48557D01*
Y229043D01*
X48570D01*
Y229029D01*
X48584D01*
Y229043D01*
X48598D01*
Y229029D01*
X48612D01*
Y229043D01*
X48625D01*
X48639D01*
X48653D01*
Y229056D01*
X48666D01*
X48680D01*
X48694D01*
X48707D01*
X48721D01*
Y229070D01*
X48735D01*
Y229056D01*
X48748D01*
Y229070D01*
X48762D01*
Y229056D01*
X48776D01*
Y229070D01*
X48789D01*
Y229056D01*
X48803D01*
Y229070D01*
X48817D01*
X48830D01*
X48844D01*
Y229083D01*
X48858D01*
Y229070D01*
X48871D01*
Y229083D01*
X48885D01*
X48899D01*
X48913D01*
X48926D01*
X48940D01*
X48954D01*
X48967D01*
Y229097D01*
X48981D01*
Y229083D01*
X48995D01*
Y229097D01*
X49008D01*
Y229083D01*
X49022D01*
Y229097D01*
X49036D01*
Y229083D01*
X49049D01*
Y229097D01*
X49063D01*
X49077D01*
X49090D01*
X49104D01*
X49118D01*
X49132D01*
X49145D01*
Y229111D01*
X49159D01*
X49172D01*
X49186D01*
X49200D01*
X49213D01*
X49227D01*
X49241D01*
X49255D01*
X49268D01*
Y229125D01*
X49282D01*
Y229111D01*
X49296D01*
Y229125D01*
X49309D01*
Y229111D01*
X49323D01*
Y229125D01*
X49337D01*
Y229111D01*
X49350D01*
Y229125D01*
X49364D01*
Y229111D01*
X49378D01*
Y229125D01*
X49391D01*
Y229111D01*
X49405D01*
Y229125D01*
X49419D01*
Y229111D01*
X49433D01*
Y229125D01*
X49446D01*
Y229111D01*
X49460D01*
Y229125D01*
X49474D01*
Y229111D01*
X49487D01*
Y229125D01*
X49501D01*
Y229111D01*
X49515D01*
Y229125D01*
X49528D01*
X49542D01*
X49556D01*
Y229111D01*
X49569D01*
Y229125D01*
X49583D01*
X49597D01*
X49610D01*
X49624D01*
X49638D01*
X49651D01*
X49665D01*
Y229111D01*
X49679D01*
Y229125D01*
X49692D01*
X49706D01*
X49720D01*
Y229111D01*
X49733D01*
Y229125D01*
X49747D01*
X49761D01*
X49775D01*
Y229111D01*
X49788D01*
Y229125D01*
X49802D01*
X49816D01*
X49829D01*
Y229111D01*
X49843D01*
Y229125D01*
X49857D01*
X49870D01*
X49884D01*
Y229111D01*
X49898D01*
Y229125D01*
X49911D01*
Y229111D01*
X49925D01*
Y229125D01*
X49939D01*
Y229111D01*
X49952D01*
Y229125D01*
X49966D01*
Y229111D01*
X49980D01*
Y229125D01*
X49994D01*
Y229111D01*
X50007D01*
Y229125D01*
X50021D01*
Y229111D01*
X50034D01*
Y229125D01*
X50048D01*
Y229111D01*
X50062D01*
X50076D01*
X50089D01*
X50103D01*
X50117D01*
X50130D01*
X50144D01*
X50158D01*
X50171D01*
Y229097D01*
X50185D01*
Y229111D01*
X50199D01*
Y229097D01*
X50212D01*
X50226D01*
X50240D01*
X50253D01*
X50267D01*
X50281D01*
X50295D01*
Y229083D01*
X50308D01*
Y229097D01*
X50322D01*
Y229083D01*
X50336D01*
Y229097D01*
X50349D01*
Y229083D01*
X50363D01*
Y229097D01*
X50377D01*
Y229083D01*
X50390D01*
X50404D01*
X50418D01*
X50431D01*
X50445D01*
Y229070D01*
X50459D01*
Y229083D01*
X50472D01*
Y229070D01*
X50486D01*
X50500D01*
X50513D01*
X50527D01*
X50541D01*
Y229056D01*
X50554D01*
Y229070D01*
X50568D01*
Y229056D01*
X50582D01*
Y229070D01*
X50595D01*
Y229056D01*
X50609D01*
X50623D01*
X50637D01*
X50650D01*
X50664D01*
Y229043D01*
X50678D01*
X50691D01*
X50705D01*
X50719D01*
X50732D01*
Y229029D01*
X50746D01*
Y229043D01*
X50760D01*
Y229029D01*
X50773D01*
X50787D01*
X50801D01*
X50814D01*
X50828D01*
Y229015D01*
X50842D01*
X50855D01*
X50869D01*
Y229001D01*
X50883D01*
Y229015D01*
X50897D01*
Y229001D01*
X50910D01*
Y229015D01*
X50924D01*
Y229001D01*
X50938D01*
X50951D01*
X50965D01*
Y228988D01*
X50979D01*
X50992D01*
X51006D01*
Y228974D01*
X51020D01*
Y228988D01*
X51033D01*
Y228974D01*
X51047D01*
Y228988D01*
X51061D01*
Y228974D01*
X51074D01*
X51088D01*
X51102D01*
Y228960D01*
X51115D01*
X51129D01*
X51143D01*
Y228947D01*
X51157D01*
Y228960D01*
X51170D01*
Y228947D01*
X51184D01*
X51197D01*
X51211D01*
Y228933D01*
X51225D01*
X51239D01*
X51252D01*
Y228919D01*
X51266D01*
Y228933D01*
X51280D01*
Y228919D01*
X51293D01*
X51307D01*
X51321D01*
Y228906D01*
X51334D01*
X51348D01*
X51362D01*
Y228892D01*
X51375D01*
Y228906D01*
X51389D01*
Y228892D01*
X51403D01*
X51416D01*
X51430D01*
Y228878D01*
X51444D01*
X51458D01*
X51471D01*
Y228865D01*
X51485D01*
Y228878D01*
X51499D01*
Y228865D01*
X51512D01*
Y228851D01*
X51526D01*
X51540D01*
X51553D01*
Y228837D01*
X51567D01*
Y228851D01*
X51581D01*
Y228837D01*
X51594D01*
X51608D01*
X51622D01*
Y228824D01*
X51635D01*
X51649D01*
X51663D01*
Y228810D01*
X51676D01*
X51690D01*
X51704D01*
Y228796D01*
X51718D01*
X51731D01*
X51745D01*
Y228783D01*
X51758D01*
X51772D01*
X51786D01*
Y228769D01*
X51800D01*
X51813D01*
X51827D01*
Y228755D01*
X51841D01*
X51854D01*
X51868D01*
Y228742D01*
X51882D01*
X51895D01*
X51909D01*
Y228728D01*
X51923D01*
Y228714D01*
X51936D01*
Y228728D01*
X51950D01*
Y228714D01*
X51964D01*
Y228700D01*
X51977D01*
Y228714D01*
X51991D01*
Y228700D01*
X52005D01*
Y228687D01*
X52018D01*
X52032D01*
X52046D01*
Y228673D01*
X52060D01*
Y228687D01*
X52073D01*
Y228673D01*
X52087D01*
Y228659D01*
X52101D01*
Y228646D01*
X52114D01*
Y228659D01*
X52128D01*
Y228646D01*
X52142D01*
Y228632D01*
X52155D01*
X52169D01*
X52183D01*
Y228618D01*
X52196D01*
X52210D01*
X52224D01*
Y228605D01*
X52237D01*
Y228591D01*
X52251D01*
Y228605D01*
X52265D01*
Y228591D01*
X52279D01*
Y228577D01*
X52292D01*
Y228564D01*
X52306D01*
Y228577D01*
X52320D01*
Y228564D01*
X52333D01*
Y228550D01*
X52347D01*
X52361D01*
X52374D01*
Y228536D01*
X52388D01*
X52402D01*
Y228523D01*
X52415D01*
X52429D01*
Y228509D01*
X52443D01*
X52456D01*
Y228495D01*
X52470D01*
X52484D01*
Y228482D01*
X52497D01*
X52511D01*
X52525D01*
Y228468D01*
X52538D01*
Y228454D01*
X52552D01*
X52566D01*
X52579D01*
Y228440D01*
X52593D01*
Y228427D01*
X52607D01*
X52621D01*
X52634D01*
Y228413D01*
X52648D01*
Y228399D01*
X52662D01*
Y228413D01*
X52675D01*
Y228386D01*
X52689D01*
X52703D01*
Y228372D01*
X52716D01*
X52730D01*
X52744D01*
Y228358D01*
X52757D01*
Y228345D01*
X52771D01*
X52785D01*
Y228331D01*
X52798D01*
X52812D01*
Y228317D01*
X52826D01*
Y228304D01*
X52839D01*
Y228290D01*
X52853D01*
Y228304D01*
X52867D01*
Y228290D01*
X52881D01*
Y228276D01*
X52894D01*
Y228263D01*
X52908D01*
Y228276D01*
X52922D01*
Y228263D01*
X52935D01*
Y228249D01*
X52949D01*
Y228235D01*
X52963D01*
X52976D01*
Y228222D01*
X52990D01*
X53004D01*
Y228208D01*
X53017D01*
Y228194D01*
X53031D01*
X53045D01*
X53058D01*
Y228181D01*
X53072D01*
Y228167D01*
X53086D01*
Y228153D01*
X53099D01*
X53113D01*
Y228139D01*
X53127D01*
X53140D01*
Y228126D01*
X53154D01*
Y228112D01*
X53168D01*
Y228098D01*
X53181D01*
Y228112D01*
X53195D01*
Y228098D01*
X53209D01*
Y228085D01*
X53223D01*
Y228071D01*
X53236D01*
Y228057D01*
X53250D01*
Y228044D01*
X53264D01*
Y228057D01*
X53277D01*
Y228044D01*
X53291D01*
Y228030D01*
X53305D01*
Y228016D01*
X53318D01*
X53332D01*
Y228003D01*
X53346D01*
X53359D01*
Y227989D01*
X53373D01*
Y227975D01*
X53387D01*
Y227962D01*
X53400D01*
Y227948D01*
X53414D01*
Y227934D01*
X53428D01*
X53442D01*
X53455D01*
Y227921D01*
X53469D01*
Y227907D01*
X53483D01*
Y227893D01*
X53496D01*
Y227880D01*
X53510D01*
X53524D01*
Y227866D01*
X53537D01*
X53551D01*
Y227852D01*
X53565D01*
Y227838D01*
X53578D01*
Y227825D01*
X53592D01*
Y227811D01*
X53606D01*
Y227797D01*
X53619D01*
X53633D01*
Y227784D01*
X53647D01*
X53660D01*
Y227770D01*
X53674D01*
Y227756D01*
X53688D01*
Y227743D01*
X53702D01*
Y227729D01*
X53715D01*
Y227715D01*
X53729D01*
X53742D01*
Y227702D01*
X53756D01*
X53770D01*
Y227674D01*
X53784D01*
X53797D01*
Y227660D01*
X53811D01*
Y227647D01*
X53825D01*
Y227633D01*
X53838D01*
Y227620D01*
X53852D01*
Y227606D01*
X53866D01*
Y227592D01*
X53879D01*
Y227578D01*
X53893D01*
X53907D01*
Y227565D01*
X53920D01*
X53934D01*
Y227537D01*
X53948D01*
X53961D01*
Y227524D01*
X53975D01*
Y227510D01*
X53989D01*
Y227496D01*
X54002D01*
Y227483D01*
X54016D01*
Y227469D01*
X54030D01*
Y227455D01*
X54044D01*
Y227442D01*
X54057D01*
Y227428D01*
X54071D01*
Y227414D01*
X54085D01*
X54098D01*
Y227387D01*
X54112D01*
X54126D01*
Y227360D01*
X54139D01*
Y227373D01*
X54153D01*
Y227332D01*
X54167D01*
Y227346D01*
X54180D01*
Y227319D01*
X54194D01*
X54208D01*
Y227291D01*
X54221D01*
X54235D01*
Y227264D01*
X54249D01*
X54263D01*
Y227236D01*
X54276D01*
X54290D01*
Y227209D01*
X54303D01*
X54317D01*
Y227182D01*
X54331D01*
X54345D01*
Y227154D01*
X54358D01*
X54372D01*
Y227127D01*
X54386D01*
X54399D01*
Y227100D01*
X54413D01*
X54427D01*
Y227072D01*
X54440D01*
X54454D01*
Y227045D01*
X54468D01*
X54481D01*
Y227004D01*
X54495D01*
X54509D01*
Y226976D01*
X54522D01*
X54536D01*
Y226949D01*
X54550D01*
Y226935D01*
X54563D01*
Y226922D01*
X54577D01*
Y226908D01*
X54591D01*
Y226894D01*
X54605D01*
Y226881D01*
X54618D01*
Y226867D01*
X54632D01*
Y226853D01*
X54646D01*
Y226826D01*
X54659D01*
X54673D01*
Y226785D01*
X54687D01*
X54700D01*
Y226758D01*
X54714D01*
Y226744D01*
X54728D01*
Y226730D01*
X54741D01*
Y226716D01*
X54755D01*
Y226703D01*
X54769D01*
Y226689D01*
X54782D01*
Y226662D01*
X54796D01*
X54810D01*
Y226621D01*
X54823D01*
Y226607D01*
X54837D01*
Y226593D01*
X54851D01*
Y226580D01*
X54865D01*
Y226566D01*
X54878D01*
Y226552D01*
X54892D01*
Y226511D01*
X54905D01*
Y226498D01*
X54919D01*
Y226484D01*
X54933D01*
Y226470D01*
X54947D01*
Y226456D01*
X54960D01*
Y226443D01*
X54974D01*
Y226402D01*
X54988D01*
Y226388D01*
X55001D01*
Y226374D01*
X55015D01*
Y226361D01*
X55029D01*
Y226320D01*
X55042D01*
X55056D01*
Y226292D01*
X55070D01*
Y226279D01*
X55083D01*
Y226265D01*
X55097D01*
Y226251D01*
X55111D01*
Y226210D01*
X55124D01*
Y226197D01*
X55138D01*
Y226183D01*
X55152D01*
Y226169D01*
X55138D01*
Y226155D01*
X55152D01*
X55165D01*
Y226128D01*
X55179D01*
Y226114D01*
X55193D01*
Y226101D01*
X55207D01*
Y226087D01*
X55220D01*
Y226046D01*
X55234D01*
Y226032D01*
X55248D01*
Y225991D01*
X55261D01*
Y225978D01*
X55275D01*
Y225964D01*
X55289D01*
Y225950D01*
X55302D01*
Y225909D01*
X55316D01*
Y225896D01*
X55330D01*
Y225882D01*
X55343D01*
Y225868D01*
X55330D01*
Y225854D01*
X55343D01*
Y225841D01*
X55357D01*
Y225827D01*
X55371D01*
Y225813D01*
X55384D01*
Y225772D01*
X55398D01*
Y225759D01*
X55412D01*
Y225718D01*
X55426D01*
Y225704D01*
X55439D01*
Y225663D01*
X55453D01*
Y225649D01*
X55467D01*
Y225608D01*
X55480D01*
Y225594D01*
X55494D01*
Y225567D01*
X55508D01*
X55521D01*
Y225553D01*
X55508D01*
Y225540D01*
X55521D01*
Y225526D01*
X55535D01*
Y225512D01*
X55521D01*
Y225499D01*
X55535D01*
Y225485D01*
X55549D01*
Y225471D01*
X55562D01*
Y225458D01*
X55576D01*
Y225444D01*
X55562D01*
Y225430D01*
X55576D01*
Y225417D01*
X55590D01*
Y225403D01*
X55576D01*
Y225389D01*
X55590D01*
Y225376D01*
X55603D01*
Y225348D01*
X55617D01*
Y225321D01*
X55631D01*
Y225280D01*
X55644D01*
Y225266D01*
X55658D01*
Y225225D01*
X55672D01*
Y225211D01*
X55686D01*
Y225170D01*
X55699D01*
Y225157D01*
X55713D01*
Y225143D01*
X55699D01*
Y225129D01*
X55713D01*
Y225116D01*
X55726D01*
Y225102D01*
X55713D01*
Y225088D01*
X55726D01*
Y225075D01*
X55740D01*
Y225033D01*
X55754D01*
Y225020D01*
X55768D01*
Y225006D01*
X55754D01*
Y224992D01*
X55768D01*
Y224979D01*
X55781D01*
Y224965D01*
X55795D01*
Y224951D01*
X55781D01*
Y224938D01*
X55795D01*
Y224897D01*
X55809D01*
Y224883D01*
X55822D01*
Y224869D01*
X55809D01*
Y224856D01*
X55822D01*
Y224842D01*
X55836D01*
Y224828D01*
X55822D01*
Y224815D01*
X55836D01*
Y224801D01*
X55850D01*
Y224760D01*
X55863D01*
Y224746D01*
X55850D01*
Y224732D01*
X55863D01*
Y224719D01*
X55877D01*
Y224678D01*
X55891D01*
Y224637D01*
X55904D01*
Y224596D01*
X55918D01*
Y224582D01*
X55904D01*
Y224568D01*
X55918D01*
Y224555D01*
X55932D01*
Y224514D01*
X55945D01*
Y224500D01*
X55932D01*
Y224486D01*
X55945D01*
Y224472D01*
X55959D01*
Y224404D01*
X55973D01*
Y224390D01*
X55986D01*
Y224377D01*
X55973D01*
Y224363D01*
X55986D01*
Y224322D01*
X56000D01*
Y224281D01*
X56014D01*
Y224213D01*
X56028D01*
Y224199D01*
X56014D01*
Y224185D01*
X56028D01*
Y224171D01*
X56041D01*
Y224103D01*
X56055D01*
Y224062D01*
X56069D01*
Y223994D01*
X56082D01*
Y223980D01*
X56069D01*
Y223966D01*
X56082D01*
Y223953D01*
X56096D01*
Y223939D01*
X56082D01*
Y223925D01*
X56096D01*
Y223857D01*
X56110D01*
Y223843D01*
X56096D01*
Y223829D01*
X56110D01*
Y223816D01*
X56123D01*
Y223802D01*
X56110D01*
Y223788D01*
X56123D01*
Y223720D01*
X56137D01*
Y223706D01*
X56123D01*
Y223693D01*
X56137D01*
Y223652D01*
X56151D01*
Y223638D01*
X56137D01*
Y223624D01*
X56151D01*
Y223556D01*
X56164D01*
Y223542D01*
X56151D01*
Y223528D01*
X56164D01*
Y223487D01*
X56178D01*
Y223474D01*
X56164D01*
Y223460D01*
X56178D01*
Y223337D01*
X56192D01*
Y223323D01*
X56178D01*
Y223309D01*
X56192D01*
Y223268D01*
X56205D01*
Y223255D01*
X56192D01*
Y223241D01*
X56205D01*
Y223227D01*
X56192D01*
Y223214D01*
X56205D01*
Y223091D01*
X56219D01*
Y223077D01*
X56205D01*
Y223063D01*
X56219D01*
Y223049D01*
X56205D01*
Y223036D01*
X56219D01*
Y223022D01*
X56205D01*
Y223008D01*
X56219D01*
Y222940D01*
X56233D01*
Y222926D01*
X56219D01*
Y222913D01*
X56233D01*
Y222899D01*
X56219D01*
Y222885D01*
X56233D01*
Y222872D01*
X56219D01*
Y222858D01*
X56233D01*
Y222844D01*
X56219D01*
Y222831D01*
X56233D01*
Y222297D01*
X56219D01*
Y222283D01*
X56233D01*
Y222270D01*
X56219D01*
Y222256D01*
X56233D01*
Y222242D01*
X56219D01*
Y222229D01*
X56233D01*
Y222215D01*
X56219D01*
Y222201D01*
X56233D01*
Y222187D01*
X56219D01*
Y222174D01*
X56233D01*
Y222160D01*
X56219D01*
D02*
G37*
G36*
Y232285D02*
Y232272D01*
X56205D01*
Y232258D01*
X56219D01*
Y232244D01*
X56205D01*
Y232203D01*
X56192D01*
Y232162D01*
X56178D01*
Y232121D01*
X56164D01*
Y232107D01*
X56178D01*
Y232094D01*
X56164D01*
Y232080D01*
X56151D01*
Y232066D01*
X56164D01*
Y232053D01*
X56151D01*
Y232012D01*
X56137D01*
Y231998D01*
X56123D01*
Y231984D01*
X56137D01*
Y231971D01*
X56123D01*
Y231929D01*
X56110D01*
Y231889D01*
X56096D01*
Y231847D01*
X56082D01*
Y231806D01*
X56069D01*
Y231765D01*
X56055D01*
Y231724D01*
X56041D01*
Y231683D01*
X56028D01*
Y231670D01*
X56014D01*
Y231601D01*
X56000D01*
Y231588D01*
X55986D01*
Y231546D01*
X55973D01*
Y231533D01*
X55959D01*
Y231519D01*
X55973D01*
Y231505D01*
X55959D01*
Y231492D01*
X55945D01*
Y231478D01*
X55959D01*
Y231464D01*
X55945D01*
Y231451D01*
X55932D01*
Y231410D01*
X55918D01*
Y231396D01*
X55904D01*
Y231355D01*
X55891D01*
Y231341D01*
X55877D01*
Y231328D01*
X55891D01*
Y231314D01*
X55877D01*
Y231300D01*
X55863D01*
Y231259D01*
X55850D01*
Y231232D01*
X55836D01*
Y231204D01*
X55822D01*
Y231191D01*
X55809D01*
Y231177D01*
X55822D01*
Y231163D01*
X55809D01*
Y231150D01*
X55795D01*
Y231122D01*
X55781D01*
Y231095D01*
X55768D01*
Y231081D01*
X55754D01*
Y231040D01*
X55740D01*
Y231027D01*
X55726D01*
Y231013D01*
X55713D01*
Y230972D01*
X55699D01*
Y230958D01*
X55686D01*
Y230917D01*
X55672D01*
Y230903D01*
X55658D01*
Y230890D01*
X55644D01*
Y230876D01*
X55631D01*
Y230849D01*
X55617D01*
Y230821D01*
X55603D01*
Y230808D01*
X55590D01*
Y230794D01*
X55576D01*
Y230753D01*
X55562D01*
Y230739D01*
X55549D01*
Y230726D01*
X55535D01*
Y230712D01*
X55521D01*
Y230698D01*
X55508D01*
Y230684D01*
X55494D01*
Y230657D01*
X55480D01*
X55467D01*
Y230616D01*
X55453D01*
Y230602D01*
X55439D01*
Y230589D01*
X55426D01*
Y230575D01*
X55412D01*
Y230561D01*
X55398D01*
Y230548D01*
X55384D01*
Y230534D01*
X55371D01*
Y230520D01*
X55357D01*
Y230506D01*
X55343D01*
Y230493D01*
X55330D01*
Y230479D01*
X55316D01*
Y230466D01*
X55302D01*
Y230452D01*
X55289D01*
Y230438D01*
X55275D01*
Y230424D01*
X55261D01*
Y230411D01*
X55248D01*
Y230397D01*
X55234D01*
Y230383D01*
X55220D01*
Y230370D01*
X55207D01*
Y230356D01*
X55193D01*
Y230342D01*
X55179D01*
Y230329D01*
X55165D01*
Y230315D01*
X55152D01*
X55138D01*
Y230288D01*
X55124D01*
X55111D01*
Y230274D01*
X55097D01*
X55083D01*
Y230260D01*
X55070D01*
Y230247D01*
X55056D01*
Y230233D01*
X55042D01*
Y230219D01*
X55029D01*
Y230205D01*
X55015D01*
X55001D01*
Y230192D01*
X54988D01*
X54974D01*
Y230178D01*
X54960D01*
Y230165D01*
X54947D01*
Y230151D01*
X54933D01*
X54919D01*
Y230137D01*
X54905D01*
X54892D01*
Y230123D01*
X54878D01*
Y230110D01*
X54865D01*
Y230096D01*
X54851D01*
X54837D01*
X54823D01*
Y230082D01*
X54810D01*
Y230069D01*
X54796D01*
X54782D01*
Y230055D01*
X54769D01*
X54755D01*
Y230041D01*
X54741D01*
Y230028D01*
X54728D01*
Y230014D01*
X54714D01*
Y230028D01*
X54700D01*
Y230014D01*
X54687D01*
Y230000D01*
X54673D01*
X54659D01*
X54646D01*
Y229987D01*
X54632D01*
Y229973D01*
X54618D01*
X54605D01*
X54591D01*
Y229959D01*
X54577D01*
X54563D01*
Y229946D01*
X54550D01*
X54536D01*
Y229932D01*
X54522D01*
X54509D01*
X54495D01*
Y229918D01*
X54481D01*
Y229905D01*
X54468D01*
Y229918D01*
X54454D01*
Y229905D01*
X54440D01*
Y229891D01*
X54427D01*
X54413D01*
X54399D01*
Y229877D01*
X54386D01*
Y229891D01*
X54372D01*
Y229877D01*
X54358D01*
Y229864D01*
X54345D01*
X54331D01*
X54317D01*
Y229850D01*
X54303D01*
X54290D01*
X54276D01*
Y229836D01*
X54263D01*
X54249D01*
X54235D01*
Y229822D01*
X54221D01*
Y229836D01*
X54208D01*
Y229822D01*
X54194D01*
Y229809D01*
X54180D01*
Y229822D01*
X54167D01*
Y229809D01*
X54153D01*
Y229795D01*
X54139D01*
Y229809D01*
X54126D01*
Y229795D01*
X54112D01*
X54098D01*
X54085D01*
Y229781D01*
X54071D01*
X54057D01*
X54044D01*
Y229768D01*
X54030D01*
Y229781D01*
X54016D01*
Y229768D01*
X54002D01*
X53989D01*
X53975D01*
X53961D01*
X53948D01*
X53934D01*
X53920D01*
X53907D01*
X53893D01*
X53879D01*
X53866D01*
X53852D01*
X53838D01*
X53825D01*
X53811D01*
X53797D01*
X53784D01*
X53770D01*
X53756D01*
X53742D01*
X53729D01*
X53715D01*
X53702D01*
X53688D01*
X53674D01*
X53660D01*
X53647D01*
X53633D01*
X53619D01*
X53606D01*
X53592D01*
X53578D01*
X53565D01*
X53551D01*
X53537D01*
X53524D01*
X53510D01*
X53496D01*
X53483D01*
X53469D01*
X53455D01*
X53442D01*
X53428D01*
X53414D01*
X53400D01*
X53387D01*
X53373D01*
X53359D01*
X53346D01*
X53332D01*
X53318D01*
X53305D01*
X53291D01*
X53277D01*
X53264D01*
X53250D01*
X53236D01*
X53223D01*
X53209D01*
X53195D01*
X53181D01*
X53168D01*
X53154D01*
X53140D01*
X53127D01*
X53113D01*
X53099D01*
X53086D01*
X53072D01*
X53058D01*
X53045D01*
X53031D01*
X53017D01*
X53004D01*
X52990D01*
X52976D01*
X52963D01*
X52949D01*
X52935D01*
X52922D01*
X52908D01*
X52894D01*
X52881D01*
X52867D01*
X52853D01*
X52839D01*
X52826D01*
X52812D01*
X52798D01*
X52785D01*
X52771D01*
X52757D01*
X52744D01*
X52730D01*
X52716D01*
X52703D01*
X52689D01*
X52675D01*
X52662D01*
X52648D01*
X52634D01*
X52621D01*
X52607D01*
X52593D01*
X52579D01*
X52566D01*
X52552D01*
X52538D01*
X52525D01*
X52511D01*
X52497D01*
X52484D01*
X52470D01*
X52456D01*
X52443D01*
X52429D01*
X52415D01*
X52402D01*
X52388D01*
X52374D01*
X52361D01*
X52347D01*
X52333D01*
X52320D01*
X52306D01*
X52292D01*
X52279D01*
X52265D01*
X52251D01*
X52237D01*
X52224D01*
X52210D01*
X52196D01*
X52183D01*
X52169D01*
X52155D01*
X52142D01*
X52128D01*
X52114D01*
X52101D01*
X52087D01*
X52073D01*
X52060D01*
X52046D01*
X52032D01*
X52018D01*
X52005D01*
X51991D01*
X51977D01*
X51964D01*
X51950D01*
X51936D01*
X51923D01*
X51909D01*
X51895D01*
X51882D01*
X51868D01*
X51854D01*
X51841D01*
X51827D01*
X51813D01*
X51800D01*
X51786D01*
X51772D01*
X51758D01*
X51745D01*
X51731D01*
X51718D01*
X51704D01*
X51690D01*
X51676D01*
X51663D01*
X51649D01*
X51635D01*
X51622D01*
X51608D01*
X51594D01*
X51581D01*
X51567D01*
X51553D01*
X51540D01*
X51526D01*
X51512D01*
X51499D01*
X51485D01*
X51471D01*
X51458D01*
X51444D01*
X51430D01*
X51416D01*
X51403D01*
X51389D01*
X51375D01*
X51362D01*
X51348D01*
X51334D01*
X51321D01*
X51307D01*
X51293D01*
X51280D01*
X51266D01*
X51252D01*
X51239D01*
X51225D01*
X51211D01*
X51197D01*
X51184D01*
X51170D01*
X51157D01*
X51143D01*
X51129D01*
X51115D01*
X51102D01*
X51088D01*
X51074D01*
X51061D01*
X51047D01*
X51033D01*
X51020D01*
X51006D01*
X50992D01*
X50979D01*
X50965D01*
X50951D01*
X50938D01*
X50924D01*
X50910D01*
X50897D01*
X50883D01*
X50869D01*
X50855D01*
X50842D01*
X50828D01*
X50814D01*
X50801D01*
X50787D01*
X50773D01*
X50760D01*
X50746D01*
X50732D01*
X50719D01*
X50705D01*
X50691D01*
X50678D01*
X50664D01*
X50650D01*
X50637D01*
X50623D01*
X50609D01*
X50595D01*
X50582D01*
X50568D01*
X50554D01*
X50541D01*
X50527D01*
X50513D01*
X50500D01*
X50486D01*
X50472D01*
X50459D01*
X50445D01*
X50431D01*
X50418D01*
X50404D01*
X50390D01*
X50377D01*
X50363D01*
X50349D01*
X50336D01*
X50322D01*
X50308D01*
X50295D01*
X50281D01*
X50267D01*
X50253D01*
X50240D01*
X50226D01*
X50212D01*
X50199D01*
X50185D01*
X50171D01*
X50158D01*
X50144D01*
X50130D01*
X50117D01*
X50103D01*
X50089D01*
X50076D01*
X50062D01*
X50048D01*
X50034D01*
X50021D01*
X50007D01*
X49994D01*
X49980D01*
X49966D01*
X49952D01*
X49939D01*
X49925D01*
X49911D01*
X49898D01*
X49884D01*
X49870D01*
X49857D01*
X49843D01*
X49829D01*
X49816D01*
X49802D01*
X49788D01*
X49775D01*
X49761D01*
X49747D01*
X49733D01*
X49720D01*
X49706D01*
X49692D01*
X49679D01*
X49665D01*
X49651D01*
X49638D01*
X49624D01*
X49610D01*
X49597D01*
X49583D01*
X49569D01*
X49556D01*
X49542D01*
X49528D01*
X49515D01*
X49501D01*
X49487D01*
X49474D01*
X49460D01*
X49446D01*
X49433D01*
X49419D01*
X49405D01*
X49391D01*
X49378D01*
X49364D01*
X49350D01*
X49337D01*
X49323D01*
X49309D01*
X49296D01*
X49282D01*
X49268D01*
X49255D01*
X49241D01*
X49227D01*
X49213D01*
X49200D01*
X49186D01*
X49172D01*
X49159D01*
X49145D01*
X49132D01*
X49118D01*
X49104D01*
X49090D01*
X49077D01*
X49063D01*
X49049D01*
X49036D01*
X49022D01*
X49008D01*
X48995D01*
X48981D01*
X48967D01*
X48954D01*
X48940D01*
X48926D01*
X48913D01*
X48899D01*
X48885D01*
X48871D01*
X48858D01*
X48844D01*
X48830D01*
X48817D01*
X48803D01*
X48789D01*
X48776D01*
X48762D01*
X48748D01*
X48735D01*
X48721D01*
X48707D01*
X48694D01*
X48680D01*
X48666D01*
X48653D01*
X48639D01*
X48625D01*
X48612D01*
X48598D01*
X48584D01*
X48570D01*
X48557D01*
X48543D01*
X48529D01*
X48516D01*
X48502D01*
X48488D01*
X48475D01*
X48461D01*
X48447D01*
X48434D01*
X48420D01*
X48406D01*
X48393D01*
X48379D01*
X48365D01*
X48351D01*
X48338D01*
X48324D01*
X48311D01*
X48297D01*
X48283D01*
X48269D01*
X48256D01*
X48242D01*
X48228D01*
X48215D01*
X48201D01*
X48187D01*
X48174D01*
X48160D01*
X48146D01*
X48133D01*
X48119D01*
X48105D01*
X48092D01*
X48078D01*
X48064D01*
X48050D01*
X48037D01*
X48023D01*
X48009D01*
X47996D01*
X47982D01*
X47968D01*
X47955D01*
X47941D01*
X47927D01*
X47914D01*
X47900D01*
X47886D01*
X47873D01*
X47859D01*
X47845D01*
X47832D01*
X47818D01*
X47804D01*
X47791D01*
X47777D01*
X47763D01*
X47750D01*
X47736D01*
X47722D01*
X47708D01*
X47695D01*
X47681D01*
X47667D01*
X47654D01*
X47640D01*
X47626D01*
X47613D01*
X47599D01*
X47585D01*
X47572D01*
X47558D01*
X47544D01*
X47531D01*
X47517D01*
X47503D01*
X47490D01*
X47476D01*
X47462D01*
X47449D01*
X47435D01*
X47421D01*
X47407D01*
X47394D01*
X47380D01*
X47366D01*
X47353D01*
X47339D01*
X47325D01*
X47312D01*
X47298D01*
X47284D01*
X47271D01*
X47257D01*
X47243D01*
X47230D01*
X47216D01*
X47202D01*
X47188D01*
X47175D01*
X47161D01*
X47148D01*
X47134D01*
X47120D01*
X47106D01*
X47093D01*
X47079D01*
X47065D01*
X47052D01*
X47038D01*
X47024D01*
X47011D01*
X46997D01*
X46983D01*
X46970D01*
X46956D01*
X46942D01*
X46929D01*
X46915D01*
X46901D01*
X46887D01*
X46874D01*
X46860D01*
X46846D01*
X46833D01*
X46819D01*
X46805D01*
X46792D01*
X46778D01*
X46764D01*
X46751D01*
X46737D01*
X46723D01*
X46710D01*
X46696D01*
X46682D01*
X46669D01*
X46655D01*
X46641D01*
X46628D01*
X46614D01*
X46600D01*
X46586D01*
X46573D01*
X46559D01*
X46545D01*
X46532D01*
X46518D01*
X46504D01*
X46491D01*
X46477D01*
X46463D01*
X46450D01*
X46436D01*
X46422D01*
X46409D01*
X46395D01*
X46381D01*
X46367D01*
X46354D01*
X46340D01*
X46327D01*
X46313D01*
X46299D01*
X46285D01*
X46272D01*
X46258D01*
X46244D01*
X46231D01*
X46217D01*
X46203D01*
X46190D01*
X46176D01*
X46162D01*
X46149D01*
X46135D01*
X46121D01*
X46108D01*
X46094D01*
X46080D01*
X46066D01*
X46053D01*
X46039D01*
X46025D01*
X46012D01*
X45998D01*
X45984D01*
X45971D01*
X45957D01*
X45943D01*
X45930D01*
X45916D01*
X45902D01*
X45889D01*
X45875D01*
X45861D01*
X45848D01*
X45834D01*
X45820D01*
X45807D01*
X45793D01*
X45779D01*
X45766D01*
X45752D01*
X45738D01*
X45724D01*
X45711D01*
X45697D01*
X45683D01*
X45670D01*
X45656D01*
X45642D01*
X45629D01*
X45615D01*
X45601D01*
X45588D01*
X45574D01*
X45560D01*
X45547D01*
X45533D01*
X45519D01*
X45505D01*
X45492D01*
X45478D01*
X45465D01*
X45451D01*
X45437D01*
X45423D01*
X45410D01*
X45396D01*
X45382D01*
X45369D01*
X45355D01*
X45341D01*
X45328D01*
X45314D01*
X45300D01*
X45287D01*
X45273D01*
X45259D01*
X45246D01*
X45232D01*
X45218D01*
X45204D01*
X45191D01*
X45177D01*
X45164D01*
X45150D01*
X45136D01*
X45122D01*
X45109D01*
X45095D01*
X45081D01*
X45068D01*
X45054D01*
X45040D01*
X45027D01*
X45013D01*
X44999D01*
X44986D01*
X44972D01*
X44958D01*
X44945D01*
X44931D01*
X44917D01*
X44903D01*
X44890D01*
X44876D01*
X44862D01*
X44849D01*
X44835D01*
X44821D01*
X44808D01*
X44794D01*
X44780D01*
X44767D01*
X44753D01*
X44739D01*
X44726D01*
X44712D01*
X44698D01*
X44685D01*
X44671D01*
X44657D01*
X44644D01*
X44630D01*
X44616D01*
X44603D01*
X44589D01*
X44575D01*
X44561D01*
X44548D01*
X44534D01*
X44520D01*
X44507D01*
X44493D01*
X44479D01*
X44466D01*
X44452D01*
X44438D01*
X44425D01*
X44411D01*
X44397D01*
X44384D01*
X44370D01*
X44356D01*
X44342D01*
X44329D01*
X44315D01*
X44302D01*
X44288D01*
X44274D01*
X44260D01*
X44247D01*
X44233D01*
X44219D01*
X44206D01*
X44192D01*
X44178D01*
X44165D01*
X44151D01*
X44137D01*
X44124D01*
X44110D01*
X44096D01*
X44082D01*
X44069D01*
X44055D01*
X44041D01*
X44028D01*
X44014D01*
X44001D01*
X43987D01*
X43973D01*
X43959D01*
X43946D01*
X43932D01*
X43918D01*
X43905D01*
X43891D01*
X43877D01*
X43864D01*
X43850D01*
X43836D01*
X43823D01*
X43809D01*
X43795D01*
X43782D01*
X43768D01*
X43754D01*
X43740D01*
X43727D01*
X43713D01*
X43699D01*
X43686D01*
X43672D01*
X43658D01*
X43645D01*
X43631D01*
X43617D01*
X43604D01*
X43590D01*
X43576D01*
X43563D01*
X43549D01*
X43535D01*
X43522D01*
X43508D01*
X43494D01*
X43481D01*
X43467D01*
X43453D01*
X43439D01*
X43426D01*
X43412D01*
X43398D01*
X43385D01*
X43371D01*
X43357D01*
X43344D01*
X43330D01*
X43316D01*
X43303D01*
X43289D01*
X43275D01*
X43262D01*
X43248D01*
X43234D01*
X43220D01*
X43207D01*
X43193D01*
X43180D01*
X43166D01*
X43152D01*
X43138D01*
X43125D01*
X43111D01*
X43097D01*
Y233298D01*
X43111D01*
Y233284D01*
X43125D01*
X43138D01*
X43152D01*
Y233298D01*
X43166D01*
Y233284D01*
X43180D01*
X43193D01*
X43207D01*
Y233298D01*
X43220D01*
Y233284D01*
X43234D01*
X43248D01*
X43262D01*
Y233298D01*
X43275D01*
Y233284D01*
X43289D01*
X43303D01*
X43316D01*
Y233298D01*
X43330D01*
Y233284D01*
X43344D01*
X43357D01*
X43371D01*
Y233298D01*
X43385D01*
Y233284D01*
X43398D01*
X43412D01*
X43426D01*
Y233298D01*
X43439D01*
Y233284D01*
X43453D01*
X43467D01*
X43481D01*
Y233298D01*
X43494D01*
Y233284D01*
X43508D01*
X43522D01*
X43535D01*
Y233298D01*
X43549D01*
Y233284D01*
X43563D01*
X43576D01*
X43590D01*
Y233298D01*
X43604D01*
Y233284D01*
X43617D01*
X43631D01*
X43645D01*
Y233298D01*
X43658D01*
Y233284D01*
X43672D01*
X43686D01*
X43699D01*
Y233298D01*
X43713D01*
Y233284D01*
X43727D01*
X43740D01*
X43754D01*
Y233298D01*
X43768D01*
Y233284D01*
X43782D01*
X43795D01*
X43809D01*
Y233298D01*
X43823D01*
Y233284D01*
X43836D01*
X43850D01*
X43864D01*
Y233298D01*
X43877D01*
Y233284D01*
X43891D01*
X43905D01*
X43918D01*
Y233298D01*
X43932D01*
Y233284D01*
X43946D01*
X43959D01*
X43973D01*
Y233298D01*
X43987D01*
Y233284D01*
X44001D01*
X44014D01*
X44028D01*
Y233298D01*
X44041D01*
Y233284D01*
X44055D01*
X44069D01*
X44082D01*
Y233298D01*
X44096D01*
Y233284D01*
X44110D01*
X44124D01*
X44137D01*
Y233298D01*
X44151D01*
Y233284D01*
X44165D01*
X44178D01*
X44192D01*
Y233298D01*
X44206D01*
Y233284D01*
X44219D01*
X44233D01*
X44247D01*
Y233298D01*
X44260D01*
Y233284D01*
X44274D01*
X44288D01*
X44302D01*
Y233298D01*
X44315D01*
Y233284D01*
X44329D01*
X44342D01*
X44356D01*
Y233298D01*
X44370D01*
Y233284D01*
X44384D01*
X44397D01*
X44411D01*
Y233298D01*
X44425D01*
Y233284D01*
X44438D01*
X44452D01*
X44466D01*
Y233298D01*
X44479D01*
Y233284D01*
X44493D01*
X44507D01*
X44520D01*
Y233298D01*
X44534D01*
Y233284D01*
X44548D01*
X44561D01*
X44575D01*
Y233298D01*
X44589D01*
Y233284D01*
X44603D01*
X44616D01*
X44630D01*
Y233298D01*
X44644D01*
Y233284D01*
X44657D01*
X44671D01*
X44685D01*
Y233298D01*
X44698D01*
Y233284D01*
X44712D01*
X44726D01*
X44739D01*
Y233298D01*
X44753D01*
Y233284D01*
X44767D01*
X44780D01*
X44794D01*
Y233298D01*
X44808D01*
Y233284D01*
X44821D01*
X44835D01*
X44849D01*
Y233298D01*
X44862D01*
Y233284D01*
X44876D01*
X44890D01*
X44903D01*
Y233298D01*
X44917D01*
Y233284D01*
X44931D01*
X44945D01*
X44958D01*
Y233298D01*
X44972D01*
Y233284D01*
X44986D01*
X44999D01*
X45013D01*
Y233298D01*
X45027D01*
Y233284D01*
X45040D01*
X45054D01*
X45068D01*
Y233298D01*
X45081D01*
Y233284D01*
X45095D01*
X45109D01*
X45122D01*
Y233298D01*
X45136D01*
Y233284D01*
X45150D01*
X45164D01*
X45177D01*
Y233298D01*
X45191D01*
Y233284D01*
X45204D01*
X45218D01*
X45232D01*
Y233298D01*
X45246D01*
Y233284D01*
X45259D01*
X45273D01*
X45287D01*
Y233298D01*
X45300D01*
Y233284D01*
X45314D01*
X45328D01*
X45341D01*
Y233298D01*
X45355D01*
Y233284D01*
X45369D01*
X45382D01*
X45396D01*
Y233298D01*
X45410D01*
Y233284D01*
X45423D01*
X45437D01*
X45451D01*
Y233298D01*
X45465D01*
Y233284D01*
X45478D01*
X45492D01*
X45505D01*
Y233298D01*
X45519D01*
Y233284D01*
X45533D01*
X45547D01*
X45560D01*
Y233298D01*
X45574D01*
Y233284D01*
X45588D01*
X45601D01*
X45615D01*
Y233298D01*
X45629D01*
Y233284D01*
X45642D01*
X45656D01*
X45670D01*
Y233298D01*
X45683D01*
Y233284D01*
X45697D01*
X45711D01*
X45724D01*
Y233298D01*
X45738D01*
Y233284D01*
X45752D01*
X45766D01*
X45779D01*
Y233298D01*
X45793D01*
Y233284D01*
X45807D01*
X45820D01*
X45834D01*
Y233298D01*
X45848D01*
Y233284D01*
X45861D01*
X45875D01*
X45889D01*
Y233298D01*
X45902D01*
Y233284D01*
X45916D01*
X45930D01*
X45943D01*
Y233298D01*
X45957D01*
Y233284D01*
X45971D01*
X45984D01*
X45998D01*
Y233298D01*
X46012D01*
Y233284D01*
X46025D01*
X46039D01*
X46053D01*
Y233298D01*
X46066D01*
Y233284D01*
X46080D01*
X46094D01*
X46108D01*
Y233298D01*
X46121D01*
Y233284D01*
X46135D01*
X46149D01*
X46162D01*
Y233298D01*
X46176D01*
Y233284D01*
X46190D01*
X46203D01*
X46217D01*
Y233298D01*
X46231D01*
Y233284D01*
X46244D01*
X46258D01*
X46272D01*
Y233298D01*
X46285D01*
Y233284D01*
X46299D01*
X46313D01*
X46327D01*
Y233298D01*
X46340D01*
Y233284D01*
X46354D01*
X46367D01*
X46381D01*
Y233298D01*
X46395D01*
Y233284D01*
X46409D01*
X46422D01*
X46436D01*
Y233298D01*
X46450D01*
Y233284D01*
X46463D01*
X46477D01*
X46491D01*
Y233298D01*
X46504D01*
Y233284D01*
X46518D01*
X46532D01*
X46545D01*
Y233298D01*
X46559D01*
Y233284D01*
X46573D01*
X46586D01*
X46600D01*
Y233298D01*
X46614D01*
Y233284D01*
X46628D01*
X46641D01*
X46655D01*
Y233298D01*
X46669D01*
Y233284D01*
X46682D01*
X46696D01*
X46710D01*
Y233298D01*
X46723D01*
Y233284D01*
X46737D01*
X46751D01*
X46764D01*
Y233298D01*
X46778D01*
Y233284D01*
X46792D01*
X46805D01*
X46819D01*
Y233298D01*
X46833D01*
Y233284D01*
X46846D01*
X46860D01*
X46874D01*
Y233298D01*
X46887D01*
Y233284D01*
X46901D01*
X46915D01*
X46929D01*
Y233298D01*
X46942D01*
Y233284D01*
X46956D01*
X46970D01*
X46983D01*
Y233298D01*
X46997D01*
Y233284D01*
X47011D01*
X47024D01*
X47038D01*
Y233298D01*
X47052D01*
Y233284D01*
X47065D01*
X47079D01*
X47093D01*
Y233298D01*
X47106D01*
Y233284D01*
X47120D01*
X47134D01*
X47148D01*
Y233298D01*
X47161D01*
Y233284D01*
X47175D01*
X47188D01*
X47202D01*
Y233298D01*
X47216D01*
Y233284D01*
X47230D01*
X47243D01*
X47257D01*
Y233298D01*
X47271D01*
Y233284D01*
X47284D01*
X47298D01*
X47312D01*
Y233298D01*
X47325D01*
Y233284D01*
X47339D01*
X47353D01*
X47366D01*
Y233298D01*
X47380D01*
Y233284D01*
X47394D01*
X47407D01*
X47421D01*
Y233298D01*
X47435D01*
Y233284D01*
X47449D01*
X47462D01*
X47476D01*
Y233298D01*
X47490D01*
Y233284D01*
X47503D01*
X47517D01*
X47531D01*
Y233298D01*
X47544D01*
Y233284D01*
X47558D01*
X47572D01*
X47585D01*
Y233298D01*
X47599D01*
Y233284D01*
X47613D01*
X47626D01*
X47640D01*
Y233298D01*
X47654D01*
Y233284D01*
X47667D01*
X47681D01*
X47695D01*
Y233298D01*
X47708D01*
Y233284D01*
X47722D01*
X47736D01*
X47750D01*
Y233298D01*
X47763D01*
Y233284D01*
X47777D01*
X47791D01*
X47804D01*
Y233298D01*
X47818D01*
Y233284D01*
X47832D01*
X47845D01*
X47859D01*
Y233298D01*
X47873D01*
Y233284D01*
X47886D01*
X47900D01*
X47914D01*
Y233298D01*
X47927D01*
Y233284D01*
X47941D01*
X47955D01*
X47968D01*
Y233298D01*
X47982D01*
Y233284D01*
X47996D01*
X48009D01*
X48023D01*
Y233298D01*
X48037D01*
Y233284D01*
X48050D01*
X48064D01*
X48078D01*
Y233298D01*
X48092D01*
Y233284D01*
X48105D01*
X48119D01*
X48133D01*
Y233298D01*
X48146D01*
Y233284D01*
X48160D01*
X48174D01*
X48187D01*
Y233298D01*
X48201D01*
Y233284D01*
X48215D01*
X48228D01*
X48242D01*
Y233298D01*
X48256D01*
Y233284D01*
X48269D01*
X48283D01*
X48297D01*
Y233298D01*
X48311D01*
Y233284D01*
X48324D01*
X48338D01*
X48351D01*
Y233298D01*
X48365D01*
Y233284D01*
X48379D01*
X48393D01*
X48406D01*
Y233298D01*
X48420D01*
Y233284D01*
X48434D01*
X48447D01*
X48461D01*
Y233298D01*
X48475D01*
Y233284D01*
X48488D01*
X48502D01*
X48516D01*
Y233298D01*
X48529D01*
Y233284D01*
X48543D01*
X48557D01*
X48570D01*
Y233298D01*
X48584D01*
Y233284D01*
X48598D01*
X48612D01*
X48625D01*
Y233298D01*
X48639D01*
Y233284D01*
X48653D01*
X48666D01*
X48680D01*
Y233298D01*
X48694D01*
Y233284D01*
X48707D01*
X48721D01*
X48735D01*
Y233298D01*
X48748D01*
Y233284D01*
X48762D01*
X48776D01*
X48789D01*
Y233298D01*
X48803D01*
Y233284D01*
X48817D01*
X48830D01*
X48844D01*
Y233298D01*
X48858D01*
Y233284D01*
X48871D01*
X48885D01*
X48899D01*
Y233298D01*
X48913D01*
Y233284D01*
X48926D01*
X48940D01*
X48954D01*
Y233298D01*
X48967D01*
Y233284D01*
X48981D01*
X48995D01*
X49008D01*
Y233298D01*
X49022D01*
Y233284D01*
X49036D01*
X49049D01*
X49063D01*
Y233298D01*
X49077D01*
Y233284D01*
X49090D01*
X49104D01*
X49118D01*
Y233298D01*
X49132D01*
Y233284D01*
X49145D01*
X49159D01*
X49172D01*
Y233298D01*
X49186D01*
Y233284D01*
X49200D01*
X49213D01*
X49227D01*
Y233298D01*
X49241D01*
Y233284D01*
X49255D01*
X49268D01*
X49282D01*
Y233298D01*
X49296D01*
Y233284D01*
X49309D01*
X49323D01*
X49337D01*
Y233298D01*
X49350D01*
Y233284D01*
X49364D01*
X49378D01*
X49391D01*
Y233298D01*
X49405D01*
Y233284D01*
X49419D01*
X49433D01*
X49446D01*
Y233298D01*
X49460D01*
Y233284D01*
X49474D01*
X49487D01*
X49501D01*
Y233298D01*
X49515D01*
Y233284D01*
X49528D01*
X49542D01*
X49556D01*
Y233298D01*
X49569D01*
Y233284D01*
X49583D01*
X49597D01*
X49610D01*
Y233298D01*
X49624D01*
Y233284D01*
X49638D01*
X49651D01*
X49665D01*
Y233298D01*
X49679D01*
Y233284D01*
X49692D01*
X49706D01*
X49720D01*
Y233298D01*
X49733D01*
Y233284D01*
X49747D01*
X49761D01*
X49775D01*
Y233298D01*
X49788D01*
Y233284D01*
X49802D01*
X49816D01*
X49829D01*
Y233298D01*
X49843D01*
Y233284D01*
X49857D01*
X49870D01*
X49884D01*
Y233298D01*
X49898D01*
Y233284D01*
X49911D01*
X49925D01*
X49939D01*
Y233298D01*
X49952D01*
Y233284D01*
X49966D01*
X49980D01*
X49994D01*
Y233298D01*
X50007D01*
Y233284D01*
X50021D01*
X50034D01*
X50048D01*
Y233298D01*
X50062D01*
Y233284D01*
X50076D01*
X50089D01*
X50103D01*
Y233298D01*
X50117D01*
Y233284D01*
X50130D01*
X50144D01*
X50158D01*
Y233298D01*
X50171D01*
Y233284D01*
X50185D01*
X50199D01*
X50212D01*
Y233298D01*
X50226D01*
Y233284D01*
X50240D01*
X50253D01*
X50267D01*
Y233298D01*
X50281D01*
Y233284D01*
X50295D01*
X50308D01*
X50322D01*
Y233298D01*
X50336D01*
Y233284D01*
X50349D01*
X50363D01*
X50377D01*
Y233298D01*
X50390D01*
Y233284D01*
X50404D01*
X50418D01*
X50431D01*
Y233298D01*
X50445D01*
Y233284D01*
X50459D01*
X50472D01*
X50486D01*
Y233298D01*
X50500D01*
Y233284D01*
X50513D01*
X50527D01*
X50541D01*
Y233298D01*
X50554D01*
Y233284D01*
X50568D01*
X50582D01*
X50595D01*
Y233298D01*
X50609D01*
Y233284D01*
X50623D01*
X50637D01*
X50650D01*
Y233298D01*
X50664D01*
Y233284D01*
X50678D01*
X50691D01*
X50705D01*
Y233298D01*
X50719D01*
Y233284D01*
X50732D01*
X50746D01*
X50760D01*
Y233298D01*
X50773D01*
Y233284D01*
X50787D01*
X50801D01*
X50814D01*
Y233298D01*
X50828D01*
Y233284D01*
X50842D01*
X50855D01*
X50869D01*
Y233298D01*
X50883D01*
Y233284D01*
X50897D01*
X50910D01*
X50924D01*
Y233298D01*
X50938D01*
Y233284D01*
X50951D01*
X50965D01*
X50979D01*
Y233298D01*
X50992D01*
Y233284D01*
X51006D01*
X51020D01*
X51033D01*
Y233298D01*
X51047D01*
Y233284D01*
X51061D01*
X51074D01*
X51088D01*
Y233298D01*
X51102D01*
Y233284D01*
X51115D01*
X51129D01*
X51143D01*
Y233298D01*
X51157D01*
Y233284D01*
X51170D01*
X51184D01*
X51197D01*
Y233298D01*
X51211D01*
Y233284D01*
X51225D01*
X51239D01*
X51252D01*
Y233298D01*
X51266D01*
Y233284D01*
X51280D01*
X51293D01*
X51307D01*
Y233298D01*
X51321D01*
Y233284D01*
X51334D01*
X51348D01*
X51362D01*
Y233298D01*
X51375D01*
Y233284D01*
X51389D01*
X51403D01*
X51416D01*
Y233298D01*
X51430D01*
Y233284D01*
X51444D01*
X51458D01*
X51471D01*
Y233298D01*
X51485D01*
Y233284D01*
X51499D01*
X51512D01*
X51526D01*
Y233298D01*
X51540D01*
Y233284D01*
X51553D01*
X51567D01*
X51581D01*
Y233298D01*
X51594D01*
Y233284D01*
X51608D01*
X51622D01*
X51635D01*
Y233298D01*
X51649D01*
Y233284D01*
X51663D01*
X51676D01*
X51690D01*
Y233298D01*
X51704D01*
Y233284D01*
X51718D01*
X51731D01*
X51745D01*
Y233298D01*
X51758D01*
Y233284D01*
X51772D01*
X51786D01*
X51800D01*
Y233298D01*
X51813D01*
Y233284D01*
X51827D01*
X51841D01*
X51854D01*
Y233298D01*
X51868D01*
Y233284D01*
X51882D01*
X51895D01*
X51909D01*
Y233298D01*
X51923D01*
Y233284D01*
X51936D01*
X51950D01*
X51964D01*
Y233298D01*
X51977D01*
Y233284D01*
X51991D01*
X52005D01*
X52018D01*
Y233298D01*
X52032D01*
Y233284D01*
X52046D01*
X52060D01*
X52073D01*
Y233298D01*
X52087D01*
Y233284D01*
X52101D01*
X52114D01*
X52128D01*
Y233298D01*
X52142D01*
Y233284D01*
X52155D01*
X52169D01*
X52183D01*
Y233298D01*
X52196D01*
Y233284D01*
X52210D01*
X52224D01*
X52237D01*
Y233298D01*
X52251D01*
Y233284D01*
X52265D01*
X52279D01*
X52292D01*
Y233298D01*
X52306D01*
Y233284D01*
X52320D01*
X52333D01*
X52347D01*
Y233298D01*
X52361D01*
Y233284D01*
X52374D01*
X52388D01*
X52402D01*
Y233298D01*
X52415D01*
Y233284D01*
X52429D01*
X52443D01*
X52456D01*
Y233298D01*
X52470D01*
Y233284D01*
X52484D01*
X52497D01*
X52511D01*
Y233298D01*
X52525D01*
Y233284D01*
X52538D01*
X52552D01*
X52566D01*
Y233298D01*
X52579D01*
Y233284D01*
X52593D01*
X52607D01*
X52621D01*
Y233298D01*
X52634D01*
Y233284D01*
X52648D01*
X52662D01*
X52675D01*
Y233298D01*
X52689D01*
Y233284D01*
X52703D01*
X52716D01*
X52730D01*
Y233298D01*
X52744D01*
Y233284D01*
X52757D01*
X52771D01*
X52785D01*
Y233298D01*
X52798D01*
Y233284D01*
X52812D01*
X52826D01*
X52839D01*
Y233298D01*
X52853D01*
Y233284D01*
X52867D01*
X52881D01*
X52894D01*
Y233298D01*
X52908D01*
Y233284D01*
X52922D01*
X52935D01*
X52949D01*
Y233298D01*
X52963D01*
Y233284D01*
X52976D01*
X52990D01*
X53004D01*
Y233298D01*
X53017D01*
Y233284D01*
X53031D01*
X53045D01*
X53058D01*
Y233298D01*
X53072D01*
Y233284D01*
X53086D01*
X53099D01*
X53113D01*
Y233298D01*
X53127D01*
Y233284D01*
X53140D01*
X53154D01*
X53168D01*
Y233298D01*
X53181D01*
Y233284D01*
X53195D01*
X53209D01*
X53223D01*
Y233298D01*
X53236D01*
Y233284D01*
X53250D01*
X53264D01*
X53277D01*
Y233298D01*
X53291D01*
Y233284D01*
X53305D01*
X53318D01*
X53332D01*
Y233298D01*
X53346D01*
Y233284D01*
X53359D01*
X53373D01*
X53387D01*
Y233298D01*
X53400D01*
Y233284D01*
X53414D01*
X53428D01*
X53442D01*
Y233298D01*
X53455D01*
Y233284D01*
X53469D01*
X53483D01*
X53496D01*
Y233298D01*
X53510D01*
Y233284D01*
X53524D01*
X53537D01*
X53551D01*
Y233298D01*
X53565D01*
Y233284D01*
X53578D01*
X53592D01*
X53606D01*
Y233298D01*
X53619D01*
Y233284D01*
X53633D01*
X53647D01*
X53660D01*
Y233298D01*
X53674D01*
Y233284D01*
X53688D01*
X53702D01*
X53715D01*
Y233298D01*
X53729D01*
Y233284D01*
X53742D01*
X53756D01*
X53770D01*
Y233298D01*
X53784D01*
Y233284D01*
X53797D01*
X53811D01*
X53825D01*
Y233298D01*
X53838D01*
Y233284D01*
X53852D01*
X53866D01*
X53879D01*
Y233298D01*
X53893D01*
Y233284D01*
X53907D01*
X53920D01*
X53934D01*
Y233298D01*
X53948D01*
Y233284D01*
X53961D01*
X53975D01*
X53989D01*
Y233298D01*
X54002D01*
Y233284D01*
X54016D01*
X54030D01*
X54044D01*
Y233298D01*
X54057D01*
Y233284D01*
X54071D01*
X54085D01*
X54098D01*
Y233298D01*
X54112D01*
Y233284D01*
X54126D01*
X54139D01*
X54153D01*
Y233298D01*
X54167D01*
Y233284D01*
X54180D01*
X54194D01*
X54208D01*
Y233298D01*
X54221D01*
Y233284D01*
X54235D01*
X54249D01*
X54263D01*
Y233298D01*
X54276D01*
Y233284D01*
X54290D01*
X54303D01*
X54317D01*
Y233298D01*
X54331D01*
Y233284D01*
X54345D01*
X54358D01*
X54372D01*
Y233298D01*
X54386D01*
Y233284D01*
X54399D01*
X54413D01*
X54427D01*
Y233298D01*
X54440D01*
Y233284D01*
X54454D01*
X54468D01*
X54481D01*
Y233298D01*
X54495D01*
Y233284D01*
X54509D01*
X54522D01*
X54536D01*
Y233298D01*
X54550D01*
Y233284D01*
X54563D01*
X54577D01*
X54591D01*
Y233298D01*
X54605D01*
Y233284D01*
X54618D01*
X54632D01*
X54646D01*
Y233298D01*
X54659D01*
Y233284D01*
X54673D01*
X54687D01*
X54700D01*
Y233298D01*
X54714D01*
Y233284D01*
X54728D01*
X54741D01*
X54755D01*
Y233298D01*
X54769D01*
Y233284D01*
X54782D01*
X54796D01*
X54810D01*
Y233298D01*
X54823D01*
Y233284D01*
X54837D01*
X54851D01*
X54865D01*
Y233298D01*
X54878D01*
Y233284D01*
X54892D01*
X54905D01*
X54919D01*
Y233298D01*
X54933D01*
Y233284D01*
X54947D01*
X54960D01*
X54974D01*
Y233298D01*
X54988D01*
Y233284D01*
X55001D01*
X55015D01*
X55029D01*
Y233298D01*
X55042D01*
Y233284D01*
X55056D01*
X55070D01*
X55083D01*
Y233298D01*
X55097D01*
Y233284D01*
X55111D01*
X55124D01*
X55138D01*
Y233298D01*
X55152D01*
Y233284D01*
X55165D01*
X55179D01*
X55193D01*
Y233298D01*
X55207D01*
Y233284D01*
X55220D01*
X55234D01*
X55248D01*
Y233298D01*
X55261D01*
Y233284D01*
X55275D01*
X55289D01*
X55302D01*
Y233298D01*
X55316D01*
Y233284D01*
X55330D01*
X55343D01*
X55357D01*
Y233298D01*
X55371D01*
Y233284D01*
X55384D01*
X55398D01*
X55412D01*
Y233298D01*
X55426D01*
Y233284D01*
X55439D01*
X55453D01*
X55467D01*
Y233298D01*
X55480D01*
Y233284D01*
X55494D01*
X55508D01*
X55521D01*
Y233298D01*
X55535D01*
Y233284D01*
X55549D01*
X55562D01*
X55576D01*
Y233298D01*
X55590D01*
Y233284D01*
X55603D01*
X55617D01*
X55631D01*
Y233298D01*
X55644D01*
Y233284D01*
X55658D01*
X55672D01*
X55686D01*
Y233298D01*
X55699D01*
Y233284D01*
X55713D01*
X55726D01*
X55740D01*
Y233298D01*
X55754D01*
Y233284D01*
X55768D01*
X55781D01*
X55795D01*
Y233298D01*
X55809D01*
Y233284D01*
X55822D01*
X55836D01*
X55850D01*
Y233298D01*
X55863D01*
Y233284D01*
X55877D01*
X55891D01*
X55904D01*
Y233298D01*
X55918D01*
Y233284D01*
X55932D01*
X55945D01*
X55959D01*
Y233298D01*
X55973D01*
Y233284D01*
X55986D01*
X56000D01*
X56014D01*
Y233298D01*
X56028D01*
Y233284D01*
X56041D01*
X56055D01*
X56069D01*
Y233298D01*
X56082D01*
Y233284D01*
X56096D01*
X56110D01*
X56123D01*
Y233298D01*
X56137D01*
Y233284D01*
X56151D01*
X56164D01*
X56178D01*
Y233298D01*
X56192D01*
Y233284D01*
X56205D01*
X56219D01*
X56233D01*
Y232313D01*
X56219D01*
Y232299D01*
X56233D01*
Y232285D01*
X56219D01*
D02*
G37*
G36*
Y236773D02*
Y236759D01*
X56205D01*
Y236746D01*
X56219D01*
Y236732D01*
X56205D01*
Y236691D01*
X56192D01*
Y236650D01*
X56178D01*
Y236582D01*
X56164D01*
Y236568D01*
X56151D01*
Y236554D01*
X56164D01*
Y236541D01*
X56151D01*
Y236500D01*
X56137D01*
Y236458D01*
X56123D01*
Y236418D01*
X56110D01*
Y236376D01*
X56096D01*
Y236335D01*
X56082D01*
Y236294D01*
X56069D01*
Y236253D01*
X56055D01*
Y236212D01*
X56041D01*
Y236171D01*
X56028D01*
Y236157D01*
X56014D01*
Y236144D01*
X56028D01*
Y236130D01*
X56014D01*
Y236089D01*
X56000D01*
Y236075D01*
X55986D01*
Y236034D01*
X55973D01*
Y236021D01*
X55959D01*
Y236007D01*
X55973D01*
Y235993D01*
X55959D01*
Y235952D01*
X55945D01*
Y235939D01*
X55932D01*
Y235897D01*
X55918D01*
Y235884D01*
X55904D01*
Y235843D01*
X55891D01*
Y235802D01*
X55877D01*
Y235788D01*
X55863D01*
Y235774D01*
X55877D01*
Y235761D01*
X55863D01*
Y235747D01*
X55850D01*
Y235706D01*
X55836D01*
Y235692D01*
X55822D01*
Y235679D01*
X55809D01*
Y235665D01*
X55822D01*
Y235651D01*
X55809D01*
Y235638D01*
X55795D01*
Y235610D01*
X55781D01*
Y235583D01*
X55768D01*
Y235569D01*
X55754D01*
Y235528D01*
X55740D01*
Y235514D01*
X55726D01*
Y235501D01*
X55713D01*
Y235460D01*
X55699D01*
Y235446D01*
X55686D01*
Y235405D01*
X55672D01*
Y235391D01*
X55658D01*
Y235378D01*
X55644D01*
Y235364D01*
X55631D01*
Y235323D01*
X55617D01*
Y235309D01*
X55603D01*
Y235296D01*
X55590D01*
Y235282D01*
X55576D01*
Y235241D01*
X55562D01*
Y235227D01*
X55549D01*
Y235213D01*
X55535D01*
Y235200D01*
X55521D01*
Y235186D01*
X55508D01*
Y235172D01*
X55494D01*
Y235145D01*
X55480D01*
X55467D01*
Y235104D01*
X55453D01*
Y235090D01*
X55439D01*
Y235076D01*
X55426D01*
Y235063D01*
X55412D01*
Y235049D01*
X55398D01*
Y235035D01*
X55384D01*
Y235022D01*
X55371D01*
Y235008D01*
X55357D01*
Y234995D01*
X55343D01*
Y234981D01*
X55330D01*
Y234967D01*
X55316D01*
Y234953D01*
X55302D01*
Y234926D01*
X55289D01*
X55275D01*
Y234912D01*
X55261D01*
Y234899D01*
X55248D01*
Y234885D01*
X55234D01*
Y234871D01*
X55220D01*
Y234858D01*
X55207D01*
Y234844D01*
X55193D01*
Y234830D01*
X55179D01*
Y234817D01*
X55165D01*
Y234803D01*
X55152D01*
Y234789D01*
X55138D01*
Y234775D01*
X55124D01*
X55111D01*
Y234762D01*
X55097D01*
X55083D01*
Y234735D01*
X55070D01*
X55056D01*
Y234721D01*
X55042D01*
Y234707D01*
X55029D01*
Y234693D01*
X55015D01*
Y234680D01*
X55001D01*
Y234666D01*
X54988D01*
Y234680D01*
X54974D01*
Y234666D01*
X54960D01*
Y234652D01*
X54947D01*
Y234639D01*
X54933D01*
X54919D01*
Y234625D01*
X54905D01*
X54892D01*
Y234611D01*
X54878D01*
Y234598D01*
X54865D01*
Y234584D01*
X54851D01*
X54837D01*
Y234570D01*
X54823D01*
X54810D01*
Y234557D01*
X54796D01*
Y234543D01*
X54782D01*
X54769D01*
X54755D01*
Y234529D01*
X54741D01*
Y234516D01*
X54728D01*
Y234502D01*
X54714D01*
Y234516D01*
X54700D01*
Y234502D01*
X54687D01*
Y234488D01*
X54673D01*
Y234474D01*
X54659D01*
Y234488D01*
X54646D01*
Y234474D01*
X54632D01*
Y234461D01*
X54618D01*
Y234447D01*
X54605D01*
Y234461D01*
X54591D01*
Y234447D01*
X54577D01*
Y234434D01*
X54563D01*
X54550D01*
X54536D01*
Y234420D01*
X54522D01*
X54509D01*
X54495D01*
Y234406D01*
X54481D01*
Y234392D01*
X54468D01*
Y234406D01*
X54454D01*
Y234392D01*
X54440D01*
Y234379D01*
X54427D01*
X54413D01*
X54399D01*
Y234365D01*
X54386D01*
X54372D01*
X54358D01*
Y234351D01*
X54345D01*
Y234338D01*
X54331D01*
Y234351D01*
X54317D01*
Y234338D01*
X54303D01*
X54290D01*
X54276D01*
Y234324D01*
X54263D01*
Y234310D01*
X54249D01*
Y234324D01*
X54235D01*
Y234310D01*
X54221D01*
X54208D01*
X54194D01*
Y234297D01*
X54180D01*
X54167D01*
X54153D01*
Y234283D01*
X54139D01*
Y234297D01*
X54126D01*
Y234283D01*
X54112D01*
X54098D01*
X54085D01*
Y234269D01*
X54071D01*
X54057D01*
X54044D01*
Y234256D01*
X54030D01*
X54016D01*
X54002D01*
X53989D01*
X53975D01*
Y234242D01*
X53961D01*
Y234256D01*
X53948D01*
X53934D01*
X53920D01*
Y234242D01*
X53907D01*
Y234256D01*
X53893D01*
X53879D01*
X53866D01*
Y234242D01*
X53852D01*
Y234256D01*
X53838D01*
X53825D01*
X53811D01*
Y234242D01*
X53797D01*
Y234256D01*
X53784D01*
X53770D01*
X53756D01*
Y234242D01*
X53742D01*
Y234256D01*
X53729D01*
X53715D01*
X53702D01*
Y234242D01*
X53688D01*
Y234256D01*
X53674D01*
X53660D01*
X53647D01*
Y234242D01*
X53633D01*
Y234256D01*
X53619D01*
X53606D01*
X53592D01*
Y234242D01*
X53578D01*
Y234256D01*
X53565D01*
X53551D01*
X53537D01*
Y234242D01*
X53524D01*
Y234256D01*
X53510D01*
X53496D01*
X53483D01*
Y234242D01*
X53469D01*
Y234256D01*
X53455D01*
X53442D01*
X53428D01*
Y234242D01*
X53414D01*
Y234256D01*
X53400D01*
X53387D01*
X53373D01*
Y234242D01*
X53359D01*
Y234256D01*
X53346D01*
X53332D01*
X53318D01*
Y234242D01*
X53305D01*
Y234256D01*
X53291D01*
X53277D01*
X53264D01*
Y234242D01*
X53250D01*
Y234256D01*
X53236D01*
X53223D01*
X53209D01*
Y234242D01*
X53195D01*
Y234256D01*
X53181D01*
X53168D01*
X53154D01*
Y234242D01*
X53140D01*
Y234256D01*
X53127D01*
X53113D01*
X53099D01*
Y234242D01*
X53086D01*
Y234256D01*
X53072D01*
X53058D01*
X53045D01*
Y234242D01*
X53031D01*
Y234256D01*
X53017D01*
X53004D01*
X52990D01*
Y234242D01*
X52976D01*
Y234256D01*
X52963D01*
X52949D01*
X52935D01*
Y234242D01*
X52922D01*
Y234256D01*
X52908D01*
X52894D01*
X52881D01*
Y234242D01*
X52867D01*
Y234256D01*
X52853D01*
X52839D01*
X52826D01*
Y234242D01*
X52812D01*
Y234256D01*
X52798D01*
X52785D01*
X52771D01*
Y234242D01*
X52757D01*
Y234256D01*
X52744D01*
X52730D01*
X52716D01*
Y234242D01*
X52703D01*
Y234256D01*
X52689D01*
X52675D01*
X52662D01*
Y234242D01*
X52648D01*
Y234256D01*
X52634D01*
X52621D01*
X52607D01*
Y234242D01*
X52593D01*
Y234256D01*
X52579D01*
X52566D01*
X52552D01*
Y234242D01*
X52538D01*
Y234256D01*
X52525D01*
X52511D01*
X52497D01*
Y234242D01*
X52484D01*
Y234256D01*
X52470D01*
X52456D01*
X52443D01*
Y234242D01*
X52429D01*
Y234256D01*
X52415D01*
X52402D01*
X52388D01*
Y234242D01*
X52374D01*
Y234256D01*
X52361D01*
X52347D01*
X52333D01*
Y234242D01*
X52320D01*
Y234256D01*
X52306D01*
X52292D01*
X52279D01*
Y234242D01*
X52265D01*
Y234256D01*
X52251D01*
X52237D01*
X52224D01*
Y234242D01*
X52210D01*
Y234256D01*
X52196D01*
X52183D01*
X52169D01*
Y234242D01*
X52155D01*
Y234256D01*
X52142D01*
X52128D01*
X52114D01*
Y234242D01*
X52101D01*
Y234256D01*
X52087D01*
X52073D01*
X52060D01*
Y234242D01*
X52046D01*
Y234256D01*
X52032D01*
X52018D01*
X52005D01*
Y234242D01*
X51991D01*
Y234256D01*
X51977D01*
X51964D01*
X51950D01*
Y234242D01*
X51936D01*
Y234256D01*
X51923D01*
X51909D01*
X51895D01*
Y234242D01*
X51882D01*
Y234256D01*
X51868D01*
X51854D01*
X51841D01*
Y234242D01*
X51827D01*
Y234256D01*
X51813D01*
X51800D01*
X51786D01*
Y234242D01*
X51772D01*
Y234256D01*
X51758D01*
X51745D01*
X51731D01*
Y234242D01*
X51718D01*
Y234256D01*
X51704D01*
X51690D01*
X51676D01*
Y234242D01*
X51663D01*
Y234256D01*
X51649D01*
X51635D01*
X51622D01*
Y234242D01*
X51608D01*
Y234256D01*
X51594D01*
X51581D01*
X51567D01*
Y234242D01*
X51553D01*
Y234256D01*
X51540D01*
X51526D01*
X51512D01*
Y234242D01*
X51499D01*
Y234256D01*
X51485D01*
X51471D01*
X51458D01*
Y234242D01*
X51444D01*
Y234256D01*
X51430D01*
X51416D01*
X51403D01*
Y234242D01*
X51389D01*
Y234256D01*
X51375D01*
X51362D01*
X51348D01*
Y234242D01*
X51334D01*
Y234256D01*
X51321D01*
X51307D01*
X51293D01*
Y234242D01*
X51280D01*
Y234256D01*
X51266D01*
X51252D01*
X51239D01*
Y234242D01*
X51225D01*
Y234256D01*
X51211D01*
X51197D01*
X51184D01*
Y234242D01*
X51170D01*
Y234256D01*
X51157D01*
X51143D01*
X51129D01*
Y234242D01*
X51115D01*
Y234256D01*
X51102D01*
X51088D01*
X51074D01*
Y234242D01*
X51061D01*
Y234256D01*
X51047D01*
X51033D01*
X51020D01*
Y234242D01*
X51006D01*
Y234256D01*
X50992D01*
X50979D01*
X50965D01*
Y234242D01*
X50951D01*
Y234256D01*
X50938D01*
X50924D01*
X50910D01*
Y234242D01*
X50897D01*
Y234256D01*
X50883D01*
X50869D01*
X50855D01*
Y234242D01*
X50842D01*
Y234256D01*
X50828D01*
X50814D01*
X50801D01*
Y234242D01*
X50787D01*
Y234256D01*
X50773D01*
X50760D01*
X50746D01*
Y234242D01*
X50732D01*
Y234256D01*
X50719D01*
X50705D01*
X50691D01*
Y234242D01*
X50678D01*
Y234256D01*
X50664D01*
X50650D01*
X50637D01*
Y234242D01*
X50623D01*
Y234256D01*
X50609D01*
X50595D01*
X50582D01*
Y234242D01*
X50568D01*
Y234256D01*
X50554D01*
X50541D01*
X50527D01*
Y234242D01*
X50513D01*
Y234256D01*
X50500D01*
X50486D01*
X50472D01*
Y234242D01*
X50459D01*
Y234256D01*
X50445D01*
X50431D01*
X50418D01*
Y234242D01*
X50404D01*
Y234256D01*
X50390D01*
X50377D01*
X50363D01*
Y234242D01*
X50349D01*
Y234256D01*
X50336D01*
X50322D01*
X50308D01*
Y234242D01*
X50295D01*
Y234256D01*
X50281D01*
X50267D01*
X50253D01*
Y234242D01*
X50240D01*
Y234256D01*
X50226D01*
X50212D01*
X50199D01*
Y234242D01*
X50185D01*
Y234256D01*
X50171D01*
X50158D01*
X50144D01*
Y234242D01*
X50130D01*
Y234256D01*
X50117D01*
X50103D01*
X50089D01*
Y234242D01*
X50076D01*
Y234256D01*
X50062D01*
X50048D01*
X50034D01*
Y234242D01*
X50021D01*
Y234256D01*
X50007D01*
X49994D01*
X49980D01*
Y234242D01*
X49966D01*
Y234256D01*
X49952D01*
X49939D01*
X49925D01*
Y234242D01*
X49911D01*
Y234256D01*
X49898D01*
X49884D01*
X49870D01*
Y234242D01*
X49857D01*
Y234256D01*
X49843D01*
X49829D01*
X49816D01*
Y234242D01*
X49802D01*
Y234256D01*
X49788D01*
X49775D01*
X49761D01*
Y234242D01*
X49747D01*
Y234256D01*
X49733D01*
X49720D01*
X49706D01*
Y234242D01*
X49692D01*
Y234256D01*
X49679D01*
X49665D01*
X49651D01*
Y234242D01*
X49638D01*
Y234256D01*
X49624D01*
X49610D01*
X49597D01*
Y234242D01*
X49583D01*
Y234256D01*
X49569D01*
X49556D01*
X49542D01*
Y234242D01*
X49528D01*
Y234256D01*
X49515D01*
X49501D01*
X49487D01*
Y234242D01*
X49474D01*
Y234256D01*
X49460D01*
X49446D01*
X49433D01*
Y234242D01*
X49419D01*
Y234256D01*
X49405D01*
X49391D01*
X49378D01*
Y234242D01*
X49364D01*
Y234256D01*
X49350D01*
X49337D01*
X49323D01*
Y234242D01*
X49309D01*
Y234256D01*
X49296D01*
X49282D01*
X49268D01*
Y234242D01*
X49255D01*
Y234256D01*
X49241D01*
X49227D01*
X49213D01*
Y234242D01*
X49200D01*
Y234256D01*
X49186D01*
X49172D01*
X49159D01*
Y234242D01*
X49145D01*
Y234256D01*
X49132D01*
X49118D01*
X49104D01*
Y234242D01*
X49090D01*
Y234256D01*
X49077D01*
X49063D01*
X49049D01*
Y234242D01*
X49036D01*
Y234256D01*
X49022D01*
X49008D01*
X48995D01*
Y234242D01*
X48981D01*
Y234256D01*
X48967D01*
X48954D01*
X48940D01*
Y234242D01*
X48926D01*
Y234256D01*
X48913D01*
X48899D01*
X48885D01*
Y234242D01*
X48871D01*
Y234256D01*
X48858D01*
X48844D01*
X48830D01*
Y234242D01*
X48817D01*
Y234256D01*
X48803D01*
X48789D01*
X48776D01*
Y234242D01*
X48762D01*
Y234256D01*
X48748D01*
X48735D01*
X48721D01*
Y234242D01*
X48707D01*
Y234256D01*
X48694D01*
X48680D01*
X48666D01*
Y234242D01*
X48653D01*
Y234256D01*
X48639D01*
X48625D01*
X48612D01*
Y234242D01*
X48598D01*
Y234256D01*
X48584D01*
X48570D01*
X48557D01*
Y234242D01*
X48543D01*
Y234256D01*
X48529D01*
X48516D01*
X48502D01*
Y234242D01*
X48488D01*
Y234256D01*
X48475D01*
X48461D01*
X48447D01*
Y234242D01*
X48434D01*
Y234256D01*
X48420D01*
X48406D01*
X48393D01*
Y234242D01*
X48379D01*
Y234256D01*
X48365D01*
X48351D01*
X48338D01*
Y234242D01*
X48324D01*
Y234256D01*
X48311D01*
X48297D01*
X48283D01*
Y234242D01*
X48269D01*
Y234256D01*
X48256D01*
X48242D01*
X48228D01*
Y234242D01*
X48215D01*
Y234256D01*
X48201D01*
X48187D01*
X48174D01*
Y234242D01*
X48160D01*
Y234256D01*
X48146D01*
X48133D01*
X48119D01*
Y234242D01*
X48105D01*
Y234256D01*
X48092D01*
X48078D01*
X48064D01*
Y234242D01*
X48050D01*
Y234256D01*
X48037D01*
X48023D01*
X48009D01*
Y234242D01*
X47996D01*
Y234256D01*
X47982D01*
X47968D01*
X47955D01*
Y234242D01*
X47941D01*
Y234256D01*
X47927D01*
X47914D01*
X47900D01*
Y234242D01*
X47886D01*
Y234256D01*
X47873D01*
X47859D01*
X47845D01*
Y234242D01*
X47832D01*
Y234256D01*
X47818D01*
X47804D01*
X47791D01*
Y234242D01*
X47777D01*
Y234256D01*
X47763D01*
X47750D01*
X47736D01*
Y234242D01*
X47722D01*
Y234256D01*
X47708D01*
X47695D01*
X47681D01*
Y234242D01*
X47667D01*
Y234256D01*
X47654D01*
X47640D01*
X47626D01*
Y234242D01*
X47613D01*
Y234256D01*
X47599D01*
X47585D01*
X47572D01*
Y234242D01*
X47558D01*
Y234256D01*
X47544D01*
X47531D01*
X47517D01*
Y234242D01*
X47503D01*
Y234256D01*
X47490D01*
X47476D01*
X47462D01*
Y234242D01*
X47449D01*
Y234256D01*
X47435D01*
X47421D01*
X47407D01*
Y234242D01*
X47394D01*
Y234256D01*
X47380D01*
X47366D01*
X47353D01*
Y234242D01*
X47339D01*
Y234256D01*
X47325D01*
X47312D01*
X47298D01*
Y234242D01*
X47284D01*
Y234256D01*
X47271D01*
X47257D01*
X47243D01*
Y234242D01*
X47230D01*
Y234256D01*
X47216D01*
X47202D01*
X47188D01*
Y234242D01*
X47175D01*
Y234256D01*
X47161D01*
X47148D01*
X47134D01*
Y234242D01*
X47120D01*
Y234256D01*
X47106D01*
X47093D01*
X47079D01*
Y234242D01*
X47065D01*
Y234256D01*
X47052D01*
X47038D01*
X47024D01*
Y234242D01*
X47011D01*
Y234256D01*
X46997D01*
X46983D01*
X46970D01*
Y234242D01*
X46956D01*
Y234256D01*
X46942D01*
X46929D01*
X46915D01*
Y234242D01*
X46901D01*
Y234256D01*
X46887D01*
X46874D01*
X46860D01*
Y234242D01*
X46846D01*
Y234256D01*
X46833D01*
X46819D01*
X46805D01*
Y234242D01*
X46792D01*
Y234256D01*
X46778D01*
X46764D01*
X46751D01*
Y234242D01*
X46737D01*
Y234256D01*
X46723D01*
X46710D01*
X46696D01*
Y234242D01*
X46682D01*
Y234256D01*
X46669D01*
X46655D01*
X46641D01*
Y234242D01*
X46628D01*
Y234256D01*
X46614D01*
X46600D01*
X46586D01*
Y234242D01*
X46573D01*
Y234256D01*
X46559D01*
X46545D01*
X46532D01*
Y234242D01*
X46518D01*
Y234256D01*
X46504D01*
X46491D01*
X46477D01*
Y234242D01*
X46463D01*
Y234256D01*
X46450D01*
X46436D01*
X46422D01*
Y234242D01*
X46409D01*
Y234256D01*
X46395D01*
X46381D01*
X46367D01*
Y234242D01*
X46354D01*
Y234256D01*
X46340D01*
X46327D01*
X46313D01*
Y234242D01*
X46299D01*
Y234256D01*
X46285D01*
X46272D01*
X46258D01*
Y234242D01*
X46244D01*
Y234256D01*
X46231D01*
X46217D01*
X46203D01*
Y234242D01*
X46190D01*
Y234256D01*
X46176D01*
X46162D01*
X46149D01*
Y234242D01*
X46135D01*
Y234256D01*
X46121D01*
X46108D01*
X46094D01*
Y234242D01*
X46080D01*
Y234256D01*
X46066D01*
X46053D01*
X46039D01*
Y234242D01*
X46025D01*
Y234256D01*
X46012D01*
X45998D01*
X45984D01*
Y234242D01*
X45971D01*
Y234256D01*
X45957D01*
X45943D01*
X45930D01*
Y234242D01*
X45916D01*
Y234256D01*
X45902D01*
X45889D01*
X45875D01*
Y234242D01*
X45861D01*
Y234256D01*
X45848D01*
X45834D01*
X45820D01*
Y234242D01*
X45807D01*
Y234256D01*
X45793D01*
X45779D01*
X45766D01*
Y234242D01*
X45752D01*
Y234256D01*
X45738D01*
X45724D01*
X45711D01*
Y234242D01*
X45697D01*
Y234256D01*
X45683D01*
X45670D01*
X45656D01*
Y234242D01*
X45642D01*
Y234256D01*
X45629D01*
X45615D01*
X45601D01*
Y234242D01*
X45588D01*
Y234256D01*
X45574D01*
X45560D01*
X45547D01*
Y234242D01*
X45533D01*
Y234256D01*
X45519D01*
X45505D01*
X45492D01*
Y234242D01*
X45478D01*
Y234256D01*
X45465D01*
X45451D01*
X45437D01*
Y234242D01*
X45423D01*
Y234256D01*
X45410D01*
X45396D01*
X45382D01*
Y234242D01*
X45369D01*
Y234256D01*
X45355D01*
X45341D01*
X45328D01*
Y234242D01*
X45314D01*
Y234256D01*
X45300D01*
X45287D01*
X45273D01*
Y234242D01*
X45259D01*
Y234256D01*
X45246D01*
X45232D01*
X45218D01*
Y234242D01*
X45204D01*
Y234256D01*
X45191D01*
X45177D01*
X45164D01*
Y234242D01*
X45150D01*
Y234256D01*
X45136D01*
X45122D01*
X45109D01*
Y234242D01*
X45095D01*
Y234256D01*
X45081D01*
X45068D01*
X45054D01*
Y234242D01*
X45040D01*
Y234256D01*
X45027D01*
X45013D01*
X44999D01*
Y234242D01*
X44986D01*
Y234256D01*
X44972D01*
X44958D01*
X44945D01*
Y234242D01*
X44931D01*
Y234256D01*
X44917D01*
X44903D01*
X44890D01*
Y234242D01*
X44876D01*
Y234256D01*
X44862D01*
X44849D01*
X44835D01*
Y234242D01*
X44821D01*
Y234256D01*
X44808D01*
X44794D01*
X44780D01*
Y234242D01*
X44767D01*
Y234256D01*
X44753D01*
X44739D01*
X44726D01*
Y234242D01*
X44712D01*
Y234256D01*
X44698D01*
X44685D01*
X44671D01*
Y234242D01*
X44657D01*
Y234256D01*
X44644D01*
X44630D01*
X44616D01*
Y234242D01*
X44603D01*
Y234256D01*
X44589D01*
X44575D01*
X44561D01*
Y234242D01*
X44548D01*
Y234256D01*
X44534D01*
X44520D01*
X44507D01*
Y234242D01*
X44493D01*
Y234256D01*
X44479D01*
X44466D01*
X44452D01*
Y234242D01*
X44438D01*
Y234256D01*
X44425D01*
X44411D01*
X44397D01*
Y234242D01*
X44384D01*
Y234256D01*
X44370D01*
X44356D01*
X44342D01*
Y234242D01*
X44329D01*
Y234256D01*
X44315D01*
X44302D01*
X44288D01*
Y234242D01*
X44274D01*
Y234256D01*
X44260D01*
X44247D01*
X44233D01*
Y234242D01*
X44219D01*
Y234256D01*
X44206D01*
X44192D01*
X44178D01*
Y234242D01*
X44165D01*
Y234256D01*
X44151D01*
X44137D01*
X44124D01*
Y234242D01*
X44110D01*
Y234256D01*
X44096D01*
X44082D01*
X44069D01*
Y234242D01*
X44055D01*
Y234256D01*
X44041D01*
X44028D01*
X44014D01*
Y234242D01*
X44001D01*
Y234256D01*
X43987D01*
X43973D01*
X43959D01*
Y234242D01*
X43946D01*
Y234256D01*
X43932D01*
X43918D01*
X43905D01*
Y234242D01*
X43891D01*
Y234256D01*
X43877D01*
X43864D01*
X43850D01*
Y234242D01*
X43836D01*
Y234256D01*
X43823D01*
X43809D01*
X43795D01*
Y234242D01*
X43782D01*
Y234256D01*
X43768D01*
X43754D01*
X43740D01*
Y234242D01*
X43727D01*
Y234256D01*
X43713D01*
X43699D01*
X43686D01*
Y234242D01*
X43672D01*
Y234256D01*
X43658D01*
X43645D01*
X43631D01*
Y234242D01*
X43617D01*
Y234256D01*
X43604D01*
X43590D01*
X43576D01*
Y234242D01*
X43563D01*
Y234256D01*
X43549D01*
X43535D01*
X43522D01*
Y234242D01*
X43508D01*
Y234256D01*
X43494D01*
X43481D01*
X43467D01*
Y234242D01*
X43453D01*
Y234256D01*
X43439D01*
X43426D01*
X43412D01*
Y234242D01*
X43398D01*
Y234256D01*
X43385D01*
X43371D01*
X43357D01*
Y234242D01*
X43344D01*
Y234256D01*
X43330D01*
X43316D01*
X43303D01*
Y234242D01*
X43289D01*
Y234256D01*
X43275D01*
X43262D01*
X43248D01*
Y234242D01*
X43234D01*
Y234256D01*
X43220D01*
X43207D01*
X43193D01*
Y234242D01*
X43180D01*
Y234256D01*
X43166D01*
X43152D01*
X43138D01*
Y234242D01*
X43125D01*
Y234256D01*
X43111D01*
X43097D01*
Y237772D01*
X43111D01*
X43125D01*
X43138D01*
X43152D01*
X43166D01*
X43180D01*
X43193D01*
X43207D01*
X43220D01*
X43234D01*
X43248D01*
X43262D01*
X43275D01*
X43289D01*
X43303D01*
X43316D01*
X43330D01*
X43344D01*
X43357D01*
X43371D01*
X43385D01*
X43398D01*
X43412D01*
X43426D01*
X43439D01*
X43453D01*
X43467D01*
X43481D01*
X43494D01*
X43508D01*
X43522D01*
X43535D01*
X43549D01*
X43563D01*
X43576D01*
X43590D01*
X43604D01*
X43617D01*
X43631D01*
X43645D01*
X43658D01*
X43672D01*
X43686D01*
X43699D01*
X43713D01*
X43727D01*
X43740D01*
X43754D01*
X43768D01*
X43782D01*
X43795D01*
X43809D01*
X43823D01*
X43836D01*
X43850D01*
X43864D01*
X43877D01*
X43891D01*
X43905D01*
X43918D01*
X43932D01*
X43946D01*
X43959D01*
X43973D01*
X43987D01*
X44001D01*
X44014D01*
X44028D01*
X44041D01*
X44055D01*
X44069D01*
X44082D01*
X44096D01*
X44110D01*
X44124D01*
X44137D01*
X44151D01*
X44165D01*
X44178D01*
X44192D01*
X44206D01*
X44219D01*
X44233D01*
X44247D01*
X44260D01*
X44274D01*
X44288D01*
X44302D01*
X44315D01*
X44329D01*
X44342D01*
X44356D01*
X44370D01*
X44384D01*
X44397D01*
X44411D01*
X44425D01*
X44438D01*
X44452D01*
X44466D01*
X44479D01*
X44493D01*
X44507D01*
X44520D01*
X44534D01*
X44548D01*
X44561D01*
X44575D01*
X44589D01*
X44603D01*
X44616D01*
X44630D01*
X44644D01*
X44657D01*
X44671D01*
X44685D01*
X44698D01*
X44712D01*
X44726D01*
X44739D01*
X44753D01*
X44767D01*
X44780D01*
X44794D01*
X44808D01*
X44821D01*
X44835D01*
X44849D01*
X44862D01*
X44876D01*
X44890D01*
X44903D01*
X44917D01*
X44931D01*
X44945D01*
X44958D01*
X44972D01*
X44986D01*
X44999D01*
X45013D01*
X45027D01*
X45040D01*
X45054D01*
X45068D01*
X45081D01*
X45095D01*
X45109D01*
X45122D01*
X45136D01*
X45150D01*
X45164D01*
X45177D01*
X45191D01*
X45204D01*
X45218D01*
X45232D01*
X45246D01*
X45259D01*
X45273D01*
X45287D01*
X45300D01*
X45314D01*
X45328D01*
X45341D01*
X45355D01*
X45369D01*
X45382D01*
X45396D01*
X45410D01*
X45423D01*
X45437D01*
X45451D01*
X45465D01*
X45478D01*
X45492D01*
X45505D01*
X45519D01*
X45533D01*
X45547D01*
X45560D01*
X45574D01*
X45588D01*
X45601D01*
X45615D01*
X45629D01*
X45642D01*
X45656D01*
X45670D01*
X45683D01*
X45697D01*
X45711D01*
X45724D01*
X45738D01*
X45752D01*
X45766D01*
X45779D01*
X45793D01*
X45807D01*
X45820D01*
X45834D01*
X45848D01*
X45861D01*
X45875D01*
X45889D01*
X45902D01*
X45916D01*
X45930D01*
X45943D01*
X45957D01*
X45971D01*
X45984D01*
X45998D01*
X46012D01*
X46025D01*
X46039D01*
X46053D01*
X46066D01*
X46080D01*
X46094D01*
X46108D01*
X46121D01*
X46135D01*
X46149D01*
X46162D01*
X46176D01*
X46190D01*
X46203D01*
X46217D01*
X46231D01*
X46244D01*
X46258D01*
X46272D01*
X46285D01*
X46299D01*
X46313D01*
X46327D01*
X46340D01*
X46354D01*
X46367D01*
X46381D01*
X46395D01*
X46409D01*
X46422D01*
X46436D01*
X46450D01*
X46463D01*
X46477D01*
X46491D01*
X46504D01*
X46518D01*
X46532D01*
X46545D01*
X46559D01*
X46573D01*
X46586D01*
X46600D01*
X46614D01*
X46628D01*
X46641D01*
X46655D01*
X46669D01*
X46682D01*
X46696D01*
X46710D01*
X46723D01*
X46737D01*
X46751D01*
X46764D01*
X46778D01*
X46792D01*
X46805D01*
X46819D01*
X46833D01*
X46846D01*
X46860D01*
X46874D01*
X46887D01*
X46901D01*
X46915D01*
X46929D01*
X46942D01*
X46956D01*
X46970D01*
X46983D01*
X46997D01*
X47011D01*
X47024D01*
X47038D01*
X47052D01*
X47065D01*
X47079D01*
X47093D01*
X47106D01*
X47120D01*
X47134D01*
X47148D01*
X47161D01*
X47175D01*
X47188D01*
X47202D01*
X47216D01*
X47230D01*
X47243D01*
X47257D01*
X47271D01*
X47284D01*
X47298D01*
X47312D01*
X47325D01*
X47339D01*
X47353D01*
X47366D01*
X47380D01*
X47394D01*
X47407D01*
X47421D01*
X47435D01*
X47449D01*
X47462D01*
X47476D01*
X47490D01*
X47503D01*
X47517D01*
X47531D01*
X47544D01*
X47558D01*
X47572D01*
X47585D01*
X47599D01*
X47613D01*
X47626D01*
X47640D01*
X47654D01*
X47667D01*
X47681D01*
X47695D01*
X47708D01*
X47722D01*
X47736D01*
X47750D01*
X47763D01*
X47777D01*
X47791D01*
X47804D01*
X47818D01*
X47832D01*
X47845D01*
X47859D01*
X47873D01*
X47886D01*
X47900D01*
X47914D01*
X47927D01*
X47941D01*
X47955D01*
X47968D01*
X47982D01*
X47996D01*
X48009D01*
X48023D01*
X48037D01*
X48050D01*
X48064D01*
X48078D01*
X48092D01*
X48105D01*
X48119D01*
X48133D01*
X48146D01*
X48160D01*
X48174D01*
X48187D01*
X48201D01*
X48215D01*
X48228D01*
X48242D01*
X48256D01*
X48269D01*
X48283D01*
X48297D01*
X48311D01*
X48324D01*
X48338D01*
X48351D01*
X48365D01*
X48379D01*
X48393D01*
X48406D01*
X48420D01*
X48434D01*
X48447D01*
X48461D01*
X48475D01*
X48488D01*
X48502D01*
X48516D01*
X48529D01*
X48543D01*
X48557D01*
X48570D01*
X48584D01*
X48598D01*
X48612D01*
X48625D01*
X48639D01*
X48653D01*
X48666D01*
X48680D01*
X48694D01*
X48707D01*
X48721D01*
X48735D01*
X48748D01*
X48762D01*
X48776D01*
X48789D01*
X48803D01*
X48817D01*
X48830D01*
X48844D01*
X48858D01*
X48871D01*
X48885D01*
X48899D01*
X48913D01*
X48926D01*
X48940D01*
X48954D01*
X48967D01*
X48981D01*
X48995D01*
X49008D01*
X49022D01*
X49036D01*
X49049D01*
X49063D01*
X49077D01*
X49090D01*
X49104D01*
X49118D01*
X49132D01*
X49145D01*
X49159D01*
X49172D01*
X49186D01*
X49200D01*
X49213D01*
X49227D01*
X49241D01*
X49255D01*
X49268D01*
X49282D01*
X49296D01*
X49309D01*
X49323D01*
X49337D01*
X49350D01*
X49364D01*
X49378D01*
X49391D01*
X49405D01*
X49419D01*
X49433D01*
X49446D01*
X49460D01*
X49474D01*
X49487D01*
X49501D01*
X49515D01*
X49528D01*
X49542D01*
X49556D01*
X49569D01*
X49583D01*
X49597D01*
X49610D01*
X49624D01*
X49638D01*
X49651D01*
X49665D01*
X49679D01*
X49692D01*
X49706D01*
X49720D01*
X49733D01*
X49747D01*
X49761D01*
X49775D01*
X49788D01*
X49802D01*
X49816D01*
X49829D01*
X49843D01*
X49857D01*
X49870D01*
X49884D01*
X49898D01*
X49911D01*
X49925D01*
X49939D01*
X49952D01*
X49966D01*
X49980D01*
X49994D01*
X50007D01*
X50021D01*
X50034D01*
X50048D01*
X50062D01*
X50076D01*
X50089D01*
X50103D01*
X50117D01*
X50130D01*
X50144D01*
X50158D01*
X50171D01*
X50185D01*
X50199D01*
X50212D01*
X50226D01*
X50240D01*
X50253D01*
X50267D01*
X50281D01*
X50295D01*
X50308D01*
X50322D01*
X50336D01*
X50349D01*
X50363D01*
X50377D01*
X50390D01*
X50404D01*
X50418D01*
X50431D01*
X50445D01*
X50459D01*
X50472D01*
X50486D01*
X50500D01*
X50513D01*
X50527D01*
X50541D01*
X50554D01*
X50568D01*
X50582D01*
X50595D01*
X50609D01*
X50623D01*
X50637D01*
X50650D01*
X50664D01*
X50678D01*
X50691D01*
X50705D01*
X50719D01*
X50732D01*
X50746D01*
X50760D01*
X50773D01*
X50787D01*
X50801D01*
X50814D01*
X50828D01*
X50842D01*
X50855D01*
X50869D01*
X50883D01*
X50897D01*
X50910D01*
X50924D01*
X50938D01*
X50951D01*
X50965D01*
X50979D01*
X50992D01*
X51006D01*
X51020D01*
X51033D01*
X51047D01*
X51061D01*
X51074D01*
X51088D01*
X51102D01*
X51115D01*
X51129D01*
X51143D01*
X51157D01*
X51170D01*
X51184D01*
X51197D01*
X51211D01*
X51225D01*
X51239D01*
X51252D01*
X51266D01*
X51280D01*
X51293D01*
X51307D01*
X51321D01*
X51334D01*
X51348D01*
X51362D01*
X51375D01*
X51389D01*
X51403D01*
X51416D01*
X51430D01*
X51444D01*
X51458D01*
X51471D01*
X51485D01*
X51499D01*
X51512D01*
X51526D01*
X51540D01*
X51553D01*
X51567D01*
X51581D01*
X51594D01*
X51608D01*
X51622D01*
X51635D01*
X51649D01*
X51663D01*
X51676D01*
X51690D01*
X51704D01*
X51718D01*
X51731D01*
X51745D01*
X51758D01*
X51772D01*
X51786D01*
X51800D01*
X51813D01*
X51827D01*
X51841D01*
X51854D01*
X51868D01*
X51882D01*
X51895D01*
X51909D01*
X51923D01*
X51936D01*
X51950D01*
X51964D01*
X51977D01*
X51991D01*
X52005D01*
X52018D01*
X52032D01*
X52046D01*
X52060D01*
X52073D01*
X52087D01*
X52101D01*
X52114D01*
X52128D01*
X52142D01*
X52155D01*
X52169D01*
X52183D01*
X52196D01*
X52210D01*
X52224D01*
X52237D01*
X52251D01*
X52265D01*
X52279D01*
X52292D01*
X52306D01*
X52320D01*
X52333D01*
X52347D01*
X52361D01*
X52374D01*
X52388D01*
X52402D01*
X52415D01*
X52429D01*
X52443D01*
X52456D01*
X52470D01*
X52484D01*
X52497D01*
X52511D01*
X52525D01*
X52538D01*
X52552D01*
X52566D01*
X52579D01*
X52593D01*
X52607D01*
X52621D01*
X52634D01*
X52648D01*
X52662D01*
X52675D01*
X52689D01*
X52703D01*
X52716D01*
X52730D01*
X52744D01*
X52757D01*
X52771D01*
X52785D01*
X52798D01*
X52812D01*
X52826D01*
X52839D01*
X52853D01*
X52867D01*
X52881D01*
X52894D01*
X52908D01*
X52922D01*
X52935D01*
X52949D01*
X52963D01*
X52976D01*
X52990D01*
X53004D01*
X53017D01*
X53031D01*
X53045D01*
X53058D01*
X53072D01*
X53086D01*
X53099D01*
X53113D01*
X53127D01*
X53140D01*
X53154D01*
X53168D01*
X53181D01*
X53195D01*
X53209D01*
X53223D01*
X53236D01*
X53250D01*
X53264D01*
X53277D01*
X53291D01*
X53305D01*
X53318D01*
X53332D01*
X53346D01*
X53359D01*
X53373D01*
X53387D01*
X53400D01*
X53414D01*
X53428D01*
X53442D01*
X53455D01*
X53469D01*
X53483D01*
X53496D01*
X53510D01*
X53524D01*
X53537D01*
X53551D01*
X53565D01*
X53578D01*
X53592D01*
X53606D01*
X53619D01*
X53633D01*
X53647D01*
X53660D01*
X53674D01*
X53688D01*
X53702D01*
X53715D01*
X53729D01*
X53742D01*
X53756D01*
X53770D01*
X53784D01*
X53797D01*
X53811D01*
X53825D01*
X53838D01*
X53852D01*
X53866D01*
X53879D01*
X53893D01*
X53907D01*
X53920D01*
X53934D01*
X53948D01*
X53961D01*
X53975D01*
X53989D01*
X54002D01*
X54016D01*
X54030D01*
X54044D01*
X54057D01*
X54071D01*
X54085D01*
X54098D01*
X54112D01*
X54126D01*
X54139D01*
X54153D01*
X54167D01*
X54180D01*
X54194D01*
X54208D01*
X54221D01*
X54235D01*
X54249D01*
X54263D01*
X54276D01*
X54290D01*
X54303D01*
X54317D01*
X54331D01*
X54345D01*
X54358D01*
X54372D01*
X54386D01*
X54399D01*
X54413D01*
X54427D01*
X54440D01*
X54454D01*
X54468D01*
X54481D01*
X54495D01*
X54509D01*
X54522D01*
X54536D01*
X54550D01*
X54563D01*
X54577D01*
X54591D01*
X54605D01*
X54618D01*
X54632D01*
X54646D01*
X54659D01*
X54673D01*
X54687D01*
X54700D01*
X54714D01*
X54728D01*
X54741D01*
X54755D01*
X54769D01*
X54782D01*
X54796D01*
X54810D01*
X54823D01*
X54837D01*
X54851D01*
X54865D01*
X54878D01*
X54892D01*
X54905D01*
X54919D01*
X54933D01*
X54947D01*
X54960D01*
X54974D01*
X54988D01*
X55001D01*
X55015D01*
X55029D01*
X55042D01*
X55056D01*
X55070D01*
X55083D01*
X55097D01*
X55111D01*
X55124D01*
X55138D01*
X55152D01*
X55165D01*
X55179D01*
X55193D01*
X55207D01*
X55220D01*
X55234D01*
X55248D01*
X55261D01*
X55275D01*
X55289D01*
X55302D01*
X55316D01*
X55330D01*
X55343D01*
X55357D01*
X55371D01*
X55384D01*
X55398D01*
X55412D01*
X55426D01*
X55439D01*
X55453D01*
X55467D01*
X55480D01*
X55494D01*
X55508D01*
X55521D01*
X55535D01*
X55549D01*
X55562D01*
X55576D01*
X55590D01*
X55603D01*
X55617D01*
X55631D01*
X55644D01*
X55658D01*
X55672D01*
X55686D01*
X55699D01*
X55713D01*
X55726D01*
X55740D01*
X55754D01*
X55768D01*
X55781D01*
X55795D01*
X55809D01*
X55822D01*
X55836D01*
X55850D01*
X55863D01*
X55877D01*
X55891D01*
X55904D01*
X55918D01*
X55932D01*
X55945D01*
X55959D01*
X55973D01*
X55986D01*
X56000D01*
X56014D01*
X56028D01*
X56041D01*
X56055D01*
X56069D01*
X56082D01*
X56096D01*
X56110D01*
X56123D01*
X56137D01*
X56151D01*
X56164D01*
X56178D01*
X56192D01*
X56205D01*
X56219D01*
X56233D01*
Y236801D01*
X56219D01*
Y236787D01*
X56233D01*
Y236773D01*
X56219D01*
D02*
G37*
G36*
Y238730D02*
X56205D01*
Y238743D01*
X56192D01*
Y238730D01*
X56178D01*
X56164D01*
X56151D01*
Y238743D01*
X56137D01*
Y238730D01*
X56123D01*
X56110D01*
X56096D01*
Y238743D01*
X56082D01*
Y238730D01*
X56069D01*
X56055D01*
X56041D01*
Y238743D01*
X56028D01*
Y238730D01*
X56014D01*
X56000D01*
X55986D01*
Y238743D01*
X55973D01*
Y238730D01*
X55959D01*
X55945D01*
X55932D01*
Y238743D01*
X55918D01*
Y238730D01*
X55904D01*
X55891D01*
X55877D01*
Y238743D01*
X55863D01*
Y238730D01*
X55850D01*
X55836D01*
X55822D01*
Y238743D01*
X55809D01*
Y238730D01*
X55795D01*
X55781D01*
X55768D01*
Y238743D01*
X55754D01*
Y238730D01*
X55740D01*
X55726D01*
X55713D01*
Y238743D01*
X55699D01*
Y238730D01*
X55686D01*
X55672D01*
X55658D01*
Y238743D01*
X55644D01*
Y238730D01*
X55631D01*
X55617D01*
X55603D01*
Y238743D01*
X55590D01*
Y238730D01*
X55576D01*
X55562D01*
X55549D01*
Y238743D01*
X55535D01*
Y238730D01*
X55521D01*
X55508D01*
X55494D01*
Y238743D01*
X55480D01*
Y238730D01*
X55467D01*
X55453D01*
X55439D01*
Y238743D01*
X55426D01*
Y238730D01*
X55412D01*
X55398D01*
X55384D01*
Y238743D01*
X55371D01*
Y238730D01*
X55357D01*
X55343D01*
X55330D01*
Y238743D01*
X55316D01*
Y238730D01*
X55302D01*
X55289D01*
X55275D01*
Y238743D01*
X55261D01*
Y238730D01*
X55248D01*
X55234D01*
X55220D01*
Y238743D01*
X55207D01*
Y238730D01*
X55193D01*
X55179D01*
X55165D01*
Y238743D01*
X55152D01*
Y238730D01*
X55138D01*
X55124D01*
X55111D01*
Y238743D01*
X55097D01*
Y238730D01*
X55083D01*
X55070D01*
X55056D01*
Y238743D01*
X55042D01*
Y238730D01*
X55029D01*
X55015D01*
X55001D01*
Y238743D01*
X54988D01*
Y238730D01*
X54974D01*
X54960D01*
X54947D01*
Y238743D01*
X54933D01*
Y238730D01*
X54919D01*
X54905D01*
X54892D01*
Y238743D01*
X54878D01*
Y238730D01*
X54865D01*
X54851D01*
X54837D01*
Y238743D01*
X54823D01*
Y238730D01*
X54810D01*
X54796D01*
X54782D01*
Y238743D01*
X54769D01*
Y238730D01*
X54755D01*
X54741D01*
X54728D01*
Y238743D01*
X54714D01*
Y238730D01*
X54700D01*
X54687D01*
X54673D01*
Y238743D01*
X54659D01*
Y238730D01*
X54646D01*
X54632D01*
X54618D01*
Y238743D01*
X54605D01*
Y238730D01*
X54591D01*
X54577D01*
X54563D01*
Y238743D01*
X54550D01*
Y238730D01*
X54536D01*
X54522D01*
X54509D01*
Y238743D01*
X54495D01*
Y238730D01*
X54481D01*
X54468D01*
X54454D01*
Y238743D01*
X54440D01*
Y238730D01*
X54427D01*
X54413D01*
X54399D01*
Y238743D01*
X54386D01*
Y238730D01*
X54372D01*
X54358D01*
X54345D01*
Y238743D01*
X54331D01*
Y238730D01*
X54317D01*
X54303D01*
X54290D01*
Y238743D01*
X54276D01*
Y238730D01*
X54263D01*
X54249D01*
X54235D01*
Y238743D01*
X54221D01*
Y238730D01*
X54208D01*
X54194D01*
X54180D01*
Y238743D01*
X54167D01*
Y238730D01*
X54153D01*
X54139D01*
X54126D01*
Y238743D01*
X54112D01*
Y238730D01*
X54098D01*
X54085D01*
X54071D01*
Y238743D01*
X54057D01*
Y238730D01*
X54044D01*
X54030D01*
X54016D01*
Y238743D01*
X54002D01*
Y238730D01*
X53989D01*
X53975D01*
X53961D01*
Y238743D01*
X53948D01*
Y238730D01*
X53934D01*
X53920D01*
X53907D01*
Y238743D01*
X53893D01*
Y238730D01*
X53879D01*
X53866D01*
X53852D01*
Y238743D01*
X53838D01*
Y238730D01*
X53825D01*
X53811D01*
X53797D01*
Y238743D01*
X53784D01*
Y238730D01*
X53770D01*
X53756D01*
X53742D01*
Y238743D01*
X53729D01*
Y238730D01*
X53715D01*
X53702D01*
X53688D01*
Y238743D01*
X53674D01*
Y238730D01*
X53660D01*
X53647D01*
X53633D01*
Y238743D01*
X53619D01*
Y238730D01*
X53606D01*
X53592D01*
X53578D01*
Y238743D01*
X53565D01*
Y238730D01*
X53551D01*
X53537D01*
X53524D01*
Y238743D01*
X53510D01*
Y238730D01*
X53496D01*
X53483D01*
X53469D01*
Y238743D01*
X53455D01*
Y238730D01*
X53442D01*
X53428D01*
X53414D01*
Y238743D01*
X53400D01*
Y238730D01*
X53387D01*
X53373D01*
X53359D01*
Y238743D01*
X53346D01*
Y238730D01*
X53332D01*
X53318D01*
X53305D01*
Y238743D01*
X53291D01*
Y238730D01*
X53277D01*
X53264D01*
X53250D01*
Y238743D01*
X53236D01*
Y238730D01*
X53223D01*
X53209D01*
X53195D01*
Y238743D01*
X53181D01*
Y238730D01*
X53168D01*
X53154D01*
X53140D01*
Y238743D01*
X53127D01*
Y238730D01*
X53113D01*
X53099D01*
X53086D01*
Y238743D01*
X53072D01*
Y238730D01*
X53058D01*
X53045D01*
X53031D01*
Y238743D01*
X53017D01*
Y238730D01*
X53004D01*
X52990D01*
X52976D01*
Y238743D01*
X52963D01*
Y238730D01*
X52949D01*
X52935D01*
X52922D01*
Y238743D01*
X52908D01*
Y238730D01*
X52894D01*
X52881D01*
X52867D01*
Y238743D01*
X52853D01*
Y238730D01*
X52839D01*
X52826D01*
X52812D01*
Y238743D01*
X52798D01*
Y238730D01*
X52785D01*
X52771D01*
X52757D01*
Y238743D01*
X52744D01*
Y238730D01*
X52730D01*
X52716D01*
X52703D01*
Y238743D01*
X52689D01*
Y238730D01*
X52675D01*
X52662D01*
X52648D01*
Y238743D01*
X52634D01*
Y238730D01*
X52621D01*
X52607D01*
X52593D01*
Y238743D01*
X52579D01*
Y238730D01*
X52566D01*
X52552D01*
X52538D01*
Y238743D01*
X52525D01*
Y238730D01*
X52511D01*
X52497D01*
X52484D01*
Y238743D01*
X52470D01*
Y238730D01*
X52456D01*
X52443D01*
X52429D01*
Y238743D01*
X52415D01*
Y238730D01*
X52402D01*
X52388D01*
X52374D01*
Y238743D01*
X52361D01*
Y238730D01*
X52347D01*
X52333D01*
X52320D01*
Y238743D01*
X52306D01*
Y238730D01*
X52292D01*
X52279D01*
X52265D01*
Y238743D01*
X52251D01*
Y238730D01*
X52237D01*
X52224D01*
X52210D01*
Y238743D01*
X52196D01*
Y238730D01*
X52183D01*
X52169D01*
X52155D01*
Y238743D01*
X52142D01*
Y238730D01*
X52128D01*
X52114D01*
X52101D01*
Y238743D01*
X52087D01*
Y238730D01*
X52073D01*
X52060D01*
X52046D01*
Y238743D01*
X52032D01*
Y238730D01*
X52018D01*
X52005D01*
X51991D01*
Y238743D01*
X51977D01*
Y238730D01*
X51964D01*
X51950D01*
X51936D01*
Y238743D01*
X51923D01*
Y238730D01*
X51909D01*
X51895D01*
X51882D01*
Y238743D01*
X51868D01*
Y238730D01*
X51854D01*
X51841D01*
X51827D01*
Y238743D01*
X51813D01*
Y238730D01*
X51800D01*
X51786D01*
X51772D01*
Y238743D01*
X51758D01*
Y238730D01*
X51745D01*
X51731D01*
X51718D01*
Y238743D01*
X51704D01*
Y238730D01*
X51690D01*
X51676D01*
X51663D01*
Y238743D01*
X51649D01*
Y238730D01*
X51635D01*
X51622D01*
X51608D01*
Y238743D01*
X51594D01*
Y238730D01*
X51581D01*
X51567D01*
X51553D01*
Y238743D01*
X51540D01*
Y238730D01*
X51526D01*
X51512D01*
X51499D01*
Y238743D01*
X51485D01*
Y238730D01*
X51471D01*
X51458D01*
X51444D01*
Y238743D01*
X51430D01*
Y238730D01*
X51416D01*
X51403D01*
X51389D01*
Y238743D01*
X51375D01*
Y238730D01*
X51362D01*
X51348D01*
X51334D01*
Y238743D01*
X51321D01*
Y238730D01*
X51307D01*
X51293D01*
X51280D01*
Y238743D01*
X51266D01*
Y238730D01*
X51252D01*
X51239D01*
X51225D01*
Y238743D01*
X51211D01*
Y238730D01*
X51197D01*
X51184D01*
X51170D01*
Y238743D01*
X51157D01*
Y238730D01*
X51143D01*
X51129D01*
X51115D01*
Y238743D01*
X51102D01*
Y238730D01*
X51088D01*
X51074D01*
X51061D01*
Y238743D01*
X51047D01*
Y238730D01*
X51033D01*
X51020D01*
X51006D01*
Y238743D01*
X50992D01*
Y238730D01*
X50979D01*
X50965D01*
X50951D01*
Y238743D01*
X50938D01*
Y238730D01*
X50924D01*
X50910D01*
X50897D01*
Y238743D01*
X50883D01*
Y238730D01*
X50869D01*
X50855D01*
X50842D01*
Y238743D01*
X50828D01*
Y238730D01*
X50814D01*
X50801D01*
X50787D01*
Y238743D01*
X50773D01*
Y238730D01*
X50760D01*
X50746D01*
X50732D01*
Y238743D01*
X50719D01*
Y238730D01*
X50705D01*
X50691D01*
X50678D01*
Y238743D01*
X50664D01*
Y238730D01*
X50650D01*
X50637D01*
X50623D01*
Y238743D01*
X50609D01*
Y238730D01*
X50595D01*
X50582D01*
X50568D01*
Y238743D01*
X50554D01*
Y238730D01*
X50541D01*
X50527D01*
X50513D01*
Y238743D01*
X50500D01*
Y238730D01*
X50486D01*
X50472D01*
X50459D01*
Y238743D01*
X50445D01*
Y238730D01*
X50431D01*
X50418D01*
X50404D01*
Y238743D01*
X50390D01*
Y238730D01*
X50377D01*
X50363D01*
X50349D01*
Y238743D01*
X50336D01*
Y238730D01*
X50322D01*
X50308D01*
X50295D01*
Y238743D01*
X50281D01*
Y238730D01*
X50267D01*
X50253D01*
X50240D01*
Y238743D01*
X50226D01*
Y238730D01*
X50212D01*
X50199D01*
X50185D01*
Y238743D01*
X50171D01*
Y238730D01*
X50158D01*
X50144D01*
X50130D01*
Y238743D01*
X50117D01*
Y238730D01*
X50103D01*
X50089D01*
X50076D01*
Y238743D01*
X50062D01*
Y238730D01*
X50048D01*
X50034D01*
X50021D01*
Y238743D01*
X50007D01*
Y238730D01*
X49994D01*
X49980D01*
X49966D01*
Y238743D01*
X49952D01*
Y238730D01*
X49939D01*
X49925D01*
X49911D01*
Y238743D01*
X49898D01*
Y238730D01*
X49884D01*
X49870D01*
X49857D01*
Y238743D01*
X49843D01*
Y238730D01*
X49829D01*
X49816D01*
X49802D01*
Y238743D01*
X49788D01*
Y238730D01*
X49775D01*
X49761D01*
X49747D01*
Y238743D01*
X49733D01*
Y238730D01*
X49720D01*
X49706D01*
X49692D01*
Y238743D01*
X49679D01*
Y238730D01*
X49665D01*
X49651D01*
X49638D01*
Y238743D01*
X49624D01*
Y238730D01*
X49610D01*
X49597D01*
X49583D01*
Y238743D01*
X49569D01*
Y238730D01*
X49556D01*
X49542D01*
X49528D01*
Y238743D01*
X49515D01*
Y238730D01*
X49501D01*
X49487D01*
X49474D01*
Y238743D01*
X49460D01*
Y238730D01*
X49446D01*
X49433D01*
X49419D01*
Y238743D01*
X49405D01*
Y238730D01*
X49391D01*
X49378D01*
X49364D01*
Y238743D01*
X49350D01*
Y238730D01*
X49337D01*
X49323D01*
X49309D01*
Y238743D01*
X49296D01*
Y238730D01*
X49282D01*
X49268D01*
X49255D01*
Y238743D01*
X49241D01*
Y238730D01*
X49227D01*
X49213D01*
X49200D01*
Y238743D01*
X49186D01*
Y238730D01*
X49172D01*
X49159D01*
X49145D01*
Y238743D01*
X49132D01*
Y238730D01*
X49118D01*
X49104D01*
X49090D01*
Y238743D01*
X49077D01*
Y238730D01*
X49063D01*
X49049D01*
X49036D01*
Y238743D01*
X49022D01*
Y238730D01*
X49008D01*
X48995D01*
X48981D01*
Y238743D01*
X48967D01*
Y238730D01*
X48954D01*
X48940D01*
X48926D01*
Y238743D01*
X48913D01*
Y238730D01*
X48899D01*
X48885D01*
X48871D01*
Y238743D01*
X48858D01*
Y238730D01*
X48844D01*
X48830D01*
X48817D01*
Y238743D01*
X48803D01*
Y238730D01*
X48789D01*
X48776D01*
X48762D01*
Y238743D01*
X48748D01*
Y238730D01*
X48735D01*
X48721D01*
X48707D01*
Y238743D01*
X48694D01*
Y238730D01*
X48680D01*
X48666D01*
X48653D01*
Y238743D01*
X48639D01*
Y238730D01*
X48625D01*
X48612D01*
X48598D01*
Y238743D01*
X48584D01*
Y238730D01*
X48570D01*
X48557D01*
X48543D01*
Y238743D01*
X48529D01*
Y238730D01*
X48516D01*
X48502D01*
X48488D01*
Y238743D01*
X48475D01*
Y238730D01*
X48461D01*
X48447D01*
X48434D01*
Y238743D01*
X48420D01*
Y238730D01*
X48406D01*
X48393D01*
X48379D01*
Y238743D01*
X48365D01*
Y238730D01*
X48351D01*
X48338D01*
X48324D01*
Y238743D01*
X48311D01*
Y238730D01*
X48297D01*
X48283D01*
X48269D01*
Y238743D01*
X48256D01*
Y238730D01*
X48242D01*
X48228D01*
X48215D01*
Y238743D01*
X48201D01*
Y238730D01*
X48187D01*
X48174D01*
X48160D01*
Y238743D01*
X48146D01*
Y238730D01*
X48133D01*
X48119D01*
X48105D01*
Y238743D01*
X48092D01*
Y238730D01*
X48078D01*
X48064D01*
X48050D01*
Y238743D01*
X48037D01*
Y238730D01*
X48023D01*
X48009D01*
X47996D01*
Y238743D01*
X47982D01*
Y238730D01*
X47968D01*
X47955D01*
X47941D01*
Y238743D01*
X47927D01*
Y238730D01*
X47914D01*
X47900D01*
X47886D01*
Y238743D01*
X47873D01*
Y238730D01*
X47859D01*
X47845D01*
X47832D01*
Y238743D01*
X47818D01*
Y238730D01*
X47804D01*
X47791D01*
X47777D01*
Y238743D01*
X47763D01*
Y238730D01*
X47750D01*
X47736D01*
X47722D01*
Y238743D01*
X47708D01*
Y238730D01*
X47695D01*
X47681D01*
X47667D01*
Y238743D01*
X47654D01*
Y238730D01*
X47640D01*
X47626D01*
X47613D01*
Y238743D01*
X47599D01*
Y238730D01*
X47585D01*
X47572D01*
X47558D01*
Y238743D01*
X47544D01*
Y238730D01*
X47531D01*
X47517D01*
X47503D01*
Y238743D01*
X47490D01*
Y238730D01*
X47476D01*
X47462D01*
X47449D01*
Y238743D01*
X47435D01*
Y238730D01*
X47421D01*
X47407D01*
X47394D01*
Y238743D01*
X47380D01*
Y238730D01*
X47366D01*
X47353D01*
X47339D01*
Y238743D01*
X47325D01*
Y238730D01*
X47312D01*
X47298D01*
X47284D01*
Y238743D01*
X47271D01*
Y238730D01*
X47257D01*
X47243D01*
X47230D01*
Y238743D01*
X47216D01*
Y238730D01*
X47202D01*
X47188D01*
X47175D01*
Y238743D01*
X47161D01*
Y238730D01*
X47148D01*
X47134D01*
X47120D01*
Y238743D01*
X47106D01*
Y238730D01*
X47093D01*
X47079D01*
X47065D01*
Y238743D01*
X47052D01*
Y238730D01*
X47038D01*
X47024D01*
X47011D01*
Y238743D01*
X46997D01*
Y238730D01*
X46983D01*
X46970D01*
X46956D01*
Y238743D01*
X46942D01*
Y238730D01*
X46929D01*
X46915D01*
X46901D01*
Y238743D01*
X46887D01*
Y238730D01*
X46874D01*
X46860D01*
X46846D01*
Y238743D01*
X46833D01*
Y238730D01*
X46819D01*
X46805D01*
X46792D01*
Y238743D01*
X46778D01*
Y238730D01*
X46764D01*
X46751D01*
X46737D01*
Y238743D01*
X46723D01*
Y238730D01*
X46710D01*
X46696D01*
X46682D01*
Y238743D01*
X46669D01*
Y238730D01*
X46655D01*
X46641D01*
X46628D01*
Y238743D01*
X46614D01*
Y238730D01*
X46600D01*
X46586D01*
X46573D01*
Y238743D01*
X46559D01*
Y238730D01*
X46545D01*
X46532D01*
X46518D01*
Y238743D01*
X46504D01*
Y238730D01*
X46491D01*
X46477D01*
X46463D01*
Y238743D01*
X46450D01*
Y238730D01*
X46436D01*
X46422D01*
X46409D01*
Y238743D01*
X46395D01*
Y238730D01*
X46381D01*
X46367D01*
X46354D01*
Y238743D01*
X46340D01*
Y238730D01*
X46327D01*
X46313D01*
X46299D01*
Y238743D01*
X46285D01*
Y238730D01*
X46272D01*
X46258D01*
X46244D01*
Y238743D01*
X46231D01*
Y238730D01*
X46217D01*
X46203D01*
X46190D01*
Y238743D01*
X46176D01*
Y238730D01*
X46162D01*
X46149D01*
X46135D01*
Y238743D01*
X46121D01*
Y238730D01*
X46108D01*
X46094D01*
X46080D01*
Y238743D01*
X46066D01*
Y238730D01*
X46053D01*
X46039D01*
X46025D01*
Y238743D01*
X46012D01*
Y238730D01*
X45998D01*
X45984D01*
X45971D01*
Y238743D01*
X45957D01*
Y238730D01*
X45943D01*
X45930D01*
X45916D01*
Y238743D01*
X45902D01*
Y238730D01*
X45889D01*
X45875D01*
X45861D01*
Y238743D01*
X45848D01*
Y238730D01*
X45834D01*
X45820D01*
X45807D01*
Y238743D01*
X45793D01*
Y238730D01*
X45779D01*
X45766D01*
X45752D01*
Y238743D01*
X45738D01*
Y238730D01*
X45724D01*
X45711D01*
X45697D01*
Y238743D01*
X45683D01*
Y238730D01*
X45670D01*
X45656D01*
X45642D01*
Y238743D01*
X45629D01*
Y238730D01*
X45615D01*
X45601D01*
X45588D01*
Y238743D01*
X45574D01*
Y238730D01*
X45560D01*
X45547D01*
X45533D01*
Y238743D01*
X45519D01*
Y238730D01*
X45505D01*
X45492D01*
X45478D01*
Y238743D01*
X45465D01*
Y238730D01*
X45451D01*
X45437D01*
X45423D01*
Y238743D01*
X45410D01*
Y238730D01*
X45396D01*
X45382D01*
X45369D01*
Y238743D01*
X45355D01*
Y238730D01*
X45341D01*
X45328D01*
X45314D01*
Y238743D01*
X45300D01*
Y238730D01*
X45287D01*
X45273D01*
X45259D01*
Y238743D01*
X45246D01*
Y238730D01*
X45232D01*
X45218D01*
X45204D01*
Y238743D01*
X45191D01*
Y238730D01*
X45177D01*
X45164D01*
X45150D01*
Y238743D01*
X45136D01*
Y238730D01*
X45122D01*
X45109D01*
X45095D01*
Y238743D01*
X45081D01*
Y238730D01*
X45068D01*
X45054D01*
X45040D01*
Y238743D01*
X45027D01*
Y238730D01*
X45013D01*
X44999D01*
X44986D01*
Y238743D01*
X44972D01*
Y238730D01*
X44958D01*
X44945D01*
X44931D01*
Y238743D01*
X44917D01*
Y238730D01*
X44903D01*
X44890D01*
X44876D01*
Y238743D01*
X44862D01*
Y238730D01*
X44849D01*
X44835D01*
X44821D01*
Y238743D01*
X44808D01*
Y238730D01*
X44794D01*
X44780D01*
X44767D01*
Y238743D01*
X44753D01*
Y238730D01*
X44739D01*
X44726D01*
X44712D01*
Y238743D01*
X44698D01*
Y238730D01*
X44685D01*
X44671D01*
X44657D01*
Y238743D01*
X44644D01*
Y238730D01*
X44630D01*
X44616D01*
X44603D01*
Y238743D01*
X44589D01*
Y238730D01*
X44575D01*
X44561D01*
X44548D01*
Y238743D01*
X44534D01*
Y238730D01*
X44520D01*
X44507D01*
X44493D01*
Y238743D01*
X44479D01*
Y238730D01*
X44466D01*
X44452D01*
X44438D01*
Y238743D01*
X44425D01*
Y238730D01*
X44411D01*
X44397D01*
X44384D01*
Y238743D01*
X44370D01*
Y238730D01*
X44356D01*
X44342D01*
X44329D01*
Y238743D01*
X44315D01*
Y238730D01*
X44302D01*
X44288D01*
X44274D01*
Y238743D01*
X44260D01*
Y238730D01*
X44247D01*
X44233D01*
X44219D01*
Y238743D01*
X44206D01*
Y238730D01*
X44192D01*
X44178D01*
X44165D01*
Y238743D01*
X44151D01*
Y238730D01*
X44137D01*
X44124D01*
X44110D01*
Y238743D01*
X44096D01*
Y238730D01*
X44082D01*
X44069D01*
X44055D01*
Y238743D01*
X44041D01*
Y238730D01*
X44028D01*
X44014D01*
X44001D01*
Y238743D01*
X43987D01*
Y238730D01*
X43973D01*
X43959D01*
X43946D01*
Y238743D01*
X43932D01*
Y238730D01*
X43918D01*
X43905D01*
X43891D01*
Y238743D01*
X43877D01*
Y238730D01*
X43864D01*
X43850D01*
X43836D01*
Y238743D01*
X43823D01*
Y238730D01*
X43809D01*
X43795D01*
X43782D01*
Y238743D01*
X43768D01*
Y238730D01*
X43754D01*
X43740D01*
X43727D01*
Y238743D01*
X43713D01*
Y238730D01*
X43699D01*
X43686D01*
X43672D01*
Y238743D01*
X43658D01*
Y238730D01*
X43645D01*
X43631D01*
X43617D01*
Y238743D01*
X43604D01*
Y238730D01*
X43590D01*
X43576D01*
X43563D01*
Y238743D01*
X43549D01*
Y238730D01*
X43535D01*
X43522D01*
X43508D01*
Y238743D01*
X43494D01*
Y238730D01*
X43481D01*
X43467D01*
X43453D01*
Y238743D01*
X43439D01*
Y238730D01*
X43426D01*
X43412D01*
X43398D01*
Y238743D01*
X43385D01*
Y238730D01*
X43371D01*
X43357D01*
X43344D01*
Y238743D01*
X43330D01*
Y238730D01*
X43316D01*
X43303D01*
X43289D01*
Y238743D01*
X43275D01*
Y238730D01*
X43262D01*
X43248D01*
X43234D01*
Y238743D01*
X43220D01*
Y238730D01*
X43207D01*
X43193D01*
X43180D01*
Y238743D01*
X43166D01*
Y238730D01*
X43152D01*
X43138D01*
X43125D01*
Y238743D01*
X43111D01*
Y238730D01*
X43097D01*
Y242260D01*
X43111D01*
X43125D01*
X43138D01*
X43152D01*
X43166D01*
X43180D01*
X43193D01*
X43207D01*
X43220D01*
X43234D01*
X43248D01*
X43262D01*
X43275D01*
X43289D01*
X43303D01*
X43316D01*
X43330D01*
X43344D01*
X43357D01*
X43371D01*
X43385D01*
X43398D01*
X43412D01*
X43426D01*
X43439D01*
X43453D01*
X43467D01*
X43481D01*
X43494D01*
X43508D01*
X43522D01*
X43535D01*
X43549D01*
X43563D01*
X43576D01*
X43590D01*
X43604D01*
X43617D01*
X43631D01*
X43645D01*
X43658D01*
X43672D01*
X43686D01*
X43699D01*
X43713D01*
X43727D01*
X43740D01*
X43754D01*
X43768D01*
X43782D01*
X43795D01*
X43809D01*
X43823D01*
X43836D01*
X43850D01*
X43864D01*
X43877D01*
X43891D01*
X43905D01*
X43918D01*
X43932D01*
X43946D01*
X43959D01*
X43973D01*
X43987D01*
X44001D01*
X44014D01*
X44028D01*
X44041D01*
X44055D01*
X44069D01*
X44082D01*
X44096D01*
X44110D01*
X44124D01*
X44137D01*
X44151D01*
X44165D01*
X44178D01*
X44192D01*
X44206D01*
X44219D01*
X44233D01*
X44247D01*
X44260D01*
X44274D01*
X44288D01*
X44302D01*
X44315D01*
X44329D01*
X44342D01*
X44356D01*
X44370D01*
X44384D01*
X44397D01*
X44411D01*
X44425D01*
X44438D01*
X44452D01*
X44466D01*
X44479D01*
X44493D01*
X44507D01*
X44520D01*
X44534D01*
X44548D01*
X44561D01*
X44575D01*
X44589D01*
X44603D01*
X44616D01*
X44630D01*
X44644D01*
X44657D01*
X44671D01*
X44685D01*
X44698D01*
X44712D01*
X44726D01*
X44739D01*
X44753D01*
X44767D01*
X44780D01*
X44794D01*
X44808D01*
X44821D01*
X44835D01*
X44849D01*
X44862D01*
X44876D01*
X44890D01*
X44903D01*
X44917D01*
X44931D01*
X44945D01*
X44958D01*
X44972D01*
X44986D01*
X44999D01*
X45013D01*
X45027D01*
X45040D01*
X45054D01*
X45068D01*
X45081D01*
X45095D01*
X45109D01*
X45122D01*
X45136D01*
X45150D01*
X45164D01*
X45177D01*
X45191D01*
X45204D01*
X45218D01*
X45232D01*
X45246D01*
X45259D01*
X45273D01*
X45287D01*
X45300D01*
X45314D01*
X45328D01*
X45341D01*
X45355D01*
X45369D01*
X45382D01*
X45396D01*
X45410D01*
X45423D01*
X45437D01*
X45451D01*
X45465D01*
X45478D01*
X45492D01*
X45505D01*
X45519D01*
X45533D01*
X45547D01*
X45560D01*
X45574D01*
X45588D01*
X45601D01*
X45615D01*
X45629D01*
X45642D01*
X45656D01*
X45670D01*
X45683D01*
X45697D01*
X45711D01*
X45724D01*
X45738D01*
X45752D01*
X45766D01*
X45779D01*
X45793D01*
X45807D01*
X45820D01*
X45834D01*
X45848D01*
X45861D01*
X45875D01*
X45889D01*
X45902D01*
X45916D01*
X45930D01*
X45943D01*
X45957D01*
X45971D01*
X45984D01*
X45998D01*
X46012D01*
X46025D01*
X46039D01*
X46053D01*
X46066D01*
X46080D01*
X46094D01*
X46108D01*
X46121D01*
X46135D01*
X46149D01*
X46162D01*
X46176D01*
X46190D01*
X46203D01*
X46217D01*
X46231D01*
X46244D01*
X46258D01*
X46272D01*
X46285D01*
X46299D01*
X46313D01*
X46327D01*
X46340D01*
X46354D01*
X46367D01*
X46381D01*
X46395D01*
X46409D01*
X46422D01*
X46436D01*
X46450D01*
X46463D01*
X46477D01*
X46491D01*
X46504D01*
X46518D01*
X46532D01*
X46545D01*
X46559D01*
X46573D01*
X46586D01*
X46600D01*
X46614D01*
X46628D01*
X46641D01*
X46655D01*
X46669D01*
X46682D01*
X46696D01*
X46710D01*
X46723D01*
X46737D01*
X46751D01*
X46764D01*
X46778D01*
X46792D01*
X46805D01*
X46819D01*
X46833D01*
X46846D01*
X46860D01*
X46874D01*
X46887D01*
X46901D01*
X46915D01*
X46929D01*
X46942D01*
X46956D01*
X46970D01*
X46983D01*
X46997D01*
X47011D01*
X47024D01*
X47038D01*
X47052D01*
X47065D01*
X47079D01*
X47093D01*
X47106D01*
X47120D01*
X47134D01*
X47148D01*
X47161D01*
X47175D01*
X47188D01*
X47202D01*
X47216D01*
X47230D01*
X47243D01*
X47257D01*
X47271D01*
X47284D01*
X47298D01*
X47312D01*
X47325D01*
X47339D01*
X47353D01*
X47366D01*
X47380D01*
X47394D01*
X47407D01*
X47421D01*
X47435D01*
X47449D01*
X47462D01*
X47476D01*
X47490D01*
X47503D01*
X47517D01*
X47531D01*
X47544D01*
X47558D01*
X47572D01*
X47585D01*
X47599D01*
X47613D01*
X47626D01*
X47640D01*
X47654D01*
X47667D01*
X47681D01*
X47695D01*
X47708D01*
X47722D01*
X47736D01*
X47750D01*
X47763D01*
X47777D01*
X47791D01*
X47804D01*
X47818D01*
X47832D01*
X47845D01*
X47859D01*
X47873D01*
X47886D01*
X47900D01*
X47914D01*
X47927D01*
X47941D01*
X47955D01*
X47968D01*
X47982D01*
X47996D01*
X48009D01*
X48023D01*
X48037D01*
X48050D01*
X48064D01*
X48078D01*
X48092D01*
X48105D01*
X48119D01*
X48133D01*
X48146D01*
X48160D01*
X48174D01*
X48187D01*
X48201D01*
X48215D01*
X48228D01*
X48242D01*
X48256D01*
X48269D01*
X48283D01*
X48297D01*
X48311D01*
X48324D01*
X48338D01*
X48351D01*
X48365D01*
X48379D01*
X48393D01*
X48406D01*
X48420D01*
X48434D01*
X48447D01*
X48461D01*
X48475D01*
X48488D01*
X48502D01*
X48516D01*
X48529D01*
X48543D01*
X48557D01*
X48570D01*
X48584D01*
X48598D01*
X48612D01*
X48625D01*
X48639D01*
X48653D01*
X48666D01*
X48680D01*
X48694D01*
X48707D01*
X48721D01*
X48735D01*
X48748D01*
X48762D01*
X48776D01*
X48789D01*
X48803D01*
X48817D01*
X48830D01*
X48844D01*
X48858D01*
X48871D01*
X48885D01*
X48899D01*
X48913D01*
X48926D01*
X48940D01*
X48954D01*
X48967D01*
X48981D01*
X48995D01*
X49008D01*
X49022D01*
X49036D01*
X49049D01*
X49063D01*
X49077D01*
X49090D01*
X49104D01*
X49118D01*
X49132D01*
X49145D01*
X49159D01*
X49172D01*
X49186D01*
X49200D01*
X49213D01*
X49227D01*
X49241D01*
X49255D01*
X49268D01*
X49282D01*
X49296D01*
X49309D01*
X49323D01*
X49337D01*
X49350D01*
X49364D01*
X49378D01*
X49391D01*
X49405D01*
X49419D01*
X49433D01*
X49446D01*
X49460D01*
X49474D01*
X49487D01*
X49501D01*
X49515D01*
X49528D01*
X49542D01*
X49556D01*
X49569D01*
X49583D01*
X49597D01*
X49610D01*
X49624D01*
X49638D01*
X49651D01*
X49665D01*
X49679D01*
X49692D01*
X49706D01*
X49720D01*
X49733D01*
X49747D01*
X49761D01*
X49775D01*
X49788D01*
X49802D01*
X49816D01*
X49829D01*
X49843D01*
X49857D01*
X49870D01*
X49884D01*
X49898D01*
X49911D01*
X49925D01*
X49939D01*
X49952D01*
X49966D01*
X49980D01*
X49994D01*
X50007D01*
X50021D01*
X50034D01*
X50048D01*
X50062D01*
X50076D01*
X50089D01*
X50103D01*
X50117D01*
X50130D01*
X50144D01*
X50158D01*
X50171D01*
X50185D01*
X50199D01*
X50212D01*
X50226D01*
X50240D01*
X50253D01*
X50267D01*
X50281D01*
X50295D01*
X50308D01*
X50322D01*
X50336D01*
X50349D01*
X50363D01*
X50377D01*
X50390D01*
X50404D01*
X50418D01*
X50431D01*
X50445D01*
X50459D01*
X50472D01*
X50486D01*
X50500D01*
X50513D01*
X50527D01*
X50541D01*
X50554D01*
X50568D01*
X50582D01*
X50595D01*
X50609D01*
X50623D01*
X50637D01*
X50650D01*
X50664D01*
X50678D01*
X50691D01*
X50705D01*
X50719D01*
X50732D01*
X50746D01*
X50760D01*
X50773D01*
X50787D01*
X50801D01*
X50814D01*
X50828D01*
X50842D01*
X50855D01*
X50869D01*
X50883D01*
X50897D01*
X50910D01*
X50924D01*
X50938D01*
X50951D01*
X50965D01*
X50979D01*
X50992D01*
X51006D01*
X51020D01*
X51033D01*
X51047D01*
X51061D01*
X51074D01*
X51088D01*
X51102D01*
X51115D01*
X51129D01*
X51143D01*
X51157D01*
X51170D01*
X51184D01*
X51197D01*
X51211D01*
X51225D01*
X51239D01*
X51252D01*
X51266D01*
X51280D01*
X51293D01*
X51307D01*
X51321D01*
X51334D01*
X51348D01*
X51362D01*
X51375D01*
X51389D01*
X51403D01*
X51416D01*
X51430D01*
X51444D01*
X51458D01*
X51471D01*
X51485D01*
X51499D01*
X51512D01*
X51526D01*
X51540D01*
X51553D01*
X51567D01*
X51581D01*
X51594D01*
X51608D01*
X51622D01*
X51635D01*
X51649D01*
X51663D01*
X51676D01*
X51690D01*
X51704D01*
X51718D01*
X51731D01*
X51745D01*
X51758D01*
X51772D01*
X51786D01*
X51800D01*
X51813D01*
X51827D01*
X51841D01*
X51854D01*
X51868D01*
X51882D01*
X51895D01*
X51909D01*
X51923D01*
X51936D01*
X51950D01*
X51964D01*
X51977D01*
X51991D01*
X52005D01*
X52018D01*
X52032D01*
X52046D01*
X52060D01*
X52073D01*
X52087D01*
X52101D01*
X52114D01*
X52128D01*
X52142D01*
X52155D01*
X52169D01*
X52183D01*
X52196D01*
X52210D01*
X52224D01*
X52237D01*
X52251D01*
X52265D01*
X52279D01*
X52292D01*
X52306D01*
X52320D01*
X52333D01*
X52347D01*
X52361D01*
X52374D01*
X52388D01*
X52402D01*
X52415D01*
X52429D01*
X52443D01*
X52456D01*
X52470D01*
X52484D01*
X52497D01*
X52511D01*
X52525D01*
X52538D01*
X52552D01*
X52566D01*
X52579D01*
X52593D01*
X52607D01*
X52621D01*
X52634D01*
X52648D01*
X52662D01*
X52675D01*
X52689D01*
X52703D01*
X52716D01*
X52730D01*
X52744D01*
X52757D01*
X52771D01*
X52785D01*
X52798D01*
X52812D01*
X52826D01*
X52839D01*
X52853D01*
X52867D01*
X52881D01*
X52894D01*
X52908D01*
X52922D01*
X52935D01*
X52949D01*
X52963D01*
X52976D01*
X52990D01*
X53004D01*
X53017D01*
X53031D01*
X53045D01*
X53058D01*
X53072D01*
X53086D01*
X53099D01*
X53113D01*
X53127D01*
X53140D01*
X53154D01*
X53168D01*
X53181D01*
X53195D01*
X53209D01*
X53223D01*
X53236D01*
X53250D01*
X53264D01*
X53277D01*
X53291D01*
X53305D01*
X53318D01*
X53332D01*
X53346D01*
X53359D01*
X53373D01*
X53387D01*
X53400D01*
X53414D01*
X53428D01*
X53442D01*
X53455D01*
X53469D01*
X53483D01*
X53496D01*
X53510D01*
X53524D01*
X53537D01*
X53551D01*
X53565D01*
X53578D01*
X53592D01*
X53606D01*
X53619D01*
X53633D01*
X53647D01*
X53660D01*
X53674D01*
X53688D01*
X53702D01*
X53715D01*
X53729D01*
X53742D01*
X53756D01*
X53770D01*
X53784D01*
X53797D01*
X53811D01*
X53825D01*
X53838D01*
X53852D01*
X53866D01*
X53879D01*
X53893D01*
X53907D01*
X53920D01*
X53934D01*
X53948D01*
X53961D01*
X53975D01*
X53989D01*
X54002D01*
X54016D01*
X54030D01*
X54044D01*
X54057D01*
X54071D01*
X54085D01*
X54098D01*
X54112D01*
X54126D01*
X54139D01*
X54153D01*
X54167D01*
X54180D01*
X54194D01*
X54208D01*
X54221D01*
X54235D01*
X54249D01*
X54263D01*
X54276D01*
X54290D01*
X54303D01*
X54317D01*
X54331D01*
X54345D01*
X54358D01*
X54372D01*
X54386D01*
X54399D01*
X54413D01*
X54427D01*
X54440D01*
X54454D01*
X54468D01*
X54481D01*
X54495D01*
X54509D01*
X54522D01*
X54536D01*
X54550D01*
X54563D01*
X54577D01*
X54591D01*
X54605D01*
X54618D01*
X54632D01*
X54646D01*
X54659D01*
X54673D01*
X54687D01*
X54700D01*
X54714D01*
X54728D01*
X54741D01*
X54755D01*
X54769D01*
X54782D01*
X54796D01*
X54810D01*
X54823D01*
X54837D01*
X54851D01*
X54865D01*
X54878D01*
X54892D01*
X54905D01*
X54919D01*
X54933D01*
X54947D01*
X54960D01*
X54974D01*
X54988D01*
X55001D01*
X55015D01*
X55029D01*
X55042D01*
X55056D01*
X55070D01*
X55083D01*
X55097D01*
X55111D01*
X55124D01*
X55138D01*
X55152D01*
X55165D01*
X55179D01*
X55193D01*
X55207D01*
X55220D01*
X55234D01*
X55248D01*
X55261D01*
X55275D01*
X55289D01*
X55302D01*
X55316D01*
X55330D01*
X55343D01*
X55357D01*
X55371D01*
X55384D01*
X55398D01*
X55412D01*
X55426D01*
X55439D01*
X55453D01*
X55467D01*
X55480D01*
X55494D01*
X55508D01*
X55521D01*
X55535D01*
X55549D01*
X55562D01*
X55576D01*
X55590D01*
X55603D01*
X55617D01*
X55631D01*
X55644D01*
X55658D01*
X55672D01*
X55686D01*
X55699D01*
X55713D01*
X55726D01*
X55740D01*
X55754D01*
X55768D01*
X55781D01*
X55795D01*
X55809D01*
X55822D01*
X55836D01*
X55850D01*
X55863D01*
X55877D01*
X55891D01*
X55904D01*
X55918D01*
X55932D01*
X55945D01*
X55959D01*
X55973D01*
X55986D01*
X56000D01*
X56014D01*
X56028D01*
X56041D01*
X56055D01*
X56069D01*
X56082D01*
X56096D01*
X56110D01*
X56123D01*
X56137D01*
X56151D01*
X56164D01*
X56178D01*
X56192D01*
X56205D01*
X56219D01*
X56233D01*
Y238730D01*
X56219D01*
D02*
G37*
G36*
X49789Y196224D02*
X49894D01*
X50017Y196214D01*
X50159D01*
X50301Y196205D01*
X50471Y196186D01*
X50642Y196177D01*
X50831Y196158D01*
X51219Y196120D01*
X51646Y196053D01*
X52091Y195987D01*
X52555Y195892D01*
X53009Y195779D01*
X53464Y195646D01*
X53909Y195485D01*
X54326Y195296D01*
X54524Y195192D01*
X54704Y195078D01*
X54884Y194955D01*
X55055Y194832D01*
X55074Y194813D01*
X55121Y194775D01*
X55197Y194709D01*
X55291Y194605D01*
X55405Y194481D01*
X55528Y194339D01*
X55670Y194159D01*
X55812Y193960D01*
X55945Y193733D01*
X56087Y193487D01*
X56210Y193222D01*
X56324Y192928D01*
X56418Y192606D01*
X56494Y192275D01*
X56542Y191915D01*
X56560Y191536D01*
Y191470D01*
X56551Y191385D01*
Y191280D01*
X56532Y191148D01*
X56513Y190996D01*
X56485Y190826D01*
X56456Y190637D01*
X56409Y190447D01*
X56352Y190239D01*
X56276Y190031D01*
X56191Y189822D01*
X56097Y189604D01*
X55973Y189396D01*
X55841Y189197D01*
X55689Y189008D01*
X55680Y188998D01*
X55651Y188960D01*
X55595Y188913D01*
X55528Y188847D01*
X55443Y188771D01*
X55329Y188686D01*
X55206Y188591D01*
X55064Y188487D01*
X54903Y188383D01*
X54723Y188278D01*
X54524Y188174D01*
X54307Y188089D01*
X54079Y187994D01*
X53833Y187919D01*
X53568Y187862D01*
X53293Y187814D01*
X53170Y189415D01*
X53180D01*
X53208Y189424D01*
X53265Y189434D01*
X53322Y189453D01*
X53407Y189481D01*
X53492Y189500D01*
X53701Y189576D01*
X53918Y189661D01*
X54146Y189765D01*
X54364Y189888D01*
X54458Y189955D01*
X54543Y190031D01*
X54553Y190040D01*
X54572Y190059D01*
X54610Y190097D01*
X54648Y190144D01*
X54704Y190210D01*
X54761Y190286D01*
X54827Y190371D01*
X54894Y190476D01*
X54951Y190589D01*
X55017Y190712D01*
X55074Y190835D01*
X55130Y190978D01*
X55168Y191129D01*
X55206Y191290D01*
X55225Y191460D01*
X55235Y191631D01*
Y191707D01*
X55225Y191763D01*
Y191830D01*
X55216Y191905D01*
X55197Y191991D01*
X55178Y192095D01*
X55130Y192303D01*
X55055Y192531D01*
X54941Y192758D01*
X54875Y192871D01*
X54799Y192985D01*
X54790Y192995D01*
X54771Y193014D01*
X54742Y193061D01*
X54695Y193108D01*
X54638Y193175D01*
X54572Y193250D01*
X54487Y193326D01*
X54392Y193421D01*
X54288Y193515D01*
X54165Y193610D01*
X54032Y193714D01*
X53890Y193809D01*
X53729Y193913D01*
X53558Y194008D01*
X53379Y194103D01*
X53189Y194188D01*
X53180D01*
X53142Y194207D01*
X53075Y194226D01*
X52990Y194254D01*
X52886Y194292D01*
X52754Y194330D01*
X52593Y194368D01*
X52413Y194406D01*
X52214Y194444D01*
X51986Y194491D01*
X51731Y194529D01*
X51466Y194557D01*
X51172Y194586D01*
X50860Y194614D01*
X50519Y194623D01*
X50159Y194633D01*
X50168Y194623D01*
X50197Y194605D01*
X50244Y194576D01*
X50301Y194529D01*
X50377Y194472D01*
X50462Y194406D01*
X50556Y194330D01*
X50661Y194235D01*
X50765Y194141D01*
X50869Y194036D01*
X51087Y193790D01*
X51295Y193525D01*
X51390Y193373D01*
X51475Y193222D01*
X51485Y193212D01*
X51494Y193184D01*
X51513Y193137D01*
X51541Y193080D01*
X51579Y192995D01*
X51617Y192909D01*
X51655Y192805D01*
X51693Y192682D01*
X51731Y192559D01*
X51769Y192417D01*
X51844Y192123D01*
X51892Y191792D01*
X51911Y191621D01*
Y191375D01*
X51901Y191290D01*
X51892Y191186D01*
X51873Y191044D01*
X51844Y190883D01*
X51807Y190703D01*
X51759Y190504D01*
X51702Y190296D01*
X51617Y190078D01*
X51522Y189850D01*
X51409Y189614D01*
X51267Y189386D01*
X51115Y189159D01*
X50926Y188932D01*
X50718Y188714D01*
X50708Y188705D01*
X50661Y188667D01*
X50594Y188610D01*
X50500Y188534D01*
X50386Y188449D01*
X50244Y188354D01*
X50083Y188250D01*
X49894Y188146D01*
X49685Y188042D01*
X49448Y187938D01*
X49202Y187843D01*
X48928Y187758D01*
X48634Y187682D01*
X48331Y187625D01*
X48000Y187587D01*
X47659Y187578D01*
X47649D01*
X47602D01*
X47536D01*
X47450Y187587D01*
X47337Y187597D01*
X47214Y187606D01*
X47072Y187625D01*
X46911Y187644D01*
X46740Y187672D01*
X46560Y187710D01*
X46371Y187748D01*
X46172Y187805D01*
X45973Y187871D01*
X45774Y187938D01*
X45566Y188023D01*
X45367Y188118D01*
X45357Y188127D01*
X45320Y188146D01*
X45263Y188174D01*
X45197Y188212D01*
X45102Y188269D01*
X44998Y188335D01*
X44894Y188411D01*
X44770Y188496D01*
X44638Y188601D01*
X44505Y188705D01*
X44373Y188828D01*
X44240Y188960D01*
X44107Y189093D01*
X43975Y189244D01*
X43861Y189406D01*
X43748Y189576D01*
X43738Y189585D01*
X43719Y189614D01*
X43700Y189671D01*
X43662Y189737D01*
X43615Y189832D01*
X43568Y189936D01*
X43520Y190049D01*
X43473Y190191D01*
X43416Y190333D01*
X43369Y190495D01*
X43321Y190674D01*
X43274Y190854D01*
X43236Y191053D01*
X43217Y191252D01*
X43198Y191470D01*
X43189Y191688D01*
Y191773D01*
X43198Y191820D01*
Y191877D01*
X43208Y192019D01*
X43236Y192190D01*
X43265Y192388D01*
X43312Y192606D01*
X43378Y192852D01*
X43454Y193108D01*
X43549Y193373D01*
X43672Y193639D01*
X43814Y193913D01*
X43984Y194188D01*
X44183Y194462D01*
X44410Y194718D01*
X44666Y194964D01*
X44685Y194974D01*
X44732Y195021D01*
X44827Y195078D01*
X44950Y195163D01*
X45111Y195258D01*
X45206Y195315D01*
X45310Y195362D01*
X45424Y195419D01*
X45547Y195476D01*
X45689Y195542D01*
X45831Y195599D01*
X45983Y195656D01*
X46143Y195712D01*
X46323Y195779D01*
X46503Y195836D01*
X46702Y195883D01*
X46901Y195940D01*
X47119Y195987D01*
X47346Y196035D01*
X47583Y196082D01*
X47829Y196120D01*
X48085Y196148D01*
X48350Y196177D01*
X48634Y196205D01*
X48918Y196214D01*
X49221Y196233D01*
X49534D01*
X49543D01*
X49581D01*
X49628D01*
X49704D01*
X49789Y196224D01*
D02*
G37*
G36*
X46986Y184301D02*
X46977D01*
X46929Y184292D01*
X46873Y184282D01*
X46788Y184263D01*
X46683Y184235D01*
X46560Y184206D01*
X46428Y184169D01*
X46286Y184121D01*
X45992Y184008D01*
X45831Y183941D01*
X45680Y183865D01*
X45528Y183771D01*
X45386Y183676D01*
X45253Y183563D01*
X45130Y183439D01*
X45121Y183430D01*
X45102Y183411D01*
X45073Y183373D01*
X45035Y183316D01*
X44988Y183250D01*
X44931Y183165D01*
X44884Y183080D01*
X44827Y182975D01*
X44761Y182862D01*
X44714Y182729D01*
X44657Y182597D01*
X44609Y182445D01*
X44572Y182293D01*
X44543Y182132D01*
X44524Y181962D01*
X44515Y181782D01*
Y181725D01*
X44524Y181668D01*
Y181583D01*
X44543Y181489D01*
X44562Y181365D01*
X44590Y181233D01*
X44628Y181091D01*
X44666Y180939D01*
X44723Y180778D01*
X44799Y180617D01*
X44884Y180447D01*
X44979Y180286D01*
X45102Y180115D01*
X45234Y179954D01*
X45386Y179803D01*
X45395Y179793D01*
X45424Y179765D01*
X45481Y179727D01*
X45547Y179680D01*
X45632Y179613D01*
X45736Y179547D01*
X45859Y179471D01*
X46001Y179396D01*
X46162Y179329D01*
X46333Y179254D01*
X46522Y179187D01*
X46731Y179121D01*
X46958Y179074D01*
X47195Y179036D01*
X47441Y179007D01*
X47706Y178998D01*
X47725D01*
X47763D01*
X47839Y179007D01*
X47933D01*
X48047Y179017D01*
X48189Y179036D01*
X48331Y179064D01*
X48502Y179093D01*
X48672Y179140D01*
X48842Y179187D01*
X49022Y179254D01*
X49212Y179329D01*
X49392Y179415D01*
X49562Y179519D01*
X49733Y179642D01*
X49884Y179774D01*
X49894Y179784D01*
X49922Y179812D01*
X49960Y179850D01*
X50007Y179917D01*
X50073Y179992D01*
X50140Y180087D01*
X50206Y180191D01*
X50282Y180314D01*
X50358Y180456D01*
X50424Y180608D01*
X50500Y180769D01*
X50556Y180949D01*
X50604Y181148D01*
X50642Y181356D01*
X50670Y181574D01*
X50680Y181801D01*
Y181877D01*
X50670Y181934D01*
Y182000D01*
X50661Y182085D01*
X50651Y182170D01*
X50632Y182274D01*
X50594Y182492D01*
X50528Y182729D01*
X50443Y182975D01*
X50320Y183212D01*
Y183222D01*
X50301Y183240D01*
X50282Y183269D01*
X50253Y183316D01*
X50178Y183430D01*
X50073Y183572D01*
X49941Y183723D01*
X49789Y183884D01*
X49610Y184045D01*
X49411Y184187D01*
X49610Y185703D01*
X56343Y184434D01*
Y177909D01*
X54808D01*
Y183155D01*
X51276Y183856D01*
X51286Y183847D01*
X51314Y183799D01*
X51352Y183742D01*
X51409Y183648D01*
X51466Y183544D01*
X51541Y183420D01*
X51608Y183269D01*
X51693Y183108D01*
X51769Y182928D01*
X51844Y182739D01*
X51911Y182530D01*
X51968Y182322D01*
X52024Y182095D01*
X52062Y181867D01*
X52091Y181621D01*
X52100Y181384D01*
Y181309D01*
X52091Y181214D01*
X52081Y181100D01*
X52062Y180949D01*
X52034Y180778D01*
X51996Y180579D01*
X51949Y180371D01*
X51892Y180153D01*
X51807Y179917D01*
X51712Y179680D01*
X51598Y179434D01*
X51456Y179187D01*
X51305Y178941D01*
X51115Y178704D01*
X50907Y178477D01*
X50897Y178468D01*
X50850Y178430D01*
X50784Y178363D01*
X50689Y178288D01*
X50576Y178202D01*
X50433Y178098D01*
X50263Y177994D01*
X50073Y177881D01*
X49865Y177776D01*
X49638Y177672D01*
X49382Y177568D01*
X49117Y177473D01*
X48823Y177407D01*
X48511Y177341D01*
X48189Y177303D01*
X47848Y177293D01*
X47839D01*
X47829D01*
X47801D01*
X47772D01*
X47678Y177303D01*
X47554Y177312D01*
X47394Y177322D01*
X47214Y177350D01*
X47015Y177379D01*
X46797Y177426D01*
X46560Y177483D01*
X46314Y177549D01*
X46058Y177634D01*
X45803Y177729D01*
X45537Y177852D01*
X45282Y177994D01*
X45026Y178155D01*
X44780Y178335D01*
X44761Y178354D01*
X44714Y178392D01*
X44638Y178468D01*
X44534Y178562D01*
X44410Y178695D01*
X44278Y178846D01*
X44136Y179026D01*
X43984Y179235D01*
X43833Y179471D01*
X43691Y179727D01*
X43558Y180011D01*
X43435Y180324D01*
X43340Y180655D01*
X43255Y181006D01*
X43208Y181384D01*
X43189Y181782D01*
Y181858D01*
X43198Y181953D01*
X43208Y182076D01*
X43217Y182227D01*
X43246Y182407D01*
X43274Y182606D01*
X43312Y182814D01*
X43369Y183042D01*
X43435Y183278D01*
X43511Y183525D01*
X43606Y183771D01*
X43719Y184008D01*
X43852Y184254D01*
X44013Y184481D01*
X44183Y184699D01*
X44193Y184708D01*
X44230Y184746D01*
X44287Y184803D01*
X44363Y184879D01*
X44467Y184964D01*
X44590Y185068D01*
X44732Y185172D01*
X44894Y185286D01*
X45073Y185400D01*
X45272Y185504D01*
X45490Y185617D01*
X45727Y185722D01*
X45983Y185807D01*
X46257Y185883D01*
X46541Y185949D01*
X46844Y185987D01*
X46986Y184301D01*
D02*
G37*
G36*
X43615Y175996D02*
X43766Y175987D01*
X43927Y175968D01*
X44117Y175939D01*
X44316Y175892D01*
X44515Y175826D01*
X44524D01*
X44552Y175806D01*
X44600Y175788D01*
X44666Y175759D01*
X44751Y175731D01*
X44846Y175683D01*
X44950Y175627D01*
X45064Y175570D01*
X45197Y175504D01*
X45329Y175418D01*
X45623Y175238D01*
X45935Y175021D01*
X46257Y174765D01*
X46267Y174755D01*
X46295Y174727D01*
X46342Y174689D01*
X46409Y174632D01*
X46494Y174557D01*
X46589Y174462D01*
X46702Y174358D01*
X46825Y174225D01*
X46967Y174083D01*
X47119Y173932D01*
X47280Y173761D01*
X47460Y173572D01*
X47640Y173363D01*
X47829Y173145D01*
X48028Y172909D01*
X48236Y172662D01*
X48246Y172653D01*
X48255Y172634D01*
X48284Y172606D01*
X48312Y172568D01*
X48360Y172520D01*
X48407Y172464D01*
X48530Y172322D01*
X48672Y172142D01*
X48852Y171952D01*
X49041Y171734D01*
X49250Y171507D01*
X49468Y171261D01*
X49695Y171024D01*
X49922Y170778D01*
X50159Y170551D01*
X50386Y170323D01*
X50604Y170124D01*
X50822Y169935D01*
X51020Y169784D01*
X51030Y169774D01*
X51068Y169755D01*
X51125Y169717D01*
X51191Y169660D01*
X51286Y169604D01*
X51390Y169547D01*
X51513Y169471D01*
X51646Y169405D01*
X51788Y169339D01*
X51939Y169263D01*
X52271Y169140D01*
X52441Y169092D01*
X52612Y169054D01*
X52782Y169035D01*
X52952Y169026D01*
X52962D01*
X53000D01*
X53047D01*
X53113Y169035D01*
X53199Y169045D01*
X53293Y169064D01*
X53398Y169083D01*
X53511Y169111D01*
X53634Y169149D01*
X53767Y169196D01*
X53899Y169253D01*
X54032Y169320D01*
X54174Y169395D01*
X54307Y169490D01*
X54439Y169594D01*
X54562Y169717D01*
X54572Y169727D01*
X54591Y169746D01*
X54619Y169784D01*
X54667Y169840D01*
X54714Y169907D01*
X54771Y169992D01*
X54837Y170087D01*
X54894Y170191D01*
X54960Y170314D01*
X55017Y170447D01*
X55074Y170598D01*
X55121Y170750D01*
X55168Y170920D01*
X55197Y171100D01*
X55216Y171289D01*
X55225Y171488D01*
Y171602D01*
X55216Y171678D01*
X55206Y171782D01*
X55187Y171895D01*
X55168Y172019D01*
X55140Y172161D01*
X55102Y172303D01*
X55055Y172454D01*
X54998Y172606D01*
X54932Y172767D01*
X54846Y172918D01*
X54752Y173070D01*
X54648Y173221D01*
X54524Y173354D01*
X54515Y173363D01*
X54496Y173382D01*
X54449Y173420D01*
X54401Y173458D01*
X54326Y173515D01*
X54240Y173572D01*
X54136Y173638D01*
X54023Y173695D01*
X53899Y173761D01*
X53748Y173827D01*
X53596Y173884D01*
X53426Y173941D01*
X53237Y173979D01*
X53038Y174017D01*
X52829Y174036D01*
X52602Y174045D01*
X52772Y175702D01*
X52782D01*
X52791D01*
X52820Y175693D01*
X52858D01*
X52952Y175683D01*
X53075Y175655D01*
X53227Y175627D01*
X53407Y175589D01*
X53606Y175541D01*
X53814Y175485D01*
X54041Y175409D01*
X54269Y175324D01*
X54505Y175219D01*
X54742Y175096D01*
X54970Y174964D01*
X55187Y174803D01*
X55396Y174632D01*
X55585Y174433D01*
X55595Y174424D01*
X55623Y174386D01*
X55680Y174320D01*
X55737Y174234D01*
X55812Y174121D01*
X55898Y173988D01*
X55983Y173827D01*
X56077Y173647D01*
X56163Y173439D01*
X56248Y173221D01*
X56333Y172975D01*
X56409Y172710D01*
X56475Y172426D01*
X56523Y172123D01*
X56551Y171801D01*
X56560Y171460D01*
Y171375D01*
X56551Y171280D01*
X56542Y171147D01*
X56532Y170986D01*
X56504Y170806D01*
X56475Y170598D01*
X56428Y170380D01*
X56371Y170143D01*
X56305Y169907D01*
X56220Y169651D01*
X56115Y169405D01*
X55992Y169159D01*
X55860Y168922D01*
X55699Y168695D01*
X55509Y168477D01*
X55500Y168467D01*
X55462Y168429D01*
X55405Y168373D01*
X55320Y168306D01*
X55225Y168221D01*
X55102Y168126D01*
X54960Y168022D01*
X54799Y167918D01*
X54619Y167823D01*
X54420Y167719D01*
X54203Y167624D01*
X53975Y167539D01*
X53729Y167473D01*
X53473Y167416D01*
X53199Y167378D01*
X52915Y167369D01*
X52905D01*
X52877D01*
X52839D01*
X52782D01*
X52706Y167378D01*
X52630Y167388D01*
X52536Y167397D01*
X52432Y167407D01*
X52195Y167445D01*
X51930Y167501D01*
X51655Y167587D01*
X51371Y167691D01*
X51362D01*
X51333Y167710D01*
X51295Y167729D01*
X51238Y167757D01*
X51172Y167785D01*
X51087Y167833D01*
X50992Y167880D01*
X50888Y167946D01*
X50774Y168013D01*
X50651Y168088D01*
X50377Y168278D01*
X50235Y168382D01*
X50083Y168496D01*
X49931Y168628D01*
X49771Y168761D01*
X49761Y168770D01*
X49733Y168799D01*
X49685Y168837D01*
X49619Y168903D01*
X49534Y168988D01*
X49430Y169092D01*
X49306Y169206D01*
X49164Y169348D01*
X49013Y169509D01*
X48842Y169698D01*
X48653Y169897D01*
X48445Y170124D01*
X48227Y170371D01*
X47990Y170636D01*
X47734Y170930D01*
X47469Y171242D01*
X47460Y171261D01*
X47412Y171308D01*
X47356Y171375D01*
X47270Y171469D01*
X47176Y171592D01*
X47062Y171715D01*
X46939Y171858D01*
X46806Y172009D01*
X46532Y172331D01*
X46390Y172483D01*
X46257Y172634D01*
X46125Y172776D01*
X46011Y172899D01*
X45907Y173013D01*
X45812Y173098D01*
X45793Y173117D01*
X45736Y173164D01*
X45651Y173240D01*
X45547Y173335D01*
X45414Y173439D01*
X45272Y173553D01*
X45111Y173666D01*
X44950Y173770D01*
Y167350D01*
X43407D01*
Y176005D01*
X43416D01*
X43435D01*
X43464D01*
X43501D01*
X43558D01*
X43615Y175996D01*
D02*
G37*
G36*
Y165816D02*
X43766Y165806D01*
X43927Y165787D01*
X44117Y165759D01*
X44316Y165711D01*
X44515Y165645D01*
X44524D01*
X44552Y165626D01*
X44600Y165607D01*
X44666Y165579D01*
X44751Y165550D01*
X44846Y165503D01*
X44950Y165446D01*
X45064Y165390D01*
X45197Y165323D01*
X45329Y165238D01*
X45623Y165058D01*
X45935Y164840D01*
X46257Y164585D01*
X46267Y164575D01*
X46295Y164547D01*
X46342Y164509D01*
X46409Y164452D01*
X46494Y164376D01*
X46589Y164281D01*
X46702Y164177D01*
X46825Y164045D01*
X46967Y163903D01*
X47119Y163751D01*
X47280Y163581D01*
X47460Y163391D01*
X47640Y163183D01*
X47829Y162965D01*
X48028Y162729D01*
X48236Y162482D01*
X48246Y162473D01*
X48255Y162454D01*
X48284Y162425D01*
X48312Y162388D01*
X48360Y162340D01*
X48407Y162283D01*
X48530Y162141D01*
X48672Y161961D01*
X48852Y161772D01*
X49041Y161554D01*
X49250Y161327D01*
X49468Y161081D01*
X49695Y160844D01*
X49922Y160598D01*
X50159Y160370D01*
X50386Y160143D01*
X50604Y159944D01*
X50822Y159755D01*
X51020Y159603D01*
X51030Y159594D01*
X51068Y159575D01*
X51125Y159537D01*
X51191Y159480D01*
X51286Y159423D01*
X51390Y159367D01*
X51513Y159291D01*
X51646Y159225D01*
X51788Y159158D01*
X51939Y159082D01*
X52271Y158959D01*
X52441Y158912D01*
X52612Y158874D01*
X52782Y158855D01*
X52952Y158846D01*
X52962D01*
X53000D01*
X53047D01*
X53113Y158855D01*
X53199Y158865D01*
X53293Y158884D01*
X53398Y158903D01*
X53511Y158931D01*
X53634Y158969D01*
X53767Y159016D01*
X53899Y159073D01*
X54032Y159139D01*
X54174Y159215D01*
X54307Y159310D01*
X54439Y159414D01*
X54562Y159537D01*
X54572Y159547D01*
X54591Y159565D01*
X54619Y159603D01*
X54667Y159660D01*
X54714Y159727D01*
X54771Y159812D01*
X54837Y159906D01*
X54894Y160011D01*
X54960Y160134D01*
X55017Y160266D01*
X55074Y160418D01*
X55121Y160569D01*
X55168Y160740D01*
X55197Y160920D01*
X55216Y161109D01*
X55225Y161308D01*
Y161422D01*
X55216Y161497D01*
X55206Y161601D01*
X55187Y161715D01*
X55168Y161838D01*
X55140Y161980D01*
X55102Y162122D01*
X55055Y162274D01*
X54998Y162425D01*
X54932Y162586D01*
X54846Y162738D01*
X54752Y162890D01*
X54648Y163041D01*
X54524Y163174D01*
X54515Y163183D01*
X54496Y163202D01*
X54449Y163240D01*
X54401Y163278D01*
X54326Y163335D01*
X54240Y163391D01*
X54136Y163458D01*
X54023Y163514D01*
X53899Y163581D01*
X53748Y163647D01*
X53596Y163704D01*
X53426Y163761D01*
X53237Y163799D01*
X53038Y163837D01*
X52829Y163855D01*
X52602Y163865D01*
X52772Y165522D01*
X52782D01*
X52791D01*
X52820Y165513D01*
X52858D01*
X52952Y165503D01*
X53075Y165475D01*
X53227Y165446D01*
X53407Y165409D01*
X53606Y165361D01*
X53814Y165304D01*
X54041Y165228D01*
X54269Y165143D01*
X54505Y165039D01*
X54742Y164916D01*
X54970Y164784D01*
X55187Y164622D01*
X55396Y164452D01*
X55585Y164253D01*
X55595Y164244D01*
X55623Y164206D01*
X55680Y164139D01*
X55737Y164054D01*
X55812Y163941D01*
X55898Y163808D01*
X55983Y163647D01*
X56077Y163467D01*
X56163Y163259D01*
X56248Y163041D01*
X56333Y162795D01*
X56409Y162530D01*
X56475Y162246D01*
X56523Y161943D01*
X56551Y161620D01*
X56560Y161280D01*
Y161194D01*
X56551Y161100D01*
X56542Y160967D01*
X56532Y160806D01*
X56504Y160626D01*
X56475Y160418D01*
X56428Y160200D01*
X56371Y159963D01*
X56305Y159727D01*
X56220Y159471D01*
X56115Y159225D01*
X55992Y158978D01*
X55860Y158742D01*
X55699Y158514D01*
X55509Y158297D01*
X55500Y158287D01*
X55462Y158249D01*
X55405Y158192D01*
X55320Y158126D01*
X55225Y158041D01*
X55102Y157946D01*
X54960Y157842D01*
X54799Y157738D01*
X54619Y157643D01*
X54420Y157539D01*
X54203Y157444D01*
X53975Y157359D01*
X53729Y157293D01*
X53473Y157236D01*
X53199Y157198D01*
X52915Y157188D01*
X52905D01*
X52877D01*
X52839D01*
X52782D01*
X52706Y157198D01*
X52630Y157208D01*
X52536Y157217D01*
X52432Y157226D01*
X52195Y157264D01*
X51930Y157321D01*
X51655Y157406D01*
X51371Y157510D01*
X51362D01*
X51333Y157529D01*
X51295Y157548D01*
X51238Y157577D01*
X51172Y157605D01*
X51087Y157652D01*
X50992Y157700D01*
X50888Y157766D01*
X50774Y157833D01*
X50651Y157908D01*
X50377Y158098D01*
X50235Y158202D01*
X50083Y158316D01*
X49931Y158448D01*
X49771Y158581D01*
X49761Y158590D01*
X49733Y158618D01*
X49685Y158656D01*
X49619Y158723D01*
X49534Y158808D01*
X49430Y158912D01*
X49306Y159026D01*
X49164Y159168D01*
X49013Y159329D01*
X48842Y159518D01*
X48653Y159717D01*
X48445Y159944D01*
X48227Y160190D01*
X47990Y160456D01*
X47734Y160749D01*
X47469Y161062D01*
X47460Y161081D01*
X47412Y161128D01*
X47356Y161194D01*
X47270Y161289D01*
X47176Y161412D01*
X47062Y161535D01*
X46939Y161677D01*
X46806Y161829D01*
X46532Y162151D01*
X46390Y162302D01*
X46257Y162454D01*
X46125Y162596D01*
X46011Y162719D01*
X45907Y162833D01*
X45812Y162918D01*
X45793Y162937D01*
X45736Y162984D01*
X45651Y163060D01*
X45547Y163155D01*
X45414Y163259D01*
X45272Y163372D01*
X45111Y163486D01*
X44950Y163590D01*
Y157170D01*
X43407D01*
Y165825D01*
X43416D01*
X43435D01*
X43464D01*
X43501D01*
X43558D01*
X43615Y165816D01*
D02*
G37*
%LPC*%
G36*
X43987Y225827D02*
Y225841D01*
X43973D01*
Y225827D01*
X43987D01*
D02*
G37*
G36*
X47659Y194387D02*
X47649D01*
X47621D01*
X47574D01*
X47517Y194377D01*
X47441D01*
X47356Y194368D01*
X47251Y194358D01*
X47147Y194339D01*
X46901Y194301D01*
X46636Y194235D01*
X46352Y194150D01*
X46058Y194036D01*
X46049D01*
X46030Y194017D01*
X45983Y193998D01*
X45935Y193970D01*
X45869Y193932D01*
X45803Y193894D01*
X45632Y193781D01*
X45443Y193648D01*
X45253Y193478D01*
X45064Y193279D01*
X44903Y193061D01*
Y193051D01*
X44884Y193033D01*
X44865Y192995D01*
X44846Y192947D01*
X44818Y192890D01*
X44780Y192824D01*
X44742Y192748D01*
X44714Y192654D01*
X44638Y192455D01*
X44572Y192227D01*
X44534Y191981D01*
X44515Y191726D01*
Y191678D01*
X44524Y191621D01*
Y191555D01*
X44543Y191470D01*
X44562Y191366D01*
X44581Y191252D01*
X44619Y191120D01*
X44657Y190987D01*
X44714Y190845D01*
X44780Y190703D01*
X44856Y190551D01*
X44950Y190409D01*
X45064Y190258D01*
X45187Y190116D01*
X45329Y189974D01*
X45338Y189964D01*
X45367Y189945D01*
X45414Y189907D01*
X45481Y189860D01*
X45566Y189803D01*
X45660Y189737D01*
X45784Y189671D01*
X45916Y189604D01*
X46068Y189538D01*
X46238Y189472D01*
X46418Y189406D01*
X46617Y189349D01*
X46835Y189301D01*
X47062Y189263D01*
X47308Y189244D01*
X47564Y189235D01*
X47583D01*
X47621D01*
X47697D01*
X47791Y189244D01*
X47905Y189254D01*
X48037Y189273D01*
X48180Y189292D01*
X48340Y189330D01*
X48511Y189368D01*
X48682Y189415D01*
X48861Y189472D01*
X49041Y189538D01*
X49212Y189623D01*
X49382Y189727D01*
X49553Y189832D01*
X49704Y189964D01*
X49714Y189974D01*
X49742Y189993D01*
X49780Y190040D01*
X49827Y190097D01*
X49884Y190163D01*
X49950Y190248D01*
X50026Y190352D01*
X50102Y190457D01*
X50168Y190589D01*
X50244Y190722D01*
X50310Y190873D01*
X50367Y191034D01*
X50415Y191205D01*
X50452Y191385D01*
X50481Y191584D01*
X50490Y191782D01*
Y191830D01*
X50481Y191887D01*
Y191962D01*
X50462Y192057D01*
X50452Y192171D01*
X50424Y192284D01*
X50396Y192417D01*
X50348Y192559D01*
X50301Y192710D01*
X50235Y192862D01*
X50159Y193023D01*
X50073Y193175D01*
X49960Y193335D01*
X49846Y193487D01*
X49704Y193629D01*
X49695Y193639D01*
X49666Y193658D01*
X49619Y193695D01*
X49562Y193743D01*
X49486Y193809D01*
X49392Y193866D01*
X49278Y193942D01*
X49155Y194008D01*
X49013Y194074D01*
X48861Y194150D01*
X48691Y194207D01*
X48511Y194264D01*
X48312Y194320D01*
X48104Y194358D01*
X47886Y194377D01*
X47659Y194387D01*
D02*
G37*
%LPD*%
D10*
X43013Y37108D02*
X42928Y38106D01*
X42676Y39075D01*
X42263Y39988D01*
X41703Y40818D01*
X41010Y41541D01*
X40204Y42137D01*
X39310Y42588D01*
X38352Y42881D01*
X37358Y43008D01*
X36358Y42966D01*
X35379Y42755D01*
X34449Y42381D01*
X33596Y41856D01*
X32844Y41194D01*
X32215Y40415D01*
X31727Y39540D01*
X31393Y38596D01*
X31224Y37609D01*
Y36607D01*
X31393Y35620D01*
X31727Y34675D01*
X32215Y33801D01*
X32844Y33022D01*
X33596Y32360D01*
X34449Y31835D01*
X35379Y31461D01*
X36358Y31250D01*
X37358Y31208D01*
X38352Y31335D01*
X39310Y31628D01*
X40204Y32079D01*
X41010Y32675D01*
X41703Y33398D01*
X42263Y34228D01*
X42676Y35140D01*
X42928Y36110D01*
X43013Y37108D01*
Y63092D02*
X42928Y64090D01*
X42676Y65060D01*
X42263Y65972D01*
X41703Y66802D01*
X41010Y67525D01*
X40204Y68121D01*
X39310Y68572D01*
X38352Y68865D01*
X37358Y68992D01*
X36358Y68950D01*
X35379Y68739D01*
X34449Y68365D01*
X33596Y67840D01*
X32844Y67178D01*
X32215Y66399D01*
X31727Y65525D01*
X31393Y64580D01*
X31224Y63593D01*
Y62591D01*
X31393Y61604D01*
X31727Y60660D01*
X32215Y59785D01*
X32844Y59006D01*
X33596Y58344D01*
X34449Y57819D01*
X35379Y57446D01*
X36358Y57235D01*
X37358Y57192D01*
X38352Y57319D01*
X39310Y57613D01*
X40204Y58063D01*
X41010Y58659D01*
X41703Y59382D01*
X42263Y60212D01*
X42676Y61125D01*
X42928Y62094D01*
X43013Y63092D01*
X68998Y37108D02*
X68913Y38106D01*
X68660Y39075D01*
X68248Y39988D01*
X67687Y40818D01*
X66994Y41541D01*
X66188Y42137D01*
X65294Y42588D01*
X64336Y42881D01*
X63343Y43008D01*
X62342Y42966D01*
X61363Y42755D01*
X60434Y42381D01*
X59580Y41856D01*
X58829Y41194D01*
X58199Y40415D01*
X57711Y39540D01*
X57377Y38596D01*
X57208Y37609D01*
Y36607D01*
X57377Y35620D01*
X57711Y34675D01*
X58199Y33801D01*
X58829Y33022D01*
X59580Y32360D01*
X60434Y31835D01*
X61363Y31461D01*
X62342Y31250D01*
X63343Y31208D01*
X64336Y31335D01*
X65294Y31628D01*
X66188Y32079D01*
X66994Y32675D01*
X67687Y33398D01*
X68248Y34228D01*
X68660Y35140D01*
X68913Y36110D01*
X68998Y37108D01*
Y63092D02*
X68913Y64090D01*
X68660Y65060D01*
X68248Y65972D01*
X67687Y66802D01*
X66994Y67525D01*
X66188Y68121D01*
X65294Y68572D01*
X64336Y68865D01*
X63343Y68992D01*
X62342Y68950D01*
X61363Y68739D01*
X60434Y68365D01*
X59580Y67840D01*
X58829Y67178D01*
X58199Y66399D01*
X57711Y65525D01*
X57377Y64580D01*
X57208Y63593D01*
Y62591D01*
X57377Y61604D01*
X57711Y60660D01*
X58199Y59785D01*
X58829Y59006D01*
X59580Y58344D01*
X60434Y57819D01*
X61363Y57446D01*
X62342Y57235D01*
X63343Y57192D01*
X64336Y57319D01*
X65294Y57613D01*
X66188Y58063D01*
X66994Y58659D01*
X67687Y59382D01*
X68248Y60212D01*
X68660Y61125D01*
X68913Y62094D01*
X68998Y63092D01*
X89650Y4600D02*
X90684Y4690D01*
X91685Y4959D01*
X92625Y5397D01*
X93475Y5992D01*
X94208Y6725D01*
X94803Y7575D01*
X95241Y8515D01*
X95510Y9516D01*
X95600Y10549D01*
X4600D02*
X4690Y9516D01*
X4959Y8515D01*
X5397Y7575D01*
X5992Y6725D01*
X6725Y5992D01*
X7575Y5397D01*
X8515Y4959D01*
X9516Y4690D01*
X10549Y4600D01*
X95600Y89600D02*
X95510Y90633D01*
X95241Y91635D01*
X94803Y92575D01*
X94208Y93424D01*
X93475Y94158D01*
X92625Y94752D01*
X91685Y95191D01*
X90684Y95459D01*
X89650Y95549D01*
X95600Y10550D02*
Y89600D01*
X10550Y4600D02*
X89650D01*
X4600Y10550D02*
Y85600D01*
X14600Y95600D01*
X89651Y95549D01*
D11*
X30737Y9442D02*
X29425D01*
X30081D01*
Y6162D01*
X29425Y5506D01*
X28769D01*
X28113Y6162D01*
X32048Y9442D02*
Y5506D01*
X34672D01*
X38608Y8786D02*
X37952Y9442D01*
X36640D01*
X35984Y8786D01*
Y6162D01*
X36640Y5506D01*
X37952D01*
X38608Y6162D01*
X42544Y9442D02*
X41232D01*
X41888D01*
Y6162D01*
X41232Y5506D01*
X40576D01*
X39920Y6162D01*
X43856Y9442D02*
Y5506D01*
X46479D01*
X50415Y8786D02*
X49759Y9442D01*
X48447D01*
X47791Y8786D01*
Y6162D01*
X48447Y5506D01*
X49759D01*
X50415Y6162D01*
X54351Y9442D02*
X53039D01*
X53695D01*
Y6162D01*
X53039Y5506D01*
X52383D01*
X51727Y6162D01*
X55663Y9442D02*
Y5506D01*
X58287D01*
X62222Y8786D02*
X61567Y9442D01*
X60255D01*
X59599Y8786D01*
Y6162D01*
X60255Y5506D01*
X61567D01*
X62222Y6162D01*
X66158Y9442D02*
X64846D01*
X65502D01*
Y6162D01*
X64846Y5506D01*
X64190D01*
X63534Y6162D01*
X67470Y9442D02*
Y5506D01*
X70094D01*
X74030Y8786D02*
X73374Y9442D01*
X72062D01*
X71406Y8786D01*
Y6162D01*
X72062Y5506D01*
X73374D01*
X74030Y6162D01*
M02*
