G04*
G04 #@! TF.GenerationSoftware,Altium Limited,Altium Designer,21.0.9 (235)*
G04*
G04 Layer_Physical_Order=1*
G04 Layer_Color=255*
%FSLAX25Y25*%
%MOIN*%
G70*
G04*
G04 #@! TF.SameCoordinates,D00D0935-9F2D-4F80-BADC-0BB803B56EC7*
G04*
G04*
G04 #@! TF.FilePolarity,Positive*
G04*
G01*
G75*
%ADD16C,0.01181*%
%ADD17C,0.02362*%
%ADD18R,0.05512X0.05512*%
%ADD19C,0.05512*%
%ADD20C,0.06693*%
%ADD21R,0.06693X0.06693*%
%ADD22C,0.01968*%
G36*
X19600Y304073D02*
X19600Y304073D01*
X19600Y304073D01*
X40176Y304073D01*
X40377Y304072D01*
X40765Y303949D01*
X41099Y303716D01*
X41348Y303394D01*
X41399Y303258D01*
X41548Y302656D01*
X41576Y302596D01*
X41587Y302531D01*
X42080Y301269D01*
X42127Y301195D01*
X42157Y301112D01*
X42858Y299953D01*
X42918Y299888D01*
X42961Y299812D01*
X43850Y298790D01*
X43920Y298736D01*
X43976Y298668D01*
X45027Y297814D01*
X45105Y297772D01*
X45172Y297715D01*
X46353Y297053D01*
X46437Y297026D01*
X46513Y296981D01*
X47790Y296531D01*
X47877Y296518D01*
X47960Y296487D01*
X49295Y296263D01*
X49383Y296265D01*
X49470Y296248D01*
X50824Y296256D01*
X50910Y296273D01*
X50999Y296271D01*
X52332Y296510D01*
X52413Y296543D01*
X52501Y296556D01*
X53773Y297020D01*
X53848Y297065D01*
X53932Y297093D01*
X55106Y297768D01*
X55173Y297826D01*
X55250Y297868D01*
X56292Y298733D01*
X56347Y298802D01*
X56416Y298856D01*
X57294Y299887D01*
X57337Y299964D01*
X57396Y300030D01*
X58085Y301196D01*
X58114Y301279D01*
X58161Y301354D01*
X58639Y302621D01*
X58650Y302686D01*
X58678Y302747D01*
X58819Y303344D01*
X58862Y303458D01*
X59088Y303750D01*
X59390Y303961D01*
X59742Y304072D01*
X59924Y304073D01*
X80629Y304073D01*
X81462Y304072D01*
X83096Y303745D01*
X84636Y303105D01*
X86020Y302177D01*
X87198Y300997D01*
X88122Y299610D01*
X88758Y298070D01*
X89081Y296435D01*
X89081Y295601D01*
X89081Y295601D01*
X89081Y295600D01*
Y109600D01*
X89085Y109575D01*
X89082Y109550D01*
X89099Y109195D01*
X89117Y109122D01*
Y109046D01*
X89256Y108350D01*
X89294Y108257D01*
X89314Y108159D01*
X89586Y107503D01*
X89641Y107419D01*
X89680Y107326D01*
X90074Y106736D01*
X90128Y106683D01*
X90167Y106618D01*
X90405Y106355D01*
X90426Y106340D01*
X90440Y106318D01*
X97258Y99501D01*
X97258Y99501D01*
X97258Y99500D01*
X97691Y99067D01*
X98372Y98048D01*
X98841Y96915D01*
X99080Y95713D01*
X99080Y95100D01*
Y83495D01*
X98619Y83304D01*
X88644Y93278D01*
X88189Y93583D01*
X87651Y93690D01*
X86816D01*
X80039Y100466D01*
X80247Y100966D01*
X80644D01*
X81696Y101248D01*
X82638Y101792D01*
X83408Y102562D01*
X83952Y103504D01*
X84234Y104556D01*
Y105644D01*
X83952Y106696D01*
X83408Y107638D01*
X82638Y108408D01*
X81696Y108952D01*
X80644Y109234D01*
X79556D01*
X78504Y108952D01*
X77562Y108408D01*
X77280Y108127D01*
X76780Y108334D01*
Y111866D01*
X77280Y112073D01*
X77562Y111792D01*
X78504Y111248D01*
X79556Y110966D01*
X80644D01*
X81696Y111248D01*
X82638Y111792D01*
X83408Y112562D01*
X83952Y113504D01*
X84234Y114556D01*
Y115644D01*
X83952Y116696D01*
X83408Y117638D01*
X82638Y118408D01*
X81696Y118952D01*
X80644Y119234D01*
X79556D01*
X78504Y118952D01*
X77562Y118408D01*
X77280Y118127D01*
X76780Y118334D01*
Y121866D01*
X77280Y122073D01*
X77562Y121792D01*
X78504Y121248D01*
X79556Y120966D01*
X80644D01*
X81696Y121248D01*
X82638Y121792D01*
X83408Y122562D01*
X83952Y123504D01*
X84234Y124556D01*
Y125644D01*
X83952Y126696D01*
X83408Y127638D01*
X82638Y128408D01*
X81696Y128952D01*
X80644Y129234D01*
X79556D01*
X78504Y128952D01*
X77562Y128408D01*
X77280Y128127D01*
X76780Y128334D01*
Y131866D01*
X77280Y132073D01*
X77562Y131792D01*
X78504Y131248D01*
X79556Y130966D01*
X80644D01*
X81696Y131248D01*
X82638Y131792D01*
X83408Y132562D01*
X83952Y133504D01*
X84234Y134556D01*
Y135644D01*
X83952Y136696D01*
X83408Y137638D01*
X82638Y138408D01*
X81696Y138952D01*
X80644Y139234D01*
X79556D01*
X78504Y138952D01*
X77562Y138408D01*
X77280Y138127D01*
X76780Y138334D01*
Y141866D01*
X77280Y142073D01*
X77562Y141792D01*
X78504Y141248D01*
X79556Y140966D01*
X80644D01*
X81696Y141248D01*
X82638Y141792D01*
X83408Y142562D01*
X83952Y143504D01*
X84234Y144556D01*
Y145644D01*
X83952Y146696D01*
X83408Y147638D01*
X82638Y148408D01*
X81696Y148952D01*
X80644Y149234D01*
X79556D01*
X78504Y148952D01*
X77562Y148408D01*
X77280Y148127D01*
X76780Y148334D01*
Y149794D01*
X78333Y151347D01*
X78504Y151248D01*
X79556Y150966D01*
X80644D01*
X81696Y151248D01*
X82638Y151792D01*
X83408Y152562D01*
X83952Y153504D01*
X84234Y154556D01*
Y155644D01*
X83952Y156696D01*
X83408Y157638D01*
X82638Y158408D01*
X81696Y158952D01*
X80644Y159234D01*
X79556D01*
X78504Y158952D01*
X77562Y158408D01*
X76792Y157638D01*
X76248Y156696D01*
X75966Y155644D01*
Y154556D01*
X76248Y153504D01*
X76347Y153333D01*
X75274Y152261D01*
X74812Y152452D01*
Y157825D01*
X78333Y161347D01*
X78504Y161248D01*
X79556Y160966D01*
X80644D01*
X81696Y161248D01*
X82638Y161792D01*
X83408Y162562D01*
X83952Y163504D01*
X84234Y164556D01*
Y165644D01*
X83952Y166696D01*
X83408Y167638D01*
X82638Y168408D01*
X81696Y168952D01*
X80644Y169234D01*
X79556D01*
X78504Y168952D01*
X77562Y168408D01*
X76792Y167638D01*
X76248Y166696D01*
X75966Y165644D01*
Y164556D01*
X76248Y163504D01*
X76347Y163333D01*
X73305Y160292D01*
X72843Y160484D01*
Y165857D01*
X78333Y171347D01*
X78504Y171248D01*
X79556Y170966D01*
X80644D01*
X81696Y171248D01*
X82638Y171792D01*
X83408Y172562D01*
X83952Y173504D01*
X84234Y174556D01*
Y175644D01*
X83952Y176696D01*
X83408Y177638D01*
X82638Y178408D01*
X81696Y178952D01*
X80644Y179234D01*
X79556D01*
X78504Y178952D01*
X77562Y178408D01*
X76792Y177638D01*
X76248Y176696D01*
X75966Y175644D01*
Y174556D01*
X76248Y173504D01*
X76347Y173334D01*
X71337Y168324D01*
X70875Y168515D01*
Y173888D01*
X78333Y181347D01*
X78504Y181248D01*
X79556Y180966D01*
X80644D01*
X81696Y181248D01*
X82638Y181792D01*
X83408Y182562D01*
X83952Y183504D01*
X84234Y184556D01*
Y185644D01*
X83952Y186696D01*
X83408Y187638D01*
X82638Y188408D01*
X81696Y188952D01*
X80644Y189234D01*
X79556D01*
X78504Y188952D01*
X77562Y188408D01*
X76792Y187638D01*
X76248Y186696D01*
X75966Y185644D01*
Y184556D01*
X76248Y183504D01*
X76347Y183334D01*
X69368Y176355D01*
X68906Y176547D01*
Y181920D01*
X78333Y191347D01*
X78504Y191248D01*
X79556Y190966D01*
X80644D01*
X81696Y191248D01*
X82638Y191792D01*
X83408Y192562D01*
X83952Y193504D01*
X84234Y194556D01*
Y195644D01*
X83952Y196696D01*
X83408Y197638D01*
X82638Y198408D01*
X81696Y198952D01*
X80644Y199234D01*
X79556D01*
X78504Y198952D01*
X77562Y198408D01*
X76792Y197638D01*
X76248Y196696D01*
X75966Y195644D01*
Y194556D01*
X76248Y193504D01*
X76347Y193333D01*
X67400Y184387D01*
X66938Y184578D01*
Y189951D01*
X78333Y201347D01*
X78504Y201248D01*
X79556Y200966D01*
X80644D01*
X81696Y201248D01*
X82638Y201792D01*
X83408Y202562D01*
X83952Y203504D01*
X84234Y204556D01*
Y205644D01*
X83952Y206696D01*
X83408Y207638D01*
X82638Y208408D01*
X81696Y208952D01*
X80644Y209234D01*
X79556D01*
X78504Y208952D01*
X77562Y208408D01*
X76792Y207638D01*
X76248Y206696D01*
X75966Y205644D01*
Y204556D01*
X76248Y203504D01*
X76347Y203333D01*
X65235Y192222D01*
X64773Y192414D01*
Y197787D01*
X78333Y211347D01*
X78504Y211248D01*
X79556Y210966D01*
X80644D01*
X81696Y211248D01*
X82638Y211792D01*
X83408Y212562D01*
X83952Y213504D01*
X84234Y214556D01*
Y215644D01*
X83952Y216696D01*
X83408Y217638D01*
X82638Y218408D01*
X81696Y218952D01*
X80644Y219234D01*
X79556D01*
X78504Y218952D01*
X77562Y218408D01*
X76792Y217638D01*
X76248Y216696D01*
X75966Y215644D01*
Y214556D01*
X76248Y213504D01*
X76347Y213334D01*
X63267Y200254D01*
X62805Y200445D01*
Y205818D01*
X78333Y221347D01*
X78504Y221248D01*
X79556Y220966D01*
X80644D01*
X81696Y221248D01*
X82638Y221792D01*
X83408Y222562D01*
X83952Y223504D01*
X84234Y224556D01*
Y225644D01*
X83952Y226696D01*
X83408Y227638D01*
X82638Y228408D01*
X81696Y228952D01*
X80644Y229234D01*
X79556D01*
X78504Y228952D01*
X77562Y228408D01*
X76792Y227638D01*
X76248Y226696D01*
X75966Y225644D01*
Y224556D01*
X76248Y223504D01*
X76347Y223334D01*
X61298Y208285D01*
X60836Y208477D01*
Y213849D01*
X78333Y231347D01*
X78504Y231248D01*
X79556Y230966D01*
X80644D01*
X81696Y231248D01*
X82638Y231792D01*
X83408Y232562D01*
X83952Y233504D01*
X84234Y234556D01*
Y235644D01*
X83952Y236696D01*
X83408Y237638D01*
X82638Y238408D01*
X81696Y238952D01*
X80644Y239234D01*
X79556D01*
X78504Y238952D01*
X77562Y238408D01*
X76792Y237638D01*
X76248Y236696D01*
X75966Y235644D01*
Y234556D01*
X76248Y233504D01*
X76347Y233333D01*
X58438Y215425D01*
X58134Y214969D01*
X58026Y214432D01*
Y106013D01*
X50885Y98872D01*
X50748D01*
X50096Y98602D01*
X49598Y98104D01*
X49328Y97452D01*
Y96748D01*
X49598Y96096D01*
X50096Y95598D01*
X50647Y95370D01*
X50760Y95292D01*
X50922Y94828D01*
X50766Y94451D01*
Y93747D01*
X51036Y93095D01*
X51534Y92597D01*
X52185Y92327D01*
X52890D01*
X53541Y92597D01*
X54040Y93095D01*
X54301Y93726D01*
X59099Y98524D01*
X59561Y98333D01*
Y53388D01*
X59668Y52850D01*
X59973Y52394D01*
X72394Y39973D01*
X72850Y39668D01*
X73388Y39561D01*
X78466D01*
X79004Y39668D01*
X79460Y39973D01*
X80693Y41206D01*
X80998Y41662D01*
X81105Y42200D01*
Y44388D01*
X81605Y44453D01*
X81798Y43732D01*
X82265Y42924D01*
X82924Y42265D01*
X83732Y41798D01*
X84633Y41557D01*
X84618Y41063D01*
X83812D01*
X83274Y40956D01*
X82819Y40652D01*
X79046Y36879D01*
X78164D01*
X77935Y37276D01*
X77276Y37935D01*
X76468Y38402D01*
X75567Y38643D01*
X74634D01*
X73732Y38402D01*
X72924Y37935D01*
X72265Y37276D01*
X71798Y36468D01*
X71557Y35566D01*
Y34633D01*
X71798Y33732D01*
X72265Y32924D01*
X72924Y32265D01*
X73732Y31798D01*
X74634Y31557D01*
X75567D01*
X76468Y31798D01*
X77276Y32265D01*
X77935Y32924D01*
X78402Y33732D01*
X78492Y34069D01*
X79628D01*
X80165Y34176D01*
X80621Y34480D01*
X81095Y34954D01*
X81557Y34763D01*
Y34633D01*
X81798Y33732D01*
X82265Y32924D01*
X82924Y32265D01*
X83432Y31972D01*
X83526Y31359D01*
X79046Y26879D01*
X78164D01*
X77935Y27276D01*
X77276Y27935D01*
X76468Y28402D01*
X75567Y28643D01*
X74634D01*
X73732Y28402D01*
X72924Y27935D01*
X72265Y27276D01*
X71798Y26468D01*
X71557Y25567D01*
Y24633D01*
X71798Y23732D01*
X72265Y22924D01*
X72924Y22265D01*
X73732Y21798D01*
X74634Y21557D01*
X75567D01*
X76468Y21798D01*
X77276Y22265D01*
X77935Y22924D01*
X78402Y23732D01*
X78492Y24069D01*
X79628D01*
X80165Y24176D01*
X80621Y24480D01*
X81095Y24954D01*
X81557Y24763D01*
Y24633D01*
X81798Y23732D01*
X82265Y22924D01*
X82924Y22265D01*
X83732Y21798D01*
X84633Y21557D01*
X85567D01*
X86468Y21798D01*
X87276Y22265D01*
X87935Y22924D01*
X88402Y23732D01*
X88643Y24633D01*
Y25567D01*
X88413Y26426D01*
X89278Y27291D01*
X90652D01*
X91190Y27398D01*
X91646Y27702D01*
X96643Y32699D01*
X97105Y32508D01*
Y22722D01*
X90888Y16505D01*
X78380D01*
X77935Y17276D01*
X77276Y17935D01*
X76468Y18402D01*
X75567Y18643D01*
X74634D01*
X73732Y18402D01*
X72924Y17935D01*
X72265Y17276D01*
X71798Y16468D01*
X71557Y15566D01*
Y14634D01*
X71798Y13732D01*
X72265Y12924D01*
X72924Y12265D01*
X73732Y11798D01*
X74634Y11557D01*
X75567D01*
X76468Y11798D01*
X77276Y12265D01*
X77935Y12924D01*
X78380Y13695D01*
X91470D01*
X92007Y13802D01*
X92463Y14107D01*
X98619Y20262D01*
X99080Y20071D01*
Y9600D01*
X99080Y8765D01*
X98755Y7126D01*
X98115Y5583D01*
X97187Y4194D01*
X96006Y3013D01*
X94617Y2085D01*
X93074Y1445D01*
X91435Y1120D01*
X90600Y1120D01*
X9600Y1120D01*
X8765Y1120D01*
X7126Y1445D01*
X5583Y2085D01*
X4194Y3013D01*
X3013Y4194D01*
X2085Y5583D01*
X1445Y7126D01*
X1120Y8765D01*
X1120Y9789D01*
X1581Y9980D01*
X7581Y3981D01*
X8232Y3546D01*
X9000Y3393D01*
X32081D01*
X32849Y3546D01*
X33500Y3981D01*
X41619Y12100D01*
X41925Y12557D01*
X42454Y12666D01*
X42541Y12648D01*
X42924Y12265D01*
X43732Y11798D01*
X44633Y11557D01*
X45566D01*
X46468Y11798D01*
X47276Y12265D01*
X47935Y12924D01*
X48402Y13732D01*
X48643Y14634D01*
Y15566D01*
X48402Y16468D01*
X47935Y17276D01*
X47276Y17935D01*
X46468Y18402D01*
X45566Y18643D01*
X44633D01*
X43732Y18402D01*
X42924Y17935D01*
X42707Y17718D01*
X42207Y17925D01*
Y20000D01*
X42054Y20768D01*
X41619Y21419D01*
X38593Y24445D01*
X38643Y24633D01*
Y25567D01*
X38402Y26468D01*
X37935Y27276D01*
X37276Y27935D01*
X36468Y28402D01*
X35566Y28643D01*
X34633D01*
X33732Y28402D01*
X32924Y27935D01*
X32265Y27276D01*
X31798Y26468D01*
X31557Y25567D01*
Y24633D01*
X31798Y23732D01*
X32265Y22924D01*
X32924Y22265D01*
X33732Y21798D01*
X34633Y21557D01*
X35566D01*
X35754Y21607D01*
X38193Y19169D01*
Y17725D01*
X37693Y17518D01*
X37276Y17935D01*
X36468Y18402D01*
X35566Y18643D01*
X34633D01*
X33732Y18402D01*
X32924Y17935D01*
X32265Y17276D01*
X31798Y16468D01*
X31557Y15566D01*
Y14634D01*
X31798Y13732D01*
X32265Y12924D01*
X32924Y12265D01*
X33732Y11798D01*
X34633Y11557D01*
X34746D01*
X34938Y11095D01*
X31250Y7407D01*
X9831D01*
X4288Y12950D01*
Y53272D01*
X4750Y53463D01*
X11787Y46426D01*
X11557Y45566D01*
Y44633D01*
X11798Y43732D01*
X12265Y42924D01*
X12924Y42265D01*
X13732Y41798D01*
X14634Y41557D01*
X15566D01*
X16468Y41798D01*
X17276Y42265D01*
X17935Y42924D01*
X18402Y43732D01*
X18643Y44633D01*
Y45566D01*
X18402Y46468D01*
X17935Y47276D01*
X17844Y47367D01*
X18035Y47829D01*
X19234D01*
X19771Y47936D01*
X20227Y48240D01*
X23774Y51787D01*
X24633Y51557D01*
X25567D01*
X26468Y51798D01*
X27276Y52265D01*
X27935Y52924D01*
X28402Y53732D01*
X28643Y54633D01*
Y55567D01*
X28402Y56468D01*
X27935Y57276D01*
X27276Y57935D01*
X26468Y58402D01*
X25567Y58643D01*
X24633D01*
X23732Y58402D01*
X22924Y57935D01*
X22265Y57276D01*
X21798Y56468D01*
X21557Y55567D01*
Y54633D01*
X21787Y53774D01*
X18652Y50639D01*
X15702D01*
X15246Y51095D01*
X15437Y51557D01*
X15566D01*
X16468Y51798D01*
X17276Y52265D01*
X17935Y52924D01*
X18402Y53732D01*
X18643Y54633D01*
Y55567D01*
X18402Y56468D01*
X17935Y57276D01*
X17316Y57895D01*
X17354Y58227D01*
X17399Y58395D01*
X19800D01*
X20338Y58502D01*
X20794Y58807D01*
X23774Y61787D01*
X24633Y61557D01*
X25567D01*
X26468Y61798D01*
X27276Y62265D01*
X27935Y62924D01*
X28402Y63732D01*
X28643Y64634D01*
Y65566D01*
X28402Y66468D01*
X27935Y67276D01*
X27276Y67935D01*
X26468Y68402D01*
X25567Y68643D01*
X24633D01*
X23732Y68402D01*
X22924Y67935D01*
X22265Y67276D01*
X21798Y66468D01*
X21557Y65566D01*
Y64634D01*
X21787Y63774D01*
X19218Y61205D01*
X16186D01*
X16120Y61705D01*
X16468Y61798D01*
X17276Y62265D01*
X17935Y62924D01*
X18402Y63732D01*
X18643Y64634D01*
Y65566D01*
X18402Y66468D01*
X17935Y67276D01*
X17276Y67935D01*
X16468Y68402D01*
X15566Y68643D01*
X14634D01*
X13774Y68413D01*
X12151Y70036D01*
Y72331D01*
X12651Y72539D01*
X12924Y72265D01*
X13732Y71798D01*
X14634Y71557D01*
X15566D01*
X16468Y71798D01*
X17276Y72265D01*
X17935Y72924D01*
X18402Y73732D01*
X18643Y74634D01*
Y75567D01*
X18402Y76468D01*
X17935Y77276D01*
X17276Y77935D01*
X16505Y78380D01*
Y84302D01*
X18433Y86230D01*
X18895Y86039D01*
Y79900D01*
X19002Y79362D01*
X19307Y78907D01*
X21787Y76426D01*
X21557Y75567D01*
Y74634D01*
X21798Y73732D01*
X22265Y72924D01*
X22924Y72265D01*
X23732Y71798D01*
X24633Y71557D01*
X25567D01*
X26468Y71798D01*
X27276Y72265D01*
X27935Y72924D01*
X28402Y73732D01*
X28643Y74634D01*
Y75567D01*
X28402Y76468D01*
X27935Y77276D01*
X27276Y77935D01*
X26468Y78402D01*
X25567Y78643D01*
X24633D01*
X23774Y78413D01*
X21705Y80482D01*
Y82894D01*
X22205Y83028D01*
X22265Y82924D01*
X22924Y82265D01*
X23732Y81798D01*
X24633Y81557D01*
X25567D01*
X26468Y81798D01*
X27276Y82265D01*
X27935Y82924D01*
X28402Y83732D01*
X28643Y84633D01*
Y85567D01*
X28413Y86426D01*
X29099Y87112D01*
X29561Y86921D01*
Y79234D01*
X29668Y78696D01*
X29973Y78240D01*
X31787Y76426D01*
X31557Y75567D01*
Y74634D01*
X31798Y73732D01*
X32265Y72924D01*
X32924Y72265D01*
X33732Y71798D01*
X34633Y71557D01*
X35566D01*
X36468Y71798D01*
X37276Y72265D01*
X37935Y72924D01*
X38402Y73732D01*
X38643Y74634D01*
Y75567D01*
X38402Y76468D01*
X37935Y77276D01*
X37276Y77935D01*
X36468Y78402D01*
X35566Y78643D01*
X34633D01*
X33774Y78413D01*
X32371Y79816D01*
Y82165D01*
X32833Y82356D01*
X32924Y82265D01*
X33732Y81798D01*
X34633Y81557D01*
X35566D01*
X36468Y81798D01*
X37276Y82265D01*
X37935Y82924D01*
X38402Y83732D01*
X38643Y84633D01*
Y85567D01*
X38413Y86426D01*
X39114Y87127D01*
X39575Y86881D01*
X39561Y86812D01*
Y79234D01*
X39668Y78696D01*
X39973Y78240D01*
X41787Y76426D01*
X41557Y75567D01*
Y74634D01*
X41798Y73732D01*
X42265Y72924D01*
X42924Y72265D01*
X43732Y71798D01*
X44633Y71557D01*
X45566D01*
X46468Y71798D01*
X47276Y72265D01*
X47935Y72924D01*
X48402Y73732D01*
X48643Y74634D01*
Y75567D01*
X48402Y76468D01*
X47935Y77276D01*
X47276Y77935D01*
X46468Y78402D01*
X45566Y78643D01*
X44633D01*
X43774Y78413D01*
X42371Y79816D01*
Y82165D01*
X42833Y82356D01*
X42924Y82265D01*
X43732Y81798D01*
X44633Y81557D01*
X45566D01*
X46468Y81798D01*
X47276Y82265D01*
X47935Y82924D01*
X48402Y83732D01*
X48643Y84633D01*
Y85567D01*
X48402Y86468D01*
X47935Y87276D01*
X47276Y87935D01*
X46468Y88402D01*
X46346Y88434D01*
Y260259D01*
X46239Y260797D01*
X45934Y261252D01*
X23853Y283333D01*
X23952Y283504D01*
X24234Y284556D01*
Y285644D01*
X23952Y286696D01*
X23408Y287638D01*
X22638Y288408D01*
X21696Y288952D01*
X20644Y289234D01*
X19556D01*
X18504Y288952D01*
X17562Y288408D01*
X16792Y287638D01*
X16248Y286696D01*
X15966Y285644D01*
Y284556D01*
X16248Y283504D01*
X16792Y282562D01*
X17562Y281792D01*
X18504Y281248D01*
X19556Y280966D01*
X20644D01*
X21696Y281248D01*
X21867Y281347D01*
X43536Y259677D01*
Y254358D01*
X43036Y254151D01*
X23853Y273334D01*
X23952Y273504D01*
X24234Y274556D01*
Y275644D01*
X23952Y276696D01*
X23408Y277638D01*
X22638Y278408D01*
X21696Y278952D01*
X20644Y279234D01*
X19556D01*
X18504Y278952D01*
X17562Y278408D01*
X16792Y277638D01*
X16248Y276696D01*
X15966Y275644D01*
Y274556D01*
X16248Y273504D01*
X16792Y272562D01*
X17562Y271792D01*
X18504Y271248D01*
X19556Y270966D01*
X20644D01*
X21696Y271248D01*
X21867Y271347D01*
X41136Y252077D01*
Y246704D01*
X40674Y246513D01*
X23853Y263334D01*
X23952Y263504D01*
X24234Y264556D01*
Y265644D01*
X23952Y266696D01*
X23408Y267638D01*
X22638Y268408D01*
X21696Y268952D01*
X20644Y269234D01*
X19556D01*
X18504Y268952D01*
X17562Y268408D01*
X16792Y267638D01*
X16248Y266696D01*
X15966Y265644D01*
Y264556D01*
X16248Y263504D01*
X16792Y262562D01*
X17562Y261792D01*
X18504Y261248D01*
X19556Y260966D01*
X20644D01*
X21696Y261248D01*
X21867Y261347D01*
X39167Y244046D01*
Y238673D01*
X38706Y238481D01*
X23853Y253333D01*
X23952Y253504D01*
X24234Y254556D01*
Y255644D01*
X23952Y256696D01*
X23408Y257638D01*
X22638Y258408D01*
X21696Y258952D01*
X20644Y259234D01*
X19556D01*
X18504Y258952D01*
X17562Y258408D01*
X16792Y257638D01*
X16248Y256696D01*
X15966Y255644D01*
Y254556D01*
X16248Y253504D01*
X16792Y252562D01*
X17562Y251792D01*
X18504Y251248D01*
X19556Y250966D01*
X20644D01*
X21696Y251248D01*
X21867Y251347D01*
X37199Y236014D01*
Y230641D01*
X36737Y230450D01*
X23853Y243334D01*
X23952Y243504D01*
X24234Y244556D01*
Y245644D01*
X23952Y246696D01*
X23408Y247638D01*
X22638Y248408D01*
X21696Y248952D01*
X20644Y249234D01*
X19556D01*
X18504Y248952D01*
X17562Y248408D01*
X16792Y247638D01*
X16248Y246696D01*
X15966Y245644D01*
Y244556D01*
X16248Y243504D01*
X16792Y242562D01*
X17562Y241792D01*
X18504Y241248D01*
X19556Y240966D01*
X20644D01*
X21696Y241248D01*
X21867Y241347D01*
X35230Y227983D01*
Y212610D01*
X34769Y212418D01*
X23853Y223334D01*
X23952Y223504D01*
X24234Y224556D01*
Y225644D01*
X23952Y226696D01*
X23408Y227638D01*
X22638Y228408D01*
X21696Y228952D01*
X20644Y229234D01*
X19556D01*
X18504Y228952D01*
X17562Y228408D01*
X17280Y228127D01*
X16781Y228334D01*
Y229794D01*
X18334Y231347D01*
X18504Y231248D01*
X19556Y230966D01*
X20644D01*
X21696Y231248D01*
X22638Y231792D01*
X23408Y232562D01*
X23952Y233504D01*
X24234Y234556D01*
Y235644D01*
X23952Y236696D01*
X23408Y237638D01*
X22638Y238408D01*
X21696Y238952D01*
X20644Y239234D01*
X19556D01*
X18504Y238952D01*
X17562Y238408D01*
X16792Y237638D01*
X16248Y236696D01*
X15966Y235644D01*
Y234556D01*
X16248Y233504D01*
X16347Y233333D01*
X14382Y231369D01*
X14078Y230913D01*
X13971Y230376D01*
Y223143D01*
X14078Y222605D01*
X14382Y222150D01*
X17425Y219107D01*
X17586Y218999D01*
X17567Y218411D01*
X17562Y218408D01*
X16792Y217638D01*
X16248Y216696D01*
X15966Y215644D01*
Y214556D01*
X16248Y213504D01*
X16792Y212562D01*
X17562Y211792D01*
X18504Y211248D01*
X19556Y210966D01*
X20644D01*
X21696Y211248D01*
X21867Y211347D01*
X29325Y203888D01*
Y198515D01*
X28863Y198324D01*
X23853Y203333D01*
X23952Y203504D01*
X24234Y204556D01*
Y205644D01*
X23952Y206696D01*
X23408Y207638D01*
X22638Y208408D01*
X21696Y208952D01*
X20644Y209234D01*
X19556D01*
X18504Y208952D01*
X17562Y208408D01*
X16792Y207638D01*
X16248Y206696D01*
X15966Y205644D01*
Y204556D01*
X16248Y203504D01*
X16792Y202562D01*
X17562Y201792D01*
X18504Y201248D01*
X19556Y200966D01*
X20644D01*
X21696Y201248D01*
X21867Y201347D01*
X27356Y195857D01*
Y190000D01*
X26895Y189808D01*
X23676Y193027D01*
X23952Y193504D01*
X24234Y194556D01*
Y195644D01*
X23952Y196696D01*
X23408Y197638D01*
X22638Y198408D01*
X21696Y198952D01*
X20644Y199234D01*
X19556D01*
X18504Y198952D01*
X17562Y198408D01*
X16792Y197638D01*
X16248Y196696D01*
X15966Y195644D01*
Y194556D01*
X16248Y193504D01*
X16792Y192562D01*
X17562Y191792D01*
X18504Y191248D01*
X19556Y190966D01*
X20644D01*
X21527Y191203D01*
X25388Y187341D01*
Y182452D01*
X24926Y182261D01*
X23853Y183334D01*
X23952Y183504D01*
X24234Y184556D01*
Y185644D01*
X23952Y186696D01*
X23408Y187638D01*
X22638Y188408D01*
X21696Y188952D01*
X20644Y189234D01*
X19556D01*
X18504Y188952D01*
X17562Y188408D01*
X16792Y187638D01*
X16248Y186696D01*
X15966Y185644D01*
Y184556D01*
X16248Y183504D01*
X16792Y182562D01*
X17562Y181792D01*
X18504Y181248D01*
X19556Y180966D01*
X20644D01*
X21696Y181248D01*
X21867Y181347D01*
X23419Y179794D01*
Y178334D01*
X22919Y178127D01*
X22638Y178408D01*
X21696Y178952D01*
X20644Y179234D01*
X19556D01*
X18504Y178952D01*
X17562Y178408D01*
X16792Y177638D01*
X16248Y176696D01*
X15966Y175644D01*
Y174556D01*
X16248Y173504D01*
X16792Y172562D01*
X17562Y171792D01*
X18504Y171248D01*
X19556Y170966D01*
X20644D01*
X21696Y171248D01*
X22638Y171792D01*
X22919Y172073D01*
X23419Y171866D01*
Y168334D01*
X22919Y168127D01*
X22638Y168408D01*
X21696Y168952D01*
X20644Y169234D01*
X19556D01*
X18504Y168952D01*
X17562Y168408D01*
X16792Y167638D01*
X16248Y166696D01*
X15966Y165644D01*
Y164556D01*
X16248Y163504D01*
X16792Y162562D01*
X17562Y161792D01*
X18504Y161248D01*
X19556Y160966D01*
X20644D01*
X21696Y161248D01*
X22638Y161792D01*
X22919Y162073D01*
X23419Y161866D01*
Y158334D01*
X22919Y158127D01*
X22638Y158408D01*
X21696Y158952D01*
X20644Y159234D01*
X19556D01*
X18504Y158952D01*
X17562Y158408D01*
X16792Y157638D01*
X16248Y156696D01*
X15966Y155644D01*
Y154556D01*
X16248Y153504D01*
X16792Y152562D01*
X17562Y151792D01*
X18504Y151248D01*
X19556Y150966D01*
X20644D01*
X21696Y151248D01*
X22638Y151792D01*
X22919Y152073D01*
X23419Y151866D01*
Y148334D01*
X22919Y148127D01*
X22638Y148408D01*
X21696Y148952D01*
X20644Y149234D01*
X19556D01*
X18504Y148952D01*
X17562Y148408D01*
X16792Y147638D01*
X16248Y146696D01*
X15966Y145644D01*
Y144556D01*
X16248Y143504D01*
X16792Y142562D01*
X17562Y141792D01*
X18504Y141248D01*
X19556Y140966D01*
X20644D01*
X21696Y141248D01*
X22638Y141792D01*
X22919Y142073D01*
X23419Y141866D01*
Y138334D01*
X22919Y138127D01*
X22638Y138408D01*
X21696Y138952D01*
X20644Y139234D01*
X19556D01*
X18504Y138952D01*
X17562Y138408D01*
X16792Y137638D01*
X16248Y136696D01*
X15966Y135644D01*
Y134556D01*
X16248Y133504D01*
X16792Y132562D01*
X17562Y131792D01*
X18504Y131248D01*
X19556Y130966D01*
X20644D01*
X21696Y131248D01*
X22638Y131792D01*
X22919Y132073D01*
X23419Y131866D01*
Y128334D01*
X22919Y128127D01*
X22638Y128408D01*
X21696Y128952D01*
X20644Y129234D01*
X19556D01*
X18504Y128952D01*
X17562Y128408D01*
X16792Y127638D01*
X16248Y126696D01*
X15966Y125644D01*
Y124556D01*
X16248Y123504D01*
X16792Y122562D01*
X17562Y121792D01*
X18504Y121248D01*
X19556Y120966D01*
X20644D01*
X21696Y121248D01*
X22638Y121792D01*
X22919Y122073D01*
X23419Y121866D01*
Y118334D01*
X22919Y118127D01*
X22638Y118408D01*
X21696Y118952D01*
X20644Y119234D01*
X19556D01*
X18504Y118952D01*
X17562Y118408D01*
X16792Y117638D01*
X16248Y116696D01*
X15966Y115644D01*
Y114556D01*
X16248Y113504D01*
X16792Y112562D01*
X17562Y111792D01*
X18504Y111248D01*
X19556Y110966D01*
X20644D01*
X21696Y111248D01*
X22638Y111792D01*
X22919Y112073D01*
X23419Y111866D01*
Y108334D01*
X22919Y108127D01*
X22638Y108408D01*
X21696Y108952D01*
X20644Y109234D01*
X19556D01*
X18504Y108952D01*
X17562Y108408D01*
X16792Y107638D01*
X16248Y106696D01*
X15966Y105644D01*
Y104556D01*
X16125Y103963D01*
X1581Y89420D01*
X1120Y89611D01*
Y95100D01*
X1120Y95713D01*
X1359Y96915D01*
X1828Y98048D01*
X2509Y99067D01*
X2942Y99501D01*
X9760Y106318D01*
X9774Y106340D01*
X9795Y106355D01*
X10034Y106618D01*
X10072Y106683D01*
X10126Y106736D01*
X10520Y107326D01*
X10559Y107419D01*
X10614Y107503D01*
X10886Y108159D01*
X10905Y108257D01*
X10944Y108350D01*
X11082Y109046D01*
Y109122D01*
X11101Y109195D01*
X11118Y109550D01*
X11114Y109575D01*
X11119Y109600D01*
X11119Y295600D01*
X11120Y296434D01*
X11446Y298072D01*
X12086Y299614D01*
X13014Y301002D01*
X14195Y302182D01*
X15584Y303110D01*
X17127Y303748D01*
X18765Y304073D01*
X19600Y304073D01*
D02*
G37*
G36*
X81979Y83417D02*
X82435Y83113D01*
X82973Y83006D01*
X83807D01*
X89231Y77583D01*
Y45735D01*
X89122Y45663D01*
X88557Y45887D01*
X88402Y46468D01*
X87935Y47276D01*
X87276Y47935D01*
X86468Y48402D01*
X85567Y48643D01*
X84633D01*
X83732Y48402D01*
X82924Y47935D01*
X82265Y47276D01*
X81798Y46468D01*
X81605Y45747D01*
X81105Y45812D01*
Y49118D01*
X83774Y51787D01*
X84633Y51557D01*
X85567D01*
X86468Y51798D01*
X87276Y52265D01*
X87935Y52924D01*
X88402Y53732D01*
X88643Y54633D01*
Y55567D01*
X88402Y56468D01*
X87935Y57276D01*
X87276Y57935D01*
X86468Y58402D01*
X85567Y58643D01*
X84633D01*
X83732Y58402D01*
X82924Y57935D01*
X82265Y57276D01*
X81798Y56468D01*
X81557Y55567D01*
Y54633D01*
X81787Y53774D01*
X78707Y50694D01*
X78402Y50238D01*
X78295Y49700D01*
Y47614D01*
X77795Y47416D01*
X77276Y47935D01*
X76468Y48402D01*
X75567Y48643D01*
X74634D01*
X73774Y48413D01*
X71605Y50582D01*
Y53067D01*
X72105Y53201D01*
X72265Y52924D01*
X72924Y52265D01*
X73732Y51798D01*
X74634Y51557D01*
X75567D01*
X76468Y51798D01*
X77276Y52265D01*
X77935Y52924D01*
X78402Y53732D01*
X78643Y54633D01*
Y55567D01*
X78402Y56468D01*
X77935Y57276D01*
X77276Y57935D01*
X76468Y58402D01*
X75567Y58643D01*
X74634D01*
X73732Y58402D01*
X72924Y57935D01*
X72265Y57276D01*
X72105Y56999D01*
X71605Y57133D01*
Y63067D01*
X72105Y63201D01*
X72265Y62924D01*
X72924Y62265D01*
X73732Y61798D01*
X74634Y61557D01*
X75567D01*
X76468Y61798D01*
X77276Y62265D01*
X77935Y62924D01*
X78402Y63732D01*
X78643Y64634D01*
Y65566D01*
X78402Y66468D01*
X77935Y67276D01*
X78276Y67618D01*
X78900Y67359D01*
Y68800D01*
X77459D01*
X77718Y68176D01*
X77347Y67864D01*
X77276Y67935D01*
X76468Y68402D01*
X75567Y68643D01*
X74634D01*
X73732Y68402D01*
X72924Y67935D01*
X72265Y67276D01*
X72105Y66999D01*
X71605Y67133D01*
Y73067D01*
X72105Y73201D01*
X72265Y72924D01*
X72924Y72265D01*
X73732Y71798D01*
X74634Y71557D01*
X75567D01*
X76468Y71798D01*
X77276Y72265D01*
X77935Y72924D01*
X78402Y73732D01*
X78643Y74634D01*
Y75567D01*
X78402Y76468D01*
X77935Y77276D01*
X77276Y77935D01*
X76468Y78402D01*
X75567Y78643D01*
X74634D01*
X73732Y78402D01*
X72924Y77935D01*
X72265Y77276D01*
X72105Y76999D01*
X71605Y77133D01*
Y83067D01*
X72105Y83201D01*
X72265Y82924D01*
X72924Y82265D01*
X73732Y81798D01*
X74634Y81557D01*
X75567D01*
X76468Y81798D01*
X77276Y82265D01*
X77935Y82924D01*
X78402Y83732D01*
X78643Y84633D01*
Y85567D01*
X78468Y86221D01*
X78916Y86480D01*
X81979Y83417D01*
D02*
G37*
G36*
X68795Y73413D02*
Y50000D01*
X68902Y49462D01*
X69207Y49007D01*
X71787Y46426D01*
X71557Y45566D01*
Y45437D01*
X71095Y45246D01*
X62371Y53970D01*
Y72165D01*
X62833Y72356D01*
X62924Y72265D01*
X63732Y71798D01*
X64634Y71557D01*
X65184D01*
X65239Y71557D01*
X65305Y71084D01*
X65235Y71055D01*
X64576Y70782D01*
X64018Y70224D01*
X63759Y69600D01*
X67641D01*
X67382Y70224D01*
X66824Y70782D01*
X66095Y71084D01*
X65782D01*
X65735Y71084D01*
X65669Y71584D01*
X65737Y71602D01*
X66468Y71798D01*
X67276Y72265D01*
X67935Y72924D01*
X68295Y73547D01*
X68795Y73413D01*
D02*
G37*
%LPC*%
G36*
X24446Y299447D02*
X20600D01*
Y295600D01*
X24446D01*
Y299447D01*
D02*
G37*
G36*
X19600D02*
X15754D01*
Y295600D01*
X19600D01*
Y299447D01*
D02*
G37*
G36*
X84234Y299234D02*
X75966D01*
Y290966D01*
X84234D01*
Y299234D01*
D02*
G37*
G36*
X24446Y294600D02*
X20600D01*
Y290754D01*
X24446D01*
Y294600D01*
D02*
G37*
G36*
X19600D02*
X15754D01*
Y290754D01*
X19600D01*
Y294600D01*
D02*
G37*
G36*
X80644Y289234D02*
X79556D01*
X78504Y288952D01*
X77562Y288408D01*
X76792Y287638D01*
X76248Y286696D01*
X75966Y285644D01*
Y284556D01*
X76248Y283504D01*
X76792Y282562D01*
X77562Y281792D01*
X78504Y281248D01*
X79556Y280966D01*
X80644D01*
X81696Y281248D01*
X82638Y281792D01*
X83408Y282562D01*
X83952Y283504D01*
X84234Y284556D01*
Y285644D01*
X83952Y286696D01*
X83408Y287638D01*
X82638Y288408D01*
X81696Y288952D01*
X80644Y289234D01*
D02*
G37*
G36*
Y279234D02*
X79556D01*
X78504Y278952D01*
X77562Y278408D01*
X76792Y277638D01*
X76248Y276696D01*
X75966Y275644D01*
Y274556D01*
X76248Y273504D01*
X76792Y272562D01*
X77562Y271792D01*
X78504Y271248D01*
X79556Y270966D01*
X80644D01*
X81696Y271248D01*
X82638Y271792D01*
X83408Y272562D01*
X83952Y273504D01*
X84234Y274556D01*
Y275644D01*
X83952Y276696D01*
X83408Y277638D01*
X82638Y278408D01*
X81696Y278952D01*
X80644Y279234D01*
D02*
G37*
G36*
Y269234D02*
X79556D01*
X78504Y268952D01*
X77562Y268408D01*
X76792Y267638D01*
X76248Y266696D01*
X75966Y265644D01*
Y264556D01*
X76248Y263504D01*
X76792Y262562D01*
X77562Y261792D01*
X78504Y261248D01*
X79556Y260966D01*
X80644D01*
X81696Y261248D01*
X82638Y261792D01*
X83408Y262562D01*
X83952Y263504D01*
X84234Y264556D01*
Y265644D01*
X83952Y266696D01*
X83408Y267638D01*
X82638Y268408D01*
X81696Y268952D01*
X80644Y269234D01*
D02*
G37*
G36*
Y259234D02*
X79556D01*
X78504Y258952D01*
X77562Y258408D01*
X76792Y257638D01*
X76248Y256696D01*
X75966Y255644D01*
Y254556D01*
X76248Y253504D01*
X76792Y252562D01*
X77562Y251792D01*
X78504Y251248D01*
X79556Y250966D01*
X80644D01*
X81696Y251248D01*
X82638Y251792D01*
X83408Y252562D01*
X83952Y253504D01*
X84234Y254556D01*
Y255644D01*
X83952Y256696D01*
X83408Y257638D01*
X82638Y258408D01*
X81696Y258952D01*
X80644Y259234D01*
D02*
G37*
G36*
Y249234D02*
X79556D01*
X78504Y248952D01*
X77562Y248408D01*
X76792Y247638D01*
X76248Y246696D01*
X75966Y245644D01*
Y244556D01*
X76248Y243504D01*
X76792Y242562D01*
X77562Y241792D01*
X78504Y241248D01*
X79556Y240966D01*
X80644D01*
X81696Y241248D01*
X82638Y241792D01*
X83408Y242562D01*
X83952Y243504D01*
X84234Y244556D01*
Y245644D01*
X83952Y246696D01*
X83408Y247638D01*
X82638Y248408D01*
X81696Y248952D01*
X80644Y249234D01*
D02*
G37*
G36*
X55567Y88643D02*
X54633D01*
X53732Y88402D01*
X52924Y87935D01*
X52265Y87276D01*
X51798Y86468D01*
X51557Y85567D01*
Y84633D01*
X51798Y83732D01*
X52265Y82924D01*
X52924Y82265D01*
X53732Y81798D01*
X54633Y81557D01*
X55567D01*
X56468Y81798D01*
X57276Y82265D01*
X57935Y82924D01*
X58402Y83732D01*
X58643Y84633D01*
Y85567D01*
X58402Y86468D01*
X57935Y87276D01*
X57276Y87935D01*
X56468Y88402D01*
X55567Y88643D01*
D02*
G37*
G36*
X58856Y78856D02*
X55600D01*
Y75600D01*
X58856D01*
Y78856D01*
D02*
G37*
G36*
X54600D02*
X51344D01*
Y75600D01*
X54600D01*
Y78856D01*
D02*
G37*
G36*
X58856Y74600D02*
X55600D01*
Y71344D01*
X58856D01*
Y74600D01*
D02*
G37*
G36*
X54600D02*
X51344D01*
Y71344D01*
X54600D01*
Y74600D01*
D02*
G37*
G36*
X55300Y65641D02*
Y64200D01*
X56741D01*
X56482Y64824D01*
X55924Y65382D01*
X55300Y65641D01*
D02*
G37*
G36*
X54300D02*
X53676Y65382D01*
X53118Y64824D01*
X52859Y64200D01*
X54300D01*
Y65641D01*
D02*
G37*
G36*
X56741Y63200D02*
X55300D01*
Y61759D01*
X55924Y62018D01*
X56482Y62576D01*
X56741Y63200D01*
D02*
G37*
G36*
X54300D02*
X52859D01*
X53118Y62576D01*
X53676Y62018D01*
X54300Y61759D01*
Y63200D01*
D02*
G37*
G36*
X25567Y48643D02*
X24633D01*
X23732Y48402D01*
X22924Y47935D01*
X22265Y47276D01*
X21798Y46468D01*
X21557Y45566D01*
Y44633D01*
X21798Y43732D01*
X22265Y42924D01*
X22924Y42265D01*
X23732Y41798D01*
X24633Y41557D01*
X25567D01*
X26468Y41798D01*
X27276Y42265D01*
X27935Y42924D01*
X28402Y43732D01*
X28643Y44633D01*
Y45566D01*
X28402Y46468D01*
X27935Y47276D01*
X27276Y47935D01*
X26468Y48402D01*
X25567Y48643D01*
D02*
G37*
G36*
Y38643D02*
X24633D01*
X23732Y38402D01*
X22924Y37935D01*
X22265Y37276D01*
X21798Y36468D01*
X21557Y35566D01*
Y34633D01*
X21798Y33732D01*
X22265Y32924D01*
X22924Y32265D01*
X23732Y31798D01*
X24633Y31557D01*
X25567D01*
X26468Y31798D01*
X27276Y32265D01*
X27935Y32924D01*
X28402Y33732D01*
X28643Y34633D01*
Y35566D01*
X28402Y36468D01*
X27935Y37276D01*
X27276Y37935D01*
X26468Y38402D01*
X25567Y38643D01*
D02*
G37*
G36*
X15566D02*
X14634D01*
X13732Y38402D01*
X12924Y37935D01*
X12265Y37276D01*
X11798Y36468D01*
X11557Y35566D01*
Y34633D01*
X11798Y33732D01*
X12265Y32924D01*
X12924Y32265D01*
X13732Y31798D01*
X14634Y31557D01*
X15566D01*
X16468Y31798D01*
X17276Y32265D01*
X17935Y32924D01*
X18402Y33732D01*
X18643Y34633D01*
Y35566D01*
X18402Y36468D01*
X17935Y37276D01*
X17276Y37935D01*
X16468Y38402D01*
X15566Y38643D01*
D02*
G37*
G36*
X65566Y28643D02*
X64634D01*
X63732Y28402D01*
X62924Y27935D01*
X62265Y27276D01*
X61798Y26468D01*
X61557Y25567D01*
Y24633D01*
X61798Y23732D01*
X62265Y22924D01*
X62924Y22265D01*
X63732Y21798D01*
X64634Y21557D01*
X65566D01*
X66468Y21798D01*
X67276Y22265D01*
X67935Y22924D01*
X68402Y23732D01*
X68643Y24633D01*
Y25567D01*
X68402Y26468D01*
X67935Y27276D01*
X67276Y27935D01*
X66468Y28402D01*
X65566Y28643D01*
D02*
G37*
G36*
X55567D02*
X54633D01*
X53732Y28402D01*
X52924Y27935D01*
X52265Y27276D01*
X51798Y26468D01*
X51557Y25567D01*
Y24633D01*
X51798Y23732D01*
X52265Y22924D01*
X52924Y22265D01*
X53732Y21798D01*
X54633Y21557D01*
X55567D01*
X56468Y21798D01*
X57276Y22265D01*
X57935Y22924D01*
X58402Y23732D01*
X58643Y24633D01*
Y25567D01*
X58402Y26468D01*
X57935Y27276D01*
X57276Y27935D01*
X56468Y28402D01*
X55567Y28643D01*
D02*
G37*
G36*
X45566D02*
X44633D01*
X43732Y28402D01*
X42924Y27935D01*
X42265Y27276D01*
X41798Y26468D01*
X41557Y25567D01*
Y24633D01*
X41798Y23732D01*
X42265Y22924D01*
X42924Y22265D01*
X43732Y21798D01*
X44633Y21557D01*
X45566D01*
X46468Y21798D01*
X47276Y22265D01*
X47935Y22924D01*
X48402Y23732D01*
X48643Y24633D01*
Y25567D01*
X48402Y26468D01*
X47935Y27276D01*
X47276Y27935D01*
X46468Y28402D01*
X45566Y28643D01*
D02*
G37*
G36*
X25567D02*
X24633D01*
X23732Y28402D01*
X22924Y27935D01*
X22265Y27276D01*
X21798Y26468D01*
X21557Y25567D01*
Y24633D01*
X21798Y23732D01*
X22265Y22924D01*
X22924Y22265D01*
X23732Y21798D01*
X24633Y21557D01*
X25567D01*
X26468Y21798D01*
X27276Y22265D01*
X27935Y22924D01*
X28402Y23732D01*
X28643Y24633D01*
Y25567D01*
X28402Y26468D01*
X27935Y27276D01*
X27276Y27935D01*
X26468Y28402D01*
X25567Y28643D01*
D02*
G37*
G36*
X15566D02*
X14634D01*
X13732Y28402D01*
X12924Y27935D01*
X12265Y27276D01*
X11798Y26468D01*
X11557Y25567D01*
Y24633D01*
X11798Y23732D01*
X12265Y22924D01*
X12924Y22265D01*
X13732Y21798D01*
X14634Y21557D01*
X15566D01*
X16468Y21798D01*
X17276Y22265D01*
X17935Y22924D01*
X18402Y23732D01*
X18643Y24633D01*
Y25567D01*
X18402Y26468D01*
X17935Y27276D01*
X17276Y27935D01*
X16468Y28402D01*
X15566Y28643D01*
D02*
G37*
G36*
X65566Y18643D02*
X64634D01*
X63732Y18402D01*
X62924Y17935D01*
X62265Y17276D01*
X61798Y16468D01*
X61557Y15566D01*
Y14634D01*
X61798Y13732D01*
X62265Y12924D01*
X62924Y12265D01*
X63732Y11798D01*
X64634Y11557D01*
X65566D01*
X66468Y11798D01*
X67276Y12265D01*
X67935Y12924D01*
X68402Y13732D01*
X68643Y14634D01*
Y15566D01*
X68402Y16468D01*
X67935Y17276D01*
X67276Y17935D01*
X66468Y18402D01*
X65566Y18643D01*
D02*
G37*
G36*
X55567D02*
X54633D01*
X53732Y18402D01*
X52924Y17935D01*
X52265Y17276D01*
X51798Y16468D01*
X51557Y15566D01*
Y14634D01*
X51798Y13732D01*
X52265Y12924D01*
X52924Y12265D01*
X53732Y11798D01*
X54633Y11557D01*
X55567D01*
X56468Y11798D01*
X57276Y12265D01*
X57935Y12924D01*
X58402Y13732D01*
X58643Y14634D01*
Y15566D01*
X58402Y16468D01*
X57935Y17276D01*
X57276Y17935D01*
X56468Y18402D01*
X55567Y18643D01*
D02*
G37*
G36*
X25567D02*
X24633D01*
X23732Y18402D01*
X22924Y17935D01*
X22265Y17276D01*
X21798Y16468D01*
X21557Y15566D01*
Y14634D01*
X21798Y13732D01*
X22265Y12924D01*
X22924Y12265D01*
X23732Y11798D01*
X24633Y11557D01*
X25567D01*
X26468Y11798D01*
X27276Y12265D01*
X27935Y12924D01*
X28402Y13732D01*
X28643Y14634D01*
Y15566D01*
X28402Y16468D01*
X27935Y17276D01*
X27276Y17935D01*
X26468Y18402D01*
X25567Y18643D01*
D02*
G37*
G36*
X85567Y78643D02*
X84633D01*
X83732Y78402D01*
X82924Y77935D01*
X82265Y77276D01*
X81798Y76468D01*
X81557Y75567D01*
Y74634D01*
X81798Y73732D01*
X82265Y72924D01*
X82924Y72265D01*
X83732Y71798D01*
X84633Y71557D01*
X85567D01*
X86468Y71798D01*
X87276Y72265D01*
X87935Y72924D01*
X88402Y73732D01*
X88643Y74634D01*
Y75567D01*
X88402Y76468D01*
X87935Y77276D01*
X87276Y77935D01*
X86468Y78402D01*
X85567Y78643D01*
D02*
G37*
G36*
X79900Y71241D02*
Y69800D01*
X81341D01*
X81082Y70424D01*
X80524Y70982D01*
X79900Y71241D01*
D02*
G37*
G36*
X78900D02*
X78276Y70982D01*
X77718Y70424D01*
X77459Y69800D01*
X78900D01*
Y71241D01*
D02*
G37*
G36*
X81341Y68800D02*
X79900D01*
Y67359D01*
X80524Y67618D01*
X81082Y68176D01*
X81341Y68800D01*
D02*
G37*
G36*
X85567Y68643D02*
X84633D01*
X83732Y68402D01*
X82924Y67935D01*
X82265Y67276D01*
X81798Y66468D01*
X81557Y65566D01*
Y64634D01*
X81798Y63732D01*
X82265Y62924D01*
X82924Y62265D01*
X83732Y61798D01*
X84633Y61557D01*
X85567D01*
X86468Y61798D01*
X87276Y62265D01*
X87935Y62924D01*
X88402Y63732D01*
X88643Y64634D01*
Y65566D01*
X88402Y66468D01*
X87935Y67276D01*
X87276Y67935D01*
X86468Y68402D01*
X85567Y68643D01*
D02*
G37*
G36*
X67641Y68600D02*
X66200D01*
Y67159D01*
X66824Y67418D01*
X67382Y67976D01*
X67641Y68600D01*
D02*
G37*
G36*
X65200D02*
X63759D01*
X64018Y67976D01*
X64576Y67418D01*
X65200Y67159D01*
Y68600D01*
D02*
G37*
G36*
X66100Y58541D02*
Y57100D01*
X67541D01*
X67282Y57724D01*
X66724Y58282D01*
X66100Y58541D01*
D02*
G37*
G36*
X65100D02*
X64476Y58282D01*
X63918Y57724D01*
X63659Y57100D01*
X65100D01*
Y58541D01*
D02*
G37*
G36*
X67541Y56100D02*
X66100D01*
Y54659D01*
X66724Y54918D01*
X67282Y55476D01*
X67541Y56100D01*
D02*
G37*
G36*
X65100D02*
X63659D01*
X63918Y55476D01*
X64476Y54918D01*
X65100Y54659D01*
Y56100D01*
D02*
G37*
%LPD*%
D16*
X52687Y94099D02*
X61400Y102812D01*
X52538Y94099D02*
X52687D01*
X51100Y97100D02*
X59431Y105431D01*
Y214432D01*
X80100Y235100D01*
X61400Y206400D02*
X80100Y225100D01*
X61400Y102812D02*
Y206400D01*
X60966Y53388D02*
Y99594D01*
X63368Y101997D01*
Y198369D02*
X80100Y215100D01*
X60966Y53388D02*
X73388Y40966D01*
X63368Y101997D02*
Y198369D01*
X98510Y22140D02*
Y81426D01*
X94573Y35400D02*
Y79795D01*
X90636Y44789D02*
Y78164D01*
X92604Y42604D02*
Y78980D01*
X96541Y34585D02*
Y80611D01*
X79700Y49700D02*
X85100Y55100D01*
X79700Y42200D02*
Y49700D01*
X70200Y50000D02*
Y90966D01*
Y50000D02*
X75100Y45100D01*
X78466Y40966D02*
X79700Y42200D01*
X73388Y40966D02*
X78466D01*
X65533Y95634D02*
X70200Y90966D01*
X86234Y92285D02*
X87651D01*
X75376Y103143D02*
X86234Y92285D01*
X69470Y100697D02*
X83788Y86379D01*
X82973Y84411D02*
X84389D01*
X84603Y88348D02*
X86020D01*
X85419Y90316D02*
X86836D01*
X96541Y80611D01*
X67502Y99882D02*
X82973Y84411D01*
X87651Y92285D02*
X98510Y81426D01*
X73407Y102328D02*
Y158407D01*
Y102328D02*
X85419Y90316D01*
X69470Y100697D02*
Y174470D01*
X67502Y99882D02*
Y182502D01*
X71439Y101512D02*
X84603Y88348D01*
X75376Y103143D02*
Y150376D01*
X71439Y101512D02*
Y166439D01*
X83788Y86379D02*
X85205D01*
X86020Y88348D02*
X94573Y79795D01*
X85205Y86379D02*
X92604Y78980D01*
X84389Y84411D02*
X90636Y78164D01*
X65533Y190533D02*
X80100Y205100D01*
X65533Y95634D02*
Y190533D01*
X67502Y182502D02*
X80100Y195100D01*
X89837Y30664D02*
X94573Y35400D01*
X85100Y25100D02*
X88696Y28696D01*
X91470Y15100D02*
X98510Y22140D01*
X75100Y15100D02*
X91470D01*
X90652Y28696D02*
X96541Y34585D01*
X88696Y28696D02*
X90652D01*
X84818Y30664D02*
X89837D01*
X85504Y39658D02*
X90636Y44789D01*
X83812Y39658D02*
X85504D01*
X79628Y35474D02*
X83812Y39658D01*
X75474Y35474D02*
X79628D01*
X75100Y35100D02*
X75474Y35474D01*
X69470Y174470D02*
X80100Y185100D01*
X85100Y35100D02*
X92604Y42604D01*
X71439Y166439D02*
X80100Y175100D01*
X75100Y25100D02*
X75474Y25474D01*
X79628D01*
X84818Y30664D01*
X73407Y158407D02*
X80100Y165100D01*
X75376Y150376D02*
X80100Y155100D01*
X20100Y285100D02*
X44941Y260259D01*
Y85259D02*
X45100Y85100D01*
X44941Y85259D02*
Y260259D01*
X40966Y79234D02*
X45100Y75100D01*
X40966Y79234D02*
Y86812D01*
X42541Y88387D01*
X40572Y90572D02*
Y244628D01*
X35100Y85100D02*
X40572Y90572D01*
X42541Y88387D02*
Y252659D01*
X20100Y275100D02*
X42541Y252659D01*
X20100Y265100D02*
X40572Y244628D01*
X30966Y79234D02*
X35100Y75100D01*
X30966Y79234D02*
Y88182D01*
X38604Y95820D02*
Y236596D01*
X20100Y255100D02*
X38604Y236596D01*
X30966Y88182D02*
X38604Y95820D01*
X20100Y245100D02*
X36635Y228565D01*
X25100Y85100D02*
X36635Y96635D01*
Y228565D01*
X20300Y79900D02*
X25100Y75100D01*
X20300Y79900D02*
Y87300D01*
X6809Y57545D02*
Y84944D01*
X8777Y64223D02*
Y84129D01*
X20749Y99067D02*
X24824Y103143D01*
X18148Y99067D02*
X20749D01*
X15100Y75100D02*
Y84884D01*
X32698Y99882D02*
Y209183D01*
X24824Y103143D02*
Y180376D01*
X22379Y95130D02*
X28761Y101512D01*
X4840Y85760D02*
X18148Y99067D01*
X26793Y102328D02*
Y187923D01*
X20594Y93162D02*
X23195D01*
X28761Y101512D02*
Y196439D01*
X24010Y91193D02*
X32698Y99882D01*
X10746Y83313D02*
X20594Y93162D01*
X23195D02*
X30730Y100697D01*
X6809Y84944D02*
X18963Y97099D01*
X15100Y84884D02*
X21409Y91193D01*
X22225Y89225D02*
X24825D01*
X4840Y55360D02*
Y85760D01*
X18963Y97099D02*
X21564D01*
X20300Y87300D02*
X22225Y89225D01*
X10746Y69454D02*
Y83313D01*
X21409Y91193D02*
X24010D01*
X19779Y95130D02*
X22379D01*
X21564Y97099D02*
X26793Y102328D01*
X30730Y100697D02*
Y204470D01*
X8777Y84129D02*
X19779Y95130D01*
X24825Y89225D02*
X34667Y99066D01*
X21781Y220100D02*
X32698Y209183D01*
X18419Y220100D02*
X21781D01*
X15376Y230376D02*
X20100Y235100D01*
X15376Y223143D02*
Y230376D01*
Y223143D02*
X18419Y220100D01*
X20100Y194616D02*
X26793Y187923D01*
X20100Y194616D02*
Y195100D01*
X34667Y99066D02*
Y210533D01*
X20100Y225100D02*
X34667Y210533D01*
X20100Y215100D02*
X30730Y204470D01*
X8777Y64223D02*
X13200Y59800D01*
X6809Y57545D02*
X15120Y49234D01*
X4840Y55360D02*
X15100Y45100D01*
X10746Y69454D02*
X15100Y65100D01*
X13200Y59800D02*
X19800D01*
X25100Y65100D01*
X20100Y205100D02*
X28761Y196439D01*
X20100Y185100D02*
X24824Y180376D01*
X19234Y49234D02*
X25100Y55100D01*
X15120Y49234D02*
X19234D01*
D17*
X50185Y80015D02*
Y92316D01*
X47500Y95000D02*
X50185Y92316D01*
Y80015D02*
X55100Y75100D01*
X47500Y95000D02*
Y267700D01*
X20100Y295100D02*
X47500Y267700D01*
X2281Y87281D02*
X20100Y105100D01*
X2281Y12119D02*
Y87281D01*
Y12119D02*
X9000Y5400D01*
X35100Y25100D02*
X40200Y20000D01*
X32081Y5400D02*
X40200Y13519D01*
X9000Y5400D02*
X32081D01*
X40200Y13519D02*
Y20000D01*
D18*
X55100Y75100D02*
D03*
D19*
X45100Y85100D02*
D03*
Y75100D02*
D03*
X35100Y85100D02*
D03*
Y75100D02*
D03*
X25100Y85100D02*
D03*
X15100Y75100D02*
D03*
X25100D02*
D03*
X15100Y65100D02*
D03*
X25100D02*
D03*
X15100Y55100D02*
D03*
X25100D02*
D03*
X15100Y45100D02*
D03*
X25100D02*
D03*
X15100Y35100D02*
D03*
X25100D02*
D03*
X15100Y25100D02*
D03*
X25100Y15100D02*
D03*
Y25100D02*
D03*
X35100Y15100D02*
D03*
Y25100D02*
D03*
X45100Y15100D02*
D03*
Y25100D02*
D03*
X55100Y15100D02*
D03*
Y25100D02*
D03*
X65100Y15100D02*
D03*
Y25100D02*
D03*
X75100Y15100D02*
D03*
X85100Y25100D02*
D03*
X75100D02*
D03*
X85100Y35100D02*
D03*
X75100D02*
D03*
X85100Y45100D02*
D03*
X75100D02*
D03*
X85100Y55100D02*
D03*
X75100D02*
D03*
X85100Y65100D02*
D03*
X75100D02*
D03*
X85100Y75100D02*
D03*
X75100Y85100D02*
D03*
Y75100D02*
D03*
X65100Y85100D02*
D03*
Y75100D02*
D03*
X55100Y85100D02*
D03*
D20*
X80100Y105100D02*
D03*
Y115100D02*
D03*
Y125100D02*
D03*
Y135100D02*
D03*
Y145100D02*
D03*
Y225100D02*
D03*
Y235100D02*
D03*
Y245100D02*
D03*
Y255100D02*
D03*
Y265100D02*
D03*
Y275100D02*
D03*
Y285100D02*
D03*
Y215100D02*
D03*
Y205100D02*
D03*
Y195100D02*
D03*
Y185100D02*
D03*
Y175100D02*
D03*
Y165100D02*
D03*
Y155100D02*
D03*
X20100Y105100D02*
D03*
Y115100D02*
D03*
Y125100D02*
D03*
Y135100D02*
D03*
Y145100D02*
D03*
Y225100D02*
D03*
Y235100D02*
D03*
Y245100D02*
D03*
Y255100D02*
D03*
Y265100D02*
D03*
Y275100D02*
D03*
Y285100D02*
D03*
Y215100D02*
D03*
Y205100D02*
D03*
Y195100D02*
D03*
Y185100D02*
D03*
Y175100D02*
D03*
Y165100D02*
D03*
Y155100D02*
D03*
D21*
X80100Y295100D02*
D03*
X20100D02*
D03*
D22*
X79400Y69300D02*
D03*
X65600Y56600D02*
D03*
X65700Y69100D02*
D03*
X54800Y63700D02*
D03*
X52538Y94099D02*
D03*
X51100Y97100D02*
D03*
M02*
