G04*
G04 #@! TF.GenerationSoftware,Altium Limited,Altium Designer,21.0.9 (235)*
G04*
G04 Layer_Physical_Order=2*
G04 Layer_Color=16711680*
%FSLAX25Y25*%
%MOIN*%
G70*
G04*
G04 #@! TF.SameCoordinates,D00D0935-9F2D-4F80-BADC-0BB803B56EC7*
G04*
G04*
G04 #@! TF.FilePolarity,Positive*
G04*
G01*
G75*
%ADD16C,0.01181*%
%ADD18R,0.05512X0.05512*%
%ADD19C,0.05512*%
%ADD20C,0.06693*%
%ADD21R,0.06693X0.06693*%
%ADD22C,0.01968*%
G36*
X19600Y304073D02*
X19600Y304073D01*
X19600Y304073D01*
X40176Y304073D01*
X40377Y304072D01*
X40765Y303949D01*
X41099Y303716D01*
X41348Y303394D01*
X41399Y303258D01*
X41548Y302656D01*
X41576Y302596D01*
X41587Y302531D01*
X42080Y301269D01*
X42127Y301195D01*
X42157Y301112D01*
X42858Y299953D01*
X42918Y299888D01*
X42961Y299812D01*
X43850Y298790D01*
X43920Y298736D01*
X43976Y298668D01*
X45027Y297814D01*
X45105Y297772D01*
X45172Y297715D01*
X46353Y297053D01*
X46437Y297026D01*
X46513Y296981D01*
X47790Y296531D01*
X47877Y296518D01*
X47960Y296487D01*
X49295Y296263D01*
X49383Y296265D01*
X49470Y296248D01*
X50824Y296256D01*
X50910Y296273D01*
X50999Y296271D01*
X52332Y296510D01*
X52413Y296543D01*
X52501Y296556D01*
X53773Y297020D01*
X53848Y297065D01*
X53932Y297093D01*
X55106Y297768D01*
X55173Y297826D01*
X55250Y297868D01*
X56292Y298733D01*
X56347Y298802D01*
X56416Y298856D01*
X57294Y299887D01*
X57337Y299964D01*
X57396Y300030D01*
X58085Y301196D01*
X58114Y301279D01*
X58161Y301354D01*
X58639Y302621D01*
X58650Y302686D01*
X58678Y302747D01*
X58819Y303344D01*
X58862Y303458D01*
X59088Y303750D01*
X59390Y303961D01*
X59742Y304072D01*
X59924Y304073D01*
X80629Y304073D01*
X81462Y304072D01*
X83096Y303745D01*
X84636Y303105D01*
X86020Y302177D01*
X87198Y300997D01*
X88122Y299610D01*
X88758Y298070D01*
X89081Y296435D01*
X89081Y295601D01*
X89081Y295601D01*
X89081Y295600D01*
Y109600D01*
X89085Y109575D01*
X89082Y109550D01*
X89099Y109195D01*
X89117Y109122D01*
Y109046D01*
X89256Y108350D01*
X89294Y108257D01*
X89314Y108159D01*
X89586Y107503D01*
X89641Y107419D01*
X89680Y107326D01*
X90074Y106736D01*
X90128Y106683D01*
X90167Y106618D01*
X90405Y106355D01*
X90426Y106340D01*
X90440Y106318D01*
X97258Y99501D01*
X97258Y99501D01*
X97258Y99500D01*
X97691Y99067D01*
X98372Y98048D01*
X98841Y96915D01*
X99080Y95713D01*
X99080Y95100D01*
Y88760D01*
X98619Y88568D01*
X83853Y103333D01*
X83952Y103504D01*
X84234Y104556D01*
Y105644D01*
X83952Y106696D01*
X83408Y107638D01*
X82638Y108408D01*
X81696Y108952D01*
X80644Y109234D01*
X79556D01*
X78504Y108952D01*
X77562Y108408D01*
X77280Y108127D01*
X76780Y108334D01*
Y109794D01*
X78333Y111347D01*
X78504Y111248D01*
X79556Y110966D01*
X80644D01*
X81696Y111248D01*
X82638Y111792D01*
X83408Y112562D01*
X83952Y113504D01*
X84234Y114556D01*
Y115644D01*
X83952Y116696D01*
X83408Y117638D01*
X82638Y118408D01*
X81696Y118952D01*
X80644Y119234D01*
X79556D01*
X78504Y118952D01*
X77562Y118408D01*
X76792Y117638D01*
X76248Y116696D01*
X75966Y115644D01*
Y114556D01*
X76248Y113504D01*
X76347Y113333D01*
X75274Y112261D01*
X74812Y112452D01*
Y117825D01*
X78333Y121347D01*
X78504Y121248D01*
X79556Y120966D01*
X80644D01*
X81696Y121248D01*
X82638Y121792D01*
X83408Y122562D01*
X83952Y123504D01*
X84234Y124556D01*
Y125644D01*
X83952Y126696D01*
X83408Y127638D01*
X82638Y128408D01*
X81696Y128952D01*
X80644Y129234D01*
X79556D01*
X78504Y128952D01*
X77562Y128408D01*
X76792Y127638D01*
X76248Y126696D01*
X75966Y125644D01*
Y124556D01*
X76248Y123504D01*
X76347Y123334D01*
X73305Y120292D01*
X72843Y120484D01*
Y125857D01*
X78333Y131347D01*
X78504Y131248D01*
X79556Y130966D01*
X80644D01*
X81696Y131248D01*
X82638Y131792D01*
X83408Y132562D01*
X83952Y133504D01*
X84234Y134556D01*
Y135644D01*
X83952Y136696D01*
X83408Y137638D01*
X82638Y138408D01*
X81696Y138952D01*
X80644Y139234D01*
X79556D01*
X78504Y138952D01*
X77562Y138408D01*
X76792Y137638D01*
X76248Y136696D01*
X75966Y135644D01*
Y134556D01*
X76248Y133504D01*
X76347Y133334D01*
X71337Y128324D01*
X70875Y128515D01*
Y133888D01*
X78333Y141347D01*
X78504Y141248D01*
X79556Y140966D01*
X80644D01*
X81696Y141248D01*
X82638Y141792D01*
X83408Y142562D01*
X83952Y143504D01*
X84234Y144556D01*
Y145644D01*
X83952Y146696D01*
X83408Y147638D01*
X82638Y148408D01*
X81696Y148952D01*
X80644Y149234D01*
X79556D01*
X78504Y148952D01*
X77562Y148408D01*
X76792Y147638D01*
X76248Y146696D01*
X75966Y145644D01*
Y144556D01*
X76248Y143504D01*
X76347Y143333D01*
X69367Y136354D01*
X68905Y136545D01*
Y231918D01*
X78333Y241347D01*
X78504Y241248D01*
X79556Y240966D01*
X80644D01*
X81696Y241248D01*
X82638Y241792D01*
X83408Y242562D01*
X83952Y243504D01*
X84234Y244556D01*
Y245644D01*
X83952Y246696D01*
X83408Y247638D01*
X82638Y248408D01*
X81696Y248952D01*
X80644Y249234D01*
X79556D01*
X78504Y248952D01*
X77562Y248408D01*
X76792Y247638D01*
X76248Y246696D01*
X75966Y245644D01*
Y244556D01*
X76248Y243504D01*
X76347Y243334D01*
X67367Y234354D01*
X66905Y234545D01*
Y239918D01*
X78333Y251347D01*
X78504Y251248D01*
X79556Y250966D01*
X80644D01*
X81696Y251248D01*
X82638Y251792D01*
X83408Y252562D01*
X83952Y253504D01*
X84234Y254556D01*
Y255644D01*
X83952Y256696D01*
X83408Y257638D01*
X82638Y258408D01*
X81696Y258952D01*
X80644Y259234D01*
X79556D01*
X78504Y258952D01*
X77562Y258408D01*
X76792Y257638D01*
X76248Y256696D01*
X75966Y255644D01*
Y254556D01*
X76248Y253504D01*
X76347Y253333D01*
X65367Y242354D01*
X64905Y242545D01*
Y247918D01*
X78333Y261347D01*
X78504Y261248D01*
X79556Y260966D01*
X80644D01*
X81696Y261248D01*
X82638Y261792D01*
X83408Y262562D01*
X83952Y263504D01*
X84234Y264556D01*
Y265644D01*
X83952Y266696D01*
X83408Y267638D01*
X82638Y268408D01*
X81696Y268952D01*
X80644Y269234D01*
X79556D01*
X78504Y268952D01*
X77562Y268408D01*
X76792Y267638D01*
X76248Y266696D01*
X75966Y265644D01*
Y264556D01*
X76248Y263504D01*
X76347Y263334D01*
X63367Y250354D01*
X62905Y250545D01*
Y255918D01*
X78333Y271347D01*
X78504Y271248D01*
X79556Y270966D01*
X80644D01*
X81696Y271248D01*
X82638Y271792D01*
X83408Y272562D01*
X83952Y273504D01*
X84234Y274556D01*
Y275644D01*
X83952Y276696D01*
X83408Y277638D01*
X82638Y278408D01*
X81696Y278952D01*
X80644Y279234D01*
X79556D01*
X78504Y278952D01*
X77562Y278408D01*
X76792Y277638D01*
X76248Y276696D01*
X75966Y275644D01*
Y274556D01*
X76248Y273504D01*
X76347Y273334D01*
X61335Y258322D01*
X60874Y258514D01*
Y263886D01*
X78333Y281347D01*
X78504Y281248D01*
X79556Y280966D01*
X80644D01*
X81696Y281248D01*
X82638Y281792D01*
X83408Y282562D01*
X83952Y283504D01*
X84234Y284556D01*
Y285644D01*
X83952Y286696D01*
X83408Y287638D01*
X82638Y288408D01*
X81696Y288952D01*
X80644Y289234D01*
X79556D01*
X78504Y288952D01*
X77562Y288408D01*
X76792Y287638D01*
X76248Y286696D01*
X75966Y285644D01*
Y284556D01*
X76248Y283504D01*
X76347Y283333D01*
X59367Y266354D01*
X58905Y266545D01*
Y271918D01*
X77953Y290966D01*
X84234D01*
Y299234D01*
X75966D01*
Y292953D01*
X56507Y273493D01*
X56202Y273038D01*
X56095Y272500D01*
Y89019D01*
X55595Y88636D01*
X55567Y88643D01*
X54633D01*
X54402Y88581D01*
X54006Y88886D01*
Y93061D01*
X54040Y93095D01*
X54309Y93747D01*
Y94451D01*
X54040Y95103D01*
X53541Y95601D01*
X52991Y95829D01*
X52877Y95907D01*
X52715Y96371D01*
X52872Y96748D01*
Y97452D01*
X52602Y98104D01*
X52104Y98602D01*
X51452Y98872D01*
X50748D01*
X50096Y98602D01*
X49598Y98104D01*
X49328Y97452D01*
Y97315D01*
X38906Y86893D01*
X38814Y86754D01*
X38225Y86774D01*
X37935Y87276D01*
X37276Y87935D01*
X36468Y88402D01*
X35566Y88643D01*
X34633D01*
X33732Y88402D01*
X32924Y87935D01*
X32265Y87276D01*
X31798Y86468D01*
X31557Y85567D01*
Y84633D01*
X31798Y83732D01*
X32265Y82924D01*
X32924Y82265D01*
X33732Y81798D01*
X34633Y81557D01*
X35566D01*
X36468Y81798D01*
X37276Y82265D01*
X37935Y82924D01*
X37995Y83028D01*
X38495Y82894D01*
Y77306D01*
X37995Y77172D01*
X37935Y77276D01*
X37276Y77935D01*
X36468Y78402D01*
X35566Y78643D01*
X34633D01*
X33732Y78402D01*
X32924Y77935D01*
X32265Y77276D01*
X31798Y76468D01*
X31557Y75567D01*
Y74634D01*
X31798Y73732D01*
X32265Y72924D01*
X32924Y72265D01*
X33732Y71798D01*
X34633Y71557D01*
X35566D01*
X36468Y71798D01*
X37276Y72265D01*
X37935Y72924D01*
X38402Y73732D01*
X38586Y74420D01*
X39091Y74592D01*
X39125Y74589D01*
X39561Y74152D01*
Y72134D01*
X39668Y71596D01*
X39973Y71140D01*
X61907Y49207D01*
X62362Y48902D01*
X62900Y48795D01*
X73413D01*
X73547Y48295D01*
X72924Y47935D01*
X72265Y47276D01*
X71798Y46468D01*
X71557Y45566D01*
Y44633D01*
X71798Y43732D01*
X72265Y42924D01*
X72924Y42265D01*
X73732Y41798D01*
X74634Y41557D01*
X75567D01*
X76468Y41798D01*
X77276Y42265D01*
X77935Y42924D01*
X78402Y43732D01*
X78643Y44633D01*
Y45566D01*
X78402Y46468D01*
X77935Y47276D01*
X77276Y47935D01*
X76510Y48377D01*
X76488Y48519D01*
X76555Y48896D01*
X76584Y48902D01*
X77040Y49207D01*
X81359Y53526D01*
X81898Y53484D01*
X81964Y53444D01*
X82265Y52924D01*
X82924Y52265D01*
X83732Y51798D01*
X84633Y51557D01*
X85567D01*
X86468Y51798D01*
X87276Y52265D01*
X87935Y52924D01*
X88402Y53732D01*
X88643Y54633D01*
Y55567D01*
X88402Y56468D01*
X87935Y57276D01*
X87276Y57935D01*
X86468Y58402D01*
X85567Y58643D01*
X85437D01*
X85246Y59105D01*
X85720Y59579D01*
X86024Y60035D01*
X86131Y60572D01*
Y61708D01*
X86468Y61798D01*
X87276Y62265D01*
X87935Y62924D01*
X88402Y63732D01*
X88643Y64634D01*
Y65566D01*
X88402Y66468D01*
X87935Y67276D01*
X87276Y67935D01*
X86468Y68402D01*
X85567Y68643D01*
X84633D01*
X83732Y68402D01*
X82924Y67935D01*
X82265Y67276D01*
X81798Y66468D01*
X81557Y65566D01*
Y64634D01*
X81798Y63732D01*
X82265Y62924D01*
X82924Y62265D01*
X83321Y62036D01*
Y61154D01*
X79548Y57381D01*
X79244Y56926D01*
X79137Y56388D01*
Y55582D01*
X78643Y55567D01*
X78402Y56468D01*
X77935Y57276D01*
X77276Y57935D01*
X76468Y58402D01*
X75567Y58643D01*
X74634D01*
X73774Y58413D01*
X67343Y64844D01*
X66887Y65149D01*
X66349Y65256D01*
X59470D01*
X53844Y70882D01*
X54036Y71344D01*
X54600D01*
Y75100D01*
Y78856D01*
X52371D01*
Y82165D01*
X52833Y82356D01*
X52924Y82265D01*
X53732Y81798D01*
X54633Y81557D01*
X55567D01*
X56468Y81798D01*
X57276Y82265D01*
X57935Y82924D01*
X58402Y83732D01*
X58643Y84633D01*
Y85567D01*
X58456Y86266D01*
X58904Y86525D01*
X59561Y85868D01*
Y83388D01*
X59668Y82850D01*
X59973Y82394D01*
X63321Y79046D01*
Y78164D01*
X62924Y77935D01*
X62265Y77276D01*
X61798Y76468D01*
X61557Y75567D01*
Y74634D01*
X61798Y73732D01*
X62265Y72924D01*
X62924Y72265D01*
X63732Y71798D01*
X64634Y71557D01*
X65184D01*
X65239Y71557D01*
X65305Y71084D01*
X65235Y71055D01*
X64576Y70782D01*
X64018Y70224D01*
X63759Y69600D01*
X67641D01*
X67382Y70224D01*
X66824Y70782D01*
X66095Y71084D01*
X65782D01*
X65735Y71084D01*
X65669Y71584D01*
X65737Y71602D01*
X66468Y71798D01*
X67276Y72265D01*
X67935Y72924D01*
X68402Y73732D01*
X68643Y74634D01*
Y75567D01*
X68402Y76468D01*
X67935Y77276D01*
X67276Y77935D01*
X66468Y78402D01*
X66131Y78492D01*
Y79628D01*
X66024Y80165D01*
X65720Y80621D01*
X65246Y81095D01*
X65437Y81557D01*
X65566D01*
X66468Y81798D01*
X67276Y82265D01*
X67367Y82356D01*
X67829Y82165D01*
Y80966D01*
X67936Y80428D01*
X68240Y79973D01*
X71787Y76426D01*
X71557Y75567D01*
Y74634D01*
X71798Y73732D01*
X72265Y72924D01*
X72924Y72265D01*
X73732Y71798D01*
X74634Y71557D01*
X75567D01*
X76468Y71798D01*
X77276Y72265D01*
X77935Y72924D01*
X78402Y73732D01*
X78643Y74634D01*
Y75567D01*
X78402Y76468D01*
X77935Y77276D01*
X77276Y77935D01*
X76468Y78402D01*
X75567Y78643D01*
X74634D01*
X73774Y78413D01*
X70639Y81548D01*
Y86921D01*
X71101Y87112D01*
X71787Y86426D01*
X71557Y85567D01*
Y84633D01*
X71798Y83732D01*
X72265Y82924D01*
X72924Y82265D01*
X73732Y81798D01*
X74634Y81557D01*
X75567D01*
X76468Y81798D01*
X77276Y82265D01*
X77367Y82356D01*
X77829Y82165D01*
Y80966D01*
X77936Y80428D01*
X78240Y79973D01*
X81787Y76426D01*
X81557Y75567D01*
Y74634D01*
X81798Y73732D01*
X82265Y72924D01*
X82924Y72265D01*
X83732Y71798D01*
X84633Y71557D01*
X85567D01*
X86468Y71798D01*
X87276Y72265D01*
X87935Y72924D01*
X88402Y73732D01*
X88643Y74634D01*
Y75567D01*
X88402Y76468D01*
X87935Y77276D01*
X87276Y77935D01*
X86468Y78402D01*
X85567Y78643D01*
X84633D01*
X83774Y78413D01*
X80639Y81548D01*
Y88149D01*
X80532Y88687D01*
X80509Y88722D01*
X80776Y89222D01*
X82423D01*
X89231Y82415D01*
Y17343D01*
X82857Y10970D01*
X74008D01*
X73721Y11325D01*
X73944Y11741D01*
X74634Y11557D01*
X75567D01*
X76468Y11798D01*
X77276Y12265D01*
X77935Y12924D01*
X78402Y13732D01*
X78643Y14634D01*
Y15566D01*
X78402Y16468D01*
X77935Y17276D01*
X77276Y17935D01*
X76468Y18402D01*
X75567Y18643D01*
X74634D01*
X73732Y18402D01*
X72924Y17935D01*
X72265Y17276D01*
X71798Y16468D01*
X71579Y15650D01*
X71079Y15715D01*
Y20526D01*
X70972Y21064D01*
X70667Y21519D01*
X68413Y23774D01*
X68643Y24633D01*
Y25567D01*
X68402Y26468D01*
X67935Y27276D01*
X67276Y27935D01*
X66468Y28402D01*
X65566Y28643D01*
X64634D01*
X63732Y28402D01*
X62924Y27935D01*
X62265Y27276D01*
X61798Y26468D01*
X61557Y25567D01*
Y24633D01*
X61798Y23732D01*
X62265Y22924D01*
X62924Y22265D01*
X63732Y21798D01*
X64634Y21557D01*
X65566D01*
X66426Y21787D01*
X68269Y19944D01*
Y17649D01*
X67769Y17442D01*
X67276Y17935D01*
X66468Y18402D01*
X65566Y18643D01*
X64634D01*
X63732Y18402D01*
X62924Y17935D01*
X62265Y17276D01*
X61798Y16468D01*
X61557Y15566D01*
Y14837D01*
X61059Y14628D01*
X60639Y15048D01*
Y20966D01*
X60532Y21504D01*
X60227Y21960D01*
X58413Y23774D01*
X58643Y24633D01*
Y25567D01*
X58402Y26468D01*
X57935Y27276D01*
X57276Y27935D01*
X56468Y28402D01*
X55567Y28643D01*
X54633D01*
X53732Y28402D01*
X52924Y27935D01*
X52265Y27276D01*
X51798Y26468D01*
X51557Y25567D01*
Y24633D01*
X51798Y23732D01*
X52265Y22924D01*
X52924Y22265D01*
X53732Y21798D01*
X54633Y21557D01*
X55567D01*
X56426Y21787D01*
X57829Y20384D01*
Y18035D01*
X57367Y17844D01*
X57276Y17935D01*
X56468Y18402D01*
X55567Y18643D01*
X54633D01*
X53732Y18402D01*
X52924Y17935D01*
X52265Y17276D01*
X51972Y16768D01*
X51359Y16674D01*
X46879Y21154D01*
Y22036D01*
X47276Y22265D01*
X47935Y22924D01*
X48402Y23732D01*
X48643Y24633D01*
Y25567D01*
X48402Y26468D01*
X47935Y27276D01*
X47276Y27935D01*
X46468Y28402D01*
X45566Y28643D01*
X44633D01*
X43732Y28402D01*
X42924Y27935D01*
X42265Y27276D01*
X41798Y26468D01*
X41557Y25567D01*
Y24633D01*
X41798Y23732D01*
X42265Y22924D01*
X42924Y22265D01*
X43732Y21798D01*
X44069Y21708D01*
Y20572D01*
X44176Y20035D01*
X44480Y19579D01*
X44954Y19105D01*
X44763Y18643D01*
X44633D01*
X43732Y18402D01*
X42924Y17935D01*
X42265Y17276D01*
X41798Y16468D01*
X41557Y15566D01*
Y14634D01*
X41798Y13732D01*
X42265Y12924D01*
X42924Y12265D01*
X43732Y11798D01*
X44633Y11557D01*
X45566D01*
X46468Y11798D01*
X47276Y12265D01*
X47935Y12924D01*
X48402Y13732D01*
X48643Y14634D01*
Y14763D01*
X49105Y14954D01*
X49561Y14498D01*
Y11950D01*
X49668Y11412D01*
X49973Y10957D01*
X59348Y1581D01*
X59157Y1120D01*
X9600Y1120D01*
X8765Y1120D01*
X7126Y1445D01*
X5583Y2085D01*
X4194Y3013D01*
X3013Y4194D01*
X2085Y5583D01*
X1445Y7126D01*
X1120Y8765D01*
X1120Y9600D01*
X1120Y95100D01*
X1120Y95565D01*
X1187Y95649D01*
X1687Y95471D01*
Y22808D01*
X1794Y22270D01*
X2099Y21814D01*
X16475Y7438D01*
X16931Y7134D01*
X17469Y7027D01*
X28431D01*
X28969Y7134D01*
X29425Y7438D01*
X33774Y11787D01*
X34633Y11557D01*
X35566D01*
X36468Y11798D01*
X37276Y12265D01*
X37935Y12924D01*
X38402Y13732D01*
X38643Y14634D01*
Y15566D01*
X38402Y16468D01*
X37935Y17276D01*
X37276Y17935D01*
X36468Y18402D01*
X35566Y18643D01*
X34633D01*
X33732Y18402D01*
X32924Y17935D01*
X32265Y17276D01*
X32205Y17172D01*
X31705Y17306D01*
Y19900D01*
X31598Y20438D01*
X31293Y20893D01*
X28413Y23774D01*
X28643Y24633D01*
Y25567D01*
X28402Y26468D01*
X27935Y27276D01*
X27276Y27935D01*
X26468Y28402D01*
X25567Y28643D01*
X24633D01*
X23732Y28402D01*
X22924Y27935D01*
X22265Y27276D01*
X21798Y26468D01*
X21557Y25567D01*
Y24633D01*
X21798Y23732D01*
X22265Y22924D01*
X22924Y22265D01*
X23732Y21798D01*
X24633Y21557D01*
X25567D01*
X26426Y21787D01*
X28895Y19318D01*
Y16559D01*
X28402Y16468D01*
X27935Y17276D01*
X27276Y17935D01*
X26468Y18402D01*
X25567Y18643D01*
X24633D01*
X23732Y18402D01*
X22924Y17935D01*
X22265Y17276D01*
X21820Y16505D01*
X16950D01*
X8434Y25021D01*
Y29126D01*
X8896Y29317D01*
X11787Y26426D01*
X11557Y25567D01*
Y24633D01*
X11798Y23732D01*
X12265Y22924D01*
X12924Y22265D01*
X13732Y21798D01*
X14634Y21557D01*
X15566D01*
X16468Y21798D01*
X17276Y22265D01*
X17935Y22924D01*
X18402Y23732D01*
X18643Y24633D01*
Y25567D01*
X18402Y26468D01*
X17935Y27276D01*
X17276Y27935D01*
X17043Y28070D01*
X17034Y28652D01*
X17249Y28796D01*
X21319Y32866D01*
X22323D01*
X22924Y32265D01*
X23732Y31798D01*
X24633Y31557D01*
X25567D01*
X26468Y31798D01*
X27276Y32265D01*
X27935Y32924D01*
X28402Y33732D01*
X28643Y34633D01*
Y35566D01*
X28402Y36468D01*
X27935Y37276D01*
X27276Y37935D01*
X26468Y38402D01*
X25567Y38643D01*
X24633D01*
X23732Y38402D01*
X22924Y37935D01*
X22265Y37276D01*
X21798Y36468D01*
X21586Y35676D01*
X20737D01*
X20200Y35569D01*
X19744Y35265D01*
X19143Y34664D01*
X18643Y34871D01*
Y35566D01*
X18413Y36426D01*
X20227Y38240D01*
X20532Y38696D01*
X20639Y39234D01*
Y81866D01*
X20605Y82036D01*
Y88585D01*
X27367Y95347D01*
X27829Y95156D01*
Y88035D01*
X27367Y87844D01*
X27276Y87935D01*
X26468Y88402D01*
X25567Y88643D01*
X24633D01*
X23732Y88402D01*
X22924Y87935D01*
X22265Y87276D01*
X21798Y86468D01*
X21557Y85567D01*
Y84633D01*
X21798Y83732D01*
X22265Y82924D01*
X22924Y82265D01*
X23732Y81798D01*
X24633Y81557D01*
X25567D01*
X26468Y81798D01*
X27276Y82265D01*
X27367Y82356D01*
X27829Y82165D01*
Y78035D01*
X27367Y77844D01*
X27276Y77935D01*
X26468Y78402D01*
X25567Y78643D01*
X24633D01*
X23732Y78402D01*
X22924Y77935D01*
X22265Y77276D01*
X21798Y76468D01*
X21557Y75567D01*
Y74634D01*
X21798Y73732D01*
X22265Y72924D01*
X22924Y72265D01*
X23732Y71798D01*
X24633Y71557D01*
X25567D01*
X26468Y71798D01*
X27276Y72265D01*
X27367Y72356D01*
X27829Y72165D01*
Y68035D01*
X27367Y67844D01*
X27276Y67935D01*
X26468Y68402D01*
X25567Y68643D01*
X24633D01*
X23732Y68402D01*
X22924Y67935D01*
X22265Y67276D01*
X21798Y66468D01*
X21557Y65566D01*
Y64634D01*
X21798Y63732D01*
X22265Y62924D01*
X22924Y62265D01*
X23732Y61798D01*
X24633Y61557D01*
X25567D01*
X26468Y61798D01*
X27276Y62265D01*
X27367Y62356D01*
X27829Y62165D01*
Y58035D01*
X27367Y57844D01*
X27276Y57935D01*
X26468Y58402D01*
X25567Y58643D01*
X24633D01*
X23732Y58402D01*
X22924Y57935D01*
X22265Y57276D01*
X21798Y56468D01*
X21557Y55567D01*
Y54633D01*
X21798Y53732D01*
X22265Y52924D01*
X22924Y52265D01*
X23732Y51798D01*
X24633Y51557D01*
X24763D01*
X24954Y51095D01*
X24480Y50621D01*
X24176Y50165D01*
X24069Y49628D01*
Y48492D01*
X23732Y48402D01*
X22924Y47935D01*
X22265Y47276D01*
X21798Y46468D01*
X21557Y45566D01*
Y44633D01*
X21798Y43732D01*
X22265Y42924D01*
X22924Y42265D01*
X23732Y41798D01*
X24633Y41557D01*
X25567D01*
X26468Y41798D01*
X27276Y42265D01*
X27935Y42924D01*
X28402Y43732D01*
X28643Y44633D01*
Y45566D01*
X28402Y46468D01*
X27935Y47276D01*
X27276Y47935D01*
X26879Y48164D01*
Y49046D01*
X30227Y52394D01*
X30532Y52850D01*
X30639Y53388D01*
Y95835D01*
X35660Y100857D01*
X35965Y101312D01*
X36072Y101850D01*
Y160533D01*
X35965Y161071D01*
X35660Y161527D01*
X23853Y173334D01*
X23952Y173504D01*
X24234Y174556D01*
Y175644D01*
X23952Y176696D01*
X23408Y177638D01*
X22638Y178408D01*
X21696Y178952D01*
X20644Y179234D01*
X19556D01*
X18504Y178952D01*
X17562Y178408D01*
X16792Y177638D01*
X16248Y176696D01*
X15966Y175644D01*
Y174556D01*
X16248Y173504D01*
X16792Y172562D01*
X17562Y171792D01*
X18504Y171248D01*
X19556Y170966D01*
X20644D01*
X21696Y171248D01*
X21867Y171347D01*
X33262Y159951D01*
Y154578D01*
X32800Y154387D01*
X23853Y163333D01*
X23952Y163504D01*
X24234Y164556D01*
Y165644D01*
X23952Y166696D01*
X23408Y167638D01*
X22638Y168408D01*
X21696Y168952D01*
X20644Y169234D01*
X19556D01*
X18504Y168952D01*
X17562Y168408D01*
X16792Y167638D01*
X16248Y166696D01*
X15966Y165644D01*
Y164556D01*
X16248Y163504D01*
X16792Y162562D01*
X17562Y161792D01*
X18504Y161248D01*
X19556Y160966D01*
X20644D01*
X21696Y161248D01*
X21867Y161347D01*
X31293Y151920D01*
Y146547D01*
X30832Y146355D01*
X23853Y153333D01*
X23952Y153504D01*
X24234Y154556D01*
Y155644D01*
X23952Y156696D01*
X23408Y157638D01*
X22638Y158408D01*
X21696Y158952D01*
X20644Y159234D01*
X19556D01*
X18504Y158952D01*
X17562Y158408D01*
X16792Y157638D01*
X16248Y156696D01*
X15966Y155644D01*
Y154556D01*
X16248Y153504D01*
X16792Y152562D01*
X17562Y151792D01*
X18504Y151248D01*
X19556Y150966D01*
X20644D01*
X21696Y151248D01*
X21867Y151347D01*
X29325Y143888D01*
Y138515D01*
X28863Y138324D01*
X23853Y143333D01*
X23952Y143504D01*
X24234Y144556D01*
Y145644D01*
X23952Y146696D01*
X23408Y147638D01*
X22638Y148408D01*
X21696Y148952D01*
X20644Y149234D01*
X19556D01*
X18504Y148952D01*
X17562Y148408D01*
X16792Y147638D01*
X16248Y146696D01*
X15966Y145644D01*
Y144556D01*
X16248Y143504D01*
X16792Y142562D01*
X17562Y141792D01*
X18504Y141248D01*
X19556Y140966D01*
X20644D01*
X21696Y141248D01*
X21867Y141347D01*
X27356Y135857D01*
Y130484D01*
X26895Y130292D01*
X23853Y133334D01*
X23952Y133504D01*
X24234Y134556D01*
Y135644D01*
X23952Y136696D01*
X23408Y137638D01*
X22638Y138408D01*
X21696Y138952D01*
X20644Y139234D01*
X19556D01*
X18504Y138952D01*
X17562Y138408D01*
X16792Y137638D01*
X16248Y136696D01*
X15966Y135644D01*
Y134556D01*
X16248Y133504D01*
X16792Y132562D01*
X17562Y131792D01*
X18504Y131248D01*
X19556Y130966D01*
X20644D01*
X21696Y131248D01*
X21867Y131347D01*
X25388Y127825D01*
Y122452D01*
X24926Y122261D01*
X23853Y123334D01*
X23952Y123504D01*
X24234Y124556D01*
Y125644D01*
X23952Y126696D01*
X23408Y127638D01*
X22638Y128408D01*
X21696Y128952D01*
X20644Y129234D01*
X19556D01*
X18504Y128952D01*
X17562Y128408D01*
X16792Y127638D01*
X16248Y126696D01*
X15966Y125644D01*
Y124556D01*
X16248Y123504D01*
X16792Y122562D01*
X17562Y121792D01*
X18504Y121248D01*
X19556Y120966D01*
X20644D01*
X21696Y121248D01*
X21867Y121347D01*
X23419Y119794D01*
Y118334D01*
X22919Y118127D01*
X22638Y118408D01*
X21696Y118952D01*
X20644Y119234D01*
X19556D01*
X18504Y118952D01*
X17562Y118408D01*
X16792Y117638D01*
X16248Y116696D01*
X15966Y115644D01*
Y114556D01*
X16160Y113831D01*
X11605Y109276D01*
X11116Y109493D01*
X11118Y109550D01*
X11114Y109575D01*
X11119Y109600D01*
X11119Y295600D01*
X11120Y296434D01*
X11446Y298072D01*
X12086Y299614D01*
X13014Y301002D01*
X14195Y302182D01*
X15584Y303110D01*
X17127Y303748D01*
X18765Y304073D01*
X19600Y304073D01*
D02*
G37*
G36*
X50766Y94072D02*
Y93747D01*
X51036Y93095D01*
X51196Y92935D01*
Y89029D01*
X49973Y87806D01*
X49668Y87350D01*
X49561Y86812D01*
Y71773D01*
X49668Y71236D01*
X49973Y70780D01*
X54606Y66146D01*
X54415Y65684D01*
X54405D01*
X53676Y65382D01*
X53118Y64824D01*
X52859Y64200D01*
X54800D01*
Y63700D01*
X55300D01*
Y61759D01*
X55924Y62018D01*
X56482Y62576D01*
X56784Y63305D01*
Y63315D01*
X57246Y63506D01*
X57895Y62858D01*
X58351Y62553D01*
X58889Y62446D01*
X65767D01*
X71787Y56426D01*
X71557Y55567D01*
Y54633D01*
X71798Y53732D01*
X72265Y52924D01*
X72924Y52265D01*
X73201Y52105D01*
X73067Y51605D01*
X63482D01*
X53564Y61523D01*
X53847Y61947D01*
X54300Y61759D01*
Y63200D01*
X52859D01*
X53047Y62747D01*
X52623Y62464D01*
X43834Y71253D01*
X44092Y71702D01*
X44633Y71557D01*
X45566D01*
X46468Y71798D01*
X47276Y72265D01*
X47935Y72924D01*
X48402Y73732D01*
X48643Y74634D01*
Y75567D01*
X48402Y76468D01*
X47935Y77276D01*
X47276Y77935D01*
X46468Y78402D01*
X45566Y78643D01*
X44633D01*
X43732Y78402D01*
X42924Y77935D01*
X42265Y77276D01*
X41845Y76549D01*
X41794Y76531D01*
X41305Y76780D01*
Y83641D01*
X41798Y83732D01*
X42265Y82924D01*
X42924Y82265D01*
X43732Y81798D01*
X44633Y81557D01*
X45566D01*
X46468Y81798D01*
X47276Y82265D01*
X47935Y82924D01*
X48402Y83732D01*
X48643Y84633D01*
Y85567D01*
X48402Y86468D01*
X47935Y87276D01*
X47276Y87935D01*
X46468Y88402D01*
X45566Y88643D01*
X45337D01*
X45130Y89143D01*
X50266Y94279D01*
X50766Y94072D01*
D02*
G37*
%LPC*%
G36*
X24446Y299447D02*
X20600D01*
Y295600D01*
X24446D01*
Y299447D01*
D02*
G37*
G36*
X19600D02*
X15754D01*
Y295600D01*
X19600D01*
Y299447D01*
D02*
G37*
G36*
X24446Y294600D02*
X20600D01*
Y290754D01*
X24446D01*
Y294600D01*
D02*
G37*
G36*
X19600D02*
X15754D01*
Y290754D01*
X19600D01*
Y294600D01*
D02*
G37*
G36*
X20644Y289234D02*
X19556D01*
X18504Y288952D01*
X17562Y288408D01*
X16792Y287638D01*
X16248Y286696D01*
X15966Y285644D01*
Y284556D01*
X16248Y283504D01*
X16792Y282562D01*
X17562Y281792D01*
X18504Y281248D01*
X19556Y280966D01*
X20644D01*
X21696Y281248D01*
X22638Y281792D01*
X23408Y282562D01*
X23952Y283504D01*
X24234Y284556D01*
Y285644D01*
X23952Y286696D01*
X23408Y287638D01*
X22638Y288408D01*
X21696Y288952D01*
X20644Y289234D01*
D02*
G37*
G36*
Y279234D02*
X19556D01*
X18504Y278952D01*
X17562Y278408D01*
X16792Y277638D01*
X16248Y276696D01*
X15966Y275644D01*
Y274556D01*
X16248Y273504D01*
X16792Y272562D01*
X17562Y271792D01*
X18504Y271248D01*
X19556Y270966D01*
X20644D01*
X21696Y271248D01*
X22638Y271792D01*
X23408Y272562D01*
X23952Y273504D01*
X24234Y274556D01*
Y275644D01*
X23952Y276696D01*
X23408Y277638D01*
X22638Y278408D01*
X21696Y278952D01*
X20644Y279234D01*
D02*
G37*
G36*
Y269234D02*
X19556D01*
X18504Y268952D01*
X17562Y268408D01*
X16792Y267638D01*
X16248Y266696D01*
X15966Y265644D01*
Y264556D01*
X16248Y263504D01*
X16792Y262562D01*
X17562Y261792D01*
X18504Y261248D01*
X19556Y260966D01*
X20644D01*
X21696Y261248D01*
X22638Y261792D01*
X23408Y262562D01*
X23952Y263504D01*
X24234Y264556D01*
Y265644D01*
X23952Y266696D01*
X23408Y267638D01*
X22638Y268408D01*
X21696Y268952D01*
X20644Y269234D01*
D02*
G37*
G36*
Y259234D02*
X19556D01*
X18504Y258952D01*
X17562Y258408D01*
X16792Y257638D01*
X16248Y256696D01*
X15966Y255644D01*
Y254556D01*
X16248Y253504D01*
X16792Y252562D01*
X17562Y251792D01*
X18504Y251248D01*
X19556Y250966D01*
X20644D01*
X21696Y251248D01*
X22638Y251792D01*
X23408Y252562D01*
X23952Y253504D01*
X24234Y254556D01*
Y255644D01*
X23952Y256696D01*
X23408Y257638D01*
X22638Y258408D01*
X21696Y258952D01*
X20644Y259234D01*
D02*
G37*
G36*
Y249234D02*
X19556D01*
X18504Y248952D01*
X17562Y248408D01*
X16792Y247638D01*
X16248Y246696D01*
X15966Y245644D01*
Y244556D01*
X16248Y243504D01*
X16792Y242562D01*
X17562Y241792D01*
X18504Y241248D01*
X19556Y240966D01*
X20644D01*
X21696Y241248D01*
X22638Y241792D01*
X23408Y242562D01*
X23952Y243504D01*
X24234Y244556D01*
Y245644D01*
X23952Y246696D01*
X23408Y247638D01*
X22638Y248408D01*
X21696Y248952D01*
X20644Y249234D01*
D02*
G37*
G36*
X80644Y239234D02*
X79556D01*
X78504Y238952D01*
X77562Y238408D01*
X76792Y237638D01*
X76248Y236696D01*
X75966Y235644D01*
Y234556D01*
X76248Y233504D01*
X76792Y232562D01*
X77562Y231792D01*
X78504Y231248D01*
X79556Y230966D01*
X80644D01*
X81696Y231248D01*
X82638Y231792D01*
X83408Y232562D01*
X83952Y233504D01*
X84234Y234556D01*
Y235644D01*
X83952Y236696D01*
X83408Y237638D01*
X82638Y238408D01*
X81696Y238952D01*
X80644Y239234D01*
D02*
G37*
G36*
X20644D02*
X19556D01*
X18504Y238952D01*
X17562Y238408D01*
X16792Y237638D01*
X16248Y236696D01*
X15966Y235644D01*
Y234556D01*
X16248Y233504D01*
X16792Y232562D01*
X17562Y231792D01*
X18504Y231248D01*
X19556Y230966D01*
X20644D01*
X21696Y231248D01*
X22638Y231792D01*
X23408Y232562D01*
X23952Y233504D01*
X24234Y234556D01*
Y235644D01*
X23952Y236696D01*
X23408Y237638D01*
X22638Y238408D01*
X21696Y238952D01*
X20644Y239234D01*
D02*
G37*
G36*
X80644Y229234D02*
X79556D01*
X78504Y228952D01*
X77562Y228408D01*
X76792Y227638D01*
X76248Y226696D01*
X75966Y225644D01*
Y224556D01*
X76248Y223504D01*
X76792Y222562D01*
X77562Y221792D01*
X78504Y221248D01*
X79556Y220966D01*
X80644D01*
X81696Y221248D01*
X82638Y221792D01*
X83408Y222562D01*
X83952Y223504D01*
X84234Y224556D01*
Y225644D01*
X83952Y226696D01*
X83408Y227638D01*
X82638Y228408D01*
X81696Y228952D01*
X80644Y229234D01*
D02*
G37*
G36*
X20644D02*
X19556D01*
X18504Y228952D01*
X17562Y228408D01*
X16792Y227638D01*
X16248Y226696D01*
X15966Y225644D01*
Y224556D01*
X16248Y223504D01*
X16792Y222562D01*
X17562Y221792D01*
X18504Y221248D01*
X19556Y220966D01*
X20644D01*
X21696Y221248D01*
X22638Y221792D01*
X23408Y222562D01*
X23952Y223504D01*
X24234Y224556D01*
Y225644D01*
X23952Y226696D01*
X23408Y227638D01*
X22638Y228408D01*
X21696Y228952D01*
X20644Y229234D01*
D02*
G37*
G36*
X80644Y219234D02*
X79556D01*
X78504Y218952D01*
X77562Y218408D01*
X76792Y217638D01*
X76248Y216696D01*
X75966Y215644D01*
Y214556D01*
X76248Y213504D01*
X76792Y212562D01*
X77562Y211792D01*
X78504Y211248D01*
X79556Y210966D01*
X80644D01*
X81696Y211248D01*
X82638Y211792D01*
X83408Y212562D01*
X83952Y213504D01*
X84234Y214556D01*
Y215644D01*
X83952Y216696D01*
X83408Y217638D01*
X82638Y218408D01*
X81696Y218952D01*
X80644Y219234D01*
D02*
G37*
G36*
X20644D02*
X19556D01*
X18504Y218952D01*
X17562Y218408D01*
X16792Y217638D01*
X16248Y216696D01*
X15966Y215644D01*
Y214556D01*
X16248Y213504D01*
X16792Y212562D01*
X17562Y211792D01*
X18504Y211248D01*
X19556Y210966D01*
X20644D01*
X21696Y211248D01*
X22638Y211792D01*
X23408Y212562D01*
X23952Y213504D01*
X24234Y214556D01*
Y215644D01*
X23952Y216696D01*
X23408Y217638D01*
X22638Y218408D01*
X21696Y218952D01*
X20644Y219234D01*
D02*
G37*
G36*
X80644Y209234D02*
X79556D01*
X78504Y208952D01*
X77562Y208408D01*
X76792Y207638D01*
X76248Y206696D01*
X75966Y205644D01*
Y204556D01*
X76248Y203504D01*
X76792Y202562D01*
X77562Y201792D01*
X78504Y201248D01*
X79556Y200966D01*
X80644D01*
X81696Y201248D01*
X82638Y201792D01*
X83408Y202562D01*
X83952Y203504D01*
X84234Y204556D01*
Y205644D01*
X83952Y206696D01*
X83408Y207638D01*
X82638Y208408D01*
X81696Y208952D01*
X80644Y209234D01*
D02*
G37*
G36*
X20644D02*
X19556D01*
X18504Y208952D01*
X17562Y208408D01*
X16792Y207638D01*
X16248Y206696D01*
X15966Y205644D01*
Y204556D01*
X16248Y203504D01*
X16792Y202562D01*
X17562Y201792D01*
X18504Y201248D01*
X19556Y200966D01*
X20644D01*
X21696Y201248D01*
X22638Y201792D01*
X23408Y202562D01*
X23952Y203504D01*
X24234Y204556D01*
Y205644D01*
X23952Y206696D01*
X23408Y207638D01*
X22638Y208408D01*
X21696Y208952D01*
X20644Y209234D01*
D02*
G37*
G36*
X80644Y199234D02*
X79556D01*
X78504Y198952D01*
X77562Y198408D01*
X76792Y197638D01*
X76248Y196696D01*
X75966Y195644D01*
Y194556D01*
X76248Y193504D01*
X76792Y192562D01*
X77562Y191792D01*
X78504Y191248D01*
X79556Y190966D01*
X80644D01*
X81696Y191248D01*
X82638Y191792D01*
X83408Y192562D01*
X83952Y193504D01*
X84234Y194556D01*
Y195644D01*
X83952Y196696D01*
X83408Y197638D01*
X82638Y198408D01*
X81696Y198952D01*
X80644Y199234D01*
D02*
G37*
G36*
X20644D02*
X19556D01*
X18504Y198952D01*
X17562Y198408D01*
X16792Y197638D01*
X16248Y196696D01*
X15966Y195644D01*
Y194556D01*
X16248Y193504D01*
X16792Y192562D01*
X17562Y191792D01*
X18504Y191248D01*
X19556Y190966D01*
X20644D01*
X21696Y191248D01*
X22638Y191792D01*
X23408Y192562D01*
X23952Y193504D01*
X24234Y194556D01*
Y195644D01*
X23952Y196696D01*
X23408Y197638D01*
X22638Y198408D01*
X21696Y198952D01*
X20644Y199234D01*
D02*
G37*
G36*
X80644Y189234D02*
X79556D01*
X78504Y188952D01*
X77562Y188408D01*
X76792Y187638D01*
X76248Y186696D01*
X75966Y185644D01*
Y184556D01*
X76248Y183504D01*
X76792Y182562D01*
X77562Y181792D01*
X78504Y181248D01*
X79556Y180966D01*
X80644D01*
X81696Y181248D01*
X82638Y181792D01*
X83408Y182562D01*
X83952Y183504D01*
X84234Y184556D01*
Y185644D01*
X83952Y186696D01*
X83408Y187638D01*
X82638Y188408D01*
X81696Y188952D01*
X80644Y189234D01*
D02*
G37*
G36*
X20644D02*
X19556D01*
X18504Y188952D01*
X17562Y188408D01*
X16792Y187638D01*
X16248Y186696D01*
X15966Y185644D01*
Y184556D01*
X16248Y183504D01*
X16792Y182562D01*
X17562Y181792D01*
X18504Y181248D01*
X19556Y180966D01*
X20644D01*
X21696Y181248D01*
X22638Y181792D01*
X23408Y182562D01*
X23952Y183504D01*
X24234Y184556D01*
Y185644D01*
X23952Y186696D01*
X23408Y187638D01*
X22638Y188408D01*
X21696Y188952D01*
X20644Y189234D01*
D02*
G37*
G36*
X80644Y179234D02*
X79556D01*
X78504Y178952D01*
X77562Y178408D01*
X76792Y177638D01*
X76248Y176696D01*
X75966Y175644D01*
Y174556D01*
X76248Y173504D01*
X76792Y172562D01*
X77562Y171792D01*
X78504Y171248D01*
X79556Y170966D01*
X80644D01*
X81696Y171248D01*
X82638Y171792D01*
X83408Y172562D01*
X83952Y173504D01*
X84234Y174556D01*
Y175644D01*
X83952Y176696D01*
X83408Y177638D01*
X82638Y178408D01*
X81696Y178952D01*
X80644Y179234D01*
D02*
G37*
G36*
Y169234D02*
X79556D01*
X78504Y168952D01*
X77562Y168408D01*
X76792Y167638D01*
X76248Y166696D01*
X75966Y165644D01*
Y164556D01*
X76248Y163504D01*
X76792Y162562D01*
X77562Y161792D01*
X78504Y161248D01*
X79556Y160966D01*
X80644D01*
X81696Y161248D01*
X82638Y161792D01*
X83408Y162562D01*
X83952Y163504D01*
X84234Y164556D01*
Y165644D01*
X83952Y166696D01*
X83408Y167638D01*
X82638Y168408D01*
X81696Y168952D01*
X80644Y169234D01*
D02*
G37*
G36*
Y159234D02*
X79556D01*
X78504Y158952D01*
X77562Y158408D01*
X76792Y157638D01*
X76248Y156696D01*
X75966Y155644D01*
Y154556D01*
X76248Y153504D01*
X76792Y152562D01*
X77562Y151792D01*
X78504Y151248D01*
X79556Y150966D01*
X80644D01*
X81696Y151248D01*
X82638Y151792D01*
X83408Y152562D01*
X83952Y153504D01*
X84234Y154556D01*
Y155644D01*
X83952Y156696D01*
X83408Y157638D01*
X82638Y158408D01*
X81696Y158952D01*
X80644Y159234D01*
D02*
G37*
G36*
X58856Y78856D02*
X55600D01*
Y75600D01*
X58856D01*
Y78856D01*
D02*
G37*
G36*
Y74600D02*
X55600D01*
Y71344D01*
X58856D01*
Y74600D01*
D02*
G37*
G36*
X79900Y71241D02*
Y69800D01*
X81341D01*
X81082Y70424D01*
X80524Y70982D01*
X79900Y71241D01*
D02*
G37*
G36*
X78900D02*
X78276Y70982D01*
X77718Y70424D01*
X77459Y69800D01*
X78900D01*
Y71241D01*
D02*
G37*
G36*
Y68800D02*
X77459D01*
X77718Y68176D01*
X77347Y67864D01*
X77276Y67935D01*
X76468Y68402D01*
X75567Y68643D01*
X74634D01*
X73732Y68402D01*
X72924Y67935D01*
X72265Y67276D01*
X71798Y66468D01*
X71557Y65566D01*
Y64634D01*
X71798Y63732D01*
X72265Y62924D01*
X72924Y62265D01*
X73732Y61798D01*
X74634Y61557D01*
X75567D01*
X76468Y61798D01*
X77276Y62265D01*
X77935Y62924D01*
X78402Y63732D01*
X78643Y64634D01*
Y65566D01*
X78402Y66468D01*
X77935Y67276D01*
X78276Y67618D01*
X78900Y67359D01*
Y68800D01*
D02*
G37*
G36*
X81341D02*
X79900D01*
Y67359D01*
X80524Y67618D01*
X81082Y68176D01*
X81341Y68800D01*
D02*
G37*
G36*
X67641Y68600D02*
X66200D01*
Y67159D01*
X66824Y67418D01*
X67382Y67976D01*
X67641Y68600D01*
D02*
G37*
G36*
X65200D02*
X63759D01*
X64018Y67976D01*
X64576Y67418D01*
X65200Y67159D01*
Y68600D01*
D02*
G37*
G36*
X85567Y48643D02*
X84633D01*
X83732Y48402D01*
X82924Y47935D01*
X82265Y47276D01*
X81798Y46468D01*
X81557Y45566D01*
Y44633D01*
X81798Y43732D01*
X82265Y42924D01*
X82924Y42265D01*
X83732Y41798D01*
X84633Y41557D01*
X85567D01*
X86468Y41798D01*
X87276Y42265D01*
X87935Y42924D01*
X88402Y43732D01*
X88643Y44633D01*
Y45566D01*
X88402Y46468D01*
X87935Y47276D01*
X87276Y47935D01*
X86468Y48402D01*
X85567Y48643D01*
D02*
G37*
G36*
Y38643D02*
X84633D01*
X83732Y38402D01*
X82924Y37935D01*
X82265Y37276D01*
X81798Y36468D01*
X81557Y35566D01*
Y34633D01*
X81798Y33732D01*
X82265Y32924D01*
X82924Y32265D01*
X83732Y31798D01*
X84633Y31557D01*
X85567D01*
X86468Y31798D01*
X87276Y32265D01*
X87935Y32924D01*
X88402Y33732D01*
X88643Y34633D01*
Y35566D01*
X88402Y36468D01*
X87935Y37276D01*
X87276Y37935D01*
X86468Y38402D01*
X85567Y38643D01*
D02*
G37*
G36*
X75567D02*
X74634D01*
X73732Y38402D01*
X72924Y37935D01*
X72265Y37276D01*
X71798Y36468D01*
X71557Y35566D01*
Y34633D01*
X71798Y33732D01*
X72265Y32924D01*
X72924Y32265D01*
X73732Y31798D01*
X74634Y31557D01*
X75567D01*
X76468Y31798D01*
X77276Y32265D01*
X77935Y32924D01*
X78402Y33732D01*
X78643Y34633D01*
Y35566D01*
X78402Y36468D01*
X77935Y37276D01*
X77276Y37935D01*
X76468Y38402D01*
X75567Y38643D01*
D02*
G37*
G36*
X85567Y28643D02*
X84633D01*
X83732Y28402D01*
X82924Y27935D01*
X82265Y27276D01*
X81798Y26468D01*
X81557Y25567D01*
Y24633D01*
X81798Y23732D01*
X82265Y22924D01*
X82924Y22265D01*
X83732Y21798D01*
X84633Y21557D01*
X85567D01*
X86468Y21798D01*
X87276Y22265D01*
X87935Y22924D01*
X88402Y23732D01*
X88643Y24633D01*
Y25567D01*
X88402Y26468D01*
X87935Y27276D01*
X87276Y27935D01*
X86468Y28402D01*
X85567Y28643D01*
D02*
G37*
G36*
X75567D02*
X74634D01*
X73732Y28402D01*
X72924Y27935D01*
X72265Y27276D01*
X71798Y26468D01*
X71557Y25567D01*
Y24633D01*
X71798Y23732D01*
X72265Y22924D01*
X72924Y22265D01*
X73732Y21798D01*
X74634Y21557D01*
X75567D01*
X76468Y21798D01*
X77276Y22265D01*
X77935Y22924D01*
X78402Y23732D01*
X78643Y24633D01*
Y25567D01*
X78402Y26468D01*
X77935Y27276D01*
X77276Y27935D01*
X76468Y28402D01*
X75567Y28643D01*
D02*
G37*
G36*
X35566D02*
X34633D01*
X33732Y28402D01*
X32924Y27935D01*
X32265Y27276D01*
X31798Y26468D01*
X31557Y25567D01*
Y24633D01*
X31798Y23732D01*
X32265Y22924D01*
X32924Y22265D01*
X33732Y21798D01*
X34633Y21557D01*
X35566D01*
X36468Y21798D01*
X37276Y22265D01*
X37935Y22924D01*
X38402Y23732D01*
X38643Y24633D01*
Y25567D01*
X38402Y26468D01*
X37935Y27276D01*
X37276Y27935D01*
X36468Y28402D01*
X35566Y28643D01*
D02*
G37*
G36*
X66100Y58541D02*
Y57100D01*
X67541D01*
X67282Y57724D01*
X66724Y58282D01*
X66100Y58541D01*
D02*
G37*
G36*
X65100D02*
X64476Y58282D01*
X63918Y57724D01*
X63659Y57100D01*
X65100D01*
Y58541D01*
D02*
G37*
G36*
X67541Y56100D02*
X66100D01*
Y54659D01*
X66724Y54918D01*
X67282Y55476D01*
X67541Y56100D01*
D02*
G37*
G36*
X65100D02*
X63659D01*
X63918Y55476D01*
X64476Y54918D01*
X65100Y54659D01*
Y56100D01*
D02*
G37*
%LPD*%
D16*
X40966Y72134D02*
Y74734D01*
Y72134D02*
X62900Y50200D01*
X76046D01*
X55100Y85557D02*
X57500Y87957D01*
Y272500D02*
X80100Y295100D01*
X55100Y85100D02*
Y85557D01*
X57500Y87957D02*
Y272500D01*
X59469Y264469D02*
X80100Y285100D01*
X59469Y87948D02*
Y264469D01*
Y87948D02*
X60966Y86450D01*
X19200Y81900D02*
X19234Y81866D01*
Y39234D02*
Y81866D01*
X25474Y49628D02*
X29234Y53388D01*
X25100Y45100D02*
X25474Y45474D01*
X52538Y94099D02*
X52601Y94036D01*
X29234Y96417D02*
X34667Y101850D01*
X64726Y75474D02*
Y79628D01*
X60966Y83388D02*
Y86450D01*
X19200Y81900D02*
Y89167D01*
X50966Y86812D02*
X52601Y88447D01*
Y94036D01*
X60966Y83388D02*
X64726Y79628D01*
Y75474D02*
X65100Y75100D01*
X29234Y53388D02*
Y96417D01*
X39900Y75800D02*
Y85900D01*
X50966Y71773D02*
Y86812D01*
X25474Y45474D02*
Y49628D01*
X39900Y85900D02*
X51100Y97100D01*
X19200Y89167D02*
X32698Y102665D01*
X63500Y248500D02*
X80100Y265100D01*
X61500Y88700D02*
X65100Y85100D01*
X61500Y88700D02*
Y256500D01*
X63500Y93916D02*
X69234Y88182D01*
X61500Y256500D02*
X80100Y275100D01*
X63500Y93916D02*
Y248500D01*
X81986Y96532D02*
X85452D01*
X67500Y99883D02*
Y232500D01*
X69470Y134470D02*
X80100Y145100D01*
X65500Y240500D02*
X80100Y255100D01*
X79540Y90627D02*
X83005D01*
X69470Y100697D02*
Y134470D01*
X67500Y99883D02*
X79234Y88149D01*
X67500Y232500D02*
X80100Y245100D01*
X65500Y94700D02*
Y240500D01*
Y94700D02*
X75100Y85100D01*
X69470Y100697D02*
X79540Y90627D01*
X71439Y101512D02*
X80356Y92595D01*
X71439Y101512D02*
Y126439D01*
X80100Y135100D01*
X73407Y102328D02*
X81171Y94564D01*
X84636D01*
X73407Y102328D02*
Y118407D01*
X80100Y125100D01*
X75376Y103143D02*
Y110376D01*
Y103143D02*
X81986Y96532D01*
X75376Y110376D02*
X80100Y115100D01*
X80356Y92595D02*
X83821D01*
X79234Y80966D02*
Y88149D01*
X69234Y80966D02*
Y88182D01*
X76046Y50200D02*
X80542Y54696D01*
Y56388D01*
X84726Y60572D01*
Y64726D01*
X85100Y65100D01*
X39900Y75800D02*
X40966Y74734D01*
X58889Y63851D02*
X66349D01*
X50966Y71773D02*
X58889Y63851D01*
X66349D02*
X75100Y55100D01*
X79234Y80966D02*
X85100Y75100D01*
X69234Y80966D02*
X75100Y75100D01*
X94573Y15131D02*
Y84627D01*
X96541Y14315D02*
Y85443D01*
X98510Y13500D02*
Y86690D01*
X92604Y15946D02*
Y83812D01*
X90636Y16761D02*
Y82997D01*
X83005Y90627D02*
X90636Y82997D01*
X83821Y92595D02*
X92604Y83812D01*
X80100Y105100D02*
X98510Y86690D01*
X84254Y7596D02*
X92604Y15946D01*
X68072Y5627D02*
X85069D01*
X86700Y1691D02*
X98510Y13500D01*
X85452Y96532D02*
X96541Y85443D01*
X84636Y94564D02*
X94573Y84627D01*
X66541Y3659D02*
X85885D01*
X83438Y9565D02*
X90636Y16761D01*
X73419Y9565D02*
X83438D01*
X69674Y13310D02*
Y20526D01*
Y13310D02*
X73419Y9565D01*
X65100Y25100D02*
X69674Y20526D01*
X72604Y7596D02*
X84254D01*
X61226Y1691D02*
X86700D01*
X65100Y15100D02*
X72604Y7596D01*
X85069Y5627D02*
X94573Y15131D01*
X85885Y3659D02*
X96541Y14315D01*
X50966Y11950D02*
X61226Y1691D01*
X50966Y11950D02*
Y15080D01*
X55100Y15100D02*
X66541Y3659D01*
X59234Y14466D02*
X68072Y5627D01*
X59234Y14466D02*
Y20966D01*
X55100Y25100D02*
X59234Y20966D01*
X45474Y20572D02*
X50966Y15080D01*
X45100Y25100D02*
X45474Y24726D01*
Y20572D02*
Y24726D01*
X20100Y175100D02*
X34667Y160533D01*
Y101850D02*
Y160533D01*
X15100Y35100D02*
X19234Y39234D01*
X28761Y104296D02*
Y136439D01*
X26793Y105112D02*
Y128407D01*
X10966Y70934D02*
Y83717D01*
X7029Y85348D02*
X26793Y105112D01*
X8998Y84532D02*
X28761Y104296D01*
X10966Y83717D02*
X30730Y103481D01*
Y144470D01*
X8998Y31202D02*
Y84532D01*
X22057Y110376D02*
X24824Y113143D01*
X17476Y110376D02*
X22057D01*
X24824Y113143D02*
Y120376D01*
X32698Y102665D02*
Y152502D01*
X20100Y165100D02*
X32698Y152502D01*
X16255Y29789D02*
X20737Y34271D01*
X14111Y29789D02*
X16255D01*
X10966Y32934D02*
X14111Y29789D01*
X24271Y34271D02*
X25100Y35100D01*
X20737Y34271D02*
X24271D01*
X10966Y32934D02*
Y66812D01*
X11000Y66846D02*
Y70900D01*
X10966Y66812D02*
X11000Y66846D01*
X8998Y31202D02*
X15100Y25100D01*
X3092Y22808D02*
X17469Y8432D01*
X5061Y97961D02*
X17476Y110376D01*
X3092Y98776D02*
X19416Y115100D01*
X5061Y23623D02*
X18284Y10400D01*
X10966Y70934D02*
X11000Y70900D01*
X7029Y24439D02*
X16368Y15100D01*
X5061Y23623D02*
Y97961D01*
X3092Y22808D02*
Y98776D01*
X7029Y24439D02*
Y85348D01*
X20100Y155100D02*
X30730Y144470D01*
X20100Y145100D02*
X28761Y136439D01*
X16368Y15100D02*
X25100D01*
X20100Y135100D02*
X26793Y128407D01*
X20100Y125100D02*
X24824Y120376D01*
X25100Y25100D02*
X30300Y19900D01*
Y14454D02*
Y19900D01*
X25900Y10400D02*
X26466Y10966D01*
X26812D01*
X30300Y14454D01*
X28431Y8432D02*
X35100Y15100D01*
X18284Y10400D02*
X25900D01*
X17469Y8432D02*
X28431D01*
X19416Y115100D02*
X20100D01*
D18*
X55100Y75100D02*
D03*
D19*
X45100Y85100D02*
D03*
Y75100D02*
D03*
X35100Y85100D02*
D03*
Y75100D02*
D03*
X25100Y85100D02*
D03*
X15100Y75100D02*
D03*
X25100D02*
D03*
X15100Y65100D02*
D03*
X25100D02*
D03*
X15100Y55100D02*
D03*
X25100D02*
D03*
X15100Y45100D02*
D03*
X25100D02*
D03*
X15100Y35100D02*
D03*
X25100D02*
D03*
X15100Y25100D02*
D03*
X25100Y15100D02*
D03*
Y25100D02*
D03*
X35100Y15100D02*
D03*
Y25100D02*
D03*
X45100Y15100D02*
D03*
Y25100D02*
D03*
X55100Y15100D02*
D03*
Y25100D02*
D03*
X65100Y15100D02*
D03*
Y25100D02*
D03*
X75100Y15100D02*
D03*
X85100Y25100D02*
D03*
X75100D02*
D03*
X85100Y35100D02*
D03*
X75100D02*
D03*
X85100Y45100D02*
D03*
X75100D02*
D03*
X85100Y55100D02*
D03*
X75100D02*
D03*
X85100Y65100D02*
D03*
X75100D02*
D03*
X85100Y75100D02*
D03*
X75100Y85100D02*
D03*
Y75100D02*
D03*
X65100Y85100D02*
D03*
Y75100D02*
D03*
X55100Y85100D02*
D03*
D20*
X80100Y105100D02*
D03*
Y115100D02*
D03*
Y125100D02*
D03*
Y135100D02*
D03*
Y145100D02*
D03*
Y225100D02*
D03*
Y235100D02*
D03*
Y245100D02*
D03*
Y255100D02*
D03*
Y265100D02*
D03*
Y275100D02*
D03*
Y285100D02*
D03*
Y215100D02*
D03*
Y205100D02*
D03*
Y195100D02*
D03*
Y185100D02*
D03*
Y175100D02*
D03*
Y165100D02*
D03*
Y155100D02*
D03*
X20100Y105100D02*
D03*
Y115100D02*
D03*
Y125100D02*
D03*
Y135100D02*
D03*
Y145100D02*
D03*
Y225100D02*
D03*
Y235100D02*
D03*
Y245100D02*
D03*
Y255100D02*
D03*
Y265100D02*
D03*
Y275100D02*
D03*
Y285100D02*
D03*
Y215100D02*
D03*
Y205100D02*
D03*
Y195100D02*
D03*
Y185100D02*
D03*
Y175100D02*
D03*
Y165100D02*
D03*
Y155100D02*
D03*
D21*
X80100Y295100D02*
D03*
X20100D02*
D03*
D22*
X79400Y69300D02*
D03*
X65600Y56600D02*
D03*
X65700Y69100D02*
D03*
X54800Y63700D02*
D03*
X52538Y94099D02*
D03*
X51100Y97100D02*
D03*
M02*
