M48
;Layer_Color=9474304
;FILE_FORMAT=2:5
INCH,TZ
;TYPE=PLATED
T1F00S00C0.01181
T2F00S00C0.03150
%
T01
X54800Y63700
X65700Y69100
X65600Y56600
X79400Y69300
X52538Y94099
X51100Y97100
T02
X15100Y25100
Y35100
Y45100
Y55100
Y65100
Y75100
X25100
X35100
X45100
X55100
X65100
X75100
Y65100
Y55100
Y45100
Y35100
Y25100
X65100
X55100
X45100
X35100
X25100
Y35100
Y45100
Y55100
Y65100
Y85100
X35100
X45100
X55100
X65100
X75100
X85100Y75100
Y65100
Y55100
Y45100
Y35100
Y25100
X75100Y15100
X65100
X55100
X45100
X35100
X25100
X20100Y105100
Y115100
Y125100
Y135100
Y145100
Y155100
Y165100
Y175100
Y185100
Y195100
Y205100
Y215100
Y225100
Y235100
Y245100
X80100
Y235100
Y225100
Y215100
Y205100
Y195100
Y185100
Y175100
Y165100
Y155100
Y145100
Y135100
Y125100
Y115100
Y105100
Y255100
Y265100
Y275100
Y285100
Y295100
X20100
Y285100
Y275100
Y265100
Y255100
M30
