G04*
G04 #@! TF.GenerationSoftware,Altium Limited,Altium Designer,21.0.9 (235)*
G04*
G04 Layer_Color=16711935*
%FSLAX25Y25*%
%MOIN*%
G70*
G04*
G04 #@! TF.SameCoordinates,D00D0935-9F2D-4F80-BADC-0BB803B56EC7*
G04*
G04*
G04 #@! TF.FilePolarity,Negative*
G04*
G01*
G75*
%ADD12R,0.05811X0.05811*%
%ADD13C,0.05811*%
%ADD14C,0.06992*%
%ADD15R,0.06992X0.06992*%
D12*
X55100Y75100D02*
D03*
D13*
X45100Y85100D02*
D03*
Y75100D02*
D03*
X35100Y85100D02*
D03*
Y75100D02*
D03*
X25100Y85100D02*
D03*
X15100Y75100D02*
D03*
X25100D02*
D03*
X15100Y65100D02*
D03*
X25100D02*
D03*
X15100Y55100D02*
D03*
X25100D02*
D03*
X15100Y45100D02*
D03*
X25100D02*
D03*
X15100Y35100D02*
D03*
X25100D02*
D03*
X15100Y25100D02*
D03*
X25100Y15100D02*
D03*
Y25100D02*
D03*
X35100Y15100D02*
D03*
Y25100D02*
D03*
X45100Y15100D02*
D03*
Y25100D02*
D03*
X55100Y15100D02*
D03*
Y25100D02*
D03*
X65100Y15100D02*
D03*
Y25100D02*
D03*
X75100Y15100D02*
D03*
X85100Y25100D02*
D03*
X75100D02*
D03*
X85100Y35100D02*
D03*
X75100D02*
D03*
X85100Y45100D02*
D03*
X75100D02*
D03*
X85100Y55100D02*
D03*
X75100D02*
D03*
X85100Y65100D02*
D03*
X75100D02*
D03*
X85100Y75100D02*
D03*
X75100Y85100D02*
D03*
Y75100D02*
D03*
X65100Y85100D02*
D03*
Y75100D02*
D03*
X55100Y85100D02*
D03*
D14*
X80100Y105100D02*
D03*
Y115100D02*
D03*
Y125100D02*
D03*
Y135100D02*
D03*
Y145100D02*
D03*
Y225100D02*
D03*
Y235100D02*
D03*
Y245100D02*
D03*
Y255100D02*
D03*
Y265100D02*
D03*
Y275100D02*
D03*
Y285100D02*
D03*
Y215100D02*
D03*
Y205100D02*
D03*
Y195100D02*
D03*
Y185100D02*
D03*
Y175100D02*
D03*
Y165100D02*
D03*
Y155100D02*
D03*
X20100Y105100D02*
D03*
Y115100D02*
D03*
Y125100D02*
D03*
Y135100D02*
D03*
Y145100D02*
D03*
Y225100D02*
D03*
Y235100D02*
D03*
Y245100D02*
D03*
Y255100D02*
D03*
Y265100D02*
D03*
Y275100D02*
D03*
Y285100D02*
D03*
Y215100D02*
D03*
Y205100D02*
D03*
Y195100D02*
D03*
Y185100D02*
D03*
Y175100D02*
D03*
Y165100D02*
D03*
Y155100D02*
D03*
D15*
X80100Y295100D02*
D03*
X20100D02*
D03*
M02*
