G04*
G04 #@! TF.GenerationSoftware,Altium Limited,Altium Designer,21.0.9 (235)*
G04*
G04 Layer_Color=32896*
%FSLAX25Y25*%
%MOIN*%
G70*
G04*
G04 #@! TF.SameCoordinates,D00D0935-9F2D-4F80-BADC-0BB803B56EC7*
G04*
G04*
G04 #@! TF.FilePolarity,Positive*
G04*
G01*
G75*
%ADD10C,0.00394*%
G36*
X52233Y279625D02*
X52026D01*
Y279573D01*
X51870D01*
Y279521D01*
X51715D01*
Y279470D01*
X51508D01*
Y279418D01*
X51352D01*
Y279366D01*
X51145D01*
Y279314D01*
X50938D01*
Y279262D01*
X50731D01*
Y279211D01*
X50575D01*
Y279159D01*
X50368D01*
Y279107D01*
X50212D01*
Y279055D01*
X50057D01*
Y279003D01*
X49850D01*
Y278952D01*
X49694D01*
Y278900D01*
X49435D01*
Y278848D01*
X49280D01*
Y278796D01*
X49073D01*
Y278744D01*
X48917D01*
Y278693D01*
X48710D01*
Y278641D01*
X48555D01*
Y278589D01*
X48399D01*
Y278537D01*
X48192D01*
Y278485D01*
X48037D01*
Y278433D01*
X47985D01*
Y278485D01*
X47933D01*
Y278433D01*
X47778D01*
Y278382D01*
X47570D01*
Y278330D01*
X47415D01*
Y278278D01*
X47260D01*
Y278226D01*
X47104D01*
Y278174D01*
X46897D01*
Y278123D01*
X46690D01*
Y278071D01*
X46534D01*
Y278019D01*
X46483D01*
Y278071D01*
X46431D01*
Y277967D01*
X46483D01*
Y277916D01*
X46586D01*
Y277864D01*
X46742D01*
Y277812D01*
X47052D01*
Y277760D01*
X47208D01*
Y277708D01*
X47415D01*
Y277657D01*
X47622D01*
Y277605D01*
X47778D01*
Y277553D01*
X47985D01*
Y277501D01*
X48192D01*
Y277449D01*
X48399D01*
Y277397D01*
X48658D01*
Y277346D01*
X48866D01*
Y277294D01*
X49021D01*
Y277242D01*
X49228D01*
Y277190D01*
X49435D01*
Y277138D01*
X49591D01*
Y277087D01*
X49798D01*
Y277035D01*
X50005D01*
Y276983D01*
X50264D01*
Y276931D01*
X50471D01*
Y276880D01*
X50679D01*
Y276828D01*
X50834D01*
Y276776D01*
X51041D01*
Y276724D01*
X51249D01*
Y276672D01*
X51404D01*
Y276621D01*
X51611D01*
Y276569D01*
X51818D01*
Y276517D01*
X52077D01*
Y276465D01*
X52233D01*
Y275170D01*
X52077D01*
Y275118D01*
X51922D01*
Y275066D01*
X51715D01*
Y275015D01*
X51559D01*
Y274963D01*
X51352D01*
Y274911D01*
X51197D01*
Y274859D01*
X50938D01*
Y274807D01*
X50731D01*
Y274756D01*
X50575D01*
Y274704D01*
X50368D01*
Y274652D01*
X50212D01*
Y274600D01*
X50057D01*
Y274548D01*
X49850D01*
Y274497D01*
X49591D01*
Y274445D01*
X49384D01*
Y274393D01*
X49228D01*
Y274341D01*
X49073D01*
Y274289D01*
X48866D01*
Y274237D01*
X48710D01*
Y274186D01*
X48503D01*
Y274134D01*
X48347D01*
Y274082D01*
X48140D01*
Y274030D01*
X47881D01*
Y273978D01*
X47726D01*
Y273927D01*
X47519D01*
Y273875D01*
X47363D01*
Y273823D01*
X47156D01*
Y273771D01*
X47001D01*
Y273720D01*
X46793D01*
Y273668D01*
X46638D01*
Y273616D01*
X46483D01*
Y273564D01*
X46431D01*
Y273512D01*
X46483D01*
Y273461D01*
X46690D01*
Y273409D01*
X46845D01*
Y273357D01*
X46897D01*
Y273409D01*
X46949D01*
Y273357D01*
X47104D01*
Y273305D01*
X47311D01*
Y273253D01*
X47519D01*
Y273201D01*
X47674D01*
Y273150D01*
X47881D01*
Y273098D01*
X48037D01*
Y273046D01*
X48244D01*
Y272994D01*
X48503D01*
Y272942D01*
X48607D01*
Y272891D01*
X48658D01*
Y272942D01*
X48710D01*
Y272891D01*
X48866D01*
Y272839D01*
X49073D01*
Y272787D01*
X49280D01*
Y272735D01*
X49435D01*
Y272684D01*
X49643D01*
Y272632D01*
X49798D01*
Y272580D01*
X50005D01*
Y272528D01*
X50264D01*
Y272476D01*
X50471D01*
Y272424D01*
X50679D01*
Y272373D01*
X50834D01*
Y272321D01*
X51041D01*
Y272269D01*
X51197D01*
Y272217D01*
X51404D01*
Y272165D01*
X51611D01*
Y272114D01*
X51767D01*
Y272062D01*
X51974D01*
Y272010D01*
X52233D01*
Y270404D01*
X52129D01*
Y270456D01*
X51922D01*
Y270508D01*
X51715D01*
Y270560D01*
X51508D01*
Y270611D01*
X51352D01*
Y270663D01*
X51197D01*
Y270715D01*
X50990D01*
Y270767D01*
X50834D01*
Y270819D01*
X50679D01*
Y270870D01*
X50471D01*
Y270922D01*
X50212D01*
Y270974D01*
X50057D01*
Y271026D01*
X49902D01*
Y271078D01*
X49694D01*
Y271129D01*
X49539D01*
Y271181D01*
X49332D01*
Y271233D01*
X49176D01*
Y271285D01*
X49021D01*
Y271337D01*
X48762D01*
Y271388D01*
X48607D01*
Y271440D01*
X48399D01*
Y271492D01*
X48244D01*
Y271544D01*
X48037D01*
Y271596D01*
X47881D01*
Y271647D01*
X47726D01*
Y271699D01*
X47519D01*
Y271751D01*
X47363D01*
Y271803D01*
X47104D01*
Y271855D01*
X46897D01*
Y271906D01*
X46742D01*
Y271958D01*
X46586D01*
Y272010D01*
X46431D01*
Y272062D01*
X46224D01*
Y272114D01*
X46068D01*
Y272165D01*
X45913D01*
Y272217D01*
X45706D01*
Y272269D01*
X45447D01*
Y272321D01*
X45291D01*
Y272373D01*
X45136D01*
Y272424D01*
X44929D01*
Y272476D01*
X44773D01*
Y272528D01*
X44566D01*
Y272580D01*
X44410D01*
Y272632D01*
X44203D01*
Y272684D01*
X44048D01*
Y274341D01*
X44203D01*
Y274393D01*
X44359D01*
Y274445D01*
X44566D01*
Y274497D01*
X44721D01*
Y274548D01*
X44929D01*
Y274600D01*
X45084D01*
Y274652D01*
X45239D01*
Y274704D01*
X45550D01*
Y274756D01*
X45706D01*
Y274807D01*
X45913D01*
Y274859D01*
X46068D01*
Y274911D01*
X46275D01*
Y274963D01*
X46431D01*
Y275015D01*
X46586D01*
Y275066D01*
X46793D01*
Y275118D01*
X47052D01*
Y275170D01*
X47260D01*
Y275222D01*
X47415D01*
Y275274D01*
X47622D01*
Y275325D01*
X47778D01*
Y275377D01*
X47985D01*
Y275429D01*
X48140D01*
Y275481D01*
X48296D01*
Y275533D01*
X48503D01*
Y275584D01*
X48762D01*
Y275636D01*
X48969D01*
Y275688D01*
X49125D01*
Y275740D01*
X49228D01*
Y275843D01*
X49073D01*
Y275895D01*
X48917D01*
Y275947D01*
X48710D01*
Y275999D01*
X48555D01*
Y276051D01*
X48347D01*
Y276102D01*
X48140D01*
Y276154D01*
X47985D01*
Y276206D01*
X47778D01*
Y276258D01*
X47726D01*
Y276206D01*
X47674D01*
Y276258D01*
X47519D01*
Y276310D01*
X47311D01*
Y276361D01*
X47156D01*
Y276413D01*
X46949D01*
Y276465D01*
X46742D01*
Y276517D01*
X46586D01*
Y276569D01*
X46379D01*
Y276621D01*
X46224D01*
Y276672D01*
X46016D01*
Y276724D01*
X45965D01*
Y276672D01*
X45913D01*
Y276724D01*
X45757D01*
Y276776D01*
X45550D01*
Y276828D01*
X45395D01*
Y276880D01*
X45188D01*
Y276931D01*
X44980D01*
Y276983D01*
X44825D01*
Y277035D01*
X44618D01*
Y277087D01*
X44462D01*
Y277138D01*
X44151D01*
Y277190D01*
X44048D01*
Y278796D01*
X44203D01*
Y278848D01*
X44410D01*
Y278900D01*
X44566D01*
Y278952D01*
X44721D01*
Y279003D01*
X44877D01*
Y279055D01*
X45084D01*
Y279107D01*
X45239D01*
Y279159D01*
X45498D01*
Y279211D01*
X45654D01*
Y279262D01*
X45809D01*
Y279314D01*
X46016D01*
Y279366D01*
X46120D01*
Y279418D01*
X46327D01*
Y279470D01*
X46483D01*
Y279521D01*
X46638D01*
Y279573D01*
X46793D01*
Y279625D01*
X46845D01*
Y279573D01*
X46897D01*
Y279625D01*
X47052D01*
Y279677D01*
X47260D01*
Y279729D01*
X47363D01*
Y279780D01*
X47570D01*
Y279832D01*
X47726D01*
Y279884D01*
X47881D01*
Y279936D01*
X48088D01*
Y279988D01*
X48296D01*
Y280039D01*
X48503D01*
Y280091D01*
X48658D01*
Y280143D01*
X48814D01*
Y280195D01*
X48969D01*
Y280247D01*
X49125D01*
Y280298D01*
X49332D01*
Y280350D01*
X49487D01*
Y280402D01*
X49643D01*
Y280454D01*
X49798D01*
Y280506D01*
X49850D01*
Y280454D01*
X49902D01*
Y280506D01*
X50057D01*
Y280557D01*
X50212D01*
Y280609D01*
X50420D01*
Y280661D01*
X50575D01*
Y280713D01*
X50731D01*
Y280765D01*
X50886D01*
Y280817D01*
X51041D01*
Y280868D01*
X51249D01*
Y280920D01*
X51404D01*
Y280972D01*
X51663D01*
Y281024D01*
X51818D01*
Y281076D01*
X51974D01*
Y281127D01*
X52129D01*
Y281179D01*
X52233D01*
Y279625D01*
D02*
G37*
G36*
X50420Y269731D02*
X51093D01*
Y269679D01*
X51249D01*
Y269627D01*
X51352D01*
Y269575D01*
X51456D01*
Y269524D01*
X51559D01*
Y269472D01*
X51663D01*
Y269368D01*
X51767D01*
Y269316D01*
X51818D01*
Y269213D01*
X51870D01*
Y269161D01*
X51922D01*
Y269109D01*
X51974D01*
Y269005D01*
X52026D01*
Y268902D01*
X52077D01*
Y268798D01*
X52129D01*
Y268643D01*
X52181D01*
Y268436D01*
X52233D01*
Y263100D01*
X43996D01*
Y268384D01*
X44048D01*
Y268746D01*
X44100D01*
Y268954D01*
X44151D01*
Y269057D01*
X44203D01*
Y269161D01*
X44255D01*
Y269265D01*
X44307D01*
Y269316D01*
X44359D01*
Y269368D01*
X44410D01*
Y269420D01*
X44462D01*
Y269472D01*
X44514D01*
Y269524D01*
X44618D01*
Y269575D01*
X44721D01*
Y269627D01*
X44825D01*
Y269679D01*
X45032D01*
Y269731D01*
X45706D01*
Y269782D01*
X50420D01*
Y269731D01*
D02*
G37*
G36*
X63163Y261753D02*
X63474D01*
Y261701D01*
X63733D01*
Y261649D01*
X63940D01*
Y261598D01*
X64095D01*
Y261546D01*
X64251D01*
Y261494D01*
X64458D01*
Y261442D01*
X64562D01*
Y261390D01*
X64717D01*
Y261339D01*
X64821D01*
Y261287D01*
X64924D01*
Y261235D01*
X65028D01*
Y261183D01*
X65131D01*
Y261132D01*
X65235D01*
Y261080D01*
X65287D01*
Y261028D01*
X65391D01*
Y260976D01*
X65442D01*
Y260924D01*
X65494D01*
Y260873D01*
X65546D01*
Y260717D01*
X65494D01*
Y260665D01*
X65287D01*
Y260717D01*
X65183D01*
Y260769D01*
X65131D01*
Y260821D01*
X65028D01*
Y260873D01*
X64924D01*
Y260924D01*
X64872D01*
Y260976D01*
X64769D01*
Y261028D01*
X64665D01*
Y261080D01*
X64562D01*
Y261132D01*
X64458D01*
Y261183D01*
X64251D01*
Y261235D01*
X64095D01*
Y261287D01*
X63888D01*
Y261339D01*
X63733D01*
Y261390D01*
X63526D01*
Y261442D01*
X63319D01*
Y261494D01*
X62904D01*
Y261546D01*
X61868D01*
Y261494D01*
X61505D01*
Y261442D01*
X61246D01*
Y261390D01*
X60987D01*
Y261339D01*
X60832D01*
Y261287D01*
X60625D01*
Y261235D01*
X60521D01*
Y261183D01*
X60366D01*
Y261132D01*
X60158D01*
Y261080D01*
X60107D01*
Y261028D01*
X60003D01*
Y260976D01*
X59899D01*
Y260924D01*
X59848D01*
Y260873D01*
X59692D01*
Y260821D01*
X59641D01*
Y260769D01*
X59589D01*
Y260717D01*
X59485D01*
Y260665D01*
X59278D01*
Y260717D01*
X59226D01*
Y260769D01*
X59174D01*
Y260821D01*
X59226D01*
Y260924D01*
X59278D01*
Y260976D01*
X59382D01*
Y261028D01*
X59485D01*
Y261080D01*
X59537D01*
Y261132D01*
X59641D01*
Y261183D01*
X59744D01*
Y261235D01*
X59796D01*
Y261287D01*
X59951D01*
Y261339D01*
X60055D01*
Y261390D01*
X60158D01*
Y261442D01*
X60314D01*
Y261494D01*
X60469D01*
Y261546D01*
X60625D01*
Y261598D01*
X60780D01*
Y261649D01*
X61039D01*
Y261701D01*
X61246D01*
Y261753D01*
X61609D01*
Y261805D01*
X63163D01*
Y261753D01*
D02*
G37*
G36*
X62749Y260406D02*
X63111D01*
Y260354D01*
X63370D01*
Y260303D01*
X63578D01*
Y260251D01*
X63733D01*
Y260199D01*
X63888D01*
Y260147D01*
X63992D01*
Y260096D01*
X64095D01*
Y260044D01*
X64251D01*
Y259992D01*
X64303D01*
Y259940D01*
X64354D01*
Y259888D01*
X64458D01*
Y259836D01*
X64510D01*
Y259629D01*
X64458D01*
Y259577D01*
X64303D01*
Y259629D01*
X64199D01*
Y259681D01*
X64095D01*
Y259733D01*
X64044D01*
Y259785D01*
X63940D01*
Y259836D01*
X63836D01*
Y259888D01*
X63681D01*
Y259940D01*
X63578D01*
Y259992D01*
X63422D01*
Y260044D01*
X63215D01*
Y260096D01*
X62956D01*
Y260147D01*
X61816D01*
Y260096D01*
X61505D01*
Y260044D01*
X61350D01*
Y259992D01*
X61194D01*
Y259940D01*
X61039D01*
Y259888D01*
X60935D01*
Y259836D01*
X60832D01*
Y259785D01*
X60728D01*
Y259733D01*
X60625D01*
Y259681D01*
X60573D01*
Y259629D01*
X60469D01*
Y259577D01*
X60262D01*
Y259629D01*
X60210D01*
Y259836D01*
X60314D01*
Y259888D01*
X60366D01*
Y259940D01*
X60469D01*
Y259992D01*
X60521D01*
Y260044D01*
X60625D01*
Y260096D01*
X60728D01*
Y260147D01*
X60884D01*
Y260199D01*
X61039D01*
Y260251D01*
X61194D01*
Y260303D01*
X61402D01*
Y260354D01*
X61661D01*
Y260406D01*
X62023D01*
Y260458D01*
X62749D01*
Y260406D01*
D02*
G37*
G36*
X62645Y259163D02*
X62904D01*
Y259111D01*
X63060D01*
Y259059D01*
X63163D01*
Y259008D01*
X63319D01*
Y258956D01*
X63422D01*
Y258904D01*
X63474D01*
Y258852D01*
X63526D01*
Y258645D01*
X63422D01*
Y258593D01*
X63267D01*
Y258645D01*
X63215D01*
Y258697D01*
X63163D01*
Y258749D01*
X63060D01*
Y258800D01*
X62956D01*
Y258852D01*
X62749D01*
Y258904D01*
X62023D01*
Y258852D01*
X61816D01*
Y258800D01*
X61713D01*
Y258749D01*
X61609D01*
Y258697D01*
X61505D01*
Y258645D01*
X61454D01*
Y258593D01*
X61298D01*
Y258645D01*
X61246D01*
Y258697D01*
X61194D01*
Y258852D01*
X61246D01*
Y258904D01*
X61350D01*
Y258956D01*
X61454D01*
Y259008D01*
X61505D01*
Y259059D01*
X61661D01*
Y259111D01*
X61816D01*
Y259163D01*
X62593D01*
Y259215D01*
X62645D01*
Y259163D01*
D02*
G37*
G36*
X50834Y258541D02*
X51249D01*
Y258490D01*
X51456D01*
Y258438D01*
X51611D01*
Y258386D01*
X51715D01*
Y258334D01*
X51767D01*
Y258282D01*
X51870D01*
Y258231D01*
X51922D01*
Y258179D01*
X51974D01*
Y258075D01*
X52026D01*
Y258023D01*
X52077D01*
Y257868D01*
X52129D01*
Y257713D01*
X52181D01*
Y253361D01*
X50782D01*
Y257402D01*
X49073D01*
Y254242D01*
X49021D01*
Y254035D01*
X48969D01*
Y253879D01*
X48917D01*
Y253776D01*
X48866D01*
Y253724D01*
X48814D01*
Y253672D01*
X48762D01*
Y253620D01*
X48710D01*
Y253568D01*
X48658D01*
Y253517D01*
X48555D01*
Y253465D01*
X48503D01*
Y253413D01*
X48399D01*
Y253361D01*
X48244D01*
Y253309D01*
X47985D01*
Y253257D01*
X44048D01*
Y258541D01*
X45395D01*
Y254501D01*
X45447D01*
Y254449D01*
X47674D01*
Y257713D01*
X47726D01*
Y257868D01*
X47778D01*
Y257972D01*
X47829D01*
Y258075D01*
X47881D01*
Y258127D01*
X47933D01*
Y258179D01*
X47985D01*
Y258231D01*
X48037D01*
Y258282D01*
X48140D01*
Y258334D01*
X48192D01*
Y258386D01*
X48296D01*
Y258438D01*
X48503D01*
Y258490D01*
X48658D01*
Y258541D01*
X49228D01*
Y258593D01*
X50834D01*
Y258541D01*
D02*
G37*
G36*
X44151Y262478D02*
X44255D01*
Y262427D01*
X44410D01*
Y262375D01*
X44566D01*
Y262323D01*
X44773D01*
Y262271D01*
X44929D01*
Y262219D01*
X45084D01*
Y262168D01*
X45239D01*
Y262116D01*
X45395D01*
Y262064D01*
X45550D01*
Y262012D01*
X45706D01*
Y261960D01*
X45809D01*
Y261909D01*
X45965D01*
Y261857D01*
X46172D01*
Y261805D01*
X46327D01*
Y261753D01*
X46483D01*
Y261701D01*
X46638D01*
Y261649D01*
X46793D01*
Y261598D01*
X46949D01*
Y261546D01*
X47104D01*
Y261494D01*
X47260D01*
Y261442D01*
X47415D01*
Y261390D01*
X47570D01*
Y261339D01*
X47726D01*
Y261287D01*
X47881D01*
Y261235D01*
X48037D01*
Y261183D01*
X48192D01*
Y261132D01*
X48347D01*
Y261080D01*
X48503D01*
Y261028D01*
X48607D01*
Y260976D01*
X48866D01*
Y260924D01*
X48969D01*
Y260873D01*
X49125D01*
Y260821D01*
X49280D01*
Y260769D01*
X49435D01*
Y260717D01*
X49591D01*
Y260665D01*
X49746D01*
Y260613D01*
X49850D01*
Y260562D01*
X50005D01*
Y260510D01*
X50212D01*
Y260458D01*
X50368D01*
Y260406D01*
X50523D01*
Y260354D01*
X50679D01*
Y260303D01*
X50834D01*
Y260251D01*
X50990D01*
Y260199D01*
X51145D01*
Y260147D01*
X51249D01*
Y260096D01*
X51508D01*
Y260044D01*
X51611D01*
Y259992D01*
X51767D01*
Y259940D01*
X51922D01*
Y259888D01*
X52077D01*
Y259836D01*
X52233D01*
Y259785D01*
X52388D01*
Y259733D01*
X52492D01*
Y259681D01*
X52647D01*
Y259629D01*
X52906D01*
Y259577D01*
X53010D01*
Y259526D01*
X53165D01*
Y259474D01*
X53321D01*
Y259422D01*
X53476D01*
Y259370D01*
X53631D01*
Y259318D01*
X53787D01*
Y259267D01*
X53890D01*
Y259215D01*
X54149D01*
Y259163D01*
X54253D01*
Y259111D01*
X54408D01*
Y259059D01*
X54564D01*
Y259008D01*
X54719D01*
Y258956D01*
X54875D01*
Y258904D01*
X55030D01*
Y258852D01*
X55186D01*
Y258800D01*
X55289D01*
Y258749D01*
X55548D01*
Y258697D01*
X55652D01*
Y258645D01*
X55807D01*
Y258593D01*
X55963D01*
Y258541D01*
X56170D01*
Y258490D01*
X56273D01*
Y258438D01*
X56429D01*
Y258386D01*
X56584D01*
Y258334D01*
X56791D01*
Y258282D01*
X56947D01*
Y258231D01*
X57102D01*
Y258179D01*
X57258D01*
Y258127D01*
X57361D01*
Y258075D01*
X57517D01*
Y258023D01*
X57672D01*
Y257972D01*
X57827D01*
Y257920D01*
X57983D01*
Y257868D01*
X58190D01*
Y257816D01*
X58345D01*
Y257764D01*
X58501D01*
Y257713D01*
X58656D01*
Y257661D01*
X58760D01*
Y257609D01*
X58967D01*
Y257557D01*
X59123D01*
Y257505D01*
X59226D01*
Y257453D01*
X59382D01*
Y257402D01*
X59537D01*
Y257350D01*
X59641D01*
Y257298D01*
X59744D01*
Y257246D01*
X59899D01*
Y257194D01*
X60003D01*
Y257143D01*
X60107D01*
Y257091D01*
X60210D01*
Y257039D01*
X60314D01*
Y256987D01*
X60417D01*
Y256936D01*
X60469D01*
Y256884D01*
X60573D01*
Y256832D01*
X60625D01*
Y256780D01*
X60780D01*
Y256884D01*
X60832D01*
Y256987D01*
X60884D01*
Y257091D01*
X60935D01*
Y257143D01*
X60987D01*
Y257246D01*
X61039D01*
Y257298D01*
X61091D01*
Y257350D01*
X61143D01*
Y257402D01*
X61194D01*
Y257453D01*
X61246D01*
Y257505D01*
X61298D01*
Y257557D01*
X61350D01*
Y257609D01*
X61402D01*
Y257661D01*
X61505D01*
Y257713D01*
X61557D01*
Y257764D01*
X61661D01*
Y257816D01*
X61816D01*
Y257868D01*
X62023D01*
Y257920D01*
X62697D01*
Y257868D01*
X62904D01*
Y257816D01*
X63060D01*
Y257764D01*
X63163D01*
Y257713D01*
X63215D01*
Y257661D01*
X63319D01*
Y257609D01*
X63370D01*
Y257557D01*
X63422D01*
Y257505D01*
X63474D01*
Y257453D01*
X63526D01*
Y257402D01*
X63578D01*
Y257350D01*
X63629D01*
Y257298D01*
X63681D01*
Y257246D01*
X63733D01*
Y257143D01*
X63785D01*
Y257091D01*
X63836D01*
Y256987D01*
X63888D01*
Y256884D01*
X63940D01*
Y256780D01*
X63992D01*
Y256625D01*
X64044D01*
Y256469D01*
X64095D01*
Y255433D01*
X64044D01*
Y255226D01*
X63992D01*
Y255071D01*
X63940D01*
Y254967D01*
X63888D01*
Y254863D01*
X63836D01*
Y254812D01*
X63785D01*
Y254708D01*
X63733D01*
Y254656D01*
X63681D01*
Y254553D01*
X63629D01*
Y254501D01*
X63578D01*
Y254449D01*
X63526D01*
Y254397D01*
X63474D01*
Y254345D01*
X63370D01*
Y254294D01*
X63319D01*
Y254242D01*
X63267D01*
Y254190D01*
X63163D01*
Y254138D01*
X63111D01*
Y254086D01*
X63008D01*
Y254035D01*
X62956D01*
Y254086D01*
X62904D01*
Y254035D01*
X62749D01*
Y253983D01*
X62541D01*
Y253931D01*
X62231D01*
Y253983D01*
X61972D01*
Y254035D01*
X61764D01*
Y254086D01*
X61609D01*
Y254138D01*
X61557D01*
Y254190D01*
X61454D01*
Y254242D01*
X61350D01*
Y254345D01*
X61246D01*
Y254397D01*
X61194D01*
Y254449D01*
X61143D01*
Y254501D01*
X61091D01*
Y254553D01*
X61039D01*
Y254656D01*
X60987D01*
Y254708D01*
X60935D01*
Y254760D01*
X60884D01*
Y254863D01*
X60832D01*
Y254967D01*
X60780D01*
Y255019D01*
X60625D01*
Y254967D01*
X60573D01*
Y254915D01*
X60469D01*
Y254863D01*
X60417D01*
Y254812D01*
X60314D01*
Y254760D01*
X60210D01*
Y254708D01*
X60107D01*
Y254656D01*
X60055D01*
Y254604D01*
X59899D01*
Y254553D01*
X59796D01*
Y254501D01*
X59692D01*
Y254449D01*
X59537D01*
Y254397D01*
X59382D01*
Y254345D01*
X59278D01*
Y254294D01*
X59123D01*
Y254242D01*
X58967D01*
Y254190D01*
X58812D01*
Y254138D01*
X58656D01*
Y254086D01*
X58501D01*
Y254035D01*
X58294D01*
Y253983D01*
X58138D01*
Y253931D01*
X57983D01*
Y253879D01*
X57827D01*
Y253827D01*
X57724D01*
Y253776D01*
X57568D01*
Y253724D01*
X57413D01*
Y253672D01*
X57258D01*
Y253620D01*
X57050D01*
Y253568D01*
X56895D01*
Y253517D01*
X56739D01*
Y253465D01*
X56584D01*
Y253413D01*
X56480D01*
Y253361D01*
X56325D01*
Y253309D01*
X56170D01*
Y253257D01*
X56014D01*
Y253206D01*
X55859D01*
Y253154D01*
X55652D01*
Y253102D01*
X55496D01*
Y253050D01*
X55341D01*
Y252998D01*
X55186D01*
Y252947D01*
X55082D01*
Y252895D01*
X54926D01*
Y252843D01*
X54771D01*
Y252791D01*
X54616D01*
Y252740D01*
X54408D01*
Y252688D01*
X54253D01*
Y252636D01*
X54098D01*
Y252584D01*
X53942D01*
Y252532D01*
X53787D01*
Y252481D01*
X53683D01*
Y252429D01*
X53528D01*
Y252377D01*
X53372D01*
Y252325D01*
X53217D01*
Y252273D01*
X53010D01*
Y252221D01*
X52854D01*
Y252170D01*
X52699D01*
Y252118D01*
X52543D01*
Y252066D01*
X52440D01*
Y252014D01*
X52284D01*
Y251962D01*
X52129D01*
Y251911D01*
X51974D01*
Y251859D01*
X51767D01*
Y251807D01*
X51611D01*
Y251755D01*
X51456D01*
Y251704D01*
X51352D01*
Y251652D01*
X51145D01*
Y251600D01*
X50990D01*
Y251548D01*
X50834D01*
Y251496D01*
X50679D01*
Y251445D01*
X50471D01*
Y251393D01*
X50316D01*
Y251341D01*
X50212D01*
Y251289D01*
X50057D01*
Y251237D01*
X49902D01*
Y251185D01*
X49746D01*
Y251134D01*
X49591D01*
Y251082D01*
X49435D01*
Y251030D01*
X49280D01*
Y250978D01*
X49176D01*
Y250926D01*
X49021D01*
Y250875D01*
X48866D01*
Y250823D01*
X48710D01*
Y250771D01*
X48555D01*
Y250719D01*
X48399D01*
Y250667D01*
X48244D01*
Y250616D01*
X48088D01*
Y250564D01*
X47933D01*
Y250512D01*
X47881D01*
Y250564D01*
X47829D01*
Y250512D01*
X47674D01*
Y250460D01*
X47570D01*
Y250408D01*
X47415D01*
Y250357D01*
X47260D01*
Y250305D01*
X47104D01*
Y250253D01*
X47001D01*
Y250201D01*
X46845D01*
Y250149D01*
X46638D01*
Y250098D01*
X46431D01*
Y250046D01*
X46275D01*
Y249994D01*
X46172D01*
Y249942D01*
X46016D01*
Y249890D01*
X45861D01*
Y249839D01*
X45706D01*
Y249787D01*
X45602D01*
Y249735D01*
X45447D01*
Y249683D01*
X45291D01*
Y249631D01*
X45239D01*
Y249683D01*
X45188D01*
Y249631D01*
X45032D01*
Y249580D01*
X44929D01*
Y249528D01*
X44773D01*
Y249476D01*
X44618D01*
Y249424D01*
X44462D01*
Y249372D01*
X44359D01*
Y249321D01*
X44203D01*
Y249269D01*
X44048D01*
Y250046D01*
X44151D01*
Y250098D01*
X44307D01*
Y250149D01*
X44514D01*
Y250201D01*
X44669D01*
Y250253D01*
X44773D01*
Y250305D01*
X44929D01*
Y250357D01*
X45188D01*
Y250408D01*
X45343D01*
Y250460D01*
X45498D01*
Y250512D01*
X45602D01*
Y250564D01*
X45757D01*
Y250616D01*
X45913D01*
Y250667D01*
X46068D01*
Y250719D01*
X46224D01*
Y250771D01*
X46431D01*
Y250823D01*
X46586D01*
Y250875D01*
X46742D01*
Y250926D01*
X46897D01*
Y250978D01*
X47001D01*
Y251030D01*
X47156D01*
Y251082D01*
X47311D01*
Y251134D01*
X47467D01*
Y251185D01*
X47570D01*
Y251237D01*
X47622D01*
Y251185D01*
X47674D01*
Y251237D01*
X47829D01*
Y251289D01*
X47985D01*
Y251341D01*
X48140D01*
Y251393D01*
X48244D01*
Y251445D01*
X48399D01*
Y251496D01*
X48555D01*
Y251548D01*
X48710D01*
Y251600D01*
X48866D01*
Y251652D01*
X49021D01*
Y251704D01*
X49228D01*
Y251755D01*
X49384D01*
Y251807D01*
X49539D01*
Y251859D01*
X49643D01*
Y251911D01*
X49798D01*
Y251962D01*
X49953D01*
Y252014D01*
X50109D01*
Y252066D01*
X50264D01*
Y252118D01*
X50471D01*
Y252170D01*
X50627D01*
Y252221D01*
X50782D01*
Y252273D01*
X50938D01*
Y252325D01*
X51093D01*
Y252377D01*
X51249D01*
Y252429D01*
X51404D01*
Y252481D01*
X51508D01*
Y252532D01*
X51663D01*
Y252584D01*
X51870D01*
Y252636D01*
X51974D01*
Y252688D01*
X52026D01*
Y252740D01*
X52129D01*
Y252791D01*
X52181D01*
Y252843D01*
X52233D01*
Y252947D01*
X52284D01*
Y253050D01*
X52336D01*
Y253102D01*
X52388D01*
Y253154D01*
X52440D01*
Y253206D01*
X52492D01*
Y253257D01*
X52543D01*
Y253361D01*
X52595D01*
Y253413D01*
X52647D01*
Y253465D01*
X52699D01*
Y253517D01*
X52751D01*
Y253620D01*
X52803D01*
Y253672D01*
X52854D01*
Y253724D01*
X52906D01*
Y253776D01*
X52958D01*
Y253879D01*
X53010D01*
Y253931D01*
X53062D01*
Y253983D01*
X53113D01*
Y254086D01*
X53165D01*
Y254138D01*
X53217D01*
Y254190D01*
X53269D01*
Y254294D01*
X53321D01*
Y254345D01*
X53372D01*
Y254397D01*
X53424D01*
Y254501D01*
X53476D01*
Y254553D01*
X53528D01*
Y254604D01*
X53580D01*
Y254708D01*
X53631D01*
Y254760D01*
X53683D01*
Y254812D01*
X53735D01*
Y254915D01*
X53787D01*
Y254967D01*
X53839D01*
Y255019D01*
X53890D01*
Y255122D01*
X53942D01*
Y255174D01*
X53994D01*
Y255226D01*
X54046D01*
Y255278D01*
X54098D01*
Y255381D01*
X54149D01*
Y255433D01*
X54201D01*
Y255485D01*
X54253D01*
Y255537D01*
X54305D01*
Y255640D01*
X54357D01*
Y255692D01*
X54408D01*
Y255744D01*
X54460D01*
Y256003D01*
X54408D01*
Y256055D01*
X54357D01*
Y256107D01*
X54305D01*
Y256158D01*
X54253D01*
Y256262D01*
X54201D01*
Y256314D01*
X54149D01*
Y256366D01*
X54098D01*
Y256417D01*
X54046D01*
Y256521D01*
X53994D01*
Y256573D01*
X53942D01*
Y256625D01*
X53890D01*
Y256728D01*
X53839D01*
Y256780D01*
X53787D01*
Y256832D01*
X53735D01*
Y256884D01*
X53683D01*
Y256987D01*
X53631D01*
Y257039D01*
X53580D01*
Y257091D01*
X53528D01*
Y257143D01*
X53476D01*
Y257194D01*
X53424D01*
Y257246D01*
X53372D01*
Y257350D01*
X53321D01*
Y257402D01*
X53269D01*
Y257453D01*
X53217D01*
Y257557D01*
X53165D01*
Y257609D01*
X53113D01*
Y257661D01*
X53062D01*
Y257713D01*
X53010D01*
Y257816D01*
X52958D01*
Y257868D01*
X52906D01*
Y257920D01*
X52854D01*
Y257972D01*
X52803D01*
Y258075D01*
X52751D01*
Y258127D01*
X52699D01*
Y258179D01*
X52647D01*
Y258231D01*
X52595D01*
Y258334D01*
X52543D01*
Y258386D01*
X52492D01*
Y258438D01*
X52440D01*
Y258490D01*
X52388D01*
Y258593D01*
X52336D01*
Y258645D01*
X52284D01*
Y258697D01*
X52233D01*
Y258800D01*
X52181D01*
Y258852D01*
X52129D01*
Y258904D01*
X52077D01*
Y259008D01*
X52026D01*
Y259059D01*
X51974D01*
Y259111D01*
X51870D01*
Y259163D01*
X51818D01*
Y259215D01*
X51715D01*
Y259267D01*
X51559D01*
Y259318D01*
X51404D01*
Y259370D01*
X51197D01*
Y259422D01*
X51041D01*
Y259474D01*
X50886D01*
Y259526D01*
X50731D01*
Y259577D01*
X50575D01*
Y259629D01*
X50471D01*
Y259681D01*
X50316D01*
Y259733D01*
X50109D01*
Y259785D01*
X49953D01*
Y259836D01*
X49746D01*
Y259888D01*
X49591D01*
Y259940D01*
X49487D01*
Y259992D01*
X49332D01*
Y260044D01*
X49176D01*
Y260096D01*
X49021D01*
Y260147D01*
X48866D01*
Y260199D01*
X48710D01*
Y260251D01*
X48607D01*
Y260303D01*
X48555D01*
Y260251D01*
X48503D01*
Y260303D01*
X48347D01*
Y260354D01*
X48244D01*
Y260406D01*
X48088D01*
Y260458D01*
X47933D01*
Y260510D01*
X47778D01*
Y260562D01*
X47622D01*
Y260613D01*
X47467D01*
Y260665D01*
X47311D01*
Y260717D01*
X47104D01*
Y260769D01*
X46949D01*
Y260821D01*
X46845D01*
Y260873D01*
X46690D01*
Y260924D01*
X46534D01*
Y260976D01*
X46379D01*
Y261028D01*
X46224D01*
Y261080D01*
X46068D01*
Y261132D01*
X45861D01*
Y261183D01*
X45706D01*
Y261235D01*
X45602D01*
Y261287D01*
X45447D01*
Y261339D01*
X45239D01*
Y261390D01*
X45136D01*
Y261442D01*
X44980D01*
Y261494D01*
X44825D01*
Y261546D01*
X44669D01*
Y261598D01*
X44410D01*
Y261649D01*
X44255D01*
Y261701D01*
X44151D01*
Y261753D01*
X44048D01*
Y262427D01*
X44100D01*
Y262530D01*
X44151D01*
Y262478D01*
D02*
G37*
G36*
X61402Y253361D02*
X61505D01*
Y253309D01*
X61609D01*
Y253257D01*
X61713D01*
Y253206D01*
X61816D01*
Y253154D01*
X61972D01*
Y253102D01*
X62749D01*
Y253154D01*
X62956D01*
Y253206D01*
X63060D01*
Y253257D01*
X63163D01*
Y253309D01*
X63267D01*
Y253361D01*
X63474D01*
Y253309D01*
X63526D01*
Y253154D01*
X63474D01*
Y253102D01*
X63422D01*
Y253050D01*
X63319D01*
Y252998D01*
X63215D01*
Y252947D01*
X63060D01*
Y252895D01*
X62904D01*
Y252843D01*
X62645D01*
Y252791D01*
X62179D01*
Y252843D01*
X61868D01*
Y252895D01*
X61661D01*
Y252947D01*
X61557D01*
Y252998D01*
X61454D01*
Y253050D01*
X61350D01*
Y253102D01*
X61246D01*
Y253154D01*
X61194D01*
Y253309D01*
X61246D01*
Y253361D01*
X61350D01*
Y253413D01*
X61402D01*
Y253361D01*
D02*
G37*
G36*
X64510Y252170D02*
X64406D01*
Y252118D01*
X64354D01*
Y252066D01*
X64251D01*
Y252014D01*
X64147D01*
Y251962D01*
X64044D01*
Y251911D01*
X63940D01*
Y251859D01*
X63733D01*
Y251807D01*
X63629D01*
Y251755D01*
X63474D01*
Y251704D01*
X63215D01*
Y251652D01*
X62956D01*
Y251600D01*
X61816D01*
Y251652D01*
X61505D01*
Y251704D01*
X61298D01*
Y251755D01*
X61143D01*
Y251807D01*
X60935D01*
Y251859D01*
X60780D01*
Y251911D01*
X60676D01*
Y251962D01*
X60573D01*
Y252014D01*
X60469D01*
Y252066D01*
X60417D01*
Y252118D01*
X60314D01*
Y252170D01*
X60262D01*
Y252221D01*
X60210D01*
Y252377D01*
X60262D01*
Y252429D01*
X60469D01*
Y252377D01*
X60573D01*
Y252325D01*
X60676D01*
Y252273D01*
X60728D01*
Y252221D01*
X60832D01*
Y252170D01*
X60935D01*
Y252118D01*
X61091D01*
Y252066D01*
X61246D01*
Y252014D01*
X61402D01*
Y251962D01*
X61661D01*
Y251911D01*
X62023D01*
Y251859D01*
X62800D01*
Y251911D01*
X63111D01*
Y251962D01*
X63370D01*
Y252014D01*
X63474D01*
Y252066D01*
X63629D01*
Y252118D01*
X63785D01*
Y252170D01*
X63888D01*
Y252221D01*
X63992D01*
Y252273D01*
X64095D01*
Y252325D01*
X64147D01*
Y252377D01*
X64251D01*
Y252429D01*
X64510D01*
Y252170D01*
D02*
G37*
G36*
X65391Y251341D02*
X65494D01*
Y251289D01*
X65546D01*
Y251185D01*
X65494D01*
Y251134D01*
X65442D01*
Y251082D01*
X65391D01*
Y251030D01*
X65339D01*
Y250978D01*
X65235D01*
Y250926D01*
X65131D01*
Y250875D01*
X65080D01*
Y250823D01*
X64924D01*
Y250771D01*
X64821D01*
Y250719D01*
X64717D01*
Y250667D01*
X64562D01*
Y250616D01*
X64458D01*
Y250564D01*
X64303D01*
Y250512D01*
X64095D01*
Y250460D01*
X63888D01*
Y250408D01*
X63629D01*
Y250357D01*
X63370D01*
Y250305D01*
X63008D01*
Y250253D01*
X61764D01*
Y250305D01*
X61350D01*
Y250357D01*
X61091D01*
Y250408D01*
X60884D01*
Y250460D01*
X60676D01*
Y250512D01*
X60521D01*
Y250564D01*
X60469D01*
Y250512D01*
X60417D01*
Y250564D01*
X60262D01*
Y250616D01*
X60158D01*
Y250667D01*
X60055D01*
Y250719D01*
X59951D01*
Y250771D01*
X59796D01*
Y250823D01*
X59692D01*
Y250875D01*
X59641D01*
Y250926D01*
X59537D01*
Y250978D01*
X59433D01*
Y251030D01*
X59330D01*
Y251082D01*
X59278D01*
Y251134D01*
X59226D01*
Y251341D01*
X59330D01*
Y251393D01*
X59433D01*
Y251341D01*
X59537D01*
Y251289D01*
X59641D01*
Y251237D01*
X59692D01*
Y251185D01*
X59796D01*
Y251134D01*
X59899D01*
Y251082D01*
X60003D01*
Y251030D01*
X60107D01*
Y250978D01*
X60210D01*
Y250926D01*
X60314D01*
Y250875D01*
X60417D01*
Y250823D01*
X60625D01*
Y250771D01*
X60832D01*
Y250719D01*
X60987D01*
Y250667D01*
X61246D01*
Y250616D01*
X61557D01*
Y250564D01*
X62075D01*
Y250512D01*
X62697D01*
Y250564D01*
X63215D01*
Y250616D01*
X63474D01*
Y250667D01*
X63733D01*
Y250719D01*
X63888D01*
Y250771D01*
X64199D01*
Y250823D01*
X64303D01*
Y250875D01*
X64458D01*
Y250926D01*
X64562D01*
Y250978D01*
X64717D01*
Y251030D01*
X64769D01*
Y251082D01*
X64872D01*
Y251134D01*
X64976D01*
Y251185D01*
X65028D01*
Y251237D01*
X65131D01*
Y251289D01*
X65183D01*
Y251341D01*
X65339D01*
Y251393D01*
X65391D01*
Y251341D01*
D02*
G37*
G36*
X45395Y245176D02*
X52026D01*
Y243674D01*
X44048D01*
Y248854D01*
X45395D01*
Y245176D01*
D02*
G37*
G36*
X50938Y242120D02*
X51093D01*
Y242068D01*
X51249D01*
Y242016D01*
X51352D01*
Y241965D01*
X51404D01*
Y241913D01*
X51508D01*
Y241861D01*
X51559D01*
Y241809D01*
X51611D01*
Y241757D01*
X51663D01*
Y241706D01*
X51715D01*
Y241654D01*
X51767D01*
Y241550D01*
X51818D01*
Y241498D01*
X51870D01*
Y241395D01*
X51922D01*
Y241291D01*
X51974D01*
Y241188D01*
X52026D01*
Y240980D01*
X52077D01*
Y235697D01*
X44048D01*
Y241084D01*
X44100D01*
Y241291D01*
X44151D01*
Y241447D01*
X44203D01*
Y241602D01*
X44255D01*
Y241654D01*
X44307D01*
Y241757D01*
X44359D01*
Y241809D01*
X44410D01*
Y241861D01*
X44462D01*
Y241913D01*
X44566D01*
Y241965D01*
X44618D01*
Y242016D01*
X44721D01*
Y242068D01*
X44877D01*
Y242120D01*
X45136D01*
Y242172D01*
X50938D01*
Y242120D01*
D02*
G37*
G36*
X40549Y267845D02*
X40701Y267838D01*
X40840Y267831D01*
X40971Y267817D01*
X41092Y267799D01*
X41200Y267782D01*
X41300Y267765D01*
X41390Y267748D01*
X41469Y267727D01*
X41539Y267709D01*
X41598Y267692D01*
X41646Y267675D01*
X41684Y267661D01*
X41712Y267654D01*
X41726Y267647D01*
X41732Y267644D01*
X41819Y267606D01*
X41899Y267561D01*
X41971Y267516D01*
X42040Y267467D01*
X42106Y267419D01*
X42165Y267371D01*
X42220Y267322D01*
X42269Y267274D01*
X42310Y267229D01*
X42348Y267191D01*
X42379Y267153D01*
X42407Y267118D01*
X42424Y267094D01*
X42442Y267073D01*
X42449Y267059D01*
X42452Y267056D01*
X42497Y266983D01*
X42535Y266910D01*
X42570Y266834D01*
X42597Y266761D01*
X42622Y266689D01*
X42642Y266616D01*
X42660Y266550D01*
X42674Y266485D01*
X42684Y266426D01*
X42691Y266374D01*
X42698Y266325D01*
X42701Y266284D01*
X42705Y266249D01*
Y266204D01*
X42701Y266087D01*
X42684Y265973D01*
X42663Y265865D01*
X42636Y265765D01*
X42601Y265668D01*
X42563Y265578D01*
X42525Y265499D01*
X42483Y265423D01*
X42442Y265357D01*
X42400Y265298D01*
X42362Y265246D01*
X42327Y265205D01*
X42300Y265173D01*
X42279Y265149D01*
X42262Y265132D01*
X42258Y265128D01*
X42172Y265052D01*
X42082Y264986D01*
X41985Y264931D01*
X41888Y264879D01*
X41791Y264838D01*
X41694Y264803D01*
X41598Y264775D01*
X41508Y264755D01*
X41421Y264734D01*
X41341Y264724D01*
X41269Y264713D01*
X41206Y264706D01*
X41155Y264703D01*
X41134D01*
X41116Y264699D01*
X41103D01*
X41092D01*
X41089D01*
X41085D01*
X40957Y264703D01*
X40836Y264717D01*
X40719Y264737D01*
X40611Y264762D01*
X40511Y264793D01*
X40418Y264827D01*
X40331Y264865D01*
X40255Y264903D01*
X40186Y264942D01*
X40124Y264980D01*
X40072Y265014D01*
X40030Y265045D01*
X39996Y265070D01*
X39971Y265090D01*
X39954Y265104D01*
X39950Y265108D01*
X39874Y265187D01*
X39809Y265270D01*
X39753Y265353D01*
X39701Y265440D01*
X39660Y265523D01*
X39625Y265606D01*
X39598Y265689D01*
X39577Y265765D01*
X39556Y265838D01*
X39546Y265903D01*
X39535Y265966D01*
X39528Y266014D01*
X39525Y266056D01*
X39522Y266087D01*
Y266114D01*
X39525Y266180D01*
X39528Y266246D01*
X39549Y266367D01*
X39577Y266481D01*
X39591Y266530D01*
X39608Y266578D01*
X39625Y266623D01*
X39639Y266661D01*
X39653Y266692D01*
X39667Y266723D01*
X39677Y266744D01*
X39688Y266761D01*
X39691Y266772D01*
X39694Y266775D01*
X39764Y266886D01*
X39840Y266980D01*
X39878Y267024D01*
X39916Y267062D01*
X39950Y267101D01*
X39989Y267132D01*
X40020Y267163D01*
X40051Y267187D01*
X40078Y267208D01*
X40103Y267229D01*
X40124Y267242D01*
X40137Y267253D01*
X40148Y267256D01*
X40151Y267260D01*
X40124D01*
X40099D01*
X40078D01*
X40061D01*
X40051D01*
X40040D01*
X40037D01*
X40034D01*
X39899Y267256D01*
X39767Y267246D01*
X39646Y267232D01*
X39587Y267222D01*
X39535Y267215D01*
X39487Y267208D01*
X39445Y267197D01*
X39407Y267191D01*
X39376Y267184D01*
X39349Y267177D01*
X39331Y267173D01*
X39317Y267170D01*
X39314D01*
X39252Y267153D01*
X39189Y267135D01*
X39134Y267118D01*
X39079Y267101D01*
X39030Y267080D01*
X38985Y267062D01*
X38944Y267045D01*
X38906Y267028D01*
X38871Y267014D01*
X38840Y266997D01*
X38816Y266986D01*
X38795Y266973D01*
X38778Y266966D01*
X38767Y266959D01*
X38760Y266952D01*
X38757D01*
X38684Y266900D01*
X38618Y266845D01*
X38560Y266789D01*
X38515Y266737D01*
X38477Y266692D01*
X38449Y266654D01*
X38438Y266640D01*
X38432Y266630D01*
X38425Y266623D01*
Y266620D01*
X38383Y266540D01*
X38355Y266460D01*
X38335Y266377D01*
X38317Y266305D01*
X38311Y266239D01*
X38307Y266211D01*
Y266187D01*
X38304Y266170D01*
Y266142D01*
X38307Y266083D01*
X38311Y266028D01*
X38331Y265928D01*
X38359Y265841D01*
X38376Y265800D01*
X38394Y265765D01*
X38407Y265734D01*
X38425Y265703D01*
X38438Y265679D01*
X38452Y265661D01*
X38463Y265644D01*
X38473Y265634D01*
X38477Y265627D01*
X38480Y265623D01*
X38515Y265585D01*
X38556Y265554D01*
X38646Y265495D01*
X38743Y265447D01*
X38840Y265409D01*
X38881Y265395D01*
X38926Y265381D01*
X38964Y265371D01*
X38996Y265364D01*
X39023Y265357D01*
X39044Y265353D01*
X39058Y265350D01*
X39061D01*
X39009Y264786D01*
X38906Y264803D01*
X38809Y264824D01*
X38719Y264852D01*
X38632Y264883D01*
X38553Y264914D01*
X38484Y264952D01*
X38418Y264986D01*
X38359Y265025D01*
X38304Y265059D01*
X38259Y265094D01*
X38221Y265128D01*
X38189Y265156D01*
X38162Y265177D01*
X38144Y265198D01*
X38134Y265208D01*
X38131Y265211D01*
X38075Y265281D01*
X38027Y265353D01*
X37985Y265429D01*
X37951Y265506D01*
X37920Y265582D01*
X37895Y265658D01*
X37874Y265734D01*
X37857Y265807D01*
X37847Y265872D01*
X37837Y265935D01*
X37830Y265990D01*
X37823Y266038D01*
Y266076D01*
X37819Y266108D01*
Y266132D01*
X37823Y266229D01*
X37833Y266322D01*
X37847Y266412D01*
X37864Y266498D01*
X37885Y266582D01*
X37909Y266654D01*
X37933Y266727D01*
X37961Y266789D01*
X37989Y266848D01*
X38013Y266900D01*
X38037Y266945D01*
X38058Y266983D01*
X38075Y267014D01*
X38092Y267035D01*
X38099Y267049D01*
X38103Y267052D01*
X38158Y267125D01*
X38221Y267191D01*
X38286Y267253D01*
X38352Y267312D01*
X38421Y267364D01*
X38490Y267415D01*
X38556Y267457D01*
X38622Y267498D01*
X38684Y267533D01*
X38743Y267564D01*
X38795Y267588D01*
X38840Y267609D01*
X38878Y267627D01*
X38906Y267637D01*
X38923Y267644D01*
X38930Y267647D01*
X39037Y267682D01*
X39148Y267713D01*
X39265Y267741D01*
X39386Y267765D01*
X39508Y267782D01*
X39632Y267799D01*
X39750Y267813D01*
X39864Y267824D01*
X39971Y267831D01*
X40072Y267838D01*
X40162Y267841D01*
X40200Y267845D01*
X40238D01*
X40272D01*
X40303Y267848D01*
X40328D01*
X40348D01*
X40366D01*
X40380D01*
X40387D01*
X40390D01*
X40549Y267845D01*
D02*
G37*
G36*
X42705Y262814D02*
X42646Y262783D01*
X42587Y262748D01*
X42473Y262668D01*
X42366Y262582D01*
X42314Y262537D01*
X42265Y262495D01*
X42224Y262454D01*
X42182Y262416D01*
X42148Y262381D01*
X42116Y262350D01*
X42092Y262326D01*
X42075Y262309D01*
X42065Y262295D01*
X42061Y262291D01*
X41943Y262149D01*
X41836Y262000D01*
X41739Y261855D01*
X41698Y261786D01*
X41656Y261720D01*
X41622Y261662D01*
X41591Y261606D01*
X41563Y261554D01*
X41542Y261513D01*
X41525Y261478D01*
X41511Y261450D01*
X41504Y261437D01*
X41501Y261430D01*
X40933D01*
X40975Y261533D01*
X41023Y261641D01*
X41072Y261744D01*
X41120Y261841D01*
X41144Y261883D01*
X41165Y261924D01*
X41186Y261959D01*
X41203Y261987D01*
X41213Y262011D01*
X41224Y262032D01*
X41231Y262042D01*
X41234Y262046D01*
X41310Y262170D01*
X41348Y262225D01*
X41383Y262281D01*
X41421Y262329D01*
X41452Y262374D01*
X41487Y262416D01*
X41514Y262457D01*
X41542Y262488D01*
X41566Y262520D01*
X41591Y262547D01*
X41608Y262568D01*
X41622Y262585D01*
X41632Y262596D01*
X41639Y262603D01*
X41642Y262606D01*
X37899D01*
Y263194D01*
X42705D01*
Y262814D01*
D02*
G37*
G36*
X40511Y260378D02*
X40629Y260371D01*
X40736Y260364D01*
X40836Y260357D01*
X40930Y260347D01*
X41016Y260336D01*
X41092Y260326D01*
X41162Y260315D01*
X41220Y260305D01*
X41272Y260295D01*
X41314Y260288D01*
X41348Y260281D01*
X41369Y260274D01*
X41386Y260271D01*
X41390D01*
X41466Y260250D01*
X41542Y260226D01*
X41611Y260205D01*
X41677Y260181D01*
X41739Y260153D01*
X41798Y260129D01*
X41853Y260104D01*
X41902Y260080D01*
X41947Y260059D01*
X41985Y260039D01*
X42020Y260021D01*
X42047Y260004D01*
X42068Y259990D01*
X42085Y259980D01*
X42096Y259976D01*
X42099Y259973D01*
X42203Y259900D01*
X42293Y259821D01*
X42373Y259741D01*
X42435Y259665D01*
X42463Y259630D01*
X42483Y259596D01*
X42504Y259568D01*
X42521Y259544D01*
X42532Y259523D01*
X42542Y259509D01*
X42549Y259499D01*
Y259495D01*
X42577Y259440D01*
X42601Y259385D01*
X42639Y259267D01*
X42667Y259153D01*
X42684Y259049D01*
X42691Y259001D01*
X42698Y258959D01*
X42701Y258918D01*
Y258887D01*
X42705Y258859D01*
Y258821D01*
X42701Y258724D01*
X42694Y258634D01*
X42680Y258547D01*
X42660Y258464D01*
X42639Y258388D01*
X42615Y258316D01*
X42590Y258250D01*
X42566Y258191D01*
X42539Y258136D01*
X42514Y258091D01*
X42490Y258049D01*
X42469Y258015D01*
X42452Y257987D01*
X42438Y257970D01*
X42428Y257956D01*
X42424Y257952D01*
X42369Y257890D01*
X42310Y257831D01*
X42248Y257776D01*
X42182Y257724D01*
X42116Y257679D01*
X42047Y257638D01*
X41982Y257596D01*
X41919Y257565D01*
X41860Y257534D01*
X41805Y257506D01*
X41753Y257485D01*
X41712Y257465D01*
X41674Y257451D01*
X41649Y257440D01*
X41632Y257437D01*
X41625Y257433D01*
X41525Y257402D01*
X41418Y257378D01*
X41307Y257354D01*
X41193Y257333D01*
X40964Y257302D01*
X40854Y257292D01*
X40746Y257281D01*
X40646Y257274D01*
X40553Y257271D01*
X40470Y257267D01*
X40400Y257264D01*
X40369D01*
X40341Y257260D01*
X40317D01*
X40297D01*
X40279D01*
X40269D01*
X40262D01*
X40258D01*
X40134D01*
X40013Y257267D01*
X39899Y257271D01*
X39788Y257281D01*
X39681Y257292D01*
X39577Y257305D01*
X39480Y257319D01*
X39386Y257333D01*
X39293Y257350D01*
X39210Y257371D01*
X39127Y257388D01*
X39051Y257409D01*
X38975Y257430D01*
X38906Y257451D01*
X38840Y257475D01*
X38778Y257496D01*
X38722Y257516D01*
X38667Y257541D01*
X38618Y257561D01*
X38570Y257582D01*
X38528Y257603D01*
X38490Y257620D01*
X38456Y257641D01*
X38425Y257658D01*
X38397Y257672D01*
X38376Y257686D01*
X38355Y257700D01*
X38338Y257710D01*
X38328Y257720D01*
X38317Y257727D01*
X38314Y257731D01*
X38311D01*
X38224Y257807D01*
X38148Y257890D01*
X38082Y257977D01*
X38027Y258067D01*
X37978Y258160D01*
X37940Y258250D01*
X37906Y258336D01*
X37881Y258423D01*
X37861Y258506D01*
X37847Y258579D01*
X37833Y258648D01*
X37826Y258707D01*
X37823Y258755D01*
X37819Y258790D01*
Y258821D01*
X37823Y258918D01*
X37833Y259008D01*
X37847Y259094D01*
X37864Y259177D01*
X37885Y259253D01*
X37909Y259323D01*
X37933Y259388D01*
X37961Y259451D01*
X37985Y259502D01*
X38010Y259551D01*
X38034Y259589D01*
X38054Y259624D01*
X38075Y259651D01*
X38089Y259668D01*
X38096Y259682D01*
X38099Y259686D01*
X38155Y259748D01*
X38214Y259807D01*
X38276Y259862D01*
X38342Y259914D01*
X38411Y259959D01*
X38477Y260001D01*
X38542Y260042D01*
X38605Y260077D01*
X38663Y260104D01*
X38719Y260132D01*
X38771Y260153D01*
X38812Y260174D01*
X38850Y260188D01*
X38875Y260198D01*
X38892Y260201D01*
X38899Y260205D01*
X38999Y260236D01*
X39106Y260264D01*
X39217Y260288D01*
X39331Y260309D01*
X39556Y260340D01*
X39667Y260350D01*
X39774Y260361D01*
X39874Y260367D01*
X39964Y260371D01*
X40047Y260374D01*
X40120Y260378D01*
X40151D01*
X40179Y260381D01*
X40203D01*
X40220D01*
X40238D01*
X40248D01*
X40255D01*
X40258D01*
X40390D01*
X40511Y260378D01*
D02*
G37*
G36*
X38463Y254285D02*
X38522Y254323D01*
X38580Y254364D01*
X38632Y254406D01*
X38681Y254444D01*
X38719Y254479D01*
X38750Y254506D01*
X38771Y254523D01*
X38778Y254530D01*
X38812Y254561D01*
X38850Y254603D01*
X38892Y254648D01*
X38940Y254700D01*
X38989Y254755D01*
X39040Y254811D01*
X39141Y254928D01*
X39189Y254984D01*
X39234Y255036D01*
X39276Y255081D01*
X39310Y255125D01*
X39342Y255160D01*
X39362Y255184D01*
X39380Y255202D01*
X39383Y255209D01*
X39480Y255323D01*
X39573Y255430D01*
X39660Y255527D01*
X39740Y255617D01*
X39816Y255700D01*
X39885Y255772D01*
X39947Y255842D01*
X40002Y255901D01*
X40054Y255953D01*
X40099Y255994D01*
X40137Y256032D01*
X40168Y256063D01*
X40193Y256087D01*
X40210Y256101D01*
X40220Y256112D01*
X40224Y256115D01*
X40283Y256164D01*
X40338Y256212D01*
X40393Y256254D01*
X40445Y256292D01*
X40546Y256361D01*
X40591Y256388D01*
X40632Y256413D01*
X40670Y256437D01*
X40705Y256454D01*
X40736Y256471D01*
X40760Y256482D01*
X40781Y256492D01*
X40795Y256499D01*
X40805Y256506D01*
X40809D01*
X40912Y256544D01*
X41013Y256575D01*
X41110Y256596D01*
X41196Y256610D01*
X41234Y256613D01*
X41269Y256617D01*
X41296Y256620D01*
X41324Y256624D01*
X41345D01*
X41359D01*
X41369D01*
X41373D01*
X41476Y256620D01*
X41577Y256606D01*
X41670Y256586D01*
X41760Y256561D01*
X41843Y256530D01*
X41923Y256496D01*
X41995Y256458D01*
X42061Y256423D01*
X42120Y256385D01*
X42172Y256347D01*
X42217Y256312D01*
X42251Y256281D01*
X42283Y256257D01*
X42303Y256236D01*
X42317Y256222D01*
X42321Y256219D01*
X42390Y256139D01*
X42449Y256056D01*
X42497Y255970D01*
X42542Y255880D01*
X42580Y255790D01*
X42611Y255696D01*
X42636Y255610D01*
X42656Y255523D01*
X42674Y255444D01*
X42684Y255368D01*
X42694Y255302D01*
X42698Y255243D01*
X42701Y255195D01*
X42705Y255160D01*
Y255129D01*
X42701Y255004D01*
X42691Y254887D01*
X42674Y254776D01*
X42649Y254672D01*
X42622Y254575D01*
X42590Y254485D01*
X42559Y254406D01*
X42528Y254330D01*
X42494Y254264D01*
X42463Y254205D01*
X42431Y254157D01*
X42404Y254115D01*
X42383Y254084D01*
X42362Y254060D01*
X42352Y254046D01*
X42348Y254043D01*
X42279Y253970D01*
X42203Y253908D01*
X42123Y253849D01*
X42040Y253800D01*
X41954Y253755D01*
X41867Y253717D01*
X41784Y253686D01*
X41701Y253659D01*
X41625Y253638D01*
X41552Y253620D01*
X41487Y253607D01*
X41431Y253596D01*
X41386Y253586D01*
X41352Y253582D01*
X41338D01*
X41328Y253579D01*
X41324D01*
X41321D01*
X41258Y254184D01*
X41341Y254188D01*
X41418Y254195D01*
X41490Y254209D01*
X41559Y254222D01*
X41622Y254243D01*
X41677Y254264D01*
X41732Y254288D01*
X41777Y254312D01*
X41819Y254333D01*
X41857Y254357D01*
X41888Y254378D01*
X41916Y254399D01*
X41933Y254413D01*
X41950Y254427D01*
X41957Y254433D01*
X41961Y254437D01*
X42006Y254485D01*
X42044Y254541D01*
X42078Y254596D01*
X42110Y254651D01*
X42134Y254710D01*
X42154Y254766D01*
X42172Y254821D01*
X42186Y254873D01*
X42196Y254925D01*
X42203Y254970D01*
X42210Y255011D01*
X42213Y255049D01*
X42217Y255077D01*
Y255119D01*
X42213Y255191D01*
X42206Y255260D01*
X42196Y255326D01*
X42179Y255388D01*
X42162Y255444D01*
X42141Y255499D01*
X42120Y255548D01*
X42096Y255593D01*
X42075Y255631D01*
X42051Y255665D01*
X42030Y255696D01*
X42013Y255721D01*
X41995Y255741D01*
X41985Y255755D01*
X41978Y255762D01*
X41975Y255766D01*
X41930Y255811D01*
X41881Y255849D01*
X41833Y255883D01*
X41781Y255911D01*
X41732Y255935D01*
X41684Y255956D01*
X41636Y255973D01*
X41591Y255987D01*
X41549Y255997D01*
X41511Y256004D01*
X41476Y256011D01*
X41445Y256015D01*
X41421Y256018D01*
X41404D01*
X41390D01*
X41386D01*
X41324Y256015D01*
X41262Y256008D01*
X41200Y255994D01*
X41137Y255977D01*
X41016Y255932D01*
X40961Y255904D01*
X40909Y255880D01*
X40861Y255856D01*
X40815Y255828D01*
X40778Y255807D01*
X40743Y255786D01*
X40719Y255766D01*
X40698Y255752D01*
X40684Y255745D01*
X40681Y255741D01*
X40608Y255686D01*
X40528Y255617D01*
X40449Y255544D01*
X40366Y255461D01*
X40279Y255378D01*
X40196Y255288D01*
X40113Y255202D01*
X40034Y255112D01*
X39957Y255029D01*
X39888Y254949D01*
X39823Y254880D01*
X39771Y254814D01*
X39726Y254762D01*
X39708Y254742D01*
X39691Y254724D01*
X39681Y254710D01*
X39670Y254700D01*
X39667Y254693D01*
X39663Y254690D01*
X39587Y254600D01*
X39515Y254513D01*
X39445Y254433D01*
X39380Y254357D01*
X39314Y254288D01*
X39255Y254226D01*
X39200Y254171D01*
X39148Y254119D01*
X39103Y254070D01*
X39061Y254032D01*
X39027Y253998D01*
X38996Y253970D01*
X38971Y253949D01*
X38954Y253935D01*
X38944Y253925D01*
X38940Y253921D01*
X38823Y253828D01*
X38708Y253748D01*
X38601Y253683D01*
X38553Y253652D01*
X38504Y253627D01*
X38463Y253607D01*
X38425Y253586D01*
X38390Y253569D01*
X38359Y253558D01*
X38335Y253548D01*
X38317Y253541D01*
X38307Y253534D01*
X38304D01*
X38231Y253510D01*
X38158Y253492D01*
X38089Y253482D01*
X38030Y253475D01*
X37975Y253472D01*
X37954Y253468D01*
X37933D01*
X37920D01*
X37909D01*
X37902D01*
X37899D01*
Y256631D01*
X38463D01*
Y254285D01*
D02*
G37*
G36*
X40424Y251413D02*
X40542Y251403D01*
X40656Y251385D01*
X40767Y251364D01*
X40874Y251340D01*
X40978Y251313D01*
X41072Y251281D01*
X41162Y251250D01*
X41245Y251219D01*
X41317Y251188D01*
X41383Y251160D01*
X41435Y251136D01*
X41480Y251115D01*
X41511Y251098D01*
X41532Y251088D01*
X41539Y251084D01*
X41646Y251019D01*
X41746Y250949D01*
X41843Y250877D01*
X41930Y250800D01*
X42013Y250724D01*
X42085Y250648D01*
X42154Y250572D01*
X42217Y250500D01*
X42269Y250434D01*
X42317Y250368D01*
X42355Y250313D01*
X42390Y250261D01*
X42414Y250219D01*
X42435Y250192D01*
X42445Y250171D01*
X42449Y250167D01*
Y250164D01*
X42504Y250053D01*
X42556Y249942D01*
X42597Y249832D01*
X42636Y249725D01*
X42667Y249621D01*
X42691Y249520D01*
X42712Y249427D01*
X42729Y249337D01*
X42743Y249254D01*
X42753Y249181D01*
X42760Y249115D01*
X42767Y249060D01*
Y249015D01*
X42770Y248981D01*
Y248953D01*
X42767Y248839D01*
X42757Y248725D01*
X42739Y248610D01*
X42722Y248503D01*
X42694Y248399D01*
X42670Y248299D01*
X42639Y248202D01*
X42611Y248116D01*
X42580Y248036D01*
X42549Y247963D01*
X42525Y247898D01*
X42500Y247846D01*
X42480Y247801D01*
X42463Y247770D01*
X42452Y247749D01*
X42449Y247745D01*
Y247742D01*
X42386Y247635D01*
X42317Y247531D01*
X42248Y247437D01*
X42172Y247347D01*
X42096Y247264D01*
X42020Y247188D01*
X41947Y247119D01*
X41874Y247057D01*
X41805Y247001D01*
X41743Y246953D01*
X41684Y246915D01*
X41636Y246880D01*
X41594Y246853D01*
X41566Y246832D01*
X41546Y246821D01*
X41542Y246818D01*
X41539D01*
X41428Y246759D01*
X41317Y246711D01*
X41206Y246666D01*
X41096Y246628D01*
X40988Y246597D01*
X40888Y246569D01*
X40791Y246548D01*
X40698Y246531D01*
X40615Y246517D01*
X40539Y246507D01*
X40470Y246500D01*
X40414Y246496D01*
X40366Y246493D01*
X40331Y246489D01*
X40321D01*
X40310D01*
X40307D01*
X40303D01*
X40186Y246493D01*
X40068Y246503D01*
X39954Y246520D01*
X39843Y246541D01*
X39736Y246566D01*
X39632Y246593D01*
X39539Y246621D01*
X39449Y246652D01*
X39369Y246683D01*
X39297Y246711D01*
X39231Y246739D01*
X39176Y246763D01*
X39134Y246783D01*
X39103Y246801D01*
X39082Y246811D01*
X39075Y246815D01*
X38968Y246877D01*
X38868Y246946D01*
X38774Y247019D01*
X38684Y247095D01*
X38601Y247171D01*
X38528Y247247D01*
X38459Y247320D01*
X38397Y247392D01*
X38345Y247458D01*
X38297Y247524D01*
X38255Y247579D01*
X38221Y247628D01*
X38196Y247669D01*
X38175Y247700D01*
X38165Y247718D01*
X38162Y247725D01*
X38106Y247835D01*
X38054Y247946D01*
X38013Y248057D01*
X37975Y248164D01*
X37944Y248271D01*
X37920Y248372D01*
X37899Y248468D01*
X37881Y248558D01*
X37868Y248645D01*
X37857Y248721D01*
X37850Y248787D01*
X37843Y248842D01*
Y248891D01*
X37840Y248925D01*
Y248953D01*
X37843Y249071D01*
X37854Y249188D01*
X37871Y249302D01*
X37892Y249413D01*
X37916Y249520D01*
X37940Y249621D01*
X37971Y249717D01*
X38002Y249804D01*
X38030Y249887D01*
X38061Y249960D01*
X38086Y250022D01*
X38113Y250077D01*
X38131Y250119D01*
X38148Y250150D01*
X38158Y250171D01*
X38162Y250178D01*
X38224Y250285D01*
X38293Y250385D01*
X38366Y250482D01*
X38442Y250569D01*
X38518Y250652D01*
X38594Y250724D01*
X38667Y250794D01*
X38739Y250856D01*
X38809Y250911D01*
X38871Y250956D01*
X38930Y250998D01*
X38978Y251032D01*
X39020Y251057D01*
X39051Y251077D01*
X39068Y251088D01*
X39075Y251091D01*
X39186Y251150D01*
X39297Y251198D01*
X39407Y251243D01*
X39515Y251278D01*
X39622Y251309D01*
X39722Y251337D01*
X39819Y251358D01*
X39909Y251375D01*
X39996Y251389D01*
X40072Y251399D01*
X40137Y251406D01*
X40193Y251413D01*
X40241D01*
X40276Y251416D01*
X40286D01*
X40297D01*
X40300D01*
X40303D01*
X40424Y251413D01*
D02*
G37*
G36*
X46069Y159929D02*
X46230Y159922D01*
X46375Y159915D01*
X46514Y159900D01*
X46641Y159882D01*
X46754Y159864D01*
X46859Y159846D01*
X46954Y159827D01*
X47038Y159806D01*
X47111Y159787D01*
X47172Y159769D01*
X47223Y159751D01*
X47263Y159737D01*
X47293Y159729D01*
X47307Y159722D01*
X47314Y159718D01*
X47405Y159678D01*
X47489Y159631D01*
X47565Y159584D01*
X47638Y159533D01*
X47708Y159482D01*
X47769Y159431D01*
X47828Y159380D01*
X47879Y159329D01*
X47922Y159282D01*
X47962Y159241D01*
X47995Y159201D01*
X48024Y159165D01*
X48042Y159140D01*
X48061Y159118D01*
X48068Y159103D01*
X48072Y159099D01*
X48119Y159023D01*
X48159Y158947D01*
X48195Y158867D01*
X48224Y158790D01*
X48250Y158714D01*
X48272Y158637D01*
X48290Y158568D01*
X48304Y158499D01*
X48315Y158437D01*
X48323Y158382D01*
X48330Y158332D01*
X48334Y158288D01*
X48337Y158251D01*
Y158204D01*
X48334Y158080D01*
X48315Y157960D01*
X48294Y157847D01*
X48264Y157742D01*
X48228Y157640D01*
X48188Y157545D01*
X48148Y157462D01*
X48104Y157381D01*
X48061Y157312D01*
X48017Y157250D01*
X47977Y157196D01*
X47940Y157152D01*
X47911Y157119D01*
X47890Y157094D01*
X47871Y157076D01*
X47868Y157072D01*
X47777Y156992D01*
X47682Y156923D01*
X47580Y156865D01*
X47478Y156810D01*
X47376Y156766D01*
X47274Y156730D01*
X47172Y156701D01*
X47078Y156679D01*
X46987Y156657D01*
X46903Y156646D01*
X46827Y156635D01*
X46761Y156628D01*
X46707Y156624D01*
X46685D01*
X46666Y156621D01*
X46652D01*
X46641D01*
X46637D01*
X46634D01*
X46499Y156624D01*
X46372Y156639D01*
X46248Y156661D01*
X46135Y156686D01*
X46029Y156719D01*
X45931Y156755D01*
X45840Y156795D01*
X45760Y156835D01*
X45687Y156876D01*
X45622Y156915D01*
X45567Y156952D01*
X45524Y156985D01*
X45487Y157010D01*
X45462Y157032D01*
X45443Y157047D01*
X45440Y157050D01*
X45360Y157134D01*
X45290Y157221D01*
X45232Y157309D01*
X45178Y157400D01*
X45134Y157487D01*
X45098Y157574D01*
X45068Y157662D01*
X45047Y157742D01*
X45025Y157818D01*
X45014Y157887D01*
X45003Y157953D01*
X44996Y158004D01*
X44992Y158048D01*
X44988Y158080D01*
Y158109D01*
X44992Y158179D01*
X44996Y158248D01*
X45017Y158375D01*
X45047Y158495D01*
X45061Y158546D01*
X45079Y158597D01*
X45098Y158644D01*
X45112Y158685D01*
X45127Y158717D01*
X45141Y158750D01*
X45152Y158772D01*
X45163Y158790D01*
X45167Y158801D01*
X45170Y158805D01*
X45243Y158921D01*
X45323Y159019D01*
X45363Y159067D01*
X45403Y159107D01*
X45440Y159147D01*
X45480Y159180D01*
X45513Y159212D01*
X45545Y159238D01*
X45574Y159260D01*
X45600Y159282D01*
X45622Y159296D01*
X45636Y159307D01*
X45647Y159311D01*
X45651Y159314D01*
X45622D01*
X45596D01*
X45574D01*
X45556D01*
X45545D01*
X45534D01*
X45531D01*
X45527D01*
X45385Y159311D01*
X45247Y159300D01*
X45119Y159285D01*
X45057Y159274D01*
X45003Y159267D01*
X44952Y159260D01*
X44908Y159249D01*
X44868Y159241D01*
X44835Y159234D01*
X44806Y159227D01*
X44788Y159223D01*
X44774Y159220D01*
X44770D01*
X44704Y159201D01*
X44639Y159183D01*
X44581Y159165D01*
X44523Y159147D01*
X44471Y159125D01*
X44424Y159107D01*
X44381Y159089D01*
X44341Y159070D01*
X44304Y159056D01*
X44271Y159038D01*
X44246Y159027D01*
X44224Y159012D01*
X44206Y159005D01*
X44195Y158998D01*
X44188Y158990D01*
X44184D01*
X44107Y158936D01*
X44038Y158878D01*
X43977Y158819D01*
X43929Y158765D01*
X43889Y158717D01*
X43860Y158677D01*
X43849Y158663D01*
X43842Y158652D01*
X43834Y158644D01*
Y158641D01*
X43791Y158557D01*
X43762Y158473D01*
X43740Y158386D01*
X43722Y158310D01*
X43714Y158240D01*
X43711Y158211D01*
Y158186D01*
X43707Y158168D01*
Y158139D01*
X43711Y158077D01*
X43714Y158018D01*
X43736Y157913D01*
X43765Y157822D01*
X43784Y157778D01*
X43802Y157742D01*
X43816Y157709D01*
X43834Y157676D01*
X43849Y157651D01*
X43864Y157633D01*
X43874Y157614D01*
X43885Y157604D01*
X43889Y157596D01*
X43893Y157593D01*
X43929Y157553D01*
X43973Y157520D01*
X44067Y157458D01*
X44169Y157407D01*
X44271Y157367D01*
X44315Y157352D01*
X44362Y157338D01*
X44402Y157327D01*
X44435Y157320D01*
X44464Y157312D01*
X44486Y157309D01*
X44501Y157305D01*
X44504D01*
X44450Y156712D01*
X44341Y156730D01*
X44238Y156752D01*
X44144Y156781D01*
X44053Y156814D01*
X43969Y156846D01*
X43896Y156886D01*
X43827Y156923D01*
X43765Y156963D01*
X43707Y156999D01*
X43660Y157036D01*
X43620Y157072D01*
X43587Y157101D01*
X43558Y157123D01*
X43540Y157145D01*
X43529Y157156D01*
X43525Y157159D01*
X43467Y157232D01*
X43416Y157309D01*
X43372Y157389D01*
X43336Y157469D01*
X43303Y157549D01*
X43278Y157629D01*
X43256Y157709D01*
X43238Y157785D01*
X43227Y157855D01*
X43216Y157920D01*
X43208Y157978D01*
X43201Y158029D01*
Y158069D01*
X43198Y158102D01*
Y158128D01*
X43201Y158230D01*
X43212Y158328D01*
X43227Y158423D01*
X43245Y158513D01*
X43267Y158601D01*
X43292Y158677D01*
X43318Y158754D01*
X43347Y158819D01*
X43376Y158881D01*
X43401Y158936D01*
X43427Y158983D01*
X43449Y159023D01*
X43467Y159056D01*
X43485Y159078D01*
X43492Y159092D01*
X43496Y159096D01*
X43554Y159172D01*
X43620Y159241D01*
X43689Y159307D01*
X43758Y159369D01*
X43831Y159423D01*
X43904Y159478D01*
X43973Y159522D01*
X44042Y159565D01*
X44107Y159602D01*
X44169Y159635D01*
X44224Y159660D01*
X44271Y159682D01*
X44311Y159700D01*
X44341Y159711D01*
X44359Y159718D01*
X44366Y159722D01*
X44479Y159758D01*
X44595Y159791D01*
X44719Y159820D01*
X44846Y159846D01*
X44974Y159864D01*
X45105Y159882D01*
X45229Y159897D01*
X45349Y159908D01*
X45462Y159915D01*
X45567Y159922D01*
X45662Y159926D01*
X45702Y159929D01*
X45742D01*
X45778D01*
X45811Y159933D01*
X45836D01*
X45858D01*
X45877D01*
X45891D01*
X45898D01*
X45902D01*
X46069Y159929D01*
D02*
G37*
G36*
X48337Y154637D02*
X48275Y154604D01*
X48213Y154568D01*
X48093Y154484D01*
X47980Y154393D01*
X47926Y154346D01*
X47875Y154302D01*
X47831Y154258D01*
X47787Y154218D01*
X47751Y154182D01*
X47718Y154149D01*
X47693Y154124D01*
X47675Y154105D01*
X47664Y154091D01*
X47660Y154087D01*
X47536Y153938D01*
X47424Y153781D01*
X47322Y153629D01*
X47278Y153556D01*
X47234Y153487D01*
X47198Y153425D01*
X47165Y153366D01*
X47136Y153312D01*
X47114Y153268D01*
X47096Y153232D01*
X47081Y153203D01*
X47074Y153188D01*
X47071Y153181D01*
X46474D01*
X46517Y153290D01*
X46568Y153403D01*
X46619Y153512D01*
X46670Y153614D01*
X46696Y153658D01*
X46717Y153701D01*
X46739Y153738D01*
X46757Y153767D01*
X46768Y153792D01*
X46779Y153814D01*
X46786Y153825D01*
X46790Y153829D01*
X46870Y153960D01*
X46910Y154018D01*
X46947Y154076D01*
X46987Y154127D01*
X47019Y154175D01*
X47056Y154218D01*
X47085Y154262D01*
X47114Y154295D01*
X47140Y154327D01*
X47165Y154357D01*
X47183Y154378D01*
X47198Y154397D01*
X47209Y154408D01*
X47216Y154415D01*
X47220Y154419D01*
X43281D01*
Y155037D01*
X48337D01*
Y154637D01*
D02*
G37*
G36*
X46029Y152074D02*
X46153Y152067D01*
X46266Y152060D01*
X46372Y152052D01*
X46470Y152042D01*
X46561Y152031D01*
X46641Y152020D01*
X46714Y152009D01*
X46776Y151998D01*
X46830Y151987D01*
X46874Y151980D01*
X46910Y151972D01*
X46932Y151965D01*
X46950Y151962D01*
X46954D01*
X47034Y151940D01*
X47114Y151914D01*
X47187Y151892D01*
X47256Y151867D01*
X47322Y151838D01*
X47383Y151812D01*
X47442Y151787D01*
X47493Y151761D01*
X47540Y151739D01*
X47580Y151718D01*
X47616Y151699D01*
X47646Y151681D01*
X47667Y151667D01*
X47686Y151656D01*
X47697Y151652D01*
X47700Y151648D01*
X47809Y151572D01*
X47904Y151488D01*
X47988Y151405D01*
X48053Y151324D01*
X48082Y151288D01*
X48104Y151252D01*
X48126Y151223D01*
X48144Y151197D01*
X48155Y151175D01*
X48166Y151161D01*
X48173Y151150D01*
Y151146D01*
X48202Y151088D01*
X48228Y151030D01*
X48268Y150906D01*
X48297Y150786D01*
X48315Y150677D01*
X48323Y150626D01*
X48330Y150582D01*
X48334Y150538D01*
Y150505D01*
X48337Y150476D01*
Y150436D01*
X48334Y150334D01*
X48326Y150240D01*
X48312Y150149D01*
X48290Y150061D01*
X48268Y149981D01*
X48243Y149905D01*
X48217Y149836D01*
X48192Y149774D01*
X48162Y149716D01*
X48137Y149668D01*
X48112Y149625D01*
X48090Y149588D01*
X48072Y149559D01*
X48057Y149541D01*
X48046Y149526D01*
X48042Y149523D01*
X47984Y149457D01*
X47922Y149395D01*
X47857Y149337D01*
X47787Y149282D01*
X47718Y149235D01*
X47646Y149191D01*
X47576Y149148D01*
X47511Y149115D01*
X47449Y149082D01*
X47391Y149053D01*
X47336Y149031D01*
X47293Y149009D01*
X47253Y148995D01*
X47227Y148984D01*
X47209Y148980D01*
X47201Y148977D01*
X47096Y148944D01*
X46983Y148918D01*
X46867Y148893D01*
X46747Y148871D01*
X46506Y148838D01*
X46390Y148827D01*
X46277Y148817D01*
X46171Y148809D01*
X46073Y148806D01*
X45986Y148802D01*
X45913Y148798D01*
X45880D01*
X45851Y148795D01*
X45826D01*
X45804D01*
X45786D01*
X45775D01*
X45767D01*
X45764D01*
X45633D01*
X45505Y148802D01*
X45385Y148806D01*
X45269Y148817D01*
X45156Y148827D01*
X45047Y148842D01*
X44945Y148857D01*
X44846Y148871D01*
X44748Y148889D01*
X44661Y148911D01*
X44573Y148929D01*
X44493Y148951D01*
X44413Y148973D01*
X44341Y148995D01*
X44271Y149020D01*
X44206Y149042D01*
X44148Y149064D01*
X44089Y149090D01*
X44038Y149111D01*
X43987Y149133D01*
X43944Y149155D01*
X43904Y149173D01*
X43867Y149195D01*
X43834Y149213D01*
X43805Y149228D01*
X43784Y149242D01*
X43762Y149257D01*
X43744Y149268D01*
X43733Y149279D01*
X43722Y149286D01*
X43718Y149290D01*
X43714D01*
X43623Y149370D01*
X43543Y149457D01*
X43474Y149548D01*
X43416Y149643D01*
X43365Y149741D01*
X43325Y149836D01*
X43288Y149927D01*
X43263Y150018D01*
X43241Y150105D01*
X43227Y150181D01*
X43212Y150254D01*
X43205Y150316D01*
X43201Y150367D01*
X43198Y150404D01*
Y150436D01*
X43201Y150538D01*
X43212Y150633D01*
X43227Y150724D01*
X43245Y150811D01*
X43267Y150891D01*
X43292Y150964D01*
X43318Y151033D01*
X43347Y151099D01*
X43372Y151153D01*
X43398Y151204D01*
X43423Y151244D01*
X43445Y151281D01*
X43467Y151310D01*
X43481Y151328D01*
X43489Y151343D01*
X43492Y151346D01*
X43551Y151412D01*
X43613Y151474D01*
X43678Y151532D01*
X43747Y151587D01*
X43820Y151634D01*
X43889Y151678D01*
X43958Y151721D01*
X44024Y151758D01*
X44086Y151787D01*
X44144Y151816D01*
X44199Y151838D01*
X44242Y151860D01*
X44282Y151874D01*
X44308Y151885D01*
X44326Y151889D01*
X44333Y151892D01*
X44439Y151925D01*
X44552Y151954D01*
X44668Y151980D01*
X44788Y152002D01*
X45025Y152034D01*
X45141Y152045D01*
X45254Y152056D01*
X45360Y152063D01*
X45454Y152067D01*
X45542Y152071D01*
X45618Y152074D01*
X45651D01*
X45680Y152078D01*
X45706D01*
X45724D01*
X45742D01*
X45753D01*
X45760D01*
X45764D01*
X45902D01*
X46029Y152074D01*
D02*
G37*
G36*
X43874Y145664D02*
X43936Y145704D01*
X43998Y145748D01*
X44053Y145792D01*
X44104Y145832D01*
X44144Y145868D01*
X44177Y145897D01*
X44199Y145915D01*
X44206Y145923D01*
X44242Y145956D01*
X44282Y145999D01*
X44326Y146046D01*
X44377Y146101D01*
X44428Y146159D01*
X44482Y146218D01*
X44588Y146341D01*
X44639Y146400D01*
X44686Y146454D01*
X44730Y146502D01*
X44766Y146549D01*
X44799Y146585D01*
X44821Y146611D01*
X44839Y146629D01*
X44843Y146636D01*
X44945Y146756D01*
X45043Y146869D01*
X45134Y146971D01*
X45218Y147066D01*
X45298Y147153D01*
X45371Y147230D01*
X45436Y147302D01*
X45494Y147364D01*
X45549Y147419D01*
X45596Y147462D01*
X45636Y147503D01*
X45669Y147535D01*
X45695Y147561D01*
X45713Y147575D01*
X45724Y147586D01*
X45727Y147590D01*
X45789Y147641D01*
X45847Y147692D01*
X45906Y147735D01*
X45960Y147775D01*
X46066Y147848D01*
X46113Y147877D01*
X46157Y147903D01*
X46197Y147928D01*
X46233Y147947D01*
X46266Y147965D01*
X46292Y147976D01*
X46313Y147987D01*
X46328Y147994D01*
X46339Y148001D01*
X46343D01*
X46452Y148041D01*
X46557Y148074D01*
X46659Y148096D01*
X46750Y148110D01*
X46790Y148114D01*
X46827Y148118D01*
X46856Y148121D01*
X46885Y148125D01*
X46907D01*
X46921D01*
X46932D01*
X46936D01*
X47045Y148121D01*
X47150Y148107D01*
X47249Y148085D01*
X47344Y148059D01*
X47431Y148027D01*
X47515Y147990D01*
X47591Y147950D01*
X47660Y147914D01*
X47722Y147874D01*
X47777Y147834D01*
X47824Y147797D01*
X47860Y147765D01*
X47893Y147739D01*
X47915Y147717D01*
X47929Y147703D01*
X47933Y147699D01*
X48006Y147615D01*
X48068Y147528D01*
X48119Y147437D01*
X48166Y147342D01*
X48206Y147248D01*
X48239Y147149D01*
X48264Y147058D01*
X48286Y146967D01*
X48304Y146884D01*
X48315Y146804D01*
X48326Y146734D01*
X48330Y146673D01*
X48334Y146622D01*
X48337Y146585D01*
Y146552D01*
X48334Y146421D01*
X48323Y146298D01*
X48304Y146181D01*
X48279Y146072D01*
X48250Y145970D01*
X48217Y145875D01*
X48184Y145792D01*
X48151Y145712D01*
X48115Y145642D01*
X48082Y145581D01*
X48050Y145530D01*
X48020Y145486D01*
X47999Y145453D01*
X47977Y145428D01*
X47966Y145413D01*
X47962Y145410D01*
X47890Y145333D01*
X47809Y145267D01*
X47726Y145206D01*
X47638Y145155D01*
X47547Y145107D01*
X47456Y145067D01*
X47369Y145035D01*
X47282Y145005D01*
X47201Y144984D01*
X47125Y144965D01*
X47056Y144951D01*
X46998Y144940D01*
X46950Y144929D01*
X46914Y144925D01*
X46899D01*
X46889Y144922D01*
X46885D01*
X46881D01*
X46816Y145559D01*
X46903Y145562D01*
X46983Y145570D01*
X47060Y145584D01*
X47132Y145599D01*
X47198Y145621D01*
X47256Y145642D01*
X47314Y145668D01*
X47362Y145693D01*
X47405Y145715D01*
X47445Y145741D01*
X47478Y145763D01*
X47507Y145784D01*
X47526Y145799D01*
X47544Y145814D01*
X47551Y145821D01*
X47555Y145824D01*
X47602Y145875D01*
X47642Y145934D01*
X47678Y145992D01*
X47711Y146050D01*
X47737Y146112D01*
X47758Y146170D01*
X47777Y146229D01*
X47791Y146283D01*
X47802Y146338D01*
X47809Y146385D01*
X47817Y146429D01*
X47820Y146469D01*
X47824Y146498D01*
Y146542D01*
X47820Y146618D01*
X47813Y146691D01*
X47802Y146760D01*
X47784Y146825D01*
X47766Y146884D01*
X47744Y146942D01*
X47722Y146993D01*
X47697Y147040D01*
X47675Y147080D01*
X47649Y147117D01*
X47627Y147149D01*
X47609Y147175D01*
X47591Y147197D01*
X47580Y147211D01*
X47573Y147219D01*
X47569Y147222D01*
X47522Y147269D01*
X47471Y147310D01*
X47420Y147346D01*
X47365Y147375D01*
X47314Y147401D01*
X47263Y147422D01*
X47212Y147441D01*
X47165Y147455D01*
X47121Y147466D01*
X47081Y147473D01*
X47045Y147481D01*
X47012Y147484D01*
X46987Y147488D01*
X46968D01*
X46954D01*
X46950D01*
X46885Y147484D01*
X46819Y147477D01*
X46754Y147462D01*
X46688Y147444D01*
X46561Y147397D01*
X46503Y147368D01*
X46448Y147342D01*
X46397Y147317D01*
X46350Y147288D01*
X46310Y147266D01*
X46273Y147244D01*
X46248Y147222D01*
X46226Y147208D01*
X46211Y147200D01*
X46208Y147197D01*
X46131Y147139D01*
X46048Y147066D01*
X45964Y146989D01*
X45877Y146902D01*
X45786Y146815D01*
X45698Y146720D01*
X45611Y146629D01*
X45527Y146534D01*
X45447Y146447D01*
X45374Y146363D01*
X45305Y146290D01*
X45250Y146221D01*
X45203Y146167D01*
X45185Y146145D01*
X45167Y146127D01*
X45156Y146112D01*
X45145Y146101D01*
X45141Y146094D01*
X45138Y146090D01*
X45057Y145995D01*
X44981Y145905D01*
X44908Y145821D01*
X44839Y145741D01*
X44770Y145668D01*
X44708Y145602D01*
X44650Y145544D01*
X44595Y145490D01*
X44548Y145439D01*
X44504Y145399D01*
X44468Y145362D01*
X44435Y145333D01*
X44410Y145311D01*
X44391Y145297D01*
X44381Y145286D01*
X44377Y145282D01*
X44253Y145184D01*
X44133Y145100D01*
X44020Y145031D01*
X43969Y144998D01*
X43918Y144973D01*
X43874Y144951D01*
X43834Y144929D01*
X43798Y144911D01*
X43765Y144900D01*
X43740Y144889D01*
X43722Y144882D01*
X43711Y144874D01*
X43707D01*
X43631Y144849D01*
X43554Y144831D01*
X43481Y144820D01*
X43420Y144813D01*
X43361Y144809D01*
X43339Y144805D01*
X43318D01*
X43303D01*
X43292D01*
X43285D01*
X43281D01*
Y148132D01*
X43874D01*
Y145664D01*
D02*
G37*
G36*
X43984Y143276D02*
X43281D01*
Y143979D01*
X43984D01*
Y143276D01*
D02*
G37*
G36*
X58302Y143975D02*
X58426Y143968D01*
X58539Y143961D01*
X58644Y143954D01*
X58742Y143943D01*
X58833Y143932D01*
X58914Y143921D01*
X58986Y143910D01*
X59048Y143899D01*
X59103Y143888D01*
X59146Y143881D01*
X59183Y143873D01*
X59205Y143866D01*
X59223Y143862D01*
X59227D01*
X59307Y143841D01*
X59387Y143815D01*
X59460Y143793D01*
X59529Y143768D01*
X59594Y143739D01*
X59656Y143713D01*
X59714Y143688D01*
X59765Y143662D01*
X59813Y143640D01*
X59853Y143619D01*
X59889Y143600D01*
X59918Y143582D01*
X59940Y143568D01*
X59958Y143557D01*
X59969Y143553D01*
X59973Y143549D01*
X60082Y143473D01*
X60177Y143389D01*
X60260Y143306D01*
X60326Y143226D01*
X60355Y143189D01*
X60377Y143153D01*
X60399Y143124D01*
X60417Y143098D01*
X60428Y143076D01*
X60439Y143062D01*
X60446Y143051D01*
Y143047D01*
X60475Y142989D01*
X60501Y142931D01*
X60541Y142807D01*
X60570Y142687D01*
X60588Y142578D01*
X60595Y142527D01*
X60602Y142483D01*
X60606Y142439D01*
Y142406D01*
X60610Y142377D01*
Y142337D01*
X60606Y142235D01*
X60599Y142141D01*
X60584Y142050D01*
X60562Y141962D01*
X60541Y141882D01*
X60515Y141806D01*
X60490Y141737D01*
X60464Y141675D01*
X60435Y141617D01*
X60410Y141569D01*
X60384Y141526D01*
X60362Y141489D01*
X60344Y141460D01*
X60330Y141442D01*
X60319Y141427D01*
X60315Y141424D01*
X60257Y141358D01*
X60195Y141296D01*
X60129Y141238D01*
X60060Y141183D01*
X59991Y141136D01*
X59918Y141092D01*
X59849Y141049D01*
X59784Y141016D01*
X59722Y140983D01*
X59663Y140954D01*
X59609Y140932D01*
X59565Y140910D01*
X59525Y140896D01*
X59500Y140885D01*
X59481Y140881D01*
X59474Y140878D01*
X59369Y140845D01*
X59256Y140819D01*
X59139Y140794D01*
X59019Y140772D01*
X58779Y140739D01*
X58662Y140728D01*
X58550Y140717D01*
X58444Y140710D01*
X58346Y140707D01*
X58258Y140703D01*
X58186Y140699D01*
X58153D01*
X58124Y140696D01*
X58098D01*
X58076D01*
X58058D01*
X58047D01*
X58040D01*
X58036D01*
X57905D01*
X57778Y140703D01*
X57658Y140707D01*
X57541Y140717D01*
X57428Y140728D01*
X57319Y140743D01*
X57217Y140758D01*
X57119Y140772D01*
X57021Y140790D01*
X56933Y140812D01*
X56846Y140830D01*
X56766Y140852D01*
X56686Y140874D01*
X56613Y140896D01*
X56544Y140921D01*
X56478Y140943D01*
X56420Y140965D01*
X56362Y140990D01*
X56311Y141012D01*
X56260Y141034D01*
X56216Y141056D01*
X56176Y141074D01*
X56140Y141096D01*
X56107Y141114D01*
X56078Y141129D01*
X56056Y141143D01*
X56034Y141158D01*
X56016Y141169D01*
X56005Y141180D01*
X55994Y141187D01*
X55991Y141191D01*
X55987D01*
X55896Y141271D01*
X55816Y141358D01*
X55747Y141449D01*
X55689Y141544D01*
X55638Y141642D01*
X55598Y141737D01*
X55561Y141828D01*
X55536Y141919D01*
X55514Y142006D01*
X55499Y142083D01*
X55485Y142155D01*
X55477Y142217D01*
X55474Y142268D01*
X55470Y142305D01*
Y142337D01*
X55474Y142439D01*
X55485Y142534D01*
X55499Y142625D01*
X55517Y142712D01*
X55539Y142792D01*
X55565Y142865D01*
X55590Y142934D01*
X55619Y143000D01*
X55645Y143054D01*
X55670Y143105D01*
X55696Y143145D01*
X55718Y143182D01*
X55739Y143211D01*
X55754Y143229D01*
X55761Y143244D01*
X55765Y143247D01*
X55823Y143313D01*
X55885Y143375D01*
X55951Y143433D01*
X56020Y143488D01*
X56093Y143535D01*
X56162Y143579D01*
X56231Y143622D01*
X56296Y143659D01*
X56358Y143688D01*
X56416Y143717D01*
X56471Y143739D01*
X56515Y143761D01*
X56555Y143775D01*
X56580Y143786D01*
X56599Y143790D01*
X56606Y143793D01*
X56711Y143826D01*
X56824Y143855D01*
X56941Y143881D01*
X57061Y143903D01*
X57297Y143935D01*
X57414Y143946D01*
X57527Y143957D01*
X57632Y143964D01*
X57727Y143968D01*
X57814Y143972D01*
X57891Y143975D01*
X57924D01*
X57953Y143979D01*
X57978D01*
X57996D01*
X58015D01*
X58025D01*
X58033D01*
X58036D01*
X58175D01*
X58302Y143975D01*
D02*
G37*
G36*
X56256Y139090D02*
X55554D01*
Y139793D01*
X56256D01*
Y139090D01*
D02*
G37*
G36*
X46029Y142294D02*
X46153Y142286D01*
X46266Y142279D01*
X46372Y142272D01*
X46470Y142261D01*
X46561Y142250D01*
X46641Y142239D01*
X46714Y142228D01*
X46776Y142217D01*
X46830Y142206D01*
X46874Y142199D01*
X46910Y142192D01*
X46932Y142184D01*
X46950Y142181D01*
X46954D01*
X47034Y142159D01*
X47114Y142133D01*
X47187Y142112D01*
X47256Y142086D01*
X47322Y142057D01*
X47383Y142032D01*
X47442Y142006D01*
X47493Y141981D01*
X47540Y141959D01*
X47580Y141937D01*
X47616Y141919D01*
X47646Y141901D01*
X47667Y141886D01*
X47686Y141875D01*
X47697Y141871D01*
X47700Y141868D01*
X47809Y141791D01*
X47904Y141708D01*
X47988Y141624D01*
X48053Y141544D01*
X48082Y141507D01*
X48104Y141471D01*
X48126Y141442D01*
X48144Y141416D01*
X48155Y141395D01*
X48166Y141380D01*
X48173Y141369D01*
Y141365D01*
X48202Y141307D01*
X48228Y141249D01*
X48268Y141125D01*
X48297Y141005D01*
X48315Y140896D01*
X48323Y140845D01*
X48330Y140801D01*
X48334Y140758D01*
Y140725D01*
X48337Y140696D01*
Y140656D01*
X48334Y140554D01*
X48326Y140459D01*
X48312Y140368D01*
X48290Y140281D01*
X48268Y140201D01*
X48243Y140124D01*
X48217Y140055D01*
X48192Y139993D01*
X48162Y139935D01*
X48137Y139888D01*
X48112Y139844D01*
X48090Y139807D01*
X48072Y139778D01*
X48057Y139760D01*
X48046Y139746D01*
X48042Y139742D01*
X47984Y139676D01*
X47922Y139615D01*
X47857Y139556D01*
X47787Y139502D01*
X47718Y139454D01*
X47646Y139411D01*
X47576Y139367D01*
X47511Y139334D01*
X47449Y139302D01*
X47391Y139272D01*
X47336Y139251D01*
X47293Y139229D01*
X47253Y139214D01*
X47227Y139203D01*
X47209Y139200D01*
X47201Y139196D01*
X47096Y139163D01*
X46983Y139138D01*
X46867Y139112D01*
X46747Y139090D01*
X46506Y139058D01*
X46390Y139047D01*
X46277Y139036D01*
X46171Y139029D01*
X46073Y139025D01*
X45986Y139021D01*
X45913Y139018D01*
X45880D01*
X45851Y139014D01*
X45826D01*
X45804D01*
X45786D01*
X45775D01*
X45767D01*
X45764D01*
X45633D01*
X45505Y139021D01*
X45385Y139025D01*
X45269Y139036D01*
X45156Y139047D01*
X45047Y139061D01*
X44945Y139076D01*
X44846Y139090D01*
X44748Y139109D01*
X44661Y139130D01*
X44573Y139149D01*
X44493Y139171D01*
X44413Y139192D01*
X44341Y139214D01*
X44271Y139240D01*
X44206Y139261D01*
X44148Y139283D01*
X44089Y139309D01*
X44038Y139331D01*
X43987Y139353D01*
X43944Y139374D01*
X43904Y139393D01*
X43867Y139414D01*
X43834Y139433D01*
X43805Y139447D01*
X43784Y139462D01*
X43762Y139476D01*
X43744Y139487D01*
X43733Y139498D01*
X43722Y139505D01*
X43718Y139509D01*
X43714D01*
X43623Y139589D01*
X43543Y139676D01*
X43474Y139768D01*
X43416Y139862D01*
X43365Y139960D01*
X43325Y140055D01*
X43288Y140146D01*
X43263Y140237D01*
X43241Y140324D01*
X43227Y140401D01*
X43212Y140474D01*
X43205Y140535D01*
X43201Y140586D01*
X43198Y140623D01*
Y140656D01*
X43201Y140758D01*
X43212Y140852D01*
X43227Y140943D01*
X43245Y141031D01*
X43267Y141111D01*
X43292Y141183D01*
X43318Y141253D01*
X43347Y141318D01*
X43372Y141373D01*
X43398Y141424D01*
X43423Y141464D01*
X43445Y141500D01*
X43467Y141529D01*
X43481Y141547D01*
X43489Y141562D01*
X43492Y141566D01*
X43551Y141631D01*
X43613Y141693D01*
X43678Y141751D01*
X43747Y141806D01*
X43820Y141853D01*
X43889Y141897D01*
X43958Y141941D01*
X44024Y141977D01*
X44086Y142006D01*
X44144Y142035D01*
X44199Y142057D01*
X44242Y142079D01*
X44282Y142093D01*
X44308Y142104D01*
X44326Y142108D01*
X44333Y142112D01*
X44439Y142144D01*
X44552Y142174D01*
X44668Y142199D01*
X44788Y142221D01*
X45025Y142254D01*
X45141Y142264D01*
X45254Y142275D01*
X45360Y142283D01*
X45454Y142286D01*
X45542Y142290D01*
X45618Y142294D01*
X45651D01*
X45680Y142297D01*
X45706D01*
X45724D01*
X45742D01*
X45753D01*
X45760D01*
X45764D01*
X45902D01*
X46029Y142294D01*
D02*
G37*
G36*
X51558Y137358D02*
X50935D01*
Y139265D01*
X51558D01*
Y137358D01*
D02*
G37*
G36*
X48337Y137030D02*
X48275Y136997D01*
X48213Y136961D01*
X48093Y136877D01*
X47980Y136786D01*
X47926Y136739D01*
X47875Y136695D01*
X47831Y136652D01*
X47787Y136612D01*
X47751Y136575D01*
X47718Y136542D01*
X47693Y136517D01*
X47675Y136499D01*
X47664Y136484D01*
X47660Y136481D01*
X47536Y136331D01*
X47424Y136175D01*
X47322Y136022D01*
X47278Y135949D01*
X47234Y135880D01*
X47198Y135818D01*
X47165Y135760D01*
X47136Y135705D01*
X47114Y135662D01*
X47096Y135625D01*
X47081Y135596D01*
X47074Y135582D01*
X47071Y135574D01*
X46474D01*
X46517Y135683D01*
X46568Y135796D01*
X46619Y135905D01*
X46670Y136007D01*
X46696Y136051D01*
X46717Y136095D01*
X46739Y136131D01*
X46757Y136160D01*
X46768Y136186D01*
X46779Y136208D01*
X46786Y136219D01*
X46790Y136222D01*
X46870Y136353D01*
X46910Y136411D01*
X46947Y136470D01*
X46987Y136521D01*
X47019Y136568D01*
X47056Y136612D01*
X47085Y136655D01*
X47114Y136688D01*
X47140Y136721D01*
X47165Y136750D01*
X47183Y136772D01*
X47198Y136790D01*
X47209Y136801D01*
X47216Y136808D01*
X47220Y136812D01*
X43281D01*
Y137431D01*
X48337D01*
Y137030D01*
D02*
G37*
G36*
X60610Y136757D02*
X60548Y136724D01*
X60486Y136688D01*
X60366Y136604D01*
X60253Y136513D01*
X60198Y136466D01*
X60148Y136422D01*
X60104Y136379D01*
X60060Y136339D01*
X60024Y136302D01*
X59991Y136269D01*
X59965Y136244D01*
X59947Y136226D01*
X59936Y136211D01*
X59933Y136208D01*
X59809Y136058D01*
X59696Y135902D01*
X59594Y135749D01*
X59551Y135676D01*
X59507Y135607D01*
X59470Y135545D01*
X59438Y135487D01*
X59409Y135432D01*
X59387Y135389D01*
X59369Y135352D01*
X59354Y135323D01*
X59347Y135309D01*
X59343Y135301D01*
X58746D01*
X58790Y135410D01*
X58841Y135523D01*
X58892Y135632D01*
X58943Y135734D01*
X58968Y135778D01*
X58990Y135822D01*
X59012Y135858D01*
X59030Y135887D01*
X59041Y135913D01*
X59052Y135935D01*
X59059Y135945D01*
X59063Y135949D01*
X59143Y136080D01*
X59183Y136138D01*
X59219Y136197D01*
X59259Y136248D01*
X59292Y136295D01*
X59329Y136339D01*
X59358Y136382D01*
X59387Y136415D01*
X59412Y136448D01*
X59438Y136477D01*
X59456Y136499D01*
X59470Y136517D01*
X59481Y136528D01*
X59489Y136535D01*
X59492Y136539D01*
X55554D01*
Y137158D01*
X60610D01*
Y136757D01*
D02*
G37*
G36*
X53076Y133867D02*
X52373D01*
Y134570D01*
X53076D01*
Y133867D01*
D02*
G37*
G36*
X50127D02*
X49425D01*
Y134570D01*
X50127D01*
Y133867D01*
D02*
G37*
G36*
X43984Y133496D02*
X43281D01*
Y134198D01*
X43984D01*
Y133496D01*
D02*
G37*
G36*
X59205Y131264D02*
X58502D01*
Y131967D01*
X59205D01*
Y131264D01*
D02*
G37*
G36*
X56256D02*
X55554D01*
Y131967D01*
X56256D01*
Y131264D01*
D02*
G37*
G36*
X51882Y132742D02*
X51944Y132739D01*
X51998D01*
X52046Y132735D01*
X52089Y132731D01*
X52129Y132728D01*
X52162Y132724D01*
X52191Y132720D01*
X52217Y132717D01*
X52235D01*
X52249Y132713D01*
X52260Y132710D01*
X52264D01*
X52268D01*
X52362Y132684D01*
X52450Y132655D01*
X52530Y132626D01*
X52595Y132593D01*
X52650Y132564D01*
X52672Y132549D01*
X52690Y132538D01*
X52705Y132531D01*
X52715Y132524D01*
X52719Y132517D01*
X52723D01*
X52792Y132458D01*
X52854Y132393D01*
X52908Y132324D01*
X52952Y132258D01*
X52988Y132196D01*
X53003Y132171D01*
X53014Y132149D01*
X53025Y132127D01*
X53032Y132113D01*
X53036Y132105D01*
Y132102D01*
X53076Y131996D01*
X53105Y131890D01*
X53127Y131789D01*
X53141Y131698D01*
X53145Y131654D01*
X53149Y131617D01*
X53152Y131581D01*
X53156Y131552D01*
Y131497D01*
X53149Y131359D01*
X53130Y131228D01*
X53101Y131108D01*
X53061Y130995D01*
X53017Y130889D01*
X52966Y130795D01*
X52912Y130708D01*
X52857Y130631D01*
X52799Y130562D01*
X52745Y130504D01*
X52693Y130453D01*
X52650Y130409D01*
X52610Y130380D01*
X52581Y130354D01*
X52562Y130340D01*
X52555Y130336D01*
X53076D01*
Y129779D01*
X49425D01*
Y130398D01*
X51416D01*
X51543Y130402D01*
X51660Y130409D01*
X51765Y130424D01*
X51860Y130442D01*
X51947Y130464D01*
X52027Y130489D01*
X52097Y130515D01*
X52155Y130540D01*
X52209Y130566D01*
X52253Y130591D01*
X52289Y130616D01*
X52319Y130638D01*
X52341Y130657D01*
X52359Y130671D01*
X52366Y130678D01*
X52370Y130682D01*
X52413Y130737D01*
X52453Y130795D01*
X52486Y130853D01*
X52515Y130911D01*
X52541Y130970D01*
X52559Y131024D01*
X52577Y131079D01*
X52588Y131133D01*
X52599Y131181D01*
X52606Y131224D01*
X52614Y131264D01*
X52617Y131301D01*
X52621Y131326D01*
Y131366D01*
X52617Y131457D01*
X52602Y131537D01*
X52584Y131610D01*
X52566Y131676D01*
X52544Y131727D01*
X52526Y131763D01*
X52519Y131778D01*
X52512Y131789D01*
X52508Y131792D01*
Y131796D01*
X52464Y131861D01*
X52413Y131916D01*
X52362Y131960D01*
X52315Y131996D01*
X52271Y132022D01*
X52239Y132040D01*
X52224Y132047D01*
X52213Y132051D01*
X52209Y132054D01*
X52206D01*
X52169Y132069D01*
X52129Y132080D01*
X52038Y132098D01*
X51947Y132109D01*
X51853Y132120D01*
X51813D01*
X51773Y132123D01*
X51736D01*
X51704Y132127D01*
X51678D01*
X51660D01*
X51645D01*
X51642D01*
X49425D01*
Y132746D01*
X51667D01*
X51744D01*
X51816D01*
X51882Y132742D01*
D02*
G37*
G36*
X44857Y132531D02*
X44941Y132524D01*
X45021Y132513D01*
X45098Y132495D01*
X45170Y132477D01*
X45236Y132458D01*
X45298Y132433D01*
X45356Y132411D01*
X45407Y132389D01*
X45451Y132367D01*
X45487Y132345D01*
X45520Y132327D01*
X45545Y132309D01*
X45564Y132298D01*
X45574Y132291D01*
X45578Y132287D01*
X45636Y132240D01*
X45691Y132185D01*
X45738Y132131D01*
X45782Y132076D01*
X45822Y132018D01*
X45855Y131960D01*
X45888Y131901D01*
X45913Y131847D01*
X45938Y131796D01*
X45957Y131749D01*
X45975Y131705D01*
X45986Y131665D01*
X45997Y131636D01*
X46004Y131610D01*
X46008Y131596D01*
Y131592D01*
X46037Y131654D01*
X46069Y131712D01*
X46106Y131767D01*
X46139Y131818D01*
X46175Y131865D01*
X46211Y131905D01*
X46244Y131945D01*
X46277Y131978D01*
X46310Y132011D01*
X46339Y132036D01*
X46364Y132058D01*
X46386Y132076D01*
X46404Y132091D01*
X46419Y132102D01*
X46426Y132105D01*
X46430Y132109D01*
X46481Y132142D01*
X46532Y132167D01*
X46586Y132193D01*
X46637Y132211D01*
X46736Y132244D01*
X46830Y132265D01*
X46870Y132273D01*
X46910Y132276D01*
X46943Y132284D01*
X46972D01*
X46994Y132287D01*
X47012D01*
X47023D01*
X47027D01*
X47092Y132284D01*
X47154Y132280D01*
X47274Y132258D01*
X47383Y132229D01*
X47431Y132211D01*
X47478Y132196D01*
X47522Y132178D01*
X47558Y132160D01*
X47595Y132145D01*
X47620Y132131D01*
X47646Y132120D01*
X47660Y132109D01*
X47671Y132105D01*
X47675Y132102D01*
X47729Y132065D01*
X47784Y132025D01*
X47879Y131941D01*
X47962Y131854D01*
X48031Y131767D01*
X48061Y131727D01*
X48086Y131690D01*
X48108Y131658D01*
X48126Y131628D01*
X48141Y131603D01*
X48151Y131585D01*
X48155Y131574D01*
X48159Y131570D01*
X48192Y131505D01*
X48217Y131439D01*
X48243Y131374D01*
X48261Y131305D01*
X48294Y131177D01*
X48304Y131119D01*
X48315Y131061D01*
X48323Y131010D01*
X48326Y130962D01*
X48334Y130919D01*
Y130882D01*
X48337Y130853D01*
Y130813D01*
X48334Y130704D01*
X48323Y130598D01*
X48304Y130496D01*
X48283Y130402D01*
X48257Y130314D01*
X48228Y130234D01*
X48199Y130158D01*
X48166Y130089D01*
X48133Y130027D01*
X48104Y129972D01*
X48075Y129925D01*
X48050Y129885D01*
X48028Y129852D01*
X48010Y129830D01*
X47999Y129816D01*
X47995Y129812D01*
X47929Y129739D01*
X47857Y129674D01*
X47780Y129615D01*
X47700Y129565D01*
X47620Y129517D01*
X47540Y129474D01*
X47460Y129437D01*
X47383Y129404D01*
X47311Y129379D01*
X47245Y129357D01*
X47187Y129339D01*
X47132Y129324D01*
X47089Y129313D01*
X47060Y129306D01*
X47038Y129299D01*
X47034D01*
X47030D01*
X46921Y129918D01*
X47005Y129932D01*
X47081Y129950D01*
X47150Y129969D01*
X47216Y129994D01*
X47278Y130016D01*
X47333Y130045D01*
X47383Y130070D01*
X47431Y130096D01*
X47467Y130122D01*
X47504Y130143D01*
X47533Y130165D01*
X47555Y130183D01*
X47573Y130202D01*
X47587Y130212D01*
X47595Y130220D01*
X47598Y130223D01*
X47638Y130271D01*
X47675Y130318D01*
X47704Y130369D01*
X47729Y130420D01*
X47755Y130471D01*
X47773Y130518D01*
X47798Y130613D01*
X47809Y130657D01*
X47817Y130697D01*
X47820Y130733D01*
X47824Y130766D01*
X47828Y130788D01*
Y130824D01*
X47824Y130889D01*
X47817Y130955D01*
X47806Y131013D01*
X47791Y131071D01*
X47777Y131123D01*
X47755Y131173D01*
X47737Y131217D01*
X47715Y131257D01*
X47693Y131294D01*
X47675Y131326D01*
X47653Y131352D01*
X47638Y131377D01*
X47624Y131395D01*
X47613Y131406D01*
X47605Y131414D01*
X47602Y131417D01*
X47558Y131457D01*
X47515Y131494D01*
X47467Y131527D01*
X47420Y131552D01*
X47373Y131574D01*
X47325Y131592D01*
X47238Y131621D01*
X47198Y131632D01*
X47161Y131639D01*
X47125Y131643D01*
X47100Y131647D01*
X47074Y131650D01*
X47056D01*
X47045D01*
X47041D01*
X46965Y131647D01*
X46892Y131636D01*
X46823Y131621D01*
X46761Y131599D01*
X46703Y131578D01*
X46652Y131552D01*
X46605Y131523D01*
X46561Y131494D01*
X46525Y131461D01*
X46492Y131436D01*
X46466Y131406D01*
X46444Y131385D01*
X46426Y131363D01*
X46415Y131348D01*
X46408Y131337D01*
X46404Y131334D01*
X46368Y131275D01*
X46339Y131213D01*
X46310Y131152D01*
X46288Y131090D01*
X46251Y130970D01*
X46237Y130915D01*
X46226Y130860D01*
X46219Y130809D01*
X46211Y130766D01*
X46208Y130726D01*
X46204Y130689D01*
X46200Y130664D01*
Y130595D01*
X46204Y130562D01*
Y130547D01*
X46208Y130536D01*
Y130526D01*
X45665Y130456D01*
X45687Y130551D01*
X45702Y130635D01*
X45716Y130708D01*
X45724Y130773D01*
X45727Y130824D01*
X45731Y130860D01*
Y130893D01*
X45727Y130973D01*
X45720Y131046D01*
X45706Y131119D01*
X45687Y131184D01*
X45665Y131246D01*
X45644Y131305D01*
X45618Y131359D01*
X45593Y131406D01*
X45567Y131450D01*
X45542Y131490D01*
X45520Y131523D01*
X45498Y131548D01*
X45480Y131570D01*
X45465Y131588D01*
X45458Y131596D01*
X45454Y131599D01*
X45400Y131650D01*
X45345Y131690D01*
X45287Y131730D01*
X45229Y131763D01*
X45170Y131789D01*
X45112Y131810D01*
X45054Y131829D01*
X44999Y131843D01*
X44948Y131858D01*
X44901Y131865D01*
X44857Y131872D01*
X44825Y131876D01*
X44792Y131880D01*
X44770D01*
X44755D01*
X44752D01*
X44672Y131876D01*
X44592Y131865D01*
X44519Y131851D01*
X44450Y131832D01*
X44381Y131810D01*
X44322Y131785D01*
X44264Y131756D01*
X44213Y131730D01*
X44166Y131701D01*
X44126Y131672D01*
X44089Y131647D01*
X44060Y131625D01*
X44035Y131607D01*
X44020Y131592D01*
X44009Y131581D01*
X44006Y131578D01*
X43951Y131519D01*
X43907Y131461D01*
X43867Y131399D01*
X43831Y131337D01*
X43802Y131275D01*
X43776Y131213D01*
X43758Y131152D01*
X43740Y131097D01*
X43729Y131042D01*
X43718Y130995D01*
X43714Y130951D01*
X43707Y130911D01*
Y130882D01*
X43703Y130857D01*
Y130839D01*
X43707Y130769D01*
X43714Y130708D01*
X43725Y130646D01*
X43740Y130587D01*
X43758Y130533D01*
X43776Y130482D01*
X43798Y130435D01*
X43820Y130391D01*
X43838Y130351D01*
X43860Y130318D01*
X43878Y130285D01*
X43896Y130263D01*
X43911Y130242D01*
X43922Y130227D01*
X43929Y130220D01*
X43933Y130216D01*
X43980Y130169D01*
X44031Y130129D01*
X44089Y130089D01*
X44151Y130052D01*
X44275Y129990D01*
X44402Y129939D01*
X44461Y129921D01*
X44515Y129903D01*
X44563Y129888D01*
X44606Y129878D01*
X44643Y129867D01*
X44672Y129859D01*
X44686Y129856D01*
X44693D01*
X44610Y129237D01*
X44493Y129252D01*
X44384Y129273D01*
X44282Y129306D01*
X44184Y129339D01*
X44093Y129379D01*
X44009Y129419D01*
X43929Y129463D01*
X43860Y129506D01*
X43798Y129550D01*
X43744Y129590D01*
X43696Y129630D01*
X43656Y129663D01*
X43623Y129692D01*
X43602Y129714D01*
X43587Y129728D01*
X43583Y129732D01*
X43514Y129816D01*
X43452Y129907D01*
X43401Y129998D01*
X43358Y130089D01*
X43318Y130183D01*
X43285Y130274D01*
X43259Y130365D01*
X43241Y130449D01*
X43223Y130529D01*
X43212Y130602D01*
X43201Y130667D01*
X43198Y130726D01*
X43194Y130769D01*
X43190Y130806D01*
Y130835D01*
X43194Y130970D01*
X43208Y131097D01*
X43234Y131221D01*
X43263Y131334D01*
X43296Y131443D01*
X43336Y131541D01*
X43376Y131636D01*
X43420Y131719D01*
X43463Y131792D01*
X43503Y131861D01*
X43543Y131916D01*
X43576Y131963D01*
X43605Y132003D01*
X43631Y132029D01*
X43645Y132043D01*
X43649Y132051D01*
X43736Y132134D01*
X43827Y132211D01*
X43922Y132276D01*
X44017Y132331D01*
X44111Y132378D01*
X44206Y132418D01*
X44293Y132447D01*
X44381Y132473D01*
X44461Y132495D01*
X44533Y132509D01*
X44599Y132520D01*
X44657Y132527D01*
X44701Y132531D01*
X44737Y132535D01*
X44759D01*
X44766D01*
X44857Y132531D01*
D02*
G37*
G36*
X58011Y130140D02*
X58073Y130136D01*
X58127D01*
X58175Y130132D01*
X58218Y130129D01*
X58258Y130125D01*
X58291Y130122D01*
X58320Y130118D01*
X58346Y130114D01*
X58364D01*
X58378Y130111D01*
X58389Y130107D01*
X58393D01*
X58397D01*
X58491Y130081D01*
X58579Y130052D01*
X58659Y130023D01*
X58724Y129990D01*
X58779Y129961D01*
X58801Y129947D01*
X58819Y129936D01*
X58833Y129929D01*
X58844Y129921D01*
X58848Y129914D01*
X58852D01*
X58921Y129856D01*
X58983Y129790D01*
X59037Y129721D01*
X59081Y129656D01*
X59117Y129594D01*
X59132Y129568D01*
X59143Y129546D01*
X59154Y129525D01*
X59161Y129510D01*
X59165Y129503D01*
Y129499D01*
X59205Y129393D01*
X59234Y129288D01*
X59256Y129186D01*
X59270Y129095D01*
X59274Y129051D01*
X59278Y129015D01*
X59281Y128979D01*
X59285Y128949D01*
Y128895D01*
X59278Y128756D01*
X59259Y128625D01*
X59230Y128505D01*
X59190Y128393D01*
X59146Y128287D01*
X59096Y128192D01*
X59041Y128105D01*
X58986Y128029D01*
X58928Y127959D01*
X58873Y127901D01*
X58823Y127850D01*
X58779Y127806D01*
X58739Y127777D01*
X58710Y127752D01*
X58692Y127737D01*
X58684Y127734D01*
X59205D01*
Y127177D01*
X55554D01*
Y127796D01*
X57545D01*
X57672Y127799D01*
X57789Y127806D01*
X57894Y127821D01*
X57989Y127839D01*
X58076Y127861D01*
X58156Y127886D01*
X58226Y127912D01*
X58284Y127937D01*
X58338Y127963D01*
X58382Y127988D01*
X58419Y128014D01*
X58448Y128036D01*
X58469Y128054D01*
X58488Y128068D01*
X58495Y128076D01*
X58499Y128079D01*
X58542Y128134D01*
X58582Y128192D01*
X58615Y128251D01*
X58644Y128309D01*
X58670Y128367D01*
X58688Y128422D01*
X58706Y128476D01*
X58717Y128531D01*
X58728Y128578D01*
X58735Y128622D01*
X58742Y128662D01*
X58746Y128698D01*
X58750Y128724D01*
Y128764D01*
X58746Y128855D01*
X58732Y128935D01*
X58713Y129008D01*
X58695Y129073D01*
X58673Y129124D01*
X58655Y129160D01*
X58648Y129175D01*
X58641Y129186D01*
X58637Y129190D01*
Y129193D01*
X58593Y129259D01*
X58542Y129313D01*
X58491Y129357D01*
X58444Y129393D01*
X58400Y129419D01*
X58368Y129437D01*
X58353Y129444D01*
X58342Y129448D01*
X58338Y129452D01*
X58335D01*
X58298Y129466D01*
X58258Y129477D01*
X58167Y129495D01*
X58076Y129506D01*
X57982Y129517D01*
X57942D01*
X57902Y129521D01*
X57865D01*
X57832Y129525D01*
X57807D01*
X57789D01*
X57774D01*
X57771D01*
X55554D01*
Y130143D01*
X57796D01*
X57872D01*
X57945D01*
X58011Y130140D01*
D02*
G37*
G36*
X51460Y129051D02*
X51609Y129033D01*
X51747Y129011D01*
X51878Y128979D01*
X52002Y128942D01*
X52111Y128902D01*
X52213Y128858D01*
X52308Y128815D01*
X52388Y128771D01*
X52461Y128727D01*
X52519Y128687D01*
X52570Y128651D01*
X52610Y128618D01*
X52639Y128596D01*
X52653Y128582D01*
X52661Y128575D01*
X52748Y128483D01*
X52825Y128385D01*
X52890Y128283D01*
X52948Y128181D01*
X52996Y128079D01*
X53036Y127978D01*
X53069Y127876D01*
X53094Y127781D01*
X53116Y127690D01*
X53130Y127606D01*
X53141Y127533D01*
X53149Y127468D01*
X53152Y127417D01*
X53156Y127395D01*
Y127344D01*
X53152Y127220D01*
X53138Y127100D01*
X53119Y126987D01*
X53094Y126882D01*
X53061Y126780D01*
X53028Y126685D01*
X52988Y126598D01*
X52952Y126518D01*
X52916Y126445D01*
X52876Y126383D01*
X52843Y126329D01*
X52814Y126281D01*
X52785Y126245D01*
X52766Y126219D01*
X52752Y126205D01*
X52748Y126198D01*
X52650Y126099D01*
X52544Y126012D01*
X52428Y125939D01*
X52308Y125874D01*
X52184Y125819D01*
X52060Y125775D01*
X51936Y125735D01*
X51816Y125706D01*
X51700Y125684D01*
X51594Y125666D01*
X51500Y125655D01*
X51456Y125648D01*
X51416Y125644D01*
X51380D01*
X51347Y125641D01*
X51318D01*
X51292Y125637D01*
X51274D01*
X51259D01*
X51252D01*
X51249D01*
X51081Y125641D01*
X50921Y125659D01*
X50775Y125681D01*
X50637Y125710D01*
X50510Y125746D01*
X50393Y125786D01*
X50287Y125830D01*
X50193Y125874D01*
X50109Y125917D01*
X50036Y125957D01*
X49975Y125997D01*
X49924Y126034D01*
X49883Y126063D01*
X49854Y126085D01*
X49840Y126103D01*
X49832Y126107D01*
X49745Y126198D01*
X49672Y126296D01*
X49607Y126398D01*
X49552Y126500D01*
X49505Y126602D01*
X49465Y126707D01*
X49432Y126805D01*
X49407Y126904D01*
X49385Y126995D01*
X49370Y127078D01*
X49359Y127151D01*
X49352Y127217D01*
X49348Y127271D01*
Y127293D01*
X49345Y127311D01*
Y127344D01*
X49348Y127435D01*
X49356Y127519D01*
X49367Y127603D01*
X49381Y127686D01*
X49396Y127763D01*
X49414Y127836D01*
X49436Y127901D01*
X49458Y127967D01*
X49476Y128021D01*
X49498Y128072D01*
X49516Y128116D01*
X49534Y128156D01*
X49545Y128185D01*
X49556Y128207D01*
X49563Y128221D01*
X49567Y128225D01*
X49610Y128298D01*
X49658Y128367D01*
X49709Y128433D01*
X49760Y128491D01*
X49811Y128545D01*
X49862Y128596D01*
X49913Y128644D01*
X49964Y128684D01*
X50011Y128720D01*
X50055Y128753D01*
X50091Y128778D01*
X50127Y128800D01*
X50153Y128818D01*
X50175Y128829D01*
X50189Y128837D01*
X50193Y128840D01*
X50273Y128877D01*
X50357Y128913D01*
X50444Y128938D01*
X50535Y128964D01*
X50630Y128986D01*
X50721Y129004D01*
X50812Y129019D01*
X50899Y129030D01*
X50979Y129037D01*
X51056Y129044D01*
X51125Y129048D01*
X51183Y129051D01*
X51230Y129055D01*
X51270D01*
X51281D01*
X51292D01*
X51296D01*
X51299D01*
X51460Y129051D01*
D02*
G37*
G36*
X43874Y126103D02*
X43936Y126143D01*
X43998Y126187D01*
X44053Y126230D01*
X44104Y126270D01*
X44144Y126307D01*
X44177Y126336D01*
X44199Y126354D01*
X44206Y126361D01*
X44242Y126394D01*
X44282Y126438D01*
X44326Y126485D01*
X44377Y126540D01*
X44428Y126598D01*
X44482Y126656D01*
X44588Y126780D01*
X44639Y126838D01*
X44686Y126893D01*
X44730Y126940D01*
X44766Y126987D01*
X44799Y127024D01*
X44821Y127049D01*
X44839Y127067D01*
X44843Y127075D01*
X44945Y127195D01*
X45043Y127308D01*
X45134Y127410D01*
X45218Y127504D01*
X45298Y127592D01*
X45371Y127668D01*
X45436Y127741D01*
X45494Y127803D01*
X45549Y127857D01*
X45596Y127901D01*
X45636Y127941D01*
X45669Y127974D01*
X45695Y127999D01*
X45713Y128014D01*
X45724Y128025D01*
X45727Y128029D01*
X45789Y128079D01*
X45847Y128130D01*
X45906Y128174D01*
X45960Y128214D01*
X46066Y128287D01*
X46113Y128316D01*
X46157Y128341D01*
X46197Y128367D01*
X46233Y128385D01*
X46266Y128403D01*
X46292Y128414D01*
X46313Y128425D01*
X46328Y128433D01*
X46339Y128440D01*
X46343D01*
X46452Y128480D01*
X46557Y128513D01*
X46659Y128534D01*
X46750Y128549D01*
X46790Y128553D01*
X46827Y128556D01*
X46856Y128560D01*
X46885Y128564D01*
X46907D01*
X46921D01*
X46932D01*
X46936D01*
X47045Y128560D01*
X47150Y128545D01*
X47249Y128524D01*
X47344Y128498D01*
X47431Y128465D01*
X47515Y128429D01*
X47591Y128389D01*
X47660Y128352D01*
X47722Y128312D01*
X47777Y128272D01*
X47824Y128236D01*
X47860Y128203D01*
X47893Y128178D01*
X47915Y128156D01*
X47929Y128141D01*
X47933Y128138D01*
X48006Y128054D01*
X48068Y127967D01*
X48119Y127876D01*
X48166Y127781D01*
X48206Y127686D01*
X48239Y127588D01*
X48264Y127497D01*
X48286Y127406D01*
X48304Y127322D01*
X48315Y127242D01*
X48326Y127173D01*
X48330Y127111D01*
X48334Y127060D01*
X48337Y127024D01*
Y126991D01*
X48334Y126860D01*
X48323Y126736D01*
X48304Y126620D01*
X48279Y126511D01*
X48250Y126409D01*
X48217Y126314D01*
X48184Y126230D01*
X48151Y126150D01*
X48115Y126081D01*
X48082Y126019D01*
X48050Y125968D01*
X48020Y125925D01*
X47999Y125892D01*
X47977Y125866D01*
X47966Y125852D01*
X47962Y125848D01*
X47890Y125772D01*
X47809Y125706D01*
X47726Y125644D01*
X47638Y125593D01*
X47547Y125546D01*
X47456Y125506D01*
X47369Y125473D01*
X47282Y125444D01*
X47201Y125422D01*
X47125Y125404D01*
X47056Y125390D01*
X46998Y125379D01*
X46950Y125368D01*
X46914Y125364D01*
X46899D01*
X46889Y125360D01*
X46885D01*
X46881D01*
X46816Y125997D01*
X46903Y126001D01*
X46983Y126008D01*
X47060Y126023D01*
X47132Y126037D01*
X47198Y126059D01*
X47256Y126081D01*
X47314Y126107D01*
X47362Y126132D01*
X47405Y126154D01*
X47445Y126179D01*
X47478Y126201D01*
X47507Y126223D01*
X47526Y126238D01*
X47544Y126252D01*
X47551Y126259D01*
X47555Y126263D01*
X47602Y126314D01*
X47642Y126372D01*
X47678Y126430D01*
X47711Y126489D01*
X47737Y126551D01*
X47758Y126609D01*
X47777Y126667D01*
X47791Y126722D01*
X47802Y126776D01*
X47809Y126824D01*
X47817Y126867D01*
X47820Y126907D01*
X47824Y126936D01*
Y126980D01*
X47820Y127057D01*
X47813Y127129D01*
X47802Y127199D01*
X47784Y127264D01*
X47766Y127322D01*
X47744Y127381D01*
X47722Y127431D01*
X47697Y127479D01*
X47675Y127519D01*
X47649Y127555D01*
X47627Y127588D01*
X47609Y127613D01*
X47591Y127635D01*
X47580Y127650D01*
X47573Y127657D01*
X47569Y127661D01*
X47522Y127708D01*
X47471Y127748D01*
X47420Y127785D01*
X47365Y127814D01*
X47314Y127839D01*
X47263Y127861D01*
X47212Y127879D01*
X47165Y127894D01*
X47121Y127905D01*
X47081Y127912D01*
X47045Y127919D01*
X47012Y127923D01*
X46987Y127927D01*
X46968D01*
X46954D01*
X46950D01*
X46885Y127923D01*
X46819Y127916D01*
X46754Y127901D01*
X46688Y127883D01*
X46561Y127836D01*
X46503Y127806D01*
X46448Y127781D01*
X46397Y127755D01*
X46350Y127726D01*
X46310Y127705D01*
X46273Y127683D01*
X46248Y127661D01*
X46226Y127646D01*
X46211Y127639D01*
X46208Y127635D01*
X46131Y127577D01*
X46048Y127504D01*
X45964Y127428D01*
X45877Y127340D01*
X45786Y127253D01*
X45698Y127158D01*
X45611Y127067D01*
X45527Y126973D01*
X45447Y126885D01*
X45374Y126802D01*
X45305Y126729D01*
X45250Y126660D01*
X45203Y126605D01*
X45185Y126583D01*
X45167Y126565D01*
X45156Y126551D01*
X45145Y126540D01*
X45141Y126532D01*
X45138Y126529D01*
X45057Y126434D01*
X44981Y126343D01*
X44908Y126259D01*
X44839Y126179D01*
X44770Y126107D01*
X44708Y126041D01*
X44650Y125983D01*
X44595Y125928D01*
X44548Y125877D01*
X44504Y125837D01*
X44468Y125801D01*
X44435Y125772D01*
X44410Y125750D01*
X44391Y125735D01*
X44381Y125724D01*
X44377Y125721D01*
X44253Y125622D01*
X44133Y125539D01*
X44020Y125470D01*
X43969Y125437D01*
X43918Y125411D01*
X43874Y125390D01*
X43834Y125368D01*
X43798Y125349D01*
X43765Y125338D01*
X43740Y125328D01*
X43722Y125320D01*
X43711Y125313D01*
X43707D01*
X43631Y125288D01*
X43554Y125269D01*
X43481Y125258D01*
X43420Y125251D01*
X43361Y125248D01*
X43339Y125244D01*
X43318D01*
X43303D01*
X43292D01*
X43285D01*
X43281D01*
Y128571D01*
X43874D01*
Y126103D01*
D02*
G37*
G36*
X54463Y124308D02*
X53753D01*
Y124927D01*
X54463D01*
Y124308D01*
D02*
G37*
G36*
X53076D02*
X49425D01*
Y124927D01*
X53076D01*
Y124308D01*
D02*
G37*
G36*
X57589Y126449D02*
X57738Y126430D01*
X57876Y126409D01*
X58007Y126376D01*
X58131Y126339D01*
X58240Y126300D01*
X58342Y126256D01*
X58437Y126212D01*
X58517Y126168D01*
X58590Y126125D01*
X58648Y126085D01*
X58699Y126048D01*
X58739Y126016D01*
X58768Y125994D01*
X58783Y125979D01*
X58790Y125972D01*
X58877Y125881D01*
X58954Y125783D01*
X59019Y125681D01*
X59077Y125579D01*
X59125Y125477D01*
X59165Y125375D01*
X59197Y125273D01*
X59223Y125178D01*
X59245Y125087D01*
X59259Y125004D01*
X59270Y124931D01*
X59278Y124865D01*
X59281Y124814D01*
X59285Y124793D01*
Y124742D01*
X59281Y124618D01*
X59267Y124498D01*
X59249Y124385D01*
X59223Y124279D01*
X59190Y124177D01*
X59157Y124083D01*
X59117Y123995D01*
X59081Y123915D01*
X59045Y123843D01*
X59005Y123781D01*
X58972Y123726D01*
X58943Y123679D01*
X58914Y123642D01*
X58895Y123617D01*
X58881Y123602D01*
X58877Y123595D01*
X58779Y123497D01*
X58673Y123409D01*
X58557Y123337D01*
X58437Y123271D01*
X58313Y123216D01*
X58189Y123173D01*
X58065Y123133D01*
X57945Y123104D01*
X57829Y123082D01*
X57723Y123064D01*
X57629Y123053D01*
X57585Y123045D01*
X57545Y123042D01*
X57508D01*
X57476Y123038D01*
X57447D01*
X57421Y123034D01*
X57403D01*
X57388D01*
X57381D01*
X57377D01*
X57210Y123038D01*
X57050Y123056D01*
X56904Y123078D01*
X56766Y123107D01*
X56639Y123144D01*
X56522Y123184D01*
X56416Y123227D01*
X56322Y123271D01*
X56238Y123315D01*
X56165Y123355D01*
X56103Y123395D01*
X56053Y123431D01*
X56012Y123460D01*
X55983Y123482D01*
X55969Y123500D01*
X55962Y123504D01*
X55874Y123595D01*
X55801Y123693D01*
X55736Y123795D01*
X55681Y123897D01*
X55634Y123999D01*
X55594Y124105D01*
X55561Y124203D01*
X55536Y124301D01*
X55514Y124392D01*
X55499Y124476D01*
X55488Y124549D01*
X55481Y124614D01*
X55477Y124669D01*
Y124691D01*
X55474Y124709D01*
Y124742D01*
X55477Y124833D01*
X55485Y124916D01*
X55496Y125000D01*
X55510Y125084D01*
X55525Y125160D01*
X55543Y125233D01*
X55565Y125299D01*
X55587Y125364D01*
X55605Y125419D01*
X55627Y125470D01*
X55645Y125513D01*
X55663Y125553D01*
X55674Y125582D01*
X55685Y125604D01*
X55692Y125619D01*
X55696Y125622D01*
X55739Y125695D01*
X55787Y125764D01*
X55838Y125830D01*
X55889Y125888D01*
X55940Y125943D01*
X55991Y125994D01*
X56042Y126041D01*
X56093Y126081D01*
X56140Y126118D01*
X56184Y126150D01*
X56220Y126176D01*
X56256Y126198D01*
X56282Y126216D01*
X56304Y126227D01*
X56318Y126234D01*
X56322Y126238D01*
X56402Y126274D01*
X56486Y126310D01*
X56573Y126336D01*
X56664Y126361D01*
X56759Y126383D01*
X56850Y126401D01*
X56941Y126416D01*
X57028Y126427D01*
X57108Y126434D01*
X57185Y126441D01*
X57254Y126445D01*
X57312Y126449D01*
X57359Y126452D01*
X57399D01*
X57410D01*
X57421D01*
X57425D01*
X57428D01*
X57589Y126449D01*
D02*
G37*
G36*
X46932Y121757D02*
X46230D01*
Y122459D01*
X46932D01*
Y121757D01*
D02*
G37*
G36*
X43984D02*
X43281D01*
Y122459D01*
X43984D01*
Y121757D01*
D02*
G37*
G36*
X60592Y121706D02*
X59882D01*
Y122325D01*
X60592D01*
Y121706D01*
D02*
G37*
G36*
X59205D02*
X55554D01*
Y122325D01*
X59205D01*
Y121706D01*
D02*
G37*
G36*
X50612Y123566D02*
X50713Y123551D01*
X50801Y123526D01*
X50841Y123511D01*
X50877Y123500D01*
X50910Y123486D01*
X50939Y123471D01*
X50964Y123460D01*
X50986Y123446D01*
X51001Y123438D01*
X51012Y123431D01*
X51019Y123424D01*
X51023D01*
X51099Y123362D01*
X51165Y123296D01*
X51219Y123231D01*
X51267Y123165D01*
X51303Y123107D01*
X51318Y123082D01*
X51328Y123060D01*
X51340Y123042D01*
X51347Y123027D01*
X51350Y123020D01*
Y123016D01*
X51372Y122962D01*
X51394Y122903D01*
X51420Y122834D01*
X51441Y122765D01*
X51492Y122612D01*
X51536Y122459D01*
X51558Y122390D01*
X51576Y122321D01*
X51594Y122259D01*
X51609Y122204D01*
X51620Y122161D01*
X51631Y122128D01*
X51634Y122106D01*
X51638Y122103D01*
Y122099D01*
X51660Y122019D01*
X51682Y121942D01*
X51700Y121877D01*
X51714Y121819D01*
X51729Y121768D01*
X51744Y121724D01*
X51754Y121684D01*
X51762Y121651D01*
X51773Y121626D01*
X51776Y121604D01*
X51784Y121586D01*
X51787Y121571D01*
X51791Y121560D01*
X51794Y121553D01*
Y121549D01*
X51820Y121491D01*
X51849Y121444D01*
X51875Y121400D01*
X51900Y121367D01*
X51925Y121342D01*
X51944Y121324D01*
X51955Y121313D01*
X51958Y121309D01*
X51995Y121284D01*
X52035Y121265D01*
X52071Y121254D01*
X52104Y121247D01*
X52133Y121240D01*
X52155Y121236D01*
X52173D01*
X52177D01*
X52209Y121240D01*
X52246Y121244D01*
X52308Y121265D01*
X52362Y121294D01*
X52410Y121327D01*
X52450Y121360D01*
X52479Y121389D01*
X52497Y121411D01*
X52504Y121415D01*
Y121418D01*
X52530Y121455D01*
X52552Y121498D01*
X52570Y121542D01*
X52588Y121589D01*
X52614Y121691D01*
X52628Y121793D01*
X52635Y121841D01*
X52639Y121884D01*
X52643Y121924D01*
Y121961D01*
X52646Y121990D01*
Y122095D01*
X52639Y122157D01*
X52632Y122215D01*
X52621Y122270D01*
X52610Y122317D01*
X52595Y122365D01*
X52581Y122405D01*
X52566Y122445D01*
X52552Y122477D01*
X52537Y122507D01*
X52522Y122528D01*
X52512Y122550D01*
X52501Y122565D01*
X52493Y122579D01*
X52490Y122583D01*
X52486Y122587D01*
X52457Y122623D01*
X52424Y122656D01*
X52351Y122710D01*
X52279Y122750D01*
X52209Y122783D01*
X52148Y122805D01*
X52118Y122816D01*
X52097Y122820D01*
X52075Y122827D01*
X52060D01*
X52053Y122831D01*
X52049D01*
X52133Y123435D01*
X52260Y123409D01*
X52315Y123391D01*
X52370Y123373D01*
X52421Y123358D01*
X52468Y123340D01*
X52508Y123322D01*
X52548Y123304D01*
X52581Y123286D01*
X52614Y123271D01*
X52639Y123256D01*
X52657Y123242D01*
X52675Y123231D01*
X52686Y123224D01*
X52693Y123220D01*
X52697Y123216D01*
X52737Y123187D01*
X52774Y123151D01*
X52839Y123078D01*
X52897Y122998D01*
X52945Y122922D01*
X52981Y122849D01*
X52996Y122820D01*
X53010Y122794D01*
X53021Y122772D01*
X53025Y122754D01*
X53032Y122743D01*
Y122740D01*
X53072Y122616D01*
X53105Y122485D01*
X53127Y122357D01*
X53134Y122295D01*
X53141Y122241D01*
X53145Y122186D01*
X53149Y122135D01*
X53152Y122092D01*
X53156Y122055D01*
Y121982D01*
X53152Y121877D01*
X53145Y121779D01*
X53130Y121688D01*
X53119Y121607D01*
X53112Y121575D01*
X53105Y121542D01*
X53098Y121513D01*
X53090Y121491D01*
X53087Y121473D01*
X53083Y121458D01*
X53079Y121451D01*
Y121447D01*
X53050Y121360D01*
X53021Y121280D01*
X52992Y121214D01*
X52963Y121160D01*
X52937Y121113D01*
X52919Y121080D01*
X52905Y121062D01*
X52901Y121054D01*
X52846Y120985D01*
X52788Y120927D01*
X52730Y120872D01*
X52675Y120829D01*
X52628Y120796D01*
X52592Y120770D01*
X52577Y120759D01*
X52566Y120752D01*
X52559Y120748D01*
X52555D01*
X52475Y120712D01*
X52399Y120687D01*
X52322Y120665D01*
X52253Y120654D01*
X52191Y120647D01*
X52166Y120643D01*
X52144D01*
X52129Y120639D01*
X52115D01*
X52108D01*
X52104D01*
X52006Y120647D01*
X51915Y120661D01*
X51831Y120683D01*
X51758Y120708D01*
X51725Y120719D01*
X51696Y120730D01*
X51671Y120741D01*
X51652Y120752D01*
X51634Y120763D01*
X51623Y120767D01*
X51616Y120774D01*
X51613D01*
X51532Y120829D01*
X51463Y120894D01*
X51405Y120960D01*
X51358Y121021D01*
X51318Y121080D01*
X51303Y121105D01*
X51288Y121127D01*
X51281Y121145D01*
X51274Y121160D01*
X51267Y121167D01*
Y121171D01*
X51245Y121225D01*
X51219Y121287D01*
X51194Y121356D01*
X51168Y121429D01*
X51117Y121586D01*
X51070Y121742D01*
X51048Y121819D01*
X51030Y121888D01*
X51012Y121950D01*
X50997Y122008D01*
X50986Y122052D01*
X50976Y122088D01*
X50972Y122110D01*
X50968Y122114D01*
Y122117D01*
X50946Y122208D01*
X50924Y122292D01*
X50903Y122365D01*
X50884Y122430D01*
X50866Y122488D01*
X50848Y122543D01*
X50833Y122587D01*
X50819Y122627D01*
X50804Y122656D01*
X50793Y122685D01*
X50783Y122707D01*
X50775Y122725D01*
X50768Y122736D01*
X50764Y122743D01*
X50761Y122750D01*
X50739Y122783D01*
X50713Y122812D01*
X50684Y122838D01*
X50659Y122860D01*
X50604Y122892D01*
X50553Y122914D01*
X50506Y122925D01*
X50466Y122933D01*
X50455Y122936D01*
X50444D01*
X50437D01*
X50433D01*
X50389Y122933D01*
X50349Y122929D01*
X50309Y122918D01*
X50273Y122903D01*
X50200Y122871D01*
X50142Y122834D01*
X50095Y122794D01*
X50058Y122761D01*
X50044Y122747D01*
X50033Y122736D01*
X50029Y122732D01*
X50025Y122729D01*
X49996Y122689D01*
X49971Y122641D01*
X49927Y122543D01*
X49898Y122437D01*
X49876Y122336D01*
X49869Y122285D01*
X49865Y122241D01*
X49858Y122201D01*
Y122164D01*
X49854Y122135D01*
Y122095D01*
X49858Y122019D01*
X49862Y121946D01*
X49872Y121877D01*
X49883Y121811D01*
X49898Y121753D01*
X49916Y121698D01*
X49934Y121648D01*
X49953Y121604D01*
X49967Y121564D01*
X49985Y121531D01*
X50004Y121502D01*
X50018Y121476D01*
X50029Y121458D01*
X50040Y121444D01*
X50044Y121436D01*
X50047Y121433D01*
X50087Y121393D01*
X50127Y121353D01*
X50171Y121320D01*
X50218Y121291D01*
X50313Y121240D01*
X50404Y121203D01*
X50444Y121189D01*
X50484Y121178D01*
X50520Y121167D01*
X50550Y121160D01*
X50575Y121156D01*
X50597Y121152D01*
X50608Y121149D01*
X50612D01*
X50517Y120537D01*
X50411Y120559D01*
X50313Y120588D01*
X50218Y120617D01*
X50135Y120654D01*
X50055Y120694D01*
X49982Y120730D01*
X49920Y120774D01*
X49862Y120814D01*
X49807Y120850D01*
X49763Y120887D01*
X49727Y120923D01*
X49694Y120952D01*
X49672Y120974D01*
X49654Y120996D01*
X49643Y121007D01*
X49640Y121011D01*
X49589Y121083D01*
X49541Y121163D01*
X49501Y121251D01*
X49468Y121338D01*
X49439Y121429D01*
X49417Y121520D01*
X49396Y121607D01*
X49381Y121695D01*
X49370Y121779D01*
X49359Y121855D01*
X49356Y121921D01*
X49348Y121982D01*
Y122030D01*
X49345Y122066D01*
Y122099D01*
X49352Y122255D01*
X49367Y122401D01*
X49381Y122467D01*
X49392Y122532D01*
X49407Y122590D01*
X49421Y122645D01*
X49432Y122692D01*
X49447Y122736D01*
X49461Y122776D01*
X49472Y122809D01*
X49479Y122834D01*
X49487Y122852D01*
X49494Y122863D01*
Y122867D01*
X49523Y122929D01*
X49556Y122987D01*
X49589Y123042D01*
X49621Y123093D01*
X49658Y123140D01*
X49694Y123184D01*
X49727Y123224D01*
X49760Y123256D01*
X49793Y123289D01*
X49822Y123315D01*
X49847Y123340D01*
X49872Y123358D01*
X49891Y123373D01*
X49905Y123384D01*
X49913Y123388D01*
X49916Y123391D01*
X49967Y123424D01*
X50018Y123453D01*
X50073Y123475D01*
X50124Y123497D01*
X50222Y123529D01*
X50309Y123551D01*
X50349Y123559D01*
X50386Y123562D01*
X50419Y123570D01*
X50448D01*
X50469Y123573D01*
X50484D01*
X50495D01*
X50499D01*
X50612Y123566D01*
D02*
G37*
G36*
X54463Y119227D02*
X53753D01*
Y119846D01*
X54463D01*
Y119227D01*
D02*
G37*
G36*
X53076D02*
X49425D01*
Y119846D01*
X53076D01*
Y119227D01*
D02*
G37*
G36*
X45276Y120825D02*
X45432Y120810D01*
X45578Y120785D01*
X45713Y120756D01*
X45836Y120719D01*
X45953Y120683D01*
X46059Y120639D01*
X46153Y120596D01*
X46237Y120552D01*
X46310Y120512D01*
X46372Y120472D01*
X46423Y120435D01*
X46463Y120406D01*
X46492Y120385D01*
X46506Y120366D01*
X46514Y120363D01*
X46601Y120272D01*
X46677Y120177D01*
X46747Y120082D01*
X46801Y119980D01*
X46852Y119882D01*
X46892Y119780D01*
X46925Y119686D01*
X46950Y119591D01*
X46972Y119504D01*
X46987Y119423D01*
X46998Y119354D01*
X47005Y119289D01*
X47009Y119238D01*
X47012Y119202D01*
Y119169D01*
X47005Y119030D01*
X46990Y118899D01*
X46965Y118776D01*
X46932Y118656D01*
X46896Y118546D01*
X46852Y118448D01*
X46805Y118353D01*
X46757Y118270D01*
X46710Y118193D01*
X46663Y118128D01*
X46623Y118073D01*
X46583Y118026D01*
X46550Y117986D01*
X46525Y117960D01*
X46510Y117946D01*
X46503Y117938D01*
X46404Y117855D01*
X46295Y117782D01*
X46182Y117720D01*
X46066Y117665D01*
X45946Y117618D01*
X45826Y117582D01*
X45709Y117549D01*
X45600Y117523D01*
X45491Y117505D01*
X45392Y117491D01*
X45305Y117480D01*
X45229Y117473D01*
X45192Y117469D01*
X45163D01*
X45138D01*
X45116Y117465D01*
X45098D01*
X45087D01*
X45079D01*
X45076D01*
X44912Y117469D01*
X44759Y117487D01*
X44617Y117509D01*
X44482Y117538D01*
X44359Y117574D01*
X44246Y117614D01*
X44144Y117655D01*
X44049Y117698D01*
X43966Y117742D01*
X43896Y117786D01*
X43834Y117822D01*
X43784Y117858D01*
X43744Y117887D01*
X43714Y117913D01*
X43700Y117928D01*
X43692Y117931D01*
X43605Y118022D01*
X43529Y118120D01*
X43463Y118222D01*
X43409Y118328D01*
X43361Y118433D01*
X43321Y118539D01*
X43288Y118645D01*
X43263Y118743D01*
X43241Y118837D01*
X43227Y118925D01*
X43216Y119001D01*
X43208Y119070D01*
X43205Y119125D01*
Y119147D01*
X43201Y119165D01*
Y119202D01*
X43205Y119318D01*
X43216Y119431D01*
X43230Y119536D01*
X43249Y119635D01*
X43274Y119726D01*
X43299Y119813D01*
X43329Y119889D01*
X43358Y119962D01*
X43383Y120028D01*
X43412Y120082D01*
X43438Y120133D01*
X43463Y120173D01*
X43481Y120206D01*
X43496Y120228D01*
X43507Y120243D01*
X43511Y120246D01*
X43572Y120319D01*
X43638Y120388D01*
X43707Y120450D01*
X43776Y120505D01*
X43849Y120556D01*
X43922Y120603D01*
X43995Y120643D01*
X44060Y120679D01*
X44126Y120712D01*
X44188Y120738D01*
X44242Y120759D01*
X44289Y120778D01*
X44326Y120789D01*
X44355Y120799D01*
X44373Y120807D01*
X44381D01*
X44464Y120170D01*
X44391Y120141D01*
X44326Y120112D01*
X44264Y120082D01*
X44206Y120050D01*
X44155Y120017D01*
X44107Y119988D01*
X44067Y119955D01*
X44027Y119926D01*
X43995Y119897D01*
X43966Y119871D01*
X43944Y119849D01*
X43922Y119828D01*
X43907Y119809D01*
X43896Y119798D01*
X43893Y119791D01*
X43889Y119788D01*
X43856Y119740D01*
X43831Y119693D01*
X43805Y119646D01*
X43787Y119595D01*
X43754Y119496D01*
X43733Y119405D01*
X43725Y119365D01*
X43722Y119325D01*
X43718Y119292D01*
X43714Y119263D01*
X43711Y119238D01*
Y119205D01*
X43714Y119121D01*
X43725Y119041D01*
X43740Y118965D01*
X43762Y118892D01*
X43784Y118823D01*
X43813Y118761D01*
X43838Y118703D01*
X43871Y118652D01*
X43900Y118605D01*
X43929Y118561D01*
X43955Y118524D01*
X43977Y118495D01*
X43998Y118473D01*
X44013Y118455D01*
X44024Y118444D01*
X44027Y118441D01*
X44089Y118386D01*
X44159Y118339D01*
X44231Y118295D01*
X44308Y118259D01*
X44384Y118226D01*
X44461Y118201D01*
X44533Y118175D01*
X44610Y118157D01*
X44679Y118142D01*
X44741Y118128D01*
X44799Y118120D01*
X44850Y118113D01*
X44890Y118106D01*
X44923D01*
X44941Y118102D01*
X44948D01*
Y120825D01*
X44988D01*
X45021Y120829D01*
X45047D01*
X45072D01*
X45090D01*
X45101D01*
X45109D01*
X45112D01*
X45276Y120825D01*
D02*
G37*
G36*
X56740Y120963D02*
X56842Y120949D01*
X56930Y120923D01*
X56970Y120909D01*
X57006Y120898D01*
X57039Y120883D01*
X57068Y120869D01*
X57094Y120858D01*
X57115Y120843D01*
X57130Y120836D01*
X57141Y120829D01*
X57148Y120821D01*
X57152D01*
X57228Y120759D01*
X57294Y120694D01*
X57348Y120628D01*
X57396Y120563D01*
X57432Y120505D01*
X57447Y120479D01*
X57458Y120457D01*
X57468Y120439D01*
X57476Y120424D01*
X57479Y120417D01*
Y120414D01*
X57501Y120359D01*
X57523Y120301D01*
X57549Y120232D01*
X57570Y120162D01*
X57621Y120010D01*
X57665Y119857D01*
X57687Y119788D01*
X57705Y119718D01*
X57723Y119657D01*
X57738Y119602D01*
X57749Y119558D01*
X57760Y119525D01*
X57763Y119504D01*
X57767Y119500D01*
Y119496D01*
X57789Y119416D01*
X57811Y119340D01*
X57829Y119274D01*
X57843Y119216D01*
X57858Y119165D01*
X57872Y119121D01*
X57884Y119081D01*
X57891Y119049D01*
X57902Y119023D01*
X57905Y119001D01*
X57913Y118983D01*
X57916Y118968D01*
X57920Y118958D01*
X57924Y118950D01*
Y118947D01*
X57949Y118888D01*
X57978Y118841D01*
X58004Y118797D01*
X58029Y118765D01*
X58055Y118739D01*
X58073Y118721D01*
X58084Y118710D01*
X58087Y118706D01*
X58124Y118681D01*
X58164Y118663D01*
X58200Y118652D01*
X58233Y118645D01*
X58262Y118637D01*
X58284Y118634D01*
X58302D01*
X58306D01*
X58338Y118637D01*
X58375Y118641D01*
X58437Y118663D01*
X58491Y118692D01*
X58539Y118725D01*
X58579Y118757D01*
X58608Y118787D01*
X58626Y118808D01*
X58633Y118812D01*
Y118816D01*
X58659Y118852D01*
X58681Y118896D01*
X58699Y118939D01*
X58717Y118987D01*
X58742Y119089D01*
X58757Y119191D01*
X58764Y119238D01*
X58768Y119282D01*
X58772Y119322D01*
Y119358D01*
X58775Y119387D01*
Y119493D01*
X58768Y119555D01*
X58761Y119613D01*
X58750Y119667D01*
X58739Y119715D01*
X58724Y119762D01*
X58710Y119802D01*
X58695Y119842D01*
X58681Y119875D01*
X58666Y119904D01*
X58652Y119926D01*
X58641Y119948D01*
X58630Y119962D01*
X58622Y119977D01*
X58619Y119980D01*
X58615Y119984D01*
X58586Y120020D01*
X58553Y120053D01*
X58480Y120108D01*
X58408Y120148D01*
X58338Y120181D01*
X58277Y120203D01*
X58248Y120213D01*
X58226Y120217D01*
X58204Y120224D01*
X58189D01*
X58182Y120228D01*
X58178D01*
X58262Y120832D01*
X58389Y120807D01*
X58444Y120789D01*
X58499Y120770D01*
X58550Y120756D01*
X58597Y120738D01*
X58637Y120719D01*
X58677Y120701D01*
X58710Y120683D01*
X58742Y120668D01*
X58768Y120654D01*
X58786Y120639D01*
X58804Y120628D01*
X58815Y120621D01*
X58823Y120617D01*
X58826Y120614D01*
X58866Y120585D01*
X58903Y120548D01*
X58968Y120475D01*
X59026Y120395D01*
X59074Y120319D01*
X59110Y120246D01*
X59125Y120217D01*
X59139Y120192D01*
X59150Y120170D01*
X59154Y120151D01*
X59161Y120141D01*
Y120137D01*
X59201Y120013D01*
X59234Y119882D01*
X59256Y119755D01*
X59263Y119693D01*
X59270Y119638D01*
X59274Y119584D01*
X59278Y119533D01*
X59281Y119489D01*
X59285Y119453D01*
Y119380D01*
X59281Y119274D01*
X59274Y119176D01*
X59259Y119085D01*
X59249Y119005D01*
X59241Y118972D01*
X59234Y118939D01*
X59227Y118910D01*
X59219Y118888D01*
X59216Y118870D01*
X59212Y118856D01*
X59208Y118848D01*
Y118845D01*
X59179Y118757D01*
X59150Y118677D01*
X59121Y118612D01*
X59092Y118557D01*
X59066Y118510D01*
X59048Y118477D01*
X59034Y118459D01*
X59030Y118452D01*
X58975Y118383D01*
X58917Y118324D01*
X58859Y118270D01*
X58804Y118226D01*
X58757Y118193D01*
X58721Y118168D01*
X58706Y118157D01*
X58695Y118149D01*
X58688Y118146D01*
X58684D01*
X58604Y118110D01*
X58528Y118084D01*
X58451Y118062D01*
X58382Y118051D01*
X58320Y118044D01*
X58295Y118040D01*
X58273D01*
X58258Y118037D01*
X58244D01*
X58236D01*
X58233D01*
X58135Y118044D01*
X58044Y118059D01*
X57960Y118080D01*
X57887Y118106D01*
X57854Y118117D01*
X57825Y118128D01*
X57800Y118139D01*
X57781Y118149D01*
X57763Y118160D01*
X57752Y118164D01*
X57745Y118171D01*
X57741D01*
X57661Y118226D01*
X57592Y118291D01*
X57534Y118357D01*
X57487Y118419D01*
X57447Y118477D01*
X57432Y118503D01*
X57418Y118524D01*
X57410Y118543D01*
X57403Y118557D01*
X57396Y118564D01*
Y118568D01*
X57374Y118623D01*
X57348Y118685D01*
X57323Y118754D01*
X57297Y118827D01*
X57247Y118983D01*
X57199Y119140D01*
X57177Y119216D01*
X57159Y119285D01*
X57141Y119347D01*
X57126Y119405D01*
X57115Y119449D01*
X57104Y119485D01*
X57101Y119507D01*
X57097Y119511D01*
Y119515D01*
X57075Y119606D01*
X57054Y119689D01*
X57032Y119762D01*
X57013Y119828D01*
X56995Y119886D01*
X56977Y119940D01*
X56963Y119984D01*
X56948Y120024D01*
X56933Y120053D01*
X56923Y120082D01*
X56912Y120104D01*
X56904Y120122D01*
X56897Y120133D01*
X56893Y120141D01*
X56890Y120148D01*
X56868Y120181D01*
X56842Y120210D01*
X56813Y120235D01*
X56788Y120257D01*
X56733Y120290D01*
X56682Y120312D01*
X56635Y120323D01*
X56595Y120330D01*
X56584Y120334D01*
X56573D01*
X56566D01*
X56562D01*
X56518Y120330D01*
X56478Y120326D01*
X56438Y120315D01*
X56402Y120301D01*
X56329Y120268D01*
X56271Y120232D01*
X56224Y120192D01*
X56187Y120159D01*
X56173Y120144D01*
X56162Y120133D01*
X56158Y120130D01*
X56154Y120126D01*
X56125Y120086D01*
X56100Y120039D01*
X56056Y119940D01*
X56027Y119835D01*
X56005Y119733D01*
X55998Y119682D01*
X55994Y119638D01*
X55987Y119598D01*
Y119562D01*
X55983Y119533D01*
Y119493D01*
X55987Y119416D01*
X55991Y119343D01*
X56002Y119274D01*
X56012Y119209D01*
X56027Y119150D01*
X56045Y119096D01*
X56063Y119045D01*
X56082Y119001D01*
X56096Y118961D01*
X56114Y118929D01*
X56133Y118899D01*
X56147Y118874D01*
X56158Y118856D01*
X56169Y118841D01*
X56173Y118834D01*
X56176Y118830D01*
X56216Y118790D01*
X56256Y118750D01*
X56300Y118717D01*
X56347Y118688D01*
X56442Y118637D01*
X56533Y118601D01*
X56573Y118586D01*
X56613Y118575D01*
X56650Y118564D01*
X56679Y118557D01*
X56704Y118554D01*
X56726Y118550D01*
X56737Y118546D01*
X56740D01*
X56646Y117935D01*
X56540Y117957D01*
X56442Y117986D01*
X56347Y118015D01*
X56264Y118051D01*
X56184Y118091D01*
X56111Y118128D01*
X56049Y118171D01*
X55991Y118211D01*
X55936Y118248D01*
X55892Y118284D01*
X55856Y118321D01*
X55823Y118350D01*
X55801Y118372D01*
X55783Y118393D01*
X55772Y118404D01*
X55769Y118408D01*
X55718Y118481D01*
X55670Y118561D01*
X55630Y118648D01*
X55598Y118736D01*
X55568Y118827D01*
X55547Y118918D01*
X55525Y119005D01*
X55510Y119092D01*
X55499Y119176D01*
X55488Y119252D01*
X55485Y119318D01*
X55477Y119380D01*
Y119427D01*
X55474Y119464D01*
Y119496D01*
X55481Y119653D01*
X55496Y119798D01*
X55510Y119864D01*
X55521Y119930D01*
X55536Y119988D01*
X55550Y120042D01*
X55561Y120090D01*
X55576Y120133D01*
X55590Y120173D01*
X55601Y120206D01*
X55608Y120232D01*
X55616Y120250D01*
X55623Y120261D01*
Y120264D01*
X55652Y120326D01*
X55685Y120385D01*
X55718Y120439D01*
X55750Y120490D01*
X55787Y120537D01*
X55823Y120581D01*
X55856Y120621D01*
X55889Y120654D01*
X55922Y120687D01*
X55951Y120712D01*
X55976Y120738D01*
X56002Y120756D01*
X56020Y120770D01*
X56034Y120781D01*
X56042Y120785D01*
X56045Y120789D01*
X56096Y120821D01*
X56147Y120850D01*
X56202Y120872D01*
X56253Y120894D01*
X56351Y120927D01*
X56438Y120949D01*
X56478Y120956D01*
X56515Y120960D01*
X56548Y120967D01*
X56577D01*
X56599Y120970D01*
X56613D01*
X56624D01*
X56628D01*
X56740Y120963D01*
D02*
G37*
G36*
X59121Y117753D02*
X59150Y117694D01*
X59179Y117636D01*
X59201Y117578D01*
X59237Y117473D01*
X59249Y117421D01*
X59259Y117374D01*
X59267Y117331D01*
X59274Y117294D01*
X59278Y117261D01*
X59281Y117232D01*
X59285Y117210D01*
Y117178D01*
X59281Y117098D01*
X59267Y117025D01*
X59245Y116959D01*
X59223Y116897D01*
X59197Y116850D01*
X59179Y116814D01*
X59168Y116799D01*
X59165Y116788D01*
X59157Y116785D01*
Y116781D01*
X59132Y116748D01*
X59099Y116712D01*
X59063Y116679D01*
X59026Y116646D01*
X58939Y116581D01*
X58855Y116519D01*
X58775Y116468D01*
X58739Y116446D01*
X58706Y116428D01*
X58681Y116413D01*
X58662Y116402D01*
X58648Y116395D01*
X58644Y116391D01*
X59205D01*
Y115834D01*
X55554D01*
Y116453D01*
X57461D01*
X57607Y116457D01*
X57741Y116468D01*
X57803Y116479D01*
X57862Y116486D01*
X57916Y116493D01*
X57971Y116504D01*
X58015Y116515D01*
X58058Y116522D01*
X58095Y116533D01*
X58124Y116541D01*
X58149Y116544D01*
X58167Y116552D01*
X58178Y116555D01*
X58182D01*
X58258Y116584D01*
X58328Y116621D01*
X58386Y116657D01*
X58433Y116697D01*
X58469Y116730D01*
X58499Y116759D01*
X58513Y116777D01*
X58521Y116785D01*
X58561Y116846D01*
X58593Y116908D01*
X58615Y116970D01*
X58630Y117025D01*
X58637Y117072D01*
X58644Y117112D01*
Y117145D01*
X58637Y117229D01*
X58622Y117312D01*
X58604Y117389D01*
X58579Y117454D01*
X58553Y117513D01*
X58542Y117538D01*
X58535Y117556D01*
X58524Y117574D01*
X58521Y117585D01*
X58513Y117593D01*
Y117596D01*
X59085Y117815D01*
X59121Y117753D01*
D02*
G37*
G36*
X43834Y117065D02*
X43827Y117007D01*
X43824Y116952D01*
X43816Y116905D01*
Y116868D01*
X43813Y116835D01*
Y116795D01*
X43816Y116748D01*
X43820Y116704D01*
X43827Y116668D01*
X43834Y116639D01*
X43842Y116613D01*
X43849Y116599D01*
X43856Y116588D01*
Y116584D01*
X43874Y116559D01*
X43893Y116537D01*
X43933Y116504D01*
X43951Y116493D01*
X43966Y116486D01*
X43973Y116479D01*
X43977D01*
X43995Y116475D01*
X44013Y116468D01*
X44060Y116461D01*
X44118Y116457D01*
X44173Y116453D01*
X44228Y116450D01*
X44271D01*
X44289D01*
X44304D01*
X44311D01*
X44315D01*
X46452D01*
Y117065D01*
X46932D01*
Y116450D01*
X48206D01*
X47835Y115831D01*
X46932D01*
Y115372D01*
X46452D01*
Y115831D01*
X44348D01*
X44249D01*
X44155Y115834D01*
X44075Y115838D01*
X43998Y115842D01*
X43933Y115849D01*
X43871Y115853D01*
X43820Y115860D01*
X43773Y115867D01*
X43733Y115875D01*
X43700Y115882D01*
X43674Y115885D01*
X43652Y115893D01*
X43634Y115896D01*
X43623Y115900D01*
X43620Y115904D01*
X43616D01*
X43554Y115936D01*
X43500Y115976D01*
X43452Y116020D01*
X43412Y116064D01*
X43383Y116104D01*
X43358Y116137D01*
X43343Y116158D01*
X43339Y116162D01*
Y116166D01*
X43303Y116242D01*
X43278Y116326D01*
X43259Y116413D01*
X43249Y116497D01*
X43241Y116570D01*
X43238Y116603D01*
X43234Y116632D01*
Y116686D01*
X43238Y116766D01*
X43241Y116846D01*
X43252Y116927D01*
X43263Y116999D01*
X43270Y117061D01*
X43278Y117090D01*
X43281Y117112D01*
X43285Y117130D01*
Y117145D01*
X43288Y117152D01*
Y117156D01*
X43834Y117065D01*
D02*
G37*
G36*
X53076Y118040D02*
X50848Y117229D01*
X50703Y117178D01*
X50633Y117152D01*
X50568Y117130D01*
X50506Y117112D01*
X50448Y117094D01*
X50397Y117076D01*
X50349Y117061D01*
X50306Y117047D01*
X50266Y117032D01*
X50233Y117025D01*
X50204Y117014D01*
X50182Y117007D01*
X50167Y117003D01*
X50156Y116999D01*
X50153D01*
X50295Y116959D01*
X50429Y116919D01*
X50553Y116879D01*
X50612Y116861D01*
X50662Y116843D01*
X50713Y116828D01*
X50757Y116814D01*
X50793Y116799D01*
X50826Y116788D01*
X50852Y116777D01*
X50874Y116774D01*
X50884Y116766D01*
X50888D01*
X53076Y115984D01*
Y115332D01*
X49425Y116715D01*
Y117294D01*
X53076Y118677D01*
Y118040D01*
D02*
G37*
G36*
X57549Y115081D02*
X57705Y115066D01*
X57851Y115041D01*
X57985Y115012D01*
X58109Y114975D01*
X58226Y114939D01*
X58331Y114895D01*
X58426Y114852D01*
X58509Y114808D01*
X58582Y114768D01*
X58644Y114728D01*
X58695Y114691D01*
X58735Y114662D01*
X58764Y114641D01*
X58779Y114622D01*
X58786Y114619D01*
X58873Y114528D01*
X58950Y114433D01*
X59019Y114338D01*
X59074Y114236D01*
X59125Y114138D01*
X59165Y114036D01*
X59197Y113942D01*
X59223Y113847D01*
X59245Y113760D01*
X59259Y113680D01*
X59270Y113610D01*
X59278Y113545D01*
X59281Y113494D01*
X59285Y113458D01*
Y113425D01*
X59278Y113286D01*
X59263Y113155D01*
X59237Y113032D01*
X59205Y112912D01*
X59168Y112802D01*
X59125Y112704D01*
X59077Y112609D01*
X59030Y112526D01*
X58983Y112449D01*
X58935Y112384D01*
X58895Y112329D01*
X58855Y112282D01*
X58823Y112242D01*
X58797Y112216D01*
X58783Y112202D01*
X58775Y112195D01*
X58677Y112111D01*
X58568Y112038D01*
X58455Y111976D01*
X58338Y111922D01*
X58218Y111874D01*
X58098Y111838D01*
X57982Y111805D01*
X57872Y111779D01*
X57763Y111761D01*
X57665Y111747D01*
X57578Y111736D01*
X57501Y111729D01*
X57465Y111725D01*
X57436D01*
X57410D01*
X57388Y111721D01*
X57370D01*
X57359D01*
X57352D01*
X57348D01*
X57185Y111725D01*
X57032Y111743D01*
X56890Y111765D01*
X56755Y111794D01*
X56631Y111830D01*
X56518Y111871D01*
X56416Y111911D01*
X56322Y111954D01*
X56238Y111998D01*
X56169Y112042D01*
X56107Y112078D01*
X56056Y112114D01*
X56016Y112144D01*
X55987Y112169D01*
X55972Y112184D01*
X55965Y112187D01*
X55878Y112278D01*
X55801Y112376D01*
X55736Y112478D01*
X55681Y112584D01*
X55634Y112689D01*
X55594Y112795D01*
X55561Y112901D01*
X55536Y112999D01*
X55514Y113094D01*
X55499Y113181D01*
X55488Y113257D01*
X55481Y113327D01*
X55477Y113381D01*
Y113403D01*
X55474Y113421D01*
Y113458D01*
X55477Y113574D01*
X55488Y113687D01*
X55503Y113792D01*
X55521Y113891D01*
X55547Y113982D01*
X55572Y114069D01*
X55601Y114146D01*
X55630Y114218D01*
X55656Y114284D01*
X55685Y114338D01*
X55710Y114389D01*
X55736Y114429D01*
X55754Y114462D01*
X55769Y114484D01*
X55779Y114499D01*
X55783Y114502D01*
X55845Y114575D01*
X55911Y114644D01*
X55980Y114706D01*
X56049Y114761D01*
X56122Y114812D01*
X56195Y114859D01*
X56267Y114899D01*
X56333Y114935D01*
X56398Y114968D01*
X56460Y114994D01*
X56515Y115015D01*
X56562Y115034D01*
X56599Y115045D01*
X56628Y115056D01*
X56646Y115063D01*
X56653D01*
X56737Y114426D01*
X56664Y114397D01*
X56599Y114368D01*
X56537Y114338D01*
X56478Y114306D01*
X56427Y114273D01*
X56380Y114244D01*
X56340Y114211D01*
X56300Y114182D01*
X56267Y114153D01*
X56238Y114127D01*
X56216Y114105D01*
X56195Y114084D01*
X56180Y114065D01*
X56169Y114055D01*
X56165Y114047D01*
X56162Y114044D01*
X56129Y113996D01*
X56103Y113949D01*
X56078Y113902D01*
X56060Y113851D01*
X56027Y113752D01*
X56005Y113661D01*
X55998Y113621D01*
X55994Y113581D01*
X55991Y113549D01*
X55987Y113519D01*
X55983Y113494D01*
Y113461D01*
X55987Y113377D01*
X55998Y113297D01*
X56012Y113221D01*
X56034Y113148D01*
X56056Y113079D01*
X56085Y113017D01*
X56111Y112959D01*
X56143Y112908D01*
X56173Y112861D01*
X56202Y112817D01*
X56227Y112780D01*
X56249Y112751D01*
X56271Y112730D01*
X56286Y112711D01*
X56296Y112700D01*
X56300Y112697D01*
X56362Y112642D01*
X56431Y112595D01*
X56504Y112551D01*
X56580Y112515D01*
X56657Y112482D01*
X56733Y112457D01*
X56806Y112431D01*
X56882Y112413D01*
X56952Y112398D01*
X57013Y112384D01*
X57072Y112376D01*
X57123Y112369D01*
X57163Y112362D01*
X57196D01*
X57214Y112358D01*
X57221D01*
Y115081D01*
X57261D01*
X57294Y115085D01*
X57319D01*
X57345D01*
X57363D01*
X57374D01*
X57381D01*
X57385D01*
X57549Y115081D01*
D02*
G37*
G36*
X51420Y114946D02*
X51576Y114932D01*
X51722Y114906D01*
X51856Y114877D01*
X51980Y114841D01*
X52097Y114804D01*
X52202Y114761D01*
X52297Y114717D01*
X52381Y114673D01*
X52453Y114633D01*
X52515Y114593D01*
X52566Y114557D01*
X52606Y114528D01*
X52635Y114506D01*
X52650Y114488D01*
X52657Y114484D01*
X52745Y114393D01*
X52821Y114298D01*
X52890Y114204D01*
X52945Y114102D01*
X52996Y114004D01*
X53036Y113902D01*
X53069Y113807D01*
X53094Y113712D01*
X53116Y113625D01*
X53130Y113545D01*
X53141Y113476D01*
X53149Y113410D01*
X53152Y113359D01*
X53156Y113323D01*
Y113290D01*
X53149Y113152D01*
X53134Y113021D01*
X53109Y112897D01*
X53076Y112777D01*
X53039Y112668D01*
X52996Y112569D01*
X52948Y112475D01*
X52901Y112391D01*
X52854Y112315D01*
X52806Y112249D01*
X52766Y112195D01*
X52726Y112147D01*
X52693Y112107D01*
X52668Y112082D01*
X52653Y112067D01*
X52646Y112060D01*
X52548Y111976D01*
X52439Y111903D01*
X52326Y111841D01*
X52209Y111787D01*
X52089Y111740D01*
X51969Y111703D01*
X51853Y111670D01*
X51744Y111645D01*
X51634Y111627D01*
X51536Y111612D01*
X51449Y111601D01*
X51372Y111594D01*
X51336Y111590D01*
X51307D01*
X51281D01*
X51259Y111587D01*
X51241D01*
X51230D01*
X51223D01*
X51219D01*
X51056Y111590D01*
X50903Y111608D01*
X50761Y111630D01*
X50626Y111659D01*
X50502Y111696D01*
X50389Y111736D01*
X50287Y111776D01*
X50193Y111820D01*
X50109Y111863D01*
X50040Y111907D01*
X49978Y111943D01*
X49927Y111980D01*
X49887Y112009D01*
X49858Y112034D01*
X49843Y112049D01*
X49836Y112053D01*
X49749Y112144D01*
X49672Y112242D01*
X49607Y112344D01*
X49552Y112449D01*
X49505Y112555D01*
X49465Y112660D01*
X49432Y112766D01*
X49407Y112864D01*
X49385Y112959D01*
X49370Y113046D01*
X49359Y113123D01*
X49352Y113192D01*
X49348Y113246D01*
Y113268D01*
X49345Y113286D01*
Y113323D01*
X49348Y113439D01*
X49359Y113552D01*
X49374Y113658D01*
X49392Y113756D01*
X49417Y113847D01*
X49443Y113934D01*
X49472Y114011D01*
X49501Y114084D01*
X49527Y114149D01*
X49556Y114204D01*
X49581Y114255D01*
X49607Y114295D01*
X49625Y114328D01*
X49640Y114349D01*
X49650Y114364D01*
X49654Y114368D01*
X49716Y114440D01*
X49782Y114509D01*
X49851Y114571D01*
X49920Y114626D01*
X49993Y114677D01*
X50065Y114724D01*
X50138Y114764D01*
X50204Y114801D01*
X50269Y114833D01*
X50331Y114859D01*
X50386Y114881D01*
X50433Y114899D01*
X50469Y114910D01*
X50499Y114921D01*
X50517Y114928D01*
X50524D01*
X50608Y114291D01*
X50535Y114262D01*
X50469Y114233D01*
X50408Y114204D01*
X50349Y114171D01*
X50298Y114138D01*
X50251Y114109D01*
X50211Y114076D01*
X50171Y114047D01*
X50138Y114018D01*
X50109Y113993D01*
X50087Y113971D01*
X50065Y113949D01*
X50051Y113931D01*
X50040Y113920D01*
X50036Y113913D01*
X50033Y113909D01*
X50000Y113862D01*
X49975Y113814D01*
X49949Y113767D01*
X49931Y113716D01*
X49898Y113618D01*
X49876Y113527D01*
X49869Y113487D01*
X49865Y113447D01*
X49862Y113414D01*
X49858Y113385D01*
X49854Y113359D01*
Y113327D01*
X49858Y113243D01*
X49869Y113163D01*
X49883Y113086D01*
X49905Y113014D01*
X49927Y112944D01*
X49956Y112882D01*
X49982Y112824D01*
X50015Y112773D01*
X50044Y112726D01*
X50073Y112682D01*
X50098Y112646D01*
X50120Y112617D01*
X50142Y112595D01*
X50156Y112577D01*
X50167Y112566D01*
X50171Y112562D01*
X50233Y112507D01*
X50302Y112460D01*
X50375Y112417D01*
X50451Y112380D01*
X50528Y112347D01*
X50604Y112322D01*
X50677Y112296D01*
X50753Y112278D01*
X50823Y112264D01*
X50884Y112249D01*
X50943Y112242D01*
X50994Y112234D01*
X51034Y112227D01*
X51066D01*
X51085Y112224D01*
X51092D01*
Y114946D01*
X51132D01*
X51165Y114950D01*
X51190D01*
X51216D01*
X51234D01*
X51245D01*
X51252D01*
X51256D01*
X51420Y114946D01*
D02*
G37*
G36*
X43361Y114914D02*
X43438Y114877D01*
X43511Y114852D01*
X43576Y114830D01*
X43634Y114812D01*
X43660Y114808D01*
X43678Y114801D01*
X43696Y114797D01*
X43707D01*
X43714Y114793D01*
X43718D01*
X43740Y114790D01*
X43769Y114786D01*
X43831Y114783D01*
X43904Y114775D01*
X43984Y114772D01*
X44075Y114768D01*
X44166Y114764D01*
X44351Y114761D01*
X44439D01*
X44526D01*
X44603Y114757D01*
X44672D01*
X44730D01*
X44752D01*
X44774D01*
X44788D01*
X44799D01*
X44806D01*
X44810D01*
X45633D01*
X45706D01*
X45775D01*
X45836Y114753D01*
X45895D01*
X45946Y114750D01*
X45993Y114746D01*
X46033Y114743D01*
X46069D01*
X46102Y114739D01*
X46128Y114735D01*
X46153Y114732D01*
X46171Y114728D01*
X46182D01*
X46193Y114724D01*
X46200D01*
X46292Y114699D01*
X46375Y114670D01*
X46444Y114641D01*
X46506Y114608D01*
X46557Y114579D01*
X46594Y114553D01*
X46605Y114546D01*
X46615Y114539D01*
X46619Y114531D01*
X46623D01*
X46685Y114473D01*
X46736Y114408D01*
X46783Y114335D01*
X46823Y114266D01*
X46856Y114200D01*
X46870Y114175D01*
X46881Y114149D01*
X46889Y114131D01*
X46896Y114116D01*
X46899Y114105D01*
Y114102D01*
X46918Y114047D01*
X46936Y113985D01*
X46965Y113862D01*
X46983Y113734D01*
X46998Y113614D01*
X47001Y113559D01*
X47005Y113508D01*
X47009Y113461D01*
X47012Y113421D01*
Y113345D01*
X47005Y113174D01*
X47001Y113094D01*
X46990Y113017D01*
X46983Y112944D01*
X46972Y112875D01*
X46958Y112810D01*
X46947Y112751D01*
X46936Y112700D01*
X46921Y112653D01*
X46910Y112613D01*
X46903Y112577D01*
X46892Y112551D01*
X46889Y112529D01*
X46881Y112518D01*
Y112515D01*
X46856Y112449D01*
X46830Y112387D01*
X46801Y112333D01*
X46768Y112278D01*
X46739Y112231D01*
X46710Y112187D01*
X46677Y112144D01*
X46648Y112107D01*
X46623Y112074D01*
X46597Y112049D01*
X46572Y112023D01*
X46554Y112005D01*
X46535Y111987D01*
X46525Y111976D01*
X46517Y111972D01*
X46514Y111969D01*
X46419Y111903D01*
X46313Y111849D01*
X46211Y111801D01*
X46110Y111765D01*
X46066Y111747D01*
X46022Y111736D01*
X45986Y111725D01*
X45953Y111714D01*
X45924Y111707D01*
X45906Y111703D01*
X45891Y111699D01*
X45888D01*
X45804Y112304D01*
X45873Y112322D01*
X45938Y112344D01*
X45997Y112369D01*
X46051Y112395D01*
X46099Y112417D01*
X46142Y112442D01*
X46182Y112468D01*
X46219Y112493D01*
X46248Y112518D01*
X46273Y112540D01*
X46295Y112558D01*
X46313Y112577D01*
X46324Y112591D01*
X46335Y112602D01*
X46343Y112606D01*
Y112609D01*
X46372Y112650D01*
X46393Y112697D01*
X46433Y112799D01*
X46463Y112904D01*
X46481Y113010D01*
X46484Y113057D01*
X46492Y113104D01*
X46495Y113145D01*
Y113181D01*
X46499Y113214D01*
Y113254D01*
X46495Y113337D01*
X46492Y113417D01*
X46481Y113490D01*
X46466Y113559D01*
X46452Y113625D01*
X46433Y113680D01*
X46412Y113734D01*
X46393Y113781D01*
X46375Y113822D01*
X46353Y113858D01*
X46335Y113887D01*
X46321Y113913D01*
X46306Y113931D01*
X46299Y113945D01*
X46292Y113953D01*
X46288Y113956D01*
X46255Y113989D01*
X46222Y114014D01*
X46182Y114040D01*
X46142Y114058D01*
X46051Y114091D01*
X45964Y114113D01*
X45884Y114124D01*
X45847Y114131D01*
X45818D01*
X45793Y114135D01*
X45775D01*
X45760D01*
X45756D01*
X45738D01*
X45716D01*
X45662D01*
X45636Y114131D01*
X45618D01*
X45604D01*
X45596D01*
X45574Y114058D01*
X45553Y113982D01*
X45531Y113898D01*
X45509Y113807D01*
X45472Y113625D01*
X45458Y113534D01*
X45443Y113447D01*
X45429Y113363D01*
X45418Y113283D01*
X45407Y113214D01*
X45396Y113152D01*
X45392Y113101D01*
X45385Y113061D01*
Y113046D01*
X45382Y113035D01*
Y113028D01*
X45374Y112962D01*
X45367Y112901D01*
X45356Y112842D01*
X45349Y112788D01*
X45342Y112737D01*
X45334Y112693D01*
X45327Y112653D01*
X45320Y112617D01*
X45312Y112584D01*
X45309Y112555D01*
X45301Y112533D01*
X45298Y112511D01*
X45294Y112497D01*
Y112486D01*
X45290Y112482D01*
Y112478D01*
X45261Y112387D01*
X45229Y112304D01*
X45196Y112227D01*
X45163Y112162D01*
X45134Y112107D01*
X45119Y112085D01*
X45109Y112067D01*
X45101Y112053D01*
X45094Y112042D01*
X45087Y112034D01*
Y112031D01*
X45032Y111961D01*
X44974Y111900D01*
X44916Y111845D01*
X44857Y111798D01*
X44806Y111761D01*
X44766Y111736D01*
X44752Y111725D01*
X44741Y111721D01*
X44734Y111714D01*
X44730D01*
X44646Y111674D01*
X44563Y111645D01*
X44479Y111623D01*
X44406Y111608D01*
X44341Y111601D01*
X44311Y111598D01*
X44289D01*
X44268Y111594D01*
X44253D01*
X44246D01*
X44242D01*
X44159Y111598D01*
X44078Y111608D01*
X44006Y111623D01*
X43933Y111645D01*
X43867Y111667D01*
X43805Y111696D01*
X43747Y111725D01*
X43696Y111754D01*
X43649Y111783D01*
X43609Y111812D01*
X43576Y111841D01*
X43547Y111863D01*
X43521Y111885D01*
X43507Y111900D01*
X43496Y111911D01*
X43492Y111914D01*
X43441Y111980D01*
X43398Y112045D01*
X43358Y112122D01*
X43325Y112195D01*
X43296Y112271D01*
X43274Y112351D01*
X43252Y112424D01*
X43238Y112497D01*
X43227Y112566D01*
X43216Y112631D01*
X43208Y112689D01*
X43205Y112741D01*
Y112780D01*
X43201Y112813D01*
Y112839D01*
X43205Y112973D01*
X43219Y113097D01*
X43238Y113214D01*
X43249Y113268D01*
X43259Y113316D01*
X43270Y113359D01*
X43281Y113399D01*
X43292Y113436D01*
X43299Y113465D01*
X43307Y113487D01*
X43314Y113505D01*
X43318Y113516D01*
Y113519D01*
X43343Y113578D01*
X43369Y113640D01*
X43434Y113756D01*
X43503Y113869D01*
X43536Y113920D01*
X43569Y113971D01*
X43602Y114014D01*
X43634Y114055D01*
X43660Y114091D01*
X43685Y114124D01*
X43703Y114149D01*
X43718Y114167D01*
X43729Y114178D01*
X43733Y114182D01*
X43638Y114197D01*
X43554Y114211D01*
X43478Y114233D01*
X43409Y114255D01*
X43358Y114277D01*
X43332Y114284D01*
X43314Y114295D01*
X43299Y114298D01*
X43288Y114306D01*
X43285Y114309D01*
X43281D01*
Y114954D01*
X43361Y114914D01*
D02*
G37*
G36*
X45949Y110960D02*
X46069Y110957D01*
X46186Y110946D01*
X46295Y110931D01*
X46401Y110917D01*
X46499Y110902D01*
X46594Y110884D01*
X46677Y110866D01*
X46754Y110844D01*
X46823Y110826D01*
X46881Y110811D01*
X46932Y110797D01*
X46972Y110782D01*
X46998Y110771D01*
X47016Y110768D01*
X47023Y110764D01*
X47118Y110724D01*
X47212Y110680D01*
X47296Y110637D01*
X47380Y110589D01*
X47456Y110538D01*
X47526Y110487D01*
X47591Y110440D01*
X47653Y110393D01*
X47704Y110345D01*
X47751Y110305D01*
X47791Y110265D01*
X47824Y110232D01*
X47849Y110207D01*
X47871Y110185D01*
X47882Y110171D01*
X47886Y110167D01*
X47933Y110109D01*
X47977Y110047D01*
X48050Y109923D01*
X48115Y109799D01*
X48162Y109687D01*
X48184Y109632D01*
X48199Y109585D01*
X48213Y109541D01*
X48228Y109504D01*
X48235Y109472D01*
X48243Y109450D01*
X48246Y109435D01*
Y109432D01*
X48261Y109370D01*
X48272Y109304D01*
X48279Y109235D01*
X48290Y109162D01*
X48301Y109013D01*
X48312Y108868D01*
Y108798D01*
X48315Y108737D01*
Y108678D01*
X48319Y108631D01*
Y106800D01*
X43281D01*
Y108616D01*
X43285Y108780D01*
X43288Y108860D01*
X43296Y108933D01*
X43299Y109006D01*
X43307Y109071D01*
X43314Y109133D01*
X43325Y109192D01*
X43332Y109242D01*
X43339Y109290D01*
X43347Y109330D01*
X43350Y109363D01*
X43358Y109388D01*
X43361Y109410D01*
X43365Y109421D01*
Y109424D01*
X43401Y109552D01*
X43441Y109668D01*
X43463Y109719D01*
X43481Y109770D01*
X43503Y109814D01*
X43525Y109858D01*
X43543Y109894D01*
X43562Y109927D01*
X43576Y109956D01*
X43591Y109981D01*
X43602Y110000D01*
X43609Y110014D01*
X43616Y110021D01*
Y110025D01*
X43685Y110116D01*
X43758Y110203D01*
X43834Y110280D01*
X43907Y110349D01*
X43973Y110404D01*
X44002Y110429D01*
X44027Y110447D01*
X44046Y110462D01*
X44064Y110473D01*
X44071Y110480D01*
X44075Y110484D01*
X44191Y110560D01*
X44311Y110626D01*
X44435Y110687D01*
X44552Y110735D01*
X44603Y110757D01*
X44653Y110775D01*
X44697Y110793D01*
X44734Y110804D01*
X44763Y110815D01*
X44788Y110822D01*
X44803Y110829D01*
X44806D01*
X44978Y110873D01*
X45152Y110906D01*
X45323Y110931D01*
X45407Y110939D01*
X45483Y110946D01*
X45556Y110953D01*
X45622Y110957D01*
X45680Y110960D01*
X45727D01*
X45771Y110964D01*
X45800D01*
X45818D01*
X45826D01*
X45949Y110960D01*
D02*
G37*
G36*
X50793Y110360D02*
X50939Y110262D01*
X51005Y110211D01*
X51070Y110163D01*
X51128Y110116D01*
X51183Y110069D01*
X51234Y110025D01*
X51281Y109985D01*
X51325Y109949D01*
X51361Y109912D01*
X51390Y109883D01*
X51420Y109858D01*
X51438Y109836D01*
X51456Y109821D01*
X51463Y109810D01*
X51467Y109807D01*
X51514Y109748D01*
X51558Y109687D01*
X51601Y109621D01*
X51638Y109555D01*
X51671Y109497D01*
X51685Y109472D01*
X51696Y109450D01*
X51707Y109432D01*
X51711Y109417D01*
X51718Y109410D01*
Y109406D01*
X51740Y109537D01*
X51765Y109661D01*
X51798Y109774D01*
X51831Y109879D01*
X51871Y109974D01*
X51907Y110065D01*
X51947Y110142D01*
X51987Y110214D01*
X52027Y110276D01*
X52064Y110327D01*
X52097Y110374D01*
X52126Y110411D01*
X52151Y110440D01*
X52169Y110462D01*
X52180Y110473D01*
X52184Y110476D01*
X52253Y110538D01*
X52329Y110593D01*
X52402Y110640D01*
X52479Y110680D01*
X52555Y110713D01*
X52632Y110742D01*
X52705Y110764D01*
X52774Y110782D01*
X52839Y110797D01*
X52897Y110808D01*
X52952Y110815D01*
X52996Y110822D01*
X53036D01*
X53065Y110826D01*
X53079D01*
X53087D01*
X53163Y110822D01*
X53240Y110819D01*
X53312Y110808D01*
X53382Y110793D01*
X53447Y110778D01*
X53509Y110760D01*
X53567Y110739D01*
X53622Y110720D01*
X53669Y110702D01*
X53713Y110680D01*
X53753Y110662D01*
X53786Y110647D01*
X53811Y110633D01*
X53829Y110626D01*
X53840Y110618D01*
X53844Y110615D01*
X53906Y110575D01*
X53964Y110531D01*
X54015Y110484D01*
X54066Y110440D01*
X54110Y110393D01*
X54150Y110345D01*
X54182Y110298D01*
X54215Y110254D01*
X54241Y110214D01*
X54262Y110174D01*
X54284Y110142D01*
X54299Y110112D01*
X54310Y110087D01*
X54317Y110069D01*
X54324Y110058D01*
Y110054D01*
X54350Y109985D01*
X54372Y109909D01*
X54390Y109828D01*
X54404Y109748D01*
X54430Y109577D01*
X54437Y109494D01*
X54444Y109414D01*
X54452Y109333D01*
X54455Y109264D01*
X54459Y109199D01*
Y109141D01*
X54463Y109097D01*
Y106800D01*
X49425D01*
Y107466D01*
X51663D01*
Y108329D01*
X51660Y108405D01*
X51656Y108471D01*
X51652Y108522D01*
X51645Y108558D01*
X51642Y108587D01*
X51638Y108605D01*
Y108609D01*
X51620Y108667D01*
X51601Y108722D01*
X51576Y108773D01*
X51554Y108817D01*
X51536Y108857D01*
X51518Y108886D01*
X51507Y108904D01*
X51503Y108911D01*
X51463Y108969D01*
X51412Y109028D01*
X51354Y109082D01*
X51299Y109137D01*
X51249Y109181D01*
X51205Y109217D01*
X51187Y109231D01*
X51176Y109242D01*
X51168Y109246D01*
X51165Y109250D01*
X51117Y109286D01*
X51066Y109326D01*
X50957Y109406D01*
X50841Y109486D01*
X50728Y109563D01*
X50677Y109596D01*
X50630Y109628D01*
X50586Y109657D01*
X50546Y109683D01*
X50517Y109701D01*
X50491Y109716D01*
X50477Y109727D01*
X50473Y109730D01*
X49425Y110396D01*
Y111230D01*
X50793Y110360D01*
D02*
G37*
G36*
X60592Y110728D02*
X56930Y109366D01*
X56777Y109308D01*
X56624Y109257D01*
X56555Y109235D01*
X56486Y109210D01*
X56420Y109192D01*
X56362Y109170D01*
X56307Y109155D01*
X56256Y109137D01*
X56213Y109126D01*
X56173Y109115D01*
X56143Y109104D01*
X56122Y109097D01*
X56107Y109093D01*
X56103D01*
X56249Y109053D01*
X56395Y109006D01*
X56533Y108962D01*
X56599Y108940D01*
X56660Y108922D01*
X56719Y108900D01*
X56770Y108882D01*
X56817Y108868D01*
X56853Y108853D01*
X56886Y108842D01*
X56912Y108835D01*
X56926Y108831D01*
X56930Y108827D01*
X60592Y107521D01*
Y106796D01*
X55554Y108747D01*
Y109435D01*
X60592Y111408D01*
Y110728D01*
D02*
G37*
%LPC*%
G36*
X50782Y268280D02*
X45447D01*
Y264602D01*
X50782D01*
Y264758D01*
X50834D01*
Y268177D01*
X50782D01*
Y268280D01*
D02*
G37*
G36*
X52854Y258852D02*
X52699D01*
Y258697D01*
X52751D01*
Y258645D01*
X52803D01*
Y258541D01*
X52854D01*
Y258490D01*
X52906D01*
Y258438D01*
X52958D01*
Y258386D01*
X53010D01*
Y258334D01*
X53062D01*
Y258282D01*
X53113D01*
Y258179D01*
X53165D01*
Y258127D01*
X53217D01*
Y258075D01*
X53269D01*
Y257972D01*
X53321D01*
Y257920D01*
X53372D01*
Y257868D01*
X53424D01*
Y257816D01*
X53476D01*
Y257713D01*
X53528D01*
Y257661D01*
X53580D01*
Y257609D01*
X53631D01*
Y257557D01*
X53683D01*
Y257453D01*
X53735D01*
Y257402D01*
X53787D01*
Y257350D01*
X53839D01*
Y257246D01*
X53890D01*
Y257194D01*
X53942D01*
Y257143D01*
X53994D01*
Y257091D01*
X54046D01*
Y256987D01*
X54098D01*
Y256936D01*
X54149D01*
Y256884D01*
X54201D01*
Y256832D01*
X54253D01*
Y256728D01*
X54305D01*
Y256677D01*
X54357D01*
Y256625D01*
X54408D01*
Y256573D01*
X54460D01*
Y256469D01*
X54512D01*
Y256417D01*
X54564D01*
Y256366D01*
X54616D01*
Y256314D01*
X54667D01*
Y256210D01*
X54771D01*
Y256262D01*
X54823D01*
Y256314D01*
X54875D01*
Y256366D01*
X54926D01*
Y256417D01*
X54978D01*
Y256521D01*
X55030D01*
Y256573D01*
X55082D01*
Y256625D01*
X55134D01*
Y256677D01*
X55186D01*
Y256780D01*
X55237D01*
Y256832D01*
X55289D01*
Y256884D01*
X55341D01*
Y256936D01*
X55393D01*
Y257039D01*
X55445D01*
Y257091D01*
X55496D01*
Y257143D01*
X55548D01*
Y257246D01*
X55600D01*
Y257298D01*
X55652D01*
Y257350D01*
X55704D01*
Y257453D01*
X55755D01*
Y257505D01*
X55807D01*
Y257557D01*
X55859D01*
Y257661D01*
X55911D01*
Y257816D01*
X55859D01*
Y257868D01*
X55704D01*
Y257920D01*
X55548D01*
Y257972D01*
X55445D01*
Y258023D01*
X55237D01*
Y258075D01*
X55082D01*
Y258127D01*
X54926D01*
Y258179D01*
X54823D01*
Y258231D01*
X54667D01*
Y258282D01*
X54512D01*
Y258334D01*
X54357D01*
Y258386D01*
X54201D01*
Y258438D01*
X54046D01*
Y258490D01*
X53839D01*
Y258541D01*
X53683D01*
Y258593D01*
X53528D01*
Y258645D01*
X53372D01*
Y258697D01*
X53217D01*
Y258749D01*
X53062D01*
Y258800D01*
X52854D01*
Y258852D01*
D02*
G37*
G36*
X62593Y257246D02*
X62127D01*
Y257194D01*
X61972D01*
Y257143D01*
X61868D01*
Y257091D01*
X61816D01*
Y257039D01*
X61713D01*
Y256987D01*
X61661D01*
Y256936D01*
X61609D01*
Y256884D01*
X61557D01*
Y256780D01*
X61505D01*
Y256728D01*
X61454D01*
Y256625D01*
X61402D01*
Y256521D01*
X61350D01*
Y256366D01*
X61298D01*
Y256107D01*
X61246D01*
Y255796D01*
X61298D01*
Y255485D01*
X61350D01*
Y255330D01*
X61402D01*
Y255226D01*
X61454D01*
Y255174D01*
X61505D01*
Y255071D01*
X61557D01*
Y255019D01*
X61609D01*
Y254967D01*
X61661D01*
Y254915D01*
X61713D01*
Y254863D01*
X61764D01*
Y254812D01*
X61816D01*
Y254760D01*
X61920D01*
Y254708D01*
X62023D01*
Y254656D01*
X62282D01*
Y254604D01*
X62438D01*
Y254656D01*
X62697D01*
Y254708D01*
X62800D01*
Y254760D01*
X62904D01*
Y254812D01*
X62956D01*
Y254863D01*
X63008D01*
Y254915D01*
X63060D01*
Y254967D01*
X63111D01*
Y255019D01*
X63163D01*
Y255071D01*
X63215D01*
Y255174D01*
X63267D01*
Y255226D01*
X63319D01*
Y255381D01*
X63370D01*
Y255485D01*
X63422D01*
Y255899D01*
X63474D01*
Y256003D01*
X63422D01*
Y256366D01*
X63370D01*
Y256521D01*
X63319D01*
Y256625D01*
X63267D01*
Y256728D01*
X63215D01*
Y256832D01*
X63163D01*
Y256884D01*
X63111D01*
Y256936D01*
X63060D01*
Y256987D01*
X63008D01*
Y257039D01*
X62956D01*
Y257091D01*
X62852D01*
Y257143D01*
X62749D01*
Y257194D01*
X62593D01*
Y257246D01*
D02*
G37*
G36*
X56532Y257661D02*
X56325D01*
Y257609D01*
X56273D01*
Y257557D01*
X56221D01*
Y257505D01*
X56170D01*
Y257402D01*
X56118D01*
Y257350D01*
X56066D01*
Y257298D01*
X56014D01*
Y257194D01*
X55963D01*
Y257143D01*
X55911D01*
Y257091D01*
X55859D01*
Y256987D01*
X55807D01*
Y256936D01*
X55755D01*
Y256884D01*
X55704D01*
Y256780D01*
X55652D01*
Y256728D01*
X55600D01*
Y256677D01*
X55548D01*
Y256625D01*
X55496D01*
Y256521D01*
X55445D01*
Y256469D01*
X55393D01*
Y256417D01*
X55341D01*
Y256314D01*
X55289D01*
Y256262D01*
X55237D01*
Y256210D01*
X55186D01*
Y256158D01*
X55134D01*
Y256055D01*
X55082D01*
Y256003D01*
X55030D01*
Y255796D01*
X55082D01*
Y255692D01*
X55134D01*
Y255640D01*
X55186D01*
Y255589D01*
X55237D01*
Y255537D01*
X55289D01*
Y255433D01*
X55341D01*
Y255381D01*
X55393D01*
Y255330D01*
X55445D01*
Y255278D01*
X55496D01*
Y255174D01*
X55548D01*
Y255122D01*
X55600D01*
Y255071D01*
X55652D01*
Y254967D01*
X55704D01*
Y254915D01*
X55755D01*
Y254863D01*
X55807D01*
Y254812D01*
X55859D01*
Y254760D01*
X55911D01*
Y254656D01*
X55963D01*
Y254604D01*
X56014D01*
Y254553D01*
X56066D01*
Y254501D01*
X56118D01*
Y254397D01*
X56170D01*
Y254345D01*
X56221D01*
Y254294D01*
X56273D01*
Y254242D01*
X56325D01*
Y254190D01*
X56377D01*
Y254138D01*
X56480D01*
Y254190D01*
X56688D01*
Y254242D01*
X56791D01*
Y254294D01*
X56947D01*
Y254345D01*
X57154D01*
Y254397D01*
X57309D01*
Y254449D01*
X57465D01*
Y254501D01*
X57620D01*
Y254553D01*
X57776D01*
Y254604D01*
X57931D01*
Y254656D01*
X58086D01*
Y254708D01*
X58190D01*
Y254760D01*
X58449D01*
Y254812D01*
X58553D01*
Y254863D01*
X58708D01*
Y254915D01*
X58864D01*
Y254967D01*
X58967D01*
Y255019D01*
X59123D01*
Y255071D01*
X59278D01*
Y255122D01*
X59382D01*
Y255174D01*
X59485D01*
Y255226D01*
X59589D01*
Y255278D01*
X59744D01*
Y255330D01*
X59848D01*
Y255381D01*
X59951D01*
Y255433D01*
X60055D01*
Y255485D01*
X60107D01*
Y255537D01*
X60158D01*
Y255589D01*
X60262D01*
Y255640D01*
X60366D01*
Y255692D01*
X60417D01*
Y255744D01*
X60469D01*
Y255796D01*
X60521D01*
Y255848D01*
X60573D01*
Y255951D01*
X60521D01*
Y256003D01*
X60469D01*
Y256055D01*
X60417D01*
Y256107D01*
X60366D01*
Y256158D01*
X60262D01*
Y256210D01*
X60158D01*
Y256262D01*
X60107D01*
Y256314D01*
X60003D01*
Y256366D01*
X59899D01*
Y256417D01*
X59796D01*
Y256469D01*
X59744D01*
Y256521D01*
X59641D01*
Y256573D01*
X59537D01*
Y256625D01*
X59382D01*
Y256677D01*
X59278D01*
Y256728D01*
X59071D01*
Y256780D01*
X58967D01*
Y256832D01*
X58812D01*
Y256884D01*
X58656D01*
Y256936D01*
X58501D01*
Y256987D01*
X58397D01*
Y257039D01*
X58242D01*
Y257091D01*
X58086D01*
Y257143D01*
X57879D01*
Y257194D01*
X57724D01*
Y257246D01*
X57568D01*
Y257298D01*
X57413D01*
Y257350D01*
X57258D01*
Y257402D01*
X57154D01*
Y257453D01*
X56999D01*
Y257505D01*
X56843D01*
Y257557D01*
X56688D01*
Y257609D01*
X56532D01*
Y257661D01*
D02*
G37*
G36*
X54823Y255485D02*
X54667D01*
Y255433D01*
X54616D01*
Y255381D01*
X54564D01*
Y255330D01*
X54512D01*
Y255278D01*
X54460D01*
Y255226D01*
X54408D01*
Y255122D01*
X54357D01*
Y255071D01*
X54305D01*
Y255019D01*
X54253D01*
Y254915D01*
X54201D01*
Y254863D01*
X54149D01*
Y254812D01*
X54098D01*
Y254708D01*
X54046D01*
Y254656D01*
X53994D01*
Y254604D01*
X53942D01*
Y254501D01*
X53890D01*
Y254449D01*
X53839D01*
Y254397D01*
X53787D01*
Y254345D01*
X53735D01*
Y254294D01*
X53683D01*
Y254190D01*
X53631D01*
Y254138D01*
X53580D01*
Y254086D01*
X53528D01*
Y253983D01*
X53476D01*
Y253931D01*
X53424D01*
Y253827D01*
X53372D01*
Y253776D01*
X53321D01*
Y253724D01*
X53269D01*
Y253672D01*
X53217D01*
Y253568D01*
X53165D01*
Y253517D01*
X53113D01*
Y253465D01*
X53062D01*
Y253361D01*
X53010D01*
Y253309D01*
X52958D01*
Y253257D01*
X52906D01*
Y253154D01*
X52854D01*
Y253102D01*
X52803D01*
Y252947D01*
X52958D01*
Y252998D01*
X53113D01*
Y253050D01*
X53269D01*
Y253102D01*
X53424D01*
Y253154D01*
X53580D01*
Y253206D01*
X53735D01*
Y253257D01*
X53890D01*
Y253309D01*
X54046D01*
Y253361D01*
X54149D01*
Y253413D01*
X54305D01*
Y253465D01*
X54512D01*
Y253517D01*
X54667D01*
Y253568D01*
X54823D01*
Y253620D01*
X54978D01*
Y253672D01*
X55134D01*
Y253724D01*
X55289D01*
Y253776D01*
X55445D01*
Y253827D01*
X55548D01*
Y253879D01*
X55755D01*
Y253931D01*
X55911D01*
Y254190D01*
X55859D01*
Y254242D01*
X55807D01*
Y254294D01*
X55755D01*
Y254345D01*
X55704D01*
Y254449D01*
X55652D01*
Y254501D01*
X55600D01*
Y254553D01*
X55548D01*
Y254604D01*
X55496D01*
Y254708D01*
X55445D01*
Y254760D01*
X55393D01*
Y254812D01*
X55341D01*
Y254863D01*
X55289D01*
Y254915D01*
X55237D01*
Y255019D01*
X55186D01*
Y255071D01*
X55134D01*
Y255122D01*
X55082D01*
Y255174D01*
X55030D01*
Y255278D01*
X54978D01*
Y255330D01*
X54926D01*
Y255381D01*
X54875D01*
Y255433D01*
X54823D01*
Y255485D01*
D02*
G37*
G36*
X50679Y240721D02*
X45447D01*
Y237147D01*
X50679D01*
Y240721D01*
D02*
G37*
G36*
X41165Y267194D02*
X41137D01*
X41124D01*
X41116D01*
X41023Y267191D01*
X40937Y267184D01*
X40857Y267170D01*
X40781Y267153D01*
X40708Y267132D01*
X40642Y267111D01*
X40584Y267087D01*
X40532Y267062D01*
X40483Y267038D01*
X40442Y267014D01*
X40407Y266993D01*
X40376Y266973D01*
X40355Y266955D01*
X40338Y266941D01*
X40328Y266934D01*
X40324Y266931D01*
X40276Y266879D01*
X40231Y266827D01*
X40193Y266772D01*
X40162Y266717D01*
X40134Y266658D01*
X40110Y266602D01*
X40092Y266550D01*
X40075Y266498D01*
X40065Y266447D01*
X40054Y266402D01*
X40051Y266364D01*
X40044Y266329D01*
Y266298D01*
X40040Y266277D01*
Y266260D01*
X40044Y266184D01*
X40054Y266114D01*
X40068Y266045D01*
X40086Y265980D01*
X40106Y265921D01*
X40130Y265865D01*
X40155Y265813D01*
X40182Y265765D01*
X40210Y265723D01*
X40234Y265685D01*
X40258Y265654D01*
X40279Y265627D01*
X40297Y265606D01*
X40314Y265592D01*
X40321Y265582D01*
X40324Y265578D01*
X40380Y265530D01*
X40438Y265488D01*
X40501Y265450D01*
X40563Y265419D01*
X40625Y265395D01*
X40688Y265371D01*
X40746Y265353D01*
X40805Y265339D01*
X40857Y265329D01*
X40909Y265319D01*
X40954Y265312D01*
X40992Y265308D01*
X41023D01*
X41047Y265305D01*
X41065D01*
X41068D01*
X41162Y265308D01*
X41252Y265319D01*
X41335Y265333D01*
X41411Y265350D01*
X41487Y265371D01*
X41552Y265395D01*
X41615Y265423D01*
X41674Y265450D01*
X41722Y265474D01*
X41767Y265502D01*
X41805Y265526D01*
X41836Y265547D01*
X41864Y265564D01*
X41881Y265578D01*
X41892Y265589D01*
X41895Y265592D01*
X41950Y265647D01*
X42002Y265706D01*
X42044Y265762D01*
X42082Y265820D01*
X42113Y265879D01*
X42137Y265938D01*
X42158Y265990D01*
X42175Y266045D01*
X42189Y266094D01*
X42200Y266139D01*
X42206Y266177D01*
X42213Y266211D01*
Y266239D01*
X42217Y266260D01*
Y266277D01*
X42213Y266346D01*
X42203Y266412D01*
X42189Y266478D01*
X42172Y266537D01*
X42148Y266595D01*
X42123Y266647D01*
X42096Y266696D01*
X42068Y266741D01*
X42040Y266782D01*
X42013Y266820D01*
X41989Y266851D01*
X41964Y266876D01*
X41947Y266896D01*
X41933Y266910D01*
X41923Y266921D01*
X41919Y266924D01*
X41860Y266973D01*
X41798Y267014D01*
X41736Y267049D01*
X41670Y267080D01*
X41601Y267108D01*
X41535Y267128D01*
X41469Y267146D01*
X41407Y267159D01*
X41348Y267170D01*
X41293Y267180D01*
X41245Y267187D01*
X41200Y267191D01*
X41165Y267194D01*
D02*
G37*
G36*
X40369Y259776D02*
X40338D01*
X40310D01*
X40290D01*
X40272D01*
X40262D01*
X40258D01*
X40151D01*
X40047Y259772D01*
X39947Y259769D01*
X39854Y259765D01*
X39764Y259758D01*
X39677Y259752D01*
X39594Y259741D01*
X39518Y259734D01*
X39442Y259724D01*
X39373Y259710D01*
X39307Y259700D01*
X39245Y259689D01*
X39186Y259675D01*
X39134Y259662D01*
X39082Y259651D01*
X39034Y259637D01*
X38947Y259613D01*
X38878Y259585D01*
X38819Y259565D01*
X38771Y259544D01*
X38736Y259523D01*
X38712Y259509D01*
X38695Y259502D01*
X38691Y259499D01*
X38622Y259447D01*
X38563Y259392D01*
X38511Y259333D01*
X38466Y259278D01*
X38428Y259219D01*
X38397Y259163D01*
X38373Y259108D01*
X38352Y259056D01*
X38335Y259008D01*
X38324Y258963D01*
X38314Y258921D01*
X38311Y258887D01*
X38307Y258859D01*
X38304Y258838D01*
Y258821D01*
X38307Y258748D01*
X38321Y258676D01*
X38338Y258606D01*
X38366Y258544D01*
X38394Y258482D01*
X38425Y258426D01*
X38463Y258375D01*
X38497Y258330D01*
X38532Y258284D01*
X38570Y258250D01*
X38601Y258215D01*
X38632Y258188D01*
X38656Y258167D01*
X38674Y258153D01*
X38688Y258143D01*
X38691Y258139D01*
X38729Y258115D01*
X38774Y258091D01*
X38819Y258070D01*
X38871Y258049D01*
X38978Y258011D01*
X39099Y257980D01*
X39227Y257956D01*
X39359Y257932D01*
X39490Y257914D01*
X39622Y257900D01*
X39746Y257890D01*
X39864Y257880D01*
X39975Y257873D01*
X40023D01*
X40068Y257869D01*
X40110D01*
X40148D01*
X40179Y257866D01*
X40207D01*
X40231D01*
X40245D01*
X40255D01*
X40258D01*
X40366D01*
X40470Y257869D01*
X40570Y257873D01*
X40667Y257880D01*
X40757Y257887D01*
X40843Y257893D01*
X40926Y257904D01*
X41006Y257914D01*
X41082Y257925D01*
X41155Y257935D01*
X41224Y257949D01*
X41286Y257963D01*
X41348Y257973D01*
X41404Y257987D01*
X41459Y258001D01*
X41508Y258018D01*
X41598Y258046D01*
X41674Y258073D01*
X41736Y258098D01*
X41788Y258118D01*
X41826Y258139D01*
X41853Y258153D01*
X41871Y258163D01*
X41874Y258167D01*
X41933Y258215D01*
X41989Y258264D01*
X42033Y258316D01*
X42072Y258371D01*
X42106Y258423D01*
X42134Y258478D01*
X42154Y258530D01*
X42175Y258582D01*
X42189Y258630D01*
X42200Y258672D01*
X42206Y258714D01*
X42210Y258748D01*
X42213Y258776D01*
X42217Y258797D01*
Y258814D01*
X42213Y258890D01*
X42200Y258963D01*
X42182Y259028D01*
X42154Y259094D01*
X42127Y259156D01*
X42092Y259212D01*
X42058Y259264D01*
X42023Y259312D01*
X41985Y259354D01*
X41950Y259392D01*
X41916Y259423D01*
X41888Y259451D01*
X41860Y259471D01*
X41843Y259485D01*
X41829Y259495D01*
X41826Y259499D01*
X41788Y259523D01*
X41743Y259547D01*
X41698Y259568D01*
X41646Y259589D01*
X41539Y259627D01*
X41418Y259658D01*
X41289Y259686D01*
X41158Y259710D01*
X41027Y259727D01*
X40899Y259741D01*
X40771Y259752D01*
X40653Y259762D01*
X40546Y259769D01*
X40494D01*
X40449Y259772D01*
X40407D01*
X40369Y259776D01*
D02*
G37*
G36*
X40355Y251008D02*
X40328D01*
X40310D01*
X40303D01*
X40203Y251005D01*
X40106Y250998D01*
X40013Y250984D01*
X39919Y250967D01*
X39829Y250946D01*
X39746Y250922D01*
X39667Y250897D01*
X39591Y250873D01*
X39525Y250846D01*
X39463Y250821D01*
X39411Y250797D01*
X39366Y250776D01*
X39328Y250759D01*
X39300Y250745D01*
X39286Y250738D01*
X39279Y250735D01*
X39189Y250683D01*
X39106Y250624D01*
X39027Y250565D01*
X38954Y250503D01*
X38888Y250437D01*
X38823Y250375D01*
X38767Y250313D01*
X38715Y250254D01*
X38670Y250195D01*
X38629Y250143D01*
X38598Y250095D01*
X38570Y250053D01*
X38546Y250022D01*
X38532Y249994D01*
X38522Y249980D01*
X38518Y249974D01*
X38470Y249880D01*
X38428Y249790D01*
X38394Y249697D01*
X38362Y249607D01*
X38335Y249520D01*
X38314Y249437D01*
X38297Y249354D01*
X38283Y249282D01*
X38272Y249209D01*
X38262Y249147D01*
X38255Y249091D01*
X38252Y249043D01*
Y249005D01*
X38248Y248977D01*
Y248953D01*
X38252Y248852D01*
X38259Y248756D01*
X38272Y248662D01*
X38290Y248569D01*
X38311Y248479D01*
X38335Y248396D01*
X38359Y248316D01*
X38383Y248240D01*
X38407Y248174D01*
X38432Y248112D01*
X38456Y248060D01*
X38477Y248015D01*
X38494Y247977D01*
X38508Y247950D01*
X38515Y247936D01*
X38518Y247929D01*
X38573Y247839D01*
X38629Y247756D01*
X38691Y247676D01*
X38753Y247604D01*
X38816Y247538D01*
X38878Y247472D01*
X38940Y247417D01*
X39002Y247365D01*
X39058Y247320D01*
X39110Y247278D01*
X39158Y247247D01*
X39200Y247219D01*
X39231Y247195D01*
X39259Y247181D01*
X39272Y247171D01*
X39279Y247167D01*
X39373Y247119D01*
X39466Y247078D01*
X39556Y247043D01*
X39646Y247012D01*
X39736Y246984D01*
X39819Y246963D01*
X39899Y246946D01*
X39975Y246932D01*
X40047Y246922D01*
X40110Y246912D01*
X40165Y246905D01*
X40214Y246901D01*
X40251D01*
X40279Y246898D01*
X40297D01*
X40303D01*
X40404Y246901D01*
X40501Y246908D01*
X40598Y246922D01*
X40688Y246943D01*
X40778Y246963D01*
X40864Y246984D01*
X40944Y247012D01*
X41016Y247036D01*
X41085Y247060D01*
X41148Y247088D01*
X41200Y247109D01*
X41245Y247133D01*
X41283Y247150D01*
X41310Y247164D01*
X41324Y247171D01*
X41331Y247174D01*
X41421Y247230D01*
X41508Y247289D01*
X41587Y247347D01*
X41660Y247410D01*
X41729Y247476D01*
X41791Y247538D01*
X41850Y247604D01*
X41902Y247662D01*
X41947Y247721D01*
X41985Y247773D01*
X42020Y247821D01*
X42047Y247863D01*
X42068Y247894D01*
X42082Y247922D01*
X42092Y247936D01*
X42096Y247943D01*
X42144Y248036D01*
X42182Y248126D01*
X42220Y248219D01*
X42251Y248309D01*
X42276Y248396D01*
X42296Y248479D01*
X42314Y248558D01*
X42327Y248631D01*
X42341Y248700D01*
X42348Y248763D01*
X42355Y248818D01*
X42359Y248863D01*
X42362Y248901D01*
Y248953D01*
X42359Y249050D01*
X42352Y249143D01*
X42338Y249237D01*
X42321Y249327D01*
X42300Y249416D01*
X42279Y249500D01*
X42255Y249576D01*
X42231Y249648D01*
X42203Y249717D01*
X42179Y249776D01*
X42158Y249832D01*
X42137Y249877D01*
X42120Y249911D01*
X42106Y249939D01*
X42099Y249953D01*
X42096Y249960D01*
X42044Y250050D01*
X41985Y250136D01*
X41926Y250216D01*
X41864Y250288D01*
X41802Y250358D01*
X41736Y250420D01*
X41674Y250479D01*
X41615Y250531D01*
X41556Y250579D01*
X41504Y250617D01*
X41456Y250652D01*
X41414Y250679D01*
X41379Y250704D01*
X41352Y250717D01*
X41338Y250728D01*
X41331Y250731D01*
X41238Y250780D01*
X41144Y250821D01*
X41054Y250859D01*
X40961Y250890D01*
X40874Y250918D01*
X40788Y250942D01*
X40708Y250960D01*
X40632Y250974D01*
X40563Y250984D01*
X40497Y250994D01*
X40442Y251001D01*
X40393Y251005D01*
X40355Y251008D01*
D02*
G37*
%LPD*%
G36*
X39906Y249745D02*
X39854Y249731D01*
X39802Y249711D01*
X39708Y249669D01*
X39629Y249621D01*
X39563Y249569D01*
X39535Y249545D01*
X39511Y249524D01*
X39490Y249503D01*
X39473Y249486D01*
X39459Y249468D01*
X39449Y249458D01*
X39445Y249451D01*
X39442Y249448D01*
X39411Y249406D01*
X39386Y249361D01*
X39362Y249320D01*
X39345Y249275D01*
X39314Y249188D01*
X39293Y249109D01*
X39286Y249071D01*
X39283Y249036D01*
X39279Y249008D01*
X39276Y248981D01*
X39272Y248960D01*
Y248932D01*
X39276Y248866D01*
X39283Y248801D01*
X39297Y248742D01*
X39314Y248687D01*
X39331Y248635D01*
X39352Y248583D01*
X39376Y248538D01*
X39400Y248500D01*
X39425Y248462D01*
X39449Y248430D01*
X39470Y248403D01*
X39487Y248378D01*
X39504Y248361D01*
X39518Y248347D01*
X39525Y248341D01*
X39528Y248337D01*
X39580Y248295D01*
X39636Y248261D01*
X39694Y248230D01*
X39753Y248205D01*
X39819Y248181D01*
X39881Y248164D01*
X40002Y248136D01*
X40061Y248129D01*
X40113Y248123D01*
X40162Y248116D01*
X40203Y248112D01*
X40238Y248109D01*
X40265D01*
X40279D01*
X40286D01*
X40376Y248112D01*
X40463Y248119D01*
X40542Y248129D01*
X40615Y248147D01*
X40684Y248164D01*
X40750Y248185D01*
X40805Y248209D01*
X40857Y248230D01*
X40902Y248254D01*
X40944Y248275D01*
X40978Y248295D01*
X41006Y248313D01*
X41027Y248330D01*
X41040Y248341D01*
X41051Y248347D01*
X41054Y248351D01*
X41103Y248399D01*
X41144Y248448D01*
X41179Y248500D01*
X41210Y248552D01*
X41238Y248603D01*
X41258Y248655D01*
X41276Y248704D01*
X41289Y248752D01*
X41300Y248797D01*
X41310Y248839D01*
X41317Y248877D01*
X41321Y248908D01*
X41324Y248936D01*
Y248970D01*
X41317Y249064D01*
X41303Y249150D01*
X41283Y249226D01*
X41258Y249292D01*
X41234Y249347D01*
X41224Y249368D01*
X41213Y249385D01*
X41206Y249399D01*
X41200Y249413D01*
X41193Y249416D01*
Y249420D01*
X41141Y249489D01*
X41082Y249548D01*
X41020Y249600D01*
X40961Y249641D01*
X40905Y249673D01*
X40881Y249686D01*
X40864Y249697D01*
X40847Y249704D01*
X40833Y249711D01*
X40826Y249714D01*
X40822D01*
X40916Y250102D01*
X40982Y250081D01*
X41044Y250053D01*
X41099Y250026D01*
X41155Y249994D01*
X41203Y249963D01*
X41252Y249929D01*
X41293Y249898D01*
X41331Y249863D01*
X41366Y249832D01*
X41397Y249804D01*
X41421Y249776D01*
X41442Y249752D01*
X41459Y249735D01*
X41469Y249721D01*
X41476Y249711D01*
X41480Y249707D01*
X41518Y249652D01*
X41549Y249593D01*
X41577Y249534D01*
X41601Y249472D01*
X41622Y249413D01*
X41639Y249351D01*
X41663Y249237D01*
X41674Y249185D01*
X41680Y249136D01*
X41684Y249095D01*
X41687Y249057D01*
X41691Y249026D01*
Y248911D01*
X41684Y248842D01*
X41667Y248714D01*
X41653Y248652D01*
X41639Y248597D01*
X41625Y248541D01*
X41611Y248493D01*
X41594Y248448D01*
X41580Y248410D01*
X41566Y248375D01*
X41552Y248347D01*
X41542Y248323D01*
X41535Y248306D01*
X41532Y248295D01*
X41528Y248292D01*
X41497Y248237D01*
X41462Y248185D01*
X41383Y248091D01*
X41303Y248012D01*
X41265Y247977D01*
X41227Y247946D01*
X41189Y247918D01*
X41158Y247894D01*
X41127Y247877D01*
X41099Y247860D01*
X41078Y247846D01*
X41061Y247835D01*
X41051Y247832D01*
X41047Y247828D01*
X40985Y247801D01*
X40923Y247777D01*
X40795Y247735D01*
X40670Y247707D01*
X40611Y247693D01*
X40553Y247687D01*
X40501Y247680D01*
X40449Y247676D01*
X40407Y247669D01*
X40369D01*
X40338Y247666D01*
X40317D01*
X40300D01*
X40297D01*
X40175Y247669D01*
X40061Y247680D01*
X39957Y247700D01*
X39857Y247721D01*
X39764Y247749D01*
X39677Y247780D01*
X39601Y247811D01*
X39532Y247846D01*
X39470Y247877D01*
X39414Y247908D01*
X39369Y247939D01*
X39331Y247967D01*
X39300Y247991D01*
X39279Y248008D01*
X39265Y248019D01*
X39262Y248022D01*
X39196Y248091D01*
X39141Y248164D01*
X39089Y248244D01*
X39048Y248320D01*
X39013Y248399D01*
X38982Y248475D01*
X38958Y248552D01*
X38937Y248624D01*
X38923Y248693D01*
X38912Y248756D01*
X38902Y248811D01*
X38899Y248860D01*
X38895Y248901D01*
X38892Y248932D01*
Y248956D01*
X38895Y249039D01*
X38902Y249119D01*
X38912Y249195D01*
X38930Y249268D01*
X38947Y249337D01*
X38968Y249399D01*
X38992Y249458D01*
X39013Y249513D01*
X39037Y249562D01*
X39058Y249603D01*
X39079Y249641D01*
X39096Y249673D01*
X39113Y249697D01*
X39124Y249714D01*
X39130Y249725D01*
X39134Y249728D01*
X39182Y249787D01*
X39231Y249839D01*
X39283Y249884D01*
X39338Y249929D01*
X39393Y249967D01*
X39449Y250001D01*
X39501Y250029D01*
X39553Y250057D01*
X39601Y250081D01*
X39646Y250098D01*
X39684Y250112D01*
X39719Y250126D01*
X39750Y250136D01*
X39771Y250143D01*
X39784Y250147D01*
X39788D01*
X39906Y249745D01*
D02*
G37*
%LPC*%
G36*
X46717Y159245D02*
X46688D01*
X46674D01*
X46666D01*
X46568Y159241D01*
X46477Y159234D01*
X46393Y159220D01*
X46313Y159201D01*
X46237Y159180D01*
X46168Y159158D01*
X46106Y159132D01*
X46051Y159107D01*
X46000Y159081D01*
X45957Y159056D01*
X45920Y159034D01*
X45888Y159012D01*
X45866Y158994D01*
X45847Y158979D01*
X45836Y158972D01*
X45833Y158968D01*
X45782Y158914D01*
X45735Y158859D01*
X45695Y158801D01*
X45662Y158743D01*
X45633Y158681D01*
X45607Y158623D01*
X45589Y158568D01*
X45571Y158513D01*
X45560Y158459D01*
X45549Y158412D01*
X45545Y158371D01*
X45538Y158335D01*
Y158302D01*
X45534Y158281D01*
Y158262D01*
X45538Y158182D01*
X45549Y158109D01*
X45564Y158037D01*
X45582Y157967D01*
X45604Y157906D01*
X45629Y157847D01*
X45654Y157793D01*
X45684Y157742D01*
X45713Y157698D01*
X45738Y157658D01*
X45764Y157625D01*
X45786Y157596D01*
X45804Y157574D01*
X45822Y157560D01*
X45829Y157549D01*
X45833Y157545D01*
X45891Y157494D01*
X45953Y157451D01*
X46018Y157411D01*
X46084Y157378D01*
X46150Y157352D01*
X46215Y157327D01*
X46277Y157309D01*
X46339Y157294D01*
X46393Y157283D01*
X46448Y157272D01*
X46495Y157265D01*
X46535Y157261D01*
X46568D01*
X46594Y157258D01*
X46612D01*
X46615D01*
X46714Y157261D01*
X46808Y157272D01*
X46896Y157287D01*
X46976Y157305D01*
X47056Y157327D01*
X47125Y157352D01*
X47191Y157381D01*
X47253Y157411D01*
X47303Y157436D01*
X47351Y157465D01*
X47391Y157491D01*
X47424Y157512D01*
X47453Y157531D01*
X47471Y157545D01*
X47482Y157556D01*
X47485Y157560D01*
X47544Y157618D01*
X47598Y157680D01*
X47642Y157738D01*
X47682Y157800D01*
X47715Y157862D01*
X47740Y157924D01*
X47762Y157978D01*
X47780Y158037D01*
X47795Y158088D01*
X47806Y158135D01*
X47813Y158175D01*
X47820Y158211D01*
Y158240D01*
X47824Y158262D01*
Y158281D01*
X47820Y158353D01*
X47809Y158423D01*
X47795Y158492D01*
X47777Y158554D01*
X47751Y158615D01*
X47726Y158670D01*
X47697Y158721D01*
X47667Y158768D01*
X47638Y158812D01*
X47609Y158852D01*
X47584Y158885D01*
X47558Y158910D01*
X47540Y158932D01*
X47526Y158947D01*
X47515Y158958D01*
X47511Y158961D01*
X47449Y159012D01*
X47383Y159056D01*
X47318Y159092D01*
X47249Y159125D01*
X47176Y159154D01*
X47107Y159176D01*
X47038Y159194D01*
X46972Y159209D01*
X46910Y159220D01*
X46852Y159231D01*
X46801Y159238D01*
X46754Y159241D01*
X46717Y159245D01*
D02*
G37*
G36*
X45880Y151441D02*
X45847D01*
X45818D01*
X45796D01*
X45778D01*
X45767D01*
X45764D01*
X45651D01*
X45542Y151437D01*
X45436Y151434D01*
X45338Y151430D01*
X45243Y151423D01*
X45152Y151416D01*
X45065Y151405D01*
X44985Y151397D01*
X44905Y151386D01*
X44832Y151372D01*
X44763Y151361D01*
X44697Y151350D01*
X44635Y151335D01*
X44581Y151321D01*
X44526Y151310D01*
X44475Y151295D01*
X44384Y151270D01*
X44311Y151241D01*
X44249Y151219D01*
X44199Y151197D01*
X44162Y151175D01*
X44137Y151161D01*
X44118Y151153D01*
X44115Y151150D01*
X44042Y151095D01*
X43980Y151037D01*
X43925Y150975D01*
X43878Y150917D01*
X43838Y150855D01*
X43805Y150797D01*
X43780Y150738D01*
X43758Y150684D01*
X43740Y150633D01*
X43729Y150586D01*
X43718Y150542D01*
X43714Y150505D01*
X43711Y150476D01*
X43707Y150454D01*
Y150436D01*
X43711Y150360D01*
X43725Y150283D01*
X43744Y150211D01*
X43773Y150145D01*
X43802Y150080D01*
X43834Y150021D01*
X43874Y149967D01*
X43911Y149919D01*
X43947Y149872D01*
X43987Y149836D01*
X44020Y149799D01*
X44053Y149770D01*
X44078Y149748D01*
X44097Y149734D01*
X44111Y149723D01*
X44115Y149719D01*
X44155Y149694D01*
X44202Y149668D01*
X44249Y149646D01*
X44304Y149625D01*
X44417Y149585D01*
X44544Y149552D01*
X44679Y149526D01*
X44817Y149501D01*
X44956Y149483D01*
X45094Y149468D01*
X45225Y149457D01*
X45349Y149446D01*
X45465Y149439D01*
X45516D01*
X45564Y149435D01*
X45607D01*
X45647D01*
X45680Y149432D01*
X45709D01*
X45735D01*
X45749D01*
X45760D01*
X45764D01*
X45877D01*
X45986Y149435D01*
X46091Y149439D01*
X46193Y149446D01*
X46288Y149453D01*
X46379Y149461D01*
X46466Y149472D01*
X46550Y149483D01*
X46630Y149494D01*
X46707Y149504D01*
X46779Y149519D01*
X46845Y149534D01*
X46910Y149545D01*
X46968Y149559D01*
X47027Y149574D01*
X47078Y149592D01*
X47172Y149621D01*
X47253Y149650D01*
X47318Y149676D01*
X47373Y149697D01*
X47413Y149719D01*
X47442Y149734D01*
X47460Y149745D01*
X47464Y149748D01*
X47526Y149799D01*
X47584Y149850D01*
X47631Y149905D01*
X47671Y149963D01*
X47708Y150018D01*
X47737Y150076D01*
X47758Y150131D01*
X47780Y150185D01*
X47795Y150236D01*
X47806Y150280D01*
X47813Y150323D01*
X47817Y150360D01*
X47820Y150389D01*
X47824Y150411D01*
Y150429D01*
X47820Y150509D01*
X47806Y150586D01*
X47787Y150655D01*
X47758Y150724D01*
X47729Y150789D01*
X47693Y150848D01*
X47657Y150902D01*
X47620Y150953D01*
X47580Y150997D01*
X47544Y151037D01*
X47507Y151070D01*
X47478Y151099D01*
X47449Y151121D01*
X47431Y151135D01*
X47416Y151146D01*
X47413Y151150D01*
X47373Y151175D01*
X47325Y151201D01*
X47278Y151223D01*
X47223Y151244D01*
X47111Y151284D01*
X46983Y151317D01*
X46848Y151346D01*
X46710Y151372D01*
X46572Y151390D01*
X46437Y151405D01*
X46302Y151416D01*
X46179Y151426D01*
X46066Y151434D01*
X46011D01*
X45964Y151437D01*
X45920D01*
X45880Y151441D01*
D02*
G37*
G36*
X58153Y143342D02*
X58120D01*
X58091D01*
X58069D01*
X58051D01*
X58040D01*
X58036D01*
X57924D01*
X57814Y143338D01*
X57709Y143335D01*
X57610Y143331D01*
X57516Y143324D01*
X57425Y143316D01*
X57337Y143306D01*
X57257Y143298D01*
X57177Y143287D01*
X57104Y143273D01*
X57035Y143262D01*
X56970Y143251D01*
X56908Y143236D01*
X56853Y143222D01*
X56799Y143211D01*
X56748Y143196D01*
X56657Y143171D01*
X56584Y143142D01*
X56522Y143120D01*
X56471Y143098D01*
X56435Y143076D01*
X56409Y143062D01*
X56391Y143054D01*
X56387Y143051D01*
X56315Y142996D01*
X56253Y142938D01*
X56198Y142876D01*
X56151Y142818D01*
X56111Y142756D01*
X56078Y142698D01*
X56053Y142639D01*
X56031Y142585D01*
X56012Y142534D01*
X56002Y142487D01*
X55991Y142443D01*
X55987Y142406D01*
X55983Y142377D01*
X55980Y142356D01*
Y142337D01*
X55983Y142261D01*
X55998Y142184D01*
X56016Y142112D01*
X56045Y142046D01*
X56074Y141981D01*
X56107Y141922D01*
X56147Y141868D01*
X56184Y141820D01*
X56220Y141773D01*
X56260Y141737D01*
X56293Y141700D01*
X56326Y141671D01*
X56351Y141649D01*
X56369Y141635D01*
X56384Y141624D01*
X56387Y141620D01*
X56427Y141595D01*
X56475Y141569D01*
X56522Y141547D01*
X56577Y141526D01*
X56690Y141486D01*
X56817Y141453D01*
X56952Y141427D01*
X57090Y141402D01*
X57228Y141384D01*
X57367Y141369D01*
X57498Y141358D01*
X57621Y141347D01*
X57738Y141340D01*
X57789D01*
X57836Y141336D01*
X57880D01*
X57920D01*
X57953Y141333D01*
X57982D01*
X58007D01*
X58022D01*
X58033D01*
X58036D01*
X58149D01*
X58258Y141336D01*
X58364Y141340D01*
X58466Y141347D01*
X58561Y141355D01*
X58652Y141362D01*
X58739Y141373D01*
X58823Y141384D01*
X58903Y141395D01*
X58979Y141405D01*
X59052Y141420D01*
X59117Y141435D01*
X59183Y141446D01*
X59241Y141460D01*
X59299Y141475D01*
X59350Y141493D01*
X59445Y141522D01*
X59525Y141551D01*
X59591Y141577D01*
X59645Y141598D01*
X59685Y141620D01*
X59714Y141635D01*
X59733Y141646D01*
X59736Y141649D01*
X59798Y141700D01*
X59856Y141751D01*
X59904Y141806D01*
X59944Y141864D01*
X59980Y141919D01*
X60009Y141977D01*
X60031Y142032D01*
X60053Y142086D01*
X60067Y142137D01*
X60078Y142181D01*
X60086Y142225D01*
X60089Y142261D01*
X60093Y142290D01*
X60097Y142312D01*
Y142330D01*
X60093Y142410D01*
X60078Y142487D01*
X60060Y142556D01*
X60031Y142625D01*
X60002Y142690D01*
X59965Y142749D01*
X59929Y142803D01*
X59893Y142854D01*
X59853Y142898D01*
X59816Y142938D01*
X59780Y142971D01*
X59751Y143000D01*
X59722Y143022D01*
X59703Y143036D01*
X59689Y143047D01*
X59685Y143051D01*
X59645Y143076D01*
X59598Y143102D01*
X59551Y143124D01*
X59496Y143145D01*
X59383Y143185D01*
X59256Y143218D01*
X59121Y143247D01*
X58983Y143273D01*
X58844Y143291D01*
X58710Y143306D01*
X58575Y143316D01*
X58451Y143327D01*
X58338Y143335D01*
X58284D01*
X58236Y143338D01*
X58193D01*
X58153Y143342D01*
D02*
G37*
G36*
X45880Y141660D02*
X45847D01*
X45818D01*
X45796D01*
X45778D01*
X45767D01*
X45764D01*
X45651D01*
X45542Y141657D01*
X45436Y141653D01*
X45338Y141649D01*
X45243Y141642D01*
X45152Y141635D01*
X45065Y141624D01*
X44985Y141617D01*
X44905Y141606D01*
X44832Y141591D01*
X44763Y141580D01*
X44697Y141569D01*
X44635Y141555D01*
X44581Y141540D01*
X44526Y141529D01*
X44475Y141515D01*
X44384Y141489D01*
X44311Y141460D01*
X44249Y141438D01*
X44199Y141416D01*
X44162Y141395D01*
X44137Y141380D01*
X44118Y141373D01*
X44115Y141369D01*
X44042Y141314D01*
X43980Y141256D01*
X43925Y141194D01*
X43878Y141136D01*
X43838Y141074D01*
X43805Y141016D01*
X43780Y140958D01*
X43758Y140903D01*
X43740Y140852D01*
X43729Y140805D01*
X43718Y140761D01*
X43714Y140725D01*
X43711Y140696D01*
X43707Y140674D01*
Y140656D01*
X43711Y140579D01*
X43725Y140503D01*
X43744Y140430D01*
X43773Y140364D01*
X43802Y140299D01*
X43834Y140241D01*
X43874Y140186D01*
X43911Y140139D01*
X43947Y140091D01*
X43987Y140055D01*
X44020Y140019D01*
X44053Y139989D01*
X44078Y139968D01*
X44097Y139953D01*
X44111Y139942D01*
X44115Y139939D01*
X44155Y139913D01*
X44202Y139888D01*
X44249Y139866D01*
X44304Y139844D01*
X44417Y139804D01*
X44544Y139771D01*
X44679Y139746D01*
X44817Y139720D01*
X44956Y139702D01*
X45094Y139687D01*
X45225Y139676D01*
X45349Y139666D01*
X45465Y139658D01*
X45516D01*
X45564Y139655D01*
X45607D01*
X45647D01*
X45680Y139651D01*
X45709D01*
X45735D01*
X45749D01*
X45760D01*
X45764D01*
X45877D01*
X45986Y139655D01*
X46091Y139658D01*
X46193Y139666D01*
X46288Y139673D01*
X46379Y139680D01*
X46466Y139691D01*
X46550Y139702D01*
X46630Y139713D01*
X46707Y139724D01*
X46779Y139738D01*
X46845Y139753D01*
X46910Y139764D01*
X46968Y139778D01*
X47027Y139793D01*
X47078Y139811D01*
X47172Y139840D01*
X47253Y139869D01*
X47318Y139895D01*
X47373Y139917D01*
X47413Y139939D01*
X47442Y139953D01*
X47460Y139964D01*
X47464Y139968D01*
X47526Y140019D01*
X47584Y140070D01*
X47631Y140124D01*
X47671Y140182D01*
X47708Y140237D01*
X47737Y140295D01*
X47758Y140350D01*
X47780Y140404D01*
X47795Y140455D01*
X47806Y140499D01*
X47813Y140543D01*
X47817Y140579D01*
X47820Y140608D01*
X47824Y140630D01*
Y140648D01*
X47820Y140728D01*
X47806Y140805D01*
X47787Y140874D01*
X47758Y140943D01*
X47729Y141009D01*
X47693Y141067D01*
X47657Y141122D01*
X47620Y141173D01*
X47580Y141216D01*
X47544Y141256D01*
X47507Y141289D01*
X47478Y141318D01*
X47449Y141340D01*
X47431Y141355D01*
X47416Y141365D01*
X47413Y141369D01*
X47373Y141395D01*
X47325Y141420D01*
X47278Y141442D01*
X47223Y141464D01*
X47111Y141504D01*
X46983Y141536D01*
X46848Y141566D01*
X46710Y141591D01*
X46572Y141609D01*
X46437Y141624D01*
X46302Y141635D01*
X46179Y141646D01*
X46066Y141653D01*
X46011D01*
X45964Y141657D01*
X45920D01*
X45880Y141660D01*
D02*
G37*
G36*
X51299Y128418D02*
X51278D01*
X51274D01*
X51270D01*
X51139Y128414D01*
X51019Y128403D01*
X50906Y128389D01*
X50801Y128371D01*
X50706Y128349D01*
X50619Y128320D01*
X50539Y128294D01*
X50469Y128265D01*
X50408Y128236D01*
X50353Y128210D01*
X50306Y128185D01*
X50269Y128159D01*
X50240Y128141D01*
X50222Y128127D01*
X50207Y128116D01*
X50204Y128112D01*
X50142Y128054D01*
X50087Y127992D01*
X50044Y127927D01*
X50004Y127865D01*
X49967Y127799D01*
X49938Y127734D01*
X49916Y127672D01*
X49898Y127613D01*
X49883Y127559D01*
X49872Y127508D01*
X49865Y127461D01*
X49862Y127421D01*
X49858Y127388D01*
X49854Y127366D01*
Y127344D01*
X49858Y127260D01*
X49869Y127180D01*
X49887Y127100D01*
X49909Y127027D01*
X49934Y126962D01*
X49964Y126896D01*
X49996Y126838D01*
X50029Y126787D01*
X50058Y126740D01*
X50091Y126696D01*
X50120Y126660D01*
X50146Y126631D01*
X50167Y126609D01*
X50186Y126591D01*
X50196Y126580D01*
X50200Y126576D01*
X50269Y126522D01*
X50346Y126478D01*
X50426Y126438D01*
X50513Y126401D01*
X50597Y126372D01*
X50684Y126347D01*
X50772Y126329D01*
X50855Y126310D01*
X50935Y126300D01*
X51008Y126289D01*
X51077Y126285D01*
X51136Y126278D01*
X51183D01*
X51219Y126274D01*
X51230D01*
X51241D01*
X51245D01*
X51249D01*
X51376Y126278D01*
X51492Y126289D01*
X51605Y126303D01*
X51707Y126321D01*
X51802Y126343D01*
X51885Y126369D01*
X51962Y126398D01*
X52035Y126427D01*
X52093Y126452D01*
X52148Y126481D01*
X52191Y126507D01*
X52228Y126529D01*
X52257Y126547D01*
X52279Y126562D01*
X52289Y126573D01*
X52293Y126576D01*
X52355Y126634D01*
X52410Y126696D01*
X52457Y126762D01*
X52497Y126824D01*
X52530Y126889D01*
X52559Y126955D01*
X52581Y127017D01*
X52599Y127075D01*
X52614Y127129D01*
X52624Y127180D01*
X52632Y127228D01*
X52639Y127268D01*
Y127301D01*
X52643Y127322D01*
Y127344D01*
X52639Y127428D01*
X52628Y127508D01*
X52610Y127584D01*
X52588Y127657D01*
X52562Y127726D01*
X52533Y127788D01*
X52501Y127847D01*
X52468Y127897D01*
X52435Y127945D01*
X52402Y127988D01*
X52373Y128025D01*
X52348Y128054D01*
X52326Y128076D01*
X52308Y128094D01*
X52297Y128105D01*
X52293Y128109D01*
X52224Y128163D01*
X52148Y128210D01*
X52068Y128251D01*
X51987Y128287D01*
X51900Y128316D01*
X51816Y128341D01*
X51733Y128363D01*
X51652Y128378D01*
X51572Y128393D01*
X51503Y128403D01*
X51438Y128407D01*
X51380Y128414D01*
X51336D01*
X51299Y128418D01*
D02*
G37*
G36*
X57428Y125815D02*
X57407D01*
X57403D01*
X57399D01*
X57268Y125812D01*
X57148Y125801D01*
X57035Y125786D01*
X56930Y125768D01*
X56835Y125746D01*
X56748Y125717D01*
X56668Y125692D01*
X56599Y125663D01*
X56537Y125633D01*
X56482Y125608D01*
X56435Y125582D01*
X56398Y125557D01*
X56369Y125539D01*
X56351Y125524D01*
X56336Y125513D01*
X56333Y125510D01*
X56271Y125451D01*
X56216Y125390D01*
X56173Y125324D01*
X56133Y125262D01*
X56096Y125197D01*
X56067Y125131D01*
X56045Y125069D01*
X56027Y125011D01*
X56012Y124956D01*
X56002Y124905D01*
X55994Y124858D01*
X55991Y124818D01*
X55987Y124785D01*
X55983Y124763D01*
Y124742D01*
X55987Y124658D01*
X55998Y124578D01*
X56016Y124498D01*
X56038Y124425D01*
X56063Y124359D01*
X56093Y124294D01*
X56125Y124236D01*
X56158Y124185D01*
X56187Y124137D01*
X56220Y124094D01*
X56249Y124057D01*
X56275Y124028D01*
X56296Y124006D01*
X56315Y123988D01*
X56326Y123977D01*
X56329Y123974D01*
X56398Y123919D01*
X56475Y123875D01*
X56555Y123835D01*
X56642Y123799D01*
X56726Y123770D01*
X56813Y123744D01*
X56901Y123726D01*
X56984Y123708D01*
X57064Y123697D01*
X57137Y123686D01*
X57206Y123682D01*
X57265Y123675D01*
X57312D01*
X57348Y123671D01*
X57359D01*
X57370D01*
X57374D01*
X57377D01*
X57505Y123675D01*
X57621Y123686D01*
X57734Y123700D01*
X57836Y123719D01*
X57931Y123741D01*
X58015Y123766D01*
X58091Y123795D01*
X58164Y123824D01*
X58222Y123850D01*
X58277Y123879D01*
X58320Y123904D01*
X58357Y123926D01*
X58386Y123944D01*
X58408Y123959D01*
X58419Y123970D01*
X58422Y123974D01*
X58484Y124032D01*
X58539Y124094D01*
X58586Y124159D01*
X58626Y124221D01*
X58659Y124287D01*
X58688Y124352D01*
X58710Y124414D01*
X58728Y124472D01*
X58742Y124527D01*
X58753Y124578D01*
X58761Y124625D01*
X58768Y124665D01*
Y124698D01*
X58772Y124720D01*
Y124742D01*
X58768Y124825D01*
X58757Y124905D01*
X58739Y124982D01*
X58717Y125055D01*
X58692Y125124D01*
X58662Y125186D01*
X58630Y125244D01*
X58597Y125295D01*
X58564Y125342D01*
X58531Y125386D01*
X58502Y125422D01*
X58477Y125451D01*
X58455Y125473D01*
X58437Y125491D01*
X58426Y125502D01*
X58422Y125506D01*
X58353Y125561D01*
X58277Y125608D01*
X58197Y125648D01*
X58116Y125684D01*
X58029Y125713D01*
X57945Y125739D01*
X57862Y125761D01*
X57781Y125775D01*
X57701Y125790D01*
X57632Y125801D01*
X57567Y125804D01*
X57508Y125812D01*
X57465D01*
X57428Y125815D01*
D02*
G37*
G36*
X45462Y120177D02*
X45458D01*
Y118135D01*
X45545Y118142D01*
X45625Y118157D01*
X45706Y118175D01*
X45775Y118197D01*
X45844Y118222D01*
X45906Y118248D01*
X45964Y118277D01*
X46015Y118306D01*
X46059Y118335D01*
X46099Y118361D01*
X46135Y118386D01*
X46164Y118408D01*
X46186Y118430D01*
X46200Y118444D01*
X46211Y118452D01*
X46215Y118455D01*
X46266Y118510D01*
X46310Y118568D01*
X46350Y118630D01*
X46382Y118692D01*
X46408Y118750D01*
X46433Y118812D01*
X46452Y118867D01*
X46466Y118925D01*
X46477Y118976D01*
X46488Y119023D01*
X46495Y119063D01*
X46499Y119103D01*
X46503Y119132D01*
Y119172D01*
X46499Y119260D01*
X46488Y119340D01*
X46470Y119420D01*
X46448Y119493D01*
X46419Y119562D01*
X46390Y119624D01*
X46357Y119682D01*
X46324Y119733D01*
X46292Y119780D01*
X46259Y119824D01*
X46230Y119857D01*
X46200Y119886D01*
X46179Y119911D01*
X46161Y119926D01*
X46150Y119937D01*
X46146Y119940D01*
X46102Y119973D01*
X46051Y120006D01*
X45942Y120061D01*
X45829Y120101D01*
X45716Y120130D01*
X45665Y120144D01*
X45614Y120151D01*
X45571Y120162D01*
X45534Y120166D01*
X45502Y120173D01*
X45480D01*
X45462Y120177D01*
D02*
G37*
G36*
X57734Y114433D02*
X57731D01*
Y112391D01*
X57818Y112398D01*
X57898Y112413D01*
X57978Y112431D01*
X58047Y112453D01*
X58116Y112478D01*
X58178Y112504D01*
X58236Y112533D01*
X58288Y112562D01*
X58331Y112591D01*
X58371Y112617D01*
X58408Y112642D01*
X58437Y112664D01*
X58459Y112686D01*
X58473Y112700D01*
X58484Y112708D01*
X58488Y112711D01*
X58539Y112766D01*
X58582Y112824D01*
X58622Y112886D01*
X58655Y112948D01*
X58681Y113006D01*
X58706Y113068D01*
X58724Y113123D01*
X58739Y113181D01*
X58750Y113232D01*
X58761Y113279D01*
X58768Y113319D01*
X58772Y113359D01*
X58775Y113388D01*
Y113428D01*
X58772Y113516D01*
X58761Y113596D01*
X58742Y113676D01*
X58721Y113749D01*
X58692Y113818D01*
X58662Y113880D01*
X58630Y113938D01*
X58597Y113989D01*
X58564Y114036D01*
X58531Y114080D01*
X58502Y114113D01*
X58473Y114142D01*
X58451Y114167D01*
X58433Y114182D01*
X58422Y114193D01*
X58419Y114197D01*
X58375Y114229D01*
X58324Y114262D01*
X58215Y114317D01*
X58102Y114357D01*
X57989Y114386D01*
X57938Y114400D01*
X57887Y114408D01*
X57843Y114418D01*
X57807Y114422D01*
X57774Y114429D01*
X57752D01*
X57734Y114433D01*
D02*
G37*
G36*
X51605Y114298D02*
X51601D01*
Y112256D01*
X51689Y112264D01*
X51769Y112278D01*
X51849Y112296D01*
X51918Y112318D01*
X51987Y112344D01*
X52049Y112369D01*
X52108Y112398D01*
X52158Y112427D01*
X52202Y112457D01*
X52242Y112482D01*
X52279Y112507D01*
X52308Y112529D01*
X52329Y112551D01*
X52344Y112566D01*
X52355Y112573D01*
X52359Y112577D01*
X52410Y112631D01*
X52453Y112689D01*
X52493Y112751D01*
X52526Y112813D01*
X52552Y112872D01*
X52577Y112933D01*
X52595Y112988D01*
X52610Y113046D01*
X52621Y113097D01*
X52632Y113145D01*
X52639Y113185D01*
X52643Y113225D01*
X52646Y113254D01*
Y113294D01*
X52643Y113381D01*
X52632Y113461D01*
X52614Y113541D01*
X52592Y113614D01*
X52562Y113683D01*
X52533Y113745D01*
X52501Y113803D01*
X52468Y113854D01*
X52435Y113902D01*
X52402Y113945D01*
X52373Y113978D01*
X52344Y114007D01*
X52322Y114033D01*
X52304Y114047D01*
X52293Y114058D01*
X52289Y114062D01*
X52246Y114095D01*
X52195Y114127D01*
X52086Y114182D01*
X51973Y114222D01*
X51860Y114251D01*
X51809Y114266D01*
X51758Y114273D01*
X51714Y114284D01*
X51678Y114287D01*
X51645Y114295D01*
X51623D01*
X51605Y114298D01*
D02*
G37*
G36*
X45112Y114131D02*
X44883D01*
X44810D01*
X44741Y114127D01*
X44675Y114120D01*
X44614Y114116D01*
X44559Y114109D01*
X44508Y114098D01*
X44464Y114091D01*
X44424Y114080D01*
X44388Y114069D01*
X44355Y114062D01*
X44330Y114055D01*
X44308Y114044D01*
X44289Y114040D01*
X44279Y114033D01*
X44271Y114029D01*
X44268D01*
X44169Y113974D01*
X44086Y113909D01*
X44013Y113843D01*
X43951Y113778D01*
X43904Y113716D01*
X43882Y113690D01*
X43867Y113665D01*
X43853Y113647D01*
X43845Y113632D01*
X43842Y113625D01*
X43838Y113621D01*
X43787Y113516D01*
X43751Y113407D01*
X43722Y113297D01*
X43703Y113199D01*
X43700Y113155D01*
X43692Y113112D01*
X43689Y113075D01*
Y113046D01*
X43685Y113021D01*
Y112984D01*
X43689Y112919D01*
X43692Y112857D01*
X43700Y112799D01*
X43711Y112748D01*
X43722Y112697D01*
X43736Y112653D01*
X43751Y112613D01*
X43769Y112577D01*
X43784Y112544D01*
X43798Y112515D01*
X43813Y112493D01*
X43824Y112475D01*
X43834Y112457D01*
X43842Y112446D01*
X43849Y112442D01*
Y112438D01*
X43882Y112406D01*
X43915Y112376D01*
X43947Y112351D01*
X43984Y112333D01*
X44053Y112296D01*
X44115Y112275D01*
X44173Y112264D01*
X44199Y112260D01*
X44220Y112256D01*
X44235Y112253D01*
X44249D01*
X44257D01*
X44260D01*
X44319Y112256D01*
X44373Y112267D01*
X44424Y112278D01*
X44468Y112296D01*
X44501Y112311D01*
X44530Y112322D01*
X44544Y112333D01*
X44552Y112336D01*
X44599Y112373D01*
X44639Y112413D01*
X44675Y112453D01*
X44701Y112493D01*
X44723Y112526D01*
X44741Y112555D01*
X44748Y112573D01*
X44752Y112580D01*
X44766Y112613D01*
X44777Y112650D01*
X44799Y112730D01*
X44821Y112821D01*
X44839Y112908D01*
X44854Y112992D01*
X44861Y113024D01*
X44865Y113057D01*
X44872Y113083D01*
Y113101D01*
X44875Y113115D01*
Y113119D01*
X44894Y113243D01*
X44916Y113356D01*
X44934Y113461D01*
X44956Y113563D01*
X44974Y113651D01*
X44992Y113734D01*
X45014Y113811D01*
X45032Y113876D01*
X45047Y113938D01*
X45065Y113989D01*
X45076Y114033D01*
X45090Y114069D01*
X45098Y114095D01*
X45105Y114116D01*
X45112Y114127D01*
Y114131D01*
D02*
G37*
G36*
X45913Y110276D02*
X45891D01*
X45873D01*
X45855D01*
X45844D01*
X45840D01*
X45836D01*
X45731D01*
X45629Y110269D01*
X45534Y110265D01*
X45443Y110254D01*
X45360Y110243D01*
X45280Y110232D01*
X45203Y110222D01*
X45138Y110211D01*
X45076Y110196D01*
X45021Y110185D01*
X44974Y110174D01*
X44937Y110163D01*
X44905Y110152D01*
X44883Y110149D01*
X44868Y110142D01*
X44865D01*
X44792Y110116D01*
X44723Y110087D01*
X44657Y110058D01*
X44595Y110029D01*
X44541Y110000D01*
X44486Y109967D01*
X44439Y109938D01*
X44395Y109909D01*
X44359Y109879D01*
X44322Y109854D01*
X44293Y109832D01*
X44271Y109814D01*
X44253Y109796D01*
X44238Y109785D01*
X44231Y109777D01*
X44228Y109774D01*
X44169Y109705D01*
X44115Y109632D01*
X44071Y109555D01*
X44035Y109483D01*
X44006Y109417D01*
X43991Y109392D01*
X43984Y109366D01*
X43977Y109348D01*
X43969Y109330D01*
X43966Y109323D01*
Y109319D01*
X43951Y109264D01*
X43936Y109206D01*
X43915Y109079D01*
X43896Y108948D01*
X43885Y108824D01*
X43882Y108766D01*
X43878Y108711D01*
Y108664D01*
X43874Y108624D01*
Y107466D01*
X47726D01*
Y108631D01*
X47722Y108729D01*
X47715Y108820D01*
X47711Y108908D01*
X47700Y108984D01*
X47693Y109057D01*
X47682Y109119D01*
X47675Y109177D01*
X47664Y109224D01*
X47653Y109268D01*
X47646Y109304D01*
X47638Y109333D01*
X47631Y109355D01*
X47624Y109373D01*
X47620Y109381D01*
Y109384D01*
X47591Y109454D01*
X47555Y109519D01*
X47515Y109581D01*
X47471Y109639D01*
X47424Y109694D01*
X47376Y109748D01*
X47329Y109796D01*
X47282Y109839D01*
X47234Y109879D01*
X47191Y109912D01*
X47150Y109941D01*
X47118Y109967D01*
X47089Y109989D01*
X47067Y110003D01*
X47052Y110011D01*
X47049Y110014D01*
X46965Y110061D01*
X46874Y110101D01*
X46779Y110134D01*
X46681Y110167D01*
X46579Y110193D01*
X46481Y110211D01*
X46379Y110229D01*
X46284Y110243D01*
X46193Y110254D01*
X46110Y110262D01*
X46033Y110269D01*
X45968Y110273D01*
X45913Y110276D01*
D02*
G37*
G36*
X53119Y110138D02*
X53101D01*
X53090D01*
X53087D01*
X52996Y110131D01*
X52912Y110116D01*
X52836Y110094D01*
X52770Y110072D01*
X52715Y110047D01*
X52690Y110036D01*
X52672Y110025D01*
X52657Y110014D01*
X52646Y110011D01*
X52639Y110003D01*
X52635D01*
X52562Y109949D01*
X52501Y109887D01*
X52450Y109821D01*
X52406Y109756D01*
X52373Y109697D01*
X52362Y109676D01*
X52351Y109654D01*
X52344Y109636D01*
X52337Y109621D01*
X52333Y109614D01*
Y109610D01*
X52319Y109559D01*
X52304Y109508D01*
X52282Y109392D01*
X52264Y109272D01*
X52253Y109159D01*
X52249Y109104D01*
X52246Y109057D01*
Y109010D01*
X52242Y108973D01*
Y107466D01*
X53906D01*
Y109057D01*
X53902Y109159D01*
X53895Y109253D01*
X53884Y109341D01*
X53869Y109421D01*
X53851Y109494D01*
X53833Y109563D01*
X53811Y109625D01*
X53789Y109676D01*
X53767Y109723D01*
X53746Y109763D01*
X53727Y109799D01*
X53709Y109828D01*
X53694Y109847D01*
X53684Y109865D01*
X53676Y109872D01*
X53673Y109876D01*
X53629Y109923D01*
X53582Y109963D01*
X53534Y109996D01*
X53483Y110029D01*
X53436Y110054D01*
X53385Y110072D01*
X53338Y110091D01*
X53294Y110105D01*
X53250Y110116D01*
X53210Y110123D01*
X53178Y110131D01*
X53145Y110134D01*
X53119Y110138D01*
D02*
G37*
%LPD*%
D10*
X85090Y100100D02*
Y290100D01*
X75090Y100100D02*
Y290100D01*
X85100Y290109D02*
Y300109D01*
X75100Y290109D02*
Y300109D01*
X75090Y100100D02*
X85090D01*
X75100Y290109D02*
X85100D01*
X75100Y300109D02*
X85100D01*
X25090Y100100D02*
Y290100D01*
X15090Y100100D02*
Y290100D01*
X25100Y290109D02*
Y300109D01*
X15100Y290109D02*
Y300109D01*
X15090Y100100D02*
X25090D01*
X15100Y290109D02*
X25100D01*
X15100Y300109D02*
X25100D01*
M02*
